<?xml version="1.0" encoding="utf-8"?>
<!-- Generator: Adobe Illustrator 22.0.0, SVG Export Plug-In . SVG Version: 6.00 Build 0)  -->
<svg version="1.1" id="Layer_1" xmlns="http://www.w3.org/2000/svg" xmlns:xlink="http://www.w3.org/1999/xlink" x="0px" y="0px"
	 viewBox="0 0 1080 975.3" style="enable-background:new 0 0 1080 975.3;" xml:space="preserve">
<style type="text/css">
	.st0{fill:none;stroke:#333333;stroke-width:5.0031;stroke-miterlimit:10;}
	.st1{fill:#333333;}
	.st2{fill:#2B2823;}
	.st3{fill:#262626;}
	.st4{fill:#8F8F8F;}
	.st5{fill:#6B5E33;}
	.st6{fill:#D4D4D4;}
	.st7{fill:#404040;}
	.st8{fill:#EBEBEB;}
	.st9{fill:#A1A1A1;}
	.st10{fill:#FFFFFF;}
	.st11{fill:#DBDBDB;}
	.st12{fill:url(#SVGID_1_);}
	.st13{fill:url(#SVGID_2_);}
	.st14{fill:#F2F2F2;}
</style>
<g>
	<g>
		<g>
			<path class="st0" d="M430.3,158.9c53.9-16,172.3-43.1,282.7,13.5"/>
			<g>
				<polygon class="st1" points="728.4,180.9 701.7,178 711.7,171.9 711.4,160.1 				"/>
			</g>
		</g>
	</g>
	<g>
		<g>
			<path class="st0" d="M201,546.4c-20.1-97.2,24.8-208.2,85.8-284.1"/>
			<g>
				<polygon class="st1" points="298.1,248.8 290,274.4 286,263.4 274.4,261.4 				"/>
			</g>
		</g>
	</g>
	<g>
		<g>
			<path class="st0" d="M452,840.3c-75-23.7-171.8-88.1-213.6-175.8"/>
			<g>
				<polygon class="st1" points="231.5,648.3 250.7,667 239.1,665.7 232.1,675.2 				"/>
			</g>
		</g>
	</g>
	<g>
		<g>
			<path class="st0" d="M881.2,654.4c-72.9,122.1-143.9,163.1-222.9,187.4"/>
			<g>
				<polygon class="st1" points="641.4,846.8 662.4,830 659.6,841.4 668.1,849.5 				"/>
			</g>
		</g>
	</g>
	<g>
		<g>
			<path class="st0" d="M823.8,251.6c72,90.1,104,170.6,91.3,289.2"/>
			<g>
				<polygon class="st1" points="913,558.3 905.8,532.4 915.2,539.4 926,534.8 				"/>
			</g>
		</g>
	</g>
	<g>
		<g>
			<path class="st2" d="M248.1,176.4c1.4-0.2,3.2-0.4,5.5-0.4c2.8,0,4.9,0.7,6.2,1.8c1.2,1,1.9,2.7,1.9,4.6c0,2-0.6,3.6-1.7,4.7
				c-1.5,1.6-4,2.4-6.7,2.4c-0.9,0-1.6,0-2.3-0.2v8.8h-2.8V176.4z M250.9,187c0.6,0.2,1.4,0.2,2.4,0.2c3.4,0,5.5-1.7,5.5-4.7
				c0-2.9-2.1-4.3-5.2-4.3c-1.2,0-2.2,0.1-2.7,0.2V187z"/>
			<path class="st2" d="M279.6,190.1c0,5.9-4.1,8.4-7.9,8.4c-4.3,0-7.6-3.1-7.6-8.2c0-5.3,3.5-8.4,7.9-8.4
				C276.5,182,279.6,185.3,279.6,190.1z M267,190.3c0,3.5,2,6.1,4.8,6.1c2.8,0,4.8-2.6,4.8-6.2c0-2.7-1.3-6.1-4.7-6.1
				C268.5,184.1,267,187.3,267,190.3z"/>
			<path class="st2" d="M283.5,195.2c0.9,0.6,2.4,1.1,3.8,1.1c2.1,0,3.1-1,3.1-2.4c0-1.4-0.8-2.1-2.9-2.9c-2.8-1-4.2-2.6-4.2-4.5
				c0-2.6,2.1-4.6,5.5-4.6c1.6,0,3,0.5,3.9,1l-0.7,2.1c-0.6-0.4-1.8-0.9-3.2-0.9c-1.7,0-2.7,1-2.7,2.2c0,1.3,0.9,1.9,3,2.7
				c2.8,1,4.2,2.4,4.2,4.8c0,2.8-2.2,4.7-5.9,4.7c-1.7,0-3.3-0.4-4.5-1.1L283.5,195.2z"/>
			<path class="st2" d="M300.7,177.9c0,1-0.7,1.8-1.8,1.8c-1,0-1.7-0.8-1.7-1.8c0-1,0.8-1.8,1.8-1.8
				C300,176.1,300.7,176.9,300.7,177.9z M297.5,198.2v-15.8h2.9v15.8H297.5z"/>
			<path class="st2" d="M305.7,198.2c0.1-1.1,0.1-2.7,0.1-4.1v-19.2h2.8v10h0.1c1-1.8,2.8-2.9,5.4-2.9c3.9,0,6.7,3.3,6.7,8.1
				c0,5.7-3.6,8.5-7.1,8.5c-2.3,0-4.1-0.9-5.3-3h-0.1l-0.1,2.6H305.7z M308.7,191.8c0,0.4,0.1,0.7,0.1,1c0.6,2,2.2,3.4,4.3,3.4
				c3,0,4.8-2.5,4.8-6.1c0-3.2-1.6-5.9-4.7-5.9c-2,0-3.8,1.3-4.4,3.5c-0.1,0.3-0.2,0.7-0.2,1.2V191.8z"/>
			<path class="st2" d="M328.3,177.9c0,1-0.7,1.8-1.8,1.8c-1,0-1.7-0.8-1.7-1.8c0-1,0.8-1.8,1.8-1.8
				C327.6,176.1,328.3,176.9,328.3,177.9z M325.1,198.2v-15.8h2.9v15.8H325.1z"/>
			<path class="st2" d="M333.4,174.9h2.9v23.2h-2.9V174.9z"/>
			<path class="st2" d="M345,177.9c0,1-0.7,1.8-1.8,1.8c-1,0-1.7-0.8-1.7-1.8c0-1,0.8-1.8,1.8-1.8C344.3,176.1,345,176.9,345,177.9z
				 M341.8,198.2v-15.8h2.9v15.8H341.8z"/>
			<path class="st2" d="M363.8,174.9v19.2c0,1.4,0,3,0.1,4.1h-2.6l-0.1-2.8h-0.1c-0.9,1.8-2.8,3.1-5.4,3.1c-3.8,0-6.8-3.2-6.8-8.1
				c0-5.3,3.2-8.5,7.1-8.5c2.4,0,4.1,1.1,4.8,2.4h0.1v-9.5H363.8z M360.9,188.8c0-0.4,0-0.9-0.1-1.2c-0.4-1.8-2-3.3-4.2-3.3
				c-3,0-4.7,2.6-4.7,6.1c0,3.2,1.6,5.9,4.7,5.9c1.9,0,3.7-1.3,4.2-3.4c0.1-0.4,0.1-0.8,0.1-1.2V188.8z"/>
			<path class="st2" d="M378,198.2l-0.2-2h-0.1c-0.9,1.2-2.6,2.4-4.8,2.4c-3.2,0-4.8-2.3-4.8-4.6c0-3.8,3.4-5.9,9.5-5.9v-0.3
				c0-1.3-0.4-3.7-3.6-3.7c-1.5,0-3,0.5-4.1,1.2l-0.7-1.9c1.3-0.9,3.2-1.4,5.2-1.4c4.8,0,6,3.3,6,6.5v5.9c0,1.4,0.1,2.7,0.3,3.8H378
				z M377.6,190.1c-3.1-0.1-6.7,0.5-6.7,3.6c0,1.9,1.2,2.8,2.7,2.8c2.1,0,3.4-1.3,3.8-2.7c0.1-0.3,0.2-0.6,0.2-0.9V190.1z"/>
			<path class="st2" d="M399.4,174.9v19.2c0,1.4,0,3,0.1,4.1h-2.6l-0.1-2.8h-0.1c-0.9,1.8-2.8,3.1-5.4,3.1c-3.8,0-6.8-3.2-6.8-8.1
				c0-5.3,3.2-8.5,7.1-8.5c2.4,0,4.1,1.1,4.8,2.4h0.1v-9.5H399.4z M396.5,188.8c0-0.4,0-0.9-0.1-1.2c-0.4-1.8-2-3.3-4.2-3.3
				c-3,0-4.7,2.6-4.7,6.1c0,3.2,1.6,5.9,4.7,5.9c1.9,0,3.7-1.3,4.2-3.4c0.1-0.4,0.1-0.8,0.1-1.2V188.8z"/>
			<path class="st2" d="M426.1,174.9v19.2c0,1.4,0,3,0.1,4.1h-2.6l-0.1-2.8h-0.1c-0.9,1.8-2.8,3.1-5.4,3.1c-3.8,0-6.8-3.2-6.8-8.1
				c0-5.3,3.2-8.5,7.1-8.5c2.4,0,4.1,1.1,4.8,2.4h0.1v-9.5H426.1z M423.2,188.8c0-0.4,0-0.9-0.1-1.2c-0.4-1.8-2-3.3-4.2-3.3
				c-3,0-4.7,2.6-4.7,6.1c0,3.2,1.6,5.9,4.7,5.9c1.9,0,3.7-1.3,4.2-3.4c0.1-0.4,0.1-0.8,0.1-1.2V188.8z"/>
			<path class="st2" d="M433.2,190.8c0.1,3.9,2.6,5.5,5.4,5.5c2.1,0,3.3-0.4,4.4-0.8l0.5,2.1c-1,0.5-2.8,1-5.3,1
				c-4.9,0-7.8-3.2-7.8-8c0-4.8,2.8-8.5,7.4-8.5c5.2,0,6.5,4.6,6.5,7.5c0,0.6-0.1,1-0.1,1.3H433.2z M441.6,188.7
				c0-1.8-0.8-4.7-4-4.7c-2.9,0-4.2,2.7-4.4,4.7H441.6z"/>
			<path class="st2" d="M149.7,234.2v-13.7h-2.2v-2.2h2.2v-0.8c0-2.2,0.5-4.3,1.8-5.5c1.1-1,2.5-1.5,3.9-1.5c1,0,1.9,0.2,2.5,0.5
				l-0.4,2.2c-0.4-0.2-1-0.4-1.8-0.4c-2.5,0-3.1,2.2-3.1,4.6v0.9h3.8v2.2h-3.8v13.7H149.7z"/>
			<path class="st2" d="M172.9,229.8c0,1.6,0,3.1,0.1,4.3h-2.6l-0.2-2.6h-0.1c-0.8,1.3-2.4,2.9-5.2,2.9c-2.5,0-5.5-1.4-5.5-6.9v-9.3
				h2.9v8.8c0,3,0.9,5,3.5,5c1.9,0,3.3-1.3,3.8-2.6c0.2-0.4,0.3-0.9,0.3-1.5v-9.7h2.9V229.8z"/>
			<path class="st2" d="M178.3,222.6c0-1.6,0-3-0.1-4.3h2.6l0.2,2.6h0.1c0.8-1.5,2.6-3,5.2-3c2.2,0,5.6,1.3,5.6,6.7v9.5h-2.9V225
				c0-2.6-0.9-4.7-3.7-4.7c-1.9,0-3.4,1.3-3.9,2.9c-0.1,0.4-0.2,0.9-0.2,1.3v9.5h-2.9V222.6z"/>
			<path class="st2" d="M208.4,233.6c-0.8,0.4-2.4,0.9-4.6,0.9c-4.8,0-7.9-3.2-7.9-8.1c0-4.9,3.3-8.4,8.5-8.4c1.7,0,3.2,0.4,4,0.8
				l-0.7,2.2c-0.7-0.4-1.8-0.8-3.3-0.8c-3.6,0-5.6,2.7-5.6,6c0,3.7,2.4,5.9,5.5,5.9c1.6,0,2.7-0.4,3.5-0.8L208.4,233.6z"/>
			<path class="st2" d="M215.7,213.8c0,1-0.7,1.8-1.8,1.8c-1,0-1.7-0.8-1.7-1.8c0-1,0.8-1.8,1.8-1.8
				C215,212,215.7,212.8,215.7,213.8z M212.5,234.2v-15.8h2.9v15.8H212.5z"/>
			<path class="st2" d="M235.1,226.1c0,5.9-4.1,8.4-7.9,8.4c-4.3,0-7.6-3.1-7.6-8.2c0-5.3,3.5-8.4,7.9-8.4
				C232.1,217.9,235.1,221.2,235.1,226.1z M222.6,226.3c0,3.5,2,6.1,4.8,6.1c2.8,0,4.8-2.6,4.8-6.2c0-2.7-1.3-6.1-4.7-6.1
				C224,220.1,222.6,223.2,222.6,226.3z"/>
			<path class="st2" d="M239.4,222.6c0-1.6,0-3-0.1-4.3h2.6l0.2,2.6h0.1c0.8-1.5,2.6-3,5.2-3c2.2,0,5.6,1.3,5.6,6.7v9.5H250V225
				c0-2.6-0.9-4.7-3.7-4.7c-1.9,0-3.4,1.3-3.9,2.9c-0.1,0.4-0.2,0.9-0.2,1.3v9.5h-2.9V222.6z"/>
			<path class="st2" d="M267,234.2l-0.2-2h-0.1c-0.9,1.2-2.6,2.4-4.8,2.4c-3.2,0-4.8-2.3-4.8-4.6c0-3.8,3.4-5.9,9.5-5.9v-0.3
				c0-1.3-0.4-3.7-3.6-3.7c-1.5,0-3,0.5-4.1,1.2l-0.7-1.9c1.3-0.9,3.2-1.4,5.2-1.4c4.8,0,6,3.3,6,6.5v5.9c0,1.4,0.1,2.7,0.3,3.8H267
				z M266.6,226.1c-3.1-0.1-6.7,0.5-6.7,3.6c0,1.9,1.2,2.8,2.7,2.8c2.1,0,3.4-1.3,3.8-2.7c0.1-0.3,0.2-0.6,0.2-0.9V226.1z"/>
			<path class="st2" d="M274.7,222.6c0-1.6,0-3-0.1-4.3h2.5l0.1,2.6h0.1c0.9-1.5,2.4-2.9,5-2.9c2.2,0,3.8,1.3,4.5,3.2h0.1
				c0.5-0.9,1.1-1.6,1.8-2.1c0.9-0.7,2-1.1,3.5-1.1c2.1,0,5.2,1.4,5.2,6.9v9.3h-2.8v-9c0-3-1.1-4.9-3.4-4.9c-1.6,0-2.9,1.2-3.4,2.6
				c-0.1,0.4-0.2,0.9-0.2,1.4v9.8h-2.8v-9.5c0-2.5-1.1-4.4-3.3-4.4c-1.8,0-3.1,1.4-3.6,2.9c-0.2,0.4-0.2,0.9-0.2,1.4v9.6h-2.8V222.6
				z"/>
			<path class="st2" d="M305.9,213.8c0,1-0.7,1.8-1.8,1.8c-1,0-1.7-0.8-1.7-1.8c0-1,0.8-1.8,1.8-1.8
				C305.2,212,305.9,212.8,305.9,213.8z M302.7,234.2v-15.8h2.9v15.8H302.7z"/>
			<path class="st2" d="M312.6,226.8c0.1,3.9,2.6,5.5,5.4,5.5c2.1,0,3.3-0.4,4.4-0.8l0.5,2.1c-1,0.5-2.8,1-5.3,1
				c-4.9,0-7.8-3.2-7.8-8c0-4.8,2.8-8.5,7.4-8.5c5.2,0,6.5,4.6,6.5,7.5c0,0.6-0.1,1-0.1,1.3H312.6z M321,224.7c0-1.8-0.8-4.7-4-4.7
				c-2.9,0-4.2,2.7-4.4,4.7H321z"/>
			<path class="st2" d="M328.1,222.6c0-1.6,0-3-0.1-4.3h2.6l0.2,2.6h0.1c0.8-1.5,2.6-3,5.2-3c2.2,0,5.6,1.3,5.6,6.7v9.5h-2.9V225
				c0-2.6-0.9-4.7-3.7-4.7c-1.9,0-3.4,1.3-3.9,2.9c-0.1,0.4-0.2,0.9-0.2,1.3v9.5h-2.9V222.6z"/>
			<path class="st2" d="M350.2,213.8v4.6h4.1v2.2h-4.1v8.5c0,2,0.6,3.1,2.2,3.1c0.8,0,1.3-0.1,1.7-0.2l0.1,2.2
				c-0.6,0.2-1.4,0.4-2.6,0.4c-1.3,0-2.4-0.4-3.1-1.2c-0.8-0.9-1.1-2.3-1.1-4.1v-8.6H345v-2.2h2.5v-3.8L350.2,213.8z"/>
			<path class="st2" d="M372.4,226.1c0,5.9-4.1,8.4-7.9,8.4c-4.3,0-7.6-3.1-7.6-8.2c0-5.3,3.5-8.4,7.9-8.4
				C369.3,217.9,372.4,221.2,372.4,226.1z M359.8,226.3c0,3.5,2,6.1,4.8,6.1c2.8,0,4.8-2.6,4.8-6.2c0-2.7-1.3-6.1-4.7-6.1
				C361.3,220.1,359.8,223.2,359.8,226.3z"/>
			<path class="st2" d="M393.1,234.2l-0.2-2h-0.1c-0.9,1.2-2.6,2.4-4.8,2.4c-3.2,0-4.8-2.3-4.8-4.6c0-3.8,3.4-5.9,9.5-5.9v-0.3
				c0-1.3-0.4-3.7-3.6-3.7c-1.5,0-3,0.5-4.1,1.2l-0.7-1.9c1.3-0.9,3.2-1.4,5.2-1.4c4.8,0,6,3.3,6,6.5v5.9c0,1.4,0.1,2.7,0.3,3.8
				H393.1z M392.6,226.1c-3.1-0.1-6.7,0.5-6.7,3.6c0,1.9,1.2,2.8,2.7,2.8c2.1,0,3.4-1.3,3.8-2.7c0.1-0.3,0.2-0.6,0.2-0.9V226.1z"/>
			<path class="st2" d="M414,229.8c0,1.6,0,3.1,0.1,4.3h-2.6l-0.2-2.6h-0.1c-0.8,1.3-2.4,2.9-5.2,2.9c-2.5,0-5.5-1.4-5.5-6.9v-9.3
				h2.9v8.8c0,3,0.9,5,3.5,5c1.9,0,3.3-1.3,3.8-2.6c0.2-0.4,0.3-0.9,0.3-1.5v-9.7h2.9V229.8z"/>
			<path class="st2" d="M422.9,213.8v4.6h4.1v2.2h-4.1v8.5c0,2,0.6,3.1,2.2,3.1c0.8,0,1.3-0.1,1.7-0.2l0.1,2.2
				c-0.6,0.2-1.4,0.4-2.6,0.4c-1.3,0-2.4-0.4-3.1-1.2c-0.8-0.9-1.1-2.3-1.1-4.1v-8.6h-2.5v-2.2h2.5v-3.8L422.9,213.8z"/>
			<path class="st2" d="M445.1,226.1c0,5.9-4.1,8.4-7.9,8.4c-4.3,0-7.6-3.1-7.6-8.2c0-5.3,3.5-8.4,7.9-8.4
				C442,217.9,445.1,221.2,445.1,226.1z M432.5,226.3c0,3.5,2,6.1,4.8,6.1c2.8,0,4.8-2.6,4.8-6.2c0-2.7-1.3-6.1-4.7-6.1
				C434,220.1,432.5,223.2,432.5,226.3z"/>
			<path class="st2" d="M449.4,222.6c0-1.6,0-3-0.1-4.3h2.5l0.1,2.6h0.1c0.9-1.5,2.4-2.9,5-2.9c2.2,0,3.8,1.3,4.5,3.2h0.1
				c0.5-0.9,1.1-1.6,1.8-2.1c0.9-0.7,2-1.1,3.5-1.1c2.1,0,5.2,1.4,5.2,6.9v9.3h-2.8v-9c0-3-1.1-4.9-3.4-4.9c-1.6,0-2.9,1.2-3.4,2.6
				c-0.1,0.4-0.2,0.9-0.2,1.4v9.8h-2.8v-9.5c0-2.5-1.1-4.4-3.3-4.4c-1.8,0-3.1,1.4-3.6,2.9c-0.2,0.4-0.2,0.9-0.2,1.4v9.6h-2.8V222.6
				z"/>
			<path class="st2" d="M486.1,234.2l-0.2-2h-0.1c-0.9,1.2-2.6,2.4-4.8,2.4c-3.2,0-4.8-2.3-4.8-4.6c0-3.8,3.4-5.9,9.5-5.9v-0.3
				c0-1.3-0.4-3.7-3.6-3.7c-1.5,0-3,0.5-4.1,1.2l-0.7-1.9c1.3-0.9,3.2-1.4,5.2-1.4c4.8,0,6,3.3,6,6.5v5.9c0,1.4,0.1,2.7,0.3,3.8
				H486.1z M485.7,226.1c-3.1-0.1-6.7,0.5-6.7,3.6c0,1.9,1.2,2.8,2.7,2.8c2.1,0,3.4-1.3,3.8-2.7c0.1-0.3,0.2-0.6,0.2-0.9V226.1z
				 M487.1,211.5l-4,4.7h-2.1l2.9-4.7H487.1z"/>
			<path class="st2" d="M497.1,213.8v4.6h4.1v2.2h-4.1v8.5c0,2,0.6,3.1,2.2,3.1c0.8,0,1.3-0.1,1.7-0.2l0.1,2.2
				c-0.6,0.2-1.4,0.4-2.6,0.4c-1.3,0-2.4-0.4-3.1-1.2c-0.8-0.9-1.1-2.3-1.1-4.1v-8.6h-2.5v-2.2h2.5v-3.8L497.1,213.8z"/>
			<path class="st2" d="M508.4,213.8c0,1-0.7,1.8-1.8,1.8c-1,0-1.7-0.8-1.7-1.8c0-1,0.8-1.8,1.8-1.8
				C507.7,212,508.4,212.8,508.4,213.8z M505.1,234.2v-15.8h2.9v15.8H505.1z"/>
			<path class="st2" d="M524.8,233.6c-0.8,0.4-2.4,0.9-4.6,0.9c-4.8,0-7.9-3.2-7.9-8.1c0-4.9,3.3-8.4,8.5-8.4c1.7,0,3.2,0.4,4,0.8
				l-0.7,2.2c-0.7-0.4-1.8-0.8-3.3-0.8c-3.6,0-5.6,2.7-5.6,6c0,3.7,2.4,5.9,5.5,5.9c1.6,0,2.7-0.4,3.5-0.8L524.8,233.6z"/>
			<path class="st2" d="M542.9,226.1c0,5.9-4.1,8.4-7.9,8.4c-4.3,0-7.6-3.1-7.6-8.2c0-5.3,3.5-8.4,7.9-8.4
				C539.9,217.9,542.9,221.2,542.9,226.1z M530.4,226.3c0,3.5,2,6.1,4.8,6.1c2.8,0,4.8-2.6,4.8-6.2c0-2.7-1.3-6.1-4.7-6.1
				C531.8,220.1,530.4,223.2,530.4,226.3z"/>
		</g>
	</g>
	<g>
		<g>
			<path class="st2" d="M694.3,187.8c1.4-0.2,3.2-0.4,5.5-0.4c2.8,0,4.9,0.7,6.2,1.8c1.2,1,1.9,2.7,1.9,4.6c0,2-0.6,3.6-1.7,4.7
				c-1.5,1.6-4,2.4-6.7,2.4c-0.9,0-1.6,0-2.3-0.2v8.8h-2.8V187.8z M697.2,198.5c0.6,0.2,1.4,0.2,2.4,0.2c3.4,0,5.5-1.7,5.5-4.7
				c0-2.9-2.1-4.3-5.2-4.3c-1.2,0-2.2,0.1-2.7,0.2V198.5z"/>
			<path class="st2" d="M725.8,201.6c0,5.9-4.1,8.4-7.9,8.4c-4.3,0-7.6-3.1-7.6-8.2c0-5.3,3.5-8.4,7.9-8.4
				C722.8,193.4,725.8,196.8,725.8,201.6z M713.3,201.8c0,3.5,2,6.1,4.8,6.1c2.8,0,4.8-2.6,4.8-6.2c0-2.7-1.3-6.1-4.7-6.1
				C714.7,195.6,713.3,198.7,713.3,201.8z"/>
			<path class="st2" d="M741.4,209.1c-0.8,0.4-2.4,0.9-4.6,0.9c-4.8,0-7.9-3.2-7.9-8.1c0-4.9,3.3-8.4,8.5-8.4c1.7,0,3.2,0.4,4,0.8
				l-0.7,2.2c-0.7-0.4-1.8-0.8-3.3-0.8c-3.6,0-5.6,2.7-5.6,6c0,3.7,2.4,5.9,5.5,5.9c1.6,0,2.7-0.4,3.5-0.8L741.4,209.1z"/>
			<path class="st2" d="M759.6,201.6c0,5.9-4.1,8.4-7.9,8.4c-4.3,0-7.6-3.1-7.6-8.2c0-5.3,3.5-8.4,7.9-8.4
				C756.5,193.4,759.6,196.8,759.6,201.6z M747,201.8c0,3.5,2,6.1,4.8,6.1c2.8,0,4.8-2.6,4.8-6.2c0-2.7-1.3-6.1-4.7-6.1
				C748.5,195.6,747,198.7,747,201.8z"/>
			<path class="st2" d="M782.8,209.1c-0.8,0.4-2.4,0.9-4.6,0.9c-4.8,0-7.9-3.2-7.9-8.1c0-4.9,3.3-8.4,8.5-8.4c1.7,0,3.2,0.4,4,0.8
				l-0.7,2.2c-0.7-0.4-1.8-0.8-3.3-0.8c-3.6,0-5.6,2.7-5.6,6c0,3.7,2.4,5.9,5.5,5.9c1.6,0,2.7-0.4,3.5-0.8L782.8,209.1z"/>
			<path class="st2" d="M801,201.6c0,5.9-4.1,8.4-7.9,8.4c-4.3,0-7.6-3.1-7.6-8.2c0-5.3,3.5-8.4,7.9-8.4
				C797.9,193.4,801,196.8,801,201.6z M788.4,201.8c0,3.5,2,6.1,4.8,6.1c2.8,0,4.8-2.6,4.8-6.2c0-2.7-1.3-6.1-4.7-6.1
				C789.9,195.6,788.4,198.7,788.4,201.8z"/>
			<path class="st2" d="M804.9,206.7c0.9,0.6,2.4,1.1,3.8,1.1c2.1,0,3.1-1,3.1-2.4c0-1.4-0.8-2.1-2.9-2.9c-2.8-1-4.2-2.6-4.2-4.5
				c0-2.6,2.1-4.6,5.5-4.6c1.6,0,3,0.5,3.9,1l-0.7,2.1c-0.6-0.4-1.8-0.9-3.2-0.9c-1.7,0-2.7,1-2.7,2.2c0,1.3,0.9,1.9,3,2.7
				c2.8,1,4.2,2.4,4.2,4.8c0,2.8-2.2,4.7-5.9,4.7c-1.7,0-3.3-0.4-4.5-1.1L804.9,206.7z"/>
			<path class="st2" d="M822.4,189.3v4.6h4.1v2.2h-4.1v8.5c0,2,0.6,3.1,2.2,3.1c0.8,0,1.3-0.1,1.7-0.2l0.1,2.2
				c-0.6,0.2-1.4,0.4-2.6,0.4c-1.3,0-2.4-0.4-3.1-1.2c-0.8-0.9-1.1-2.3-1.1-4.1V196h-2.5v-2.2h2.5V190L822.4,189.3z"/>
			<path class="st2" d="M844.5,201.6c0,5.9-4.1,8.4-7.9,8.4c-4.3,0-7.6-3.1-7.6-8.2c0-5.3,3.5-8.4,7.9-8.4
				C841.4,193.4,844.5,196.8,844.5,201.6z M832,201.8c0,3.5,2,6.1,4.8,6.1c2.8,0,4.8-2.6,4.8-6.2c0-2.7-1.3-6.1-4.7-6.1
				C833.4,195.6,832,198.7,832,201.8z"/>
			<path class="st2" d="M870.1,186.4v19.2c0,1.4,0,3,0.1,4.1h-2.6l-0.1-2.8h-0.1c-0.9,1.8-2.8,3.1-5.4,3.1c-3.8,0-6.8-3.2-6.8-8.1
				c0-5.3,3.2-8.5,7.1-8.5c2.4,0,4.1,1.1,4.8,2.4h0.1v-9.5H870.1z M867.2,200.3c0-0.4,0-0.9-0.1-1.2c-0.4-1.8-2-3.3-4.2-3.3
				c-3,0-4.7,2.6-4.7,6.1c0,3.2,1.6,5.9,4.7,5.9c1.9,0,3.7-1.3,4.2-3.4c0.1-0.4,0.1-0.8,0.1-1.2V200.3z"/>
			<path class="st2" d="M877.1,202.3c0.1,3.9,2.6,5.5,5.4,5.5c2.1,0,3.3-0.4,4.4-0.8l0.5,2.1c-1,0.5-2.8,1-5.3,1
				c-4.9,0-7.8-3.2-7.8-8s2.8-8.5,7.4-8.5c5.2,0,6.5,4.6,6.5,7.5c0,0.6-0.1,1-0.1,1.3H877.1z M885.6,200.2c0-1.8-0.8-4.7-4-4.7
				c-2.9,0-4.2,2.7-4.4,4.7H885.6z"/>
			<path class="st2" d="M683.1,234.1c0-1.6,0-3-0.1-4.3h2.5l0.1,2.6h0.1c0.9-1.5,2.4-2.9,5-2.9c2.2,0,3.8,1.3,4.5,3.2h0.1
				c0.5-0.9,1.1-1.6,1.8-2.1c0.9-0.7,2-1.1,3.5-1.1c2.1,0,5.2,1.4,5.2,6.9v9.3h-2.8v-9c0-3-1.1-4.9-3.4-4.9c-1.6,0-2.9,1.2-3.4,2.6
				c-0.1,0.4-0.2,0.9-0.2,1.4v9.8H693v-9.5c0-2.5-1.1-4.4-3.3-4.4c-1.8,0-3.1,1.4-3.6,2.9c-0.2,0.4-0.2,0.9-0.2,1.4v9.6h-2.8V234.1z
				"/>
			<path class="st2" d="M719.9,245.6l-0.2-2h-0.1c-0.9,1.2-2.6,2.4-4.8,2.4c-3.2,0-4.8-2.3-4.8-4.6c0-3.8,3.4-5.9,9.5-5.9v-0.3
				c0-1.3-0.4-3.7-3.6-3.7c-1.5,0-3,0.5-4.1,1.2l-0.7-1.9c1.3-0.9,3.2-1.4,5.2-1.4c4.8,0,6,3.3,6,6.5v5.9c0,1.4,0.1,2.7,0.3,3.8
				H719.9z M719.4,237.5c-3.1-0.1-6.7,0.5-6.7,3.6c0,1.9,1.2,2.8,2.7,2.8c2.1,0,3.4-1.3,3.8-2.7c0.1-0.3,0.2-0.6,0.2-0.9V237.5z"/>
			<path class="st2" d="M727.5,234.1c0-1.6,0-3-0.1-4.3h2.6l0.2,2.6h0.1c0.8-1.5,2.6-3,5.2-3c2.2,0,5.6,1.3,5.6,6.7v9.5h-2.9v-9.1
				c0-2.6-0.9-4.7-3.7-4.7c-1.9,0-3.4,1.3-3.9,2.9c-0.1,0.4-0.2,0.9-0.2,1.3v9.5h-2.9V234.1z"/>
			<path class="st2" d="M749.7,225.2v4.6h4.1v2.2h-4.1v8.5c0,2,0.6,3.1,2.2,3.1c0.8,0,1.3-0.1,1.7-0.2l0.1,2.2
				c-0.6,0.2-1.4,0.4-2.6,0.4c-1.3,0-2.4-0.4-3.1-1.2c-0.8-0.9-1.1-2.3-1.1-4.1V232h-2.5v-2.2h2.5V226L749.7,225.2z"/>
			<path class="st2" d="M759.1,238.2c0.1,3.9,2.6,5.5,5.4,5.5c2.1,0,3.3-0.4,4.4-0.8l0.5,2.1c-1,0.5-2.8,1-5.3,1
				c-4.9,0-7.8-3.2-7.8-8s2.8-8.5,7.4-8.5c5.2,0,6.5,4.6,6.5,7.5c0,0.6-0.1,1-0.1,1.3H759.1z M767.6,236.2c0-1.8-0.8-4.7-4-4.7
				c-2.9,0-4.2,2.7-4.4,4.7H767.6z"/>
			<path class="st2" d="M774.6,234.1c0-1.6,0-3-0.1-4.3h2.6l0.2,2.6h0.1c0.8-1.5,2.6-3,5.2-3c2.2,0,5.6,1.3,5.6,6.7v9.5h-2.9v-9.1
				c0-2.6-1-4.7-3.7-4.7c-1.9,0-3.4,1.3-3.9,2.9c-0.1,0.4-0.2,0.9-0.2,1.3v9.5h-2.9V234.1z"/>
			<path class="st2" d="M796.6,225.3c0,1-0.7,1.8-1.8,1.8c-1,0-1.7-0.8-1.7-1.8c0-1,0.8-1.8,1.8-1.8
				C795.9,223.5,796.6,224.3,796.6,225.3z M793.4,245.6v-15.8h2.9v15.8H793.4z"/>
			<path class="st2" d="M801.7,234.1c0-1.6,0-3-0.1-4.3h2.5l0.1,2.6h0.1c0.9-1.5,2.4-2.9,5-2.9c2.2,0,3.8,1.3,4.5,3.2h0.1
				c0.5-0.9,1.1-1.6,1.8-2.1c0.9-0.7,2-1.1,3.5-1.1c2.1,0,5.2,1.4,5.2,6.9v9.3h-2.8v-9c0-3-1.1-4.9-3.4-4.9c-1.6,0-2.9,1.2-3.4,2.6
				c-0.1,0.4-0.2,0.9-0.2,1.4v9.8h-2.8v-9.5c0-2.5-1.1-4.4-3.3-4.4c-1.8,0-3.1,1.4-3.6,2.9c-0.2,0.4-0.2,0.9-0.2,1.4v9.6h-2.8V234.1
				z"/>
			<path class="st2" d="M832.9,225.3c0,1-0.7,1.8-1.8,1.8c-1,0-1.7-0.8-1.7-1.8c0-1,0.8-1.8,1.8-1.8
				C832.2,223.5,832.9,224.3,832.9,225.3z M829.7,245.6v-15.8h2.9v15.8H829.7z"/>
			<path class="st2" d="M839.6,238.2c0.1,3.9,2.6,5.5,5.4,5.5c2.1,0,3.3-0.4,4.4-0.8l0.5,2.1c-1,0.5-2.8,1-5.3,1
				c-4.9,0-7.8-3.2-7.8-8s2.8-8.5,7.4-8.5c5.2,0,6.5,4.6,6.5,7.5c0,0.6-0.1,1-0.1,1.3H839.6z M848.1,236.2c0-1.8-0.8-4.7-4-4.7
				c-2.9,0-4.2,2.7-4.4,4.7H848.1z"/>
			<path class="st2" d="M855.1,234.1c0-1.6,0-3-0.1-4.3h2.6l0.2,2.6h0.1c0.8-1.5,2.6-3,5.2-3c2.2,0,5.6,1.3,5.6,6.7v9.5h-2.9v-9.1
				c0-2.6-1-4.7-3.7-4.7c-1.9,0-3.4,1.3-3.9,2.9c-0.1,0.4-0.2,0.9-0.2,1.3v9.5h-2.9V234.1z"/>
			<path class="st2" d="M877.3,225.2v4.6h4.1v2.2h-4.1v8.5c0,2,0.6,3.1,2.2,3.1c0.8,0,1.3-0.1,1.7-0.2l0.1,2.2
				c-0.6,0.2-1.4,0.4-2.6,0.4c-1.3,0-2.4-0.4-3.1-1.2c-0.8-0.9-1.1-2.3-1.1-4.1V232H872v-2.2h2.5V226L877.3,225.2z"/>
			<path class="st2" d="M899.4,237.6c0,5.9-4.1,8.4-7.9,8.4c-4.3,0-7.6-3.1-7.6-8.2c0-5.3,3.5-8.4,7.9-8.4
				C896.4,229.4,899.4,232.7,899.4,237.6z M886.9,237.7c0,3.5,2,6.1,4.8,6.1c2.8,0,4.8-2.6,4.8-6.2c0-2.7-1.3-6.1-4.7-6.1
				C888.3,231.6,886.9,234.7,886.9,237.7z"/>
		</g>
	</g>
	<g>
		<g>
			<path class="st2" d="M45,564.7c1.4-0.3,3.5-0.5,5.5-0.5c3,0,5,0.6,6.4,1.8c1.1,1,1.7,2.5,1.7,4.2c0,2.9-1.8,4.8-4.2,5.6v0.1
				c1.7,0.6,2.7,2.2,3.2,4.5c0.7,3.1,1.2,5.2,1.7,6.1h-2.9c-0.4-0.6-0.9-2.5-1.5-5.3c-0.7-3-1.8-4.2-4.4-4.3h-2.7v9.6H45V564.7z
				 M47.8,574.7h2.9c3,0,5-1.7,5-4.2c0-2.8-2.1-4.1-5.1-4.1c-1.4,0-2.4,0.1-2.8,0.3V574.7z"/>
			<path class="st2" d="M64.9,579c0.1,3.9,2.6,5.5,5.4,5.5c2.1,0,3.3-0.4,4.4-0.8l0.5,2.1c-1,0.5-2.8,1-5.3,1c-4.9,0-7.8-3.2-7.8-8
				c0-4.8,2.8-8.5,7.4-8.5c5.2,0,6.5,4.6,6.5,7.5c0,0.6-0.1,1-0.1,1.3H64.9z M73.3,577c0-1.8-0.8-4.7-4-4.7c-2.9,0-4.2,2.7-4.4,4.7
				H73.3z"/>
			<path class="st2" d="M91.1,584L91.1,584c-0.9,1.6-2.7,2.8-5.2,2.8c-3.7,0-6.7-3.2-6.7-8c0-5.9,3.8-8.5,7.2-8.5
				c2.5,0,4.1,1.2,4.9,2.8h0.1l0.1-2.4h2.7c-0.1,1.3-0.1,2.7-0.1,4.4v18h-2.9V584z M91.1,577c0-0.4,0-0.9-0.1-1.2
				c-0.4-1.8-2-3.3-4.1-3.3c-3,0-4.8,2.5-4.8,6.1c0,3.1,1.5,5.9,4.7,5.9c1.9,0,3.5-1.1,4.1-3.1c0.1-0.4,0.2-1,0.2-1.4V577z"/>
			<path class="st2" d="M112.7,582.1c0,1.6,0,3.1,0.1,4.3h-2.6l-0.2-2.6H110c-0.8,1.3-2.4,2.9-5.2,2.9c-2.5,0-5.5-1.4-5.5-6.9v-9.3
				h2.9v8.8c0,3,0.9,5,3.5,5c1.9,0,3.3-1.3,3.8-2.6c0.2-0.4,0.3-1,0.3-1.5v-9.7h2.9V582.1z"/>
			<path class="st2" d="M121.3,566.1c0,1-0.7,1.8-1.8,1.8c-1,0-1.7-0.8-1.7-1.8c0-1,0.8-1.8,1.8-1.8
				C120.7,564.3,121.3,565.1,121.3,566.1z M118.1,586.4v-15.8h2.9v15.8H118.1z"/>
			<path class="st2" d="M128.1,579c0.1,3.9,2.6,5.5,5.4,5.5c2.1,0,3.3-0.4,4.4-0.8l0.5,2.1c-1,0.5-2.8,1-5.3,1c-4.9,0-7.8-3.2-7.8-8
				c0-4.8,2.8-8.5,7.4-8.5c5.2,0,6.5,4.6,6.5,7.5c0,0.6-0.1,1-0.1,1.3H128.1z M136.5,577c0-1.8-0.8-4.7-4-4.7
				c-2.9,0-4.2,2.7-4.4,4.7H136.5z"/>
			<path class="st2" d="M143.5,575.5c0-1.9,0-3.5-0.1-4.9h2.5l0.1,3.1h0.1c0.7-2.1,2.5-3.5,4.4-3.5c0.3,0,0.6,0,0.8,0.1v2.7
				c-0.3-0.1-0.6-0.1-1-0.1c-2,0-3.5,1.5-3.9,3.7c-0.1,0.4-0.1,0.9-0.1,1.3v8.4h-2.8V575.5z"/>
			<path class="st2" d="M156.2,579c0.1,3.9,2.6,5.5,5.4,5.5c2.1,0,3.3-0.4,4.4-0.8l0.5,2.1c-1,0.5-2.8,1-5.3,1c-4.9,0-7.8-3.2-7.8-8
				c0-4.8,2.8-8.5,7.4-8.5c5.2,0,6.5,4.6,6.5,7.5c0,0.6-0.1,1-0.1,1.3H156.2z M164.6,577c0-1.8-0.8-4.7-4-4.7
				c-2.9,0-4.2,2.7-4.4,4.7H164.6z"/>
			<path class="st2" d="M179.2,574.9c0-1.6,0-3-0.1-4.3h2.5l0.1,2.6h0.1c0.9-1.5,2.4-2.9,5-2.9c2.2,0,3.8,1.3,4.5,3.2h0.1
				c0.5-0.9,1.1-1.6,1.8-2.1c0.9-0.7,2-1.1,3.5-1.1c2.1,0,5.2,1.4,5.2,6.9v9.3H199v-9c0-3-1.1-4.9-3.4-4.9c-1.6,0-2.9,1.2-3.4,2.6
				c-0.1,0.4-0.2,0.9-0.2,1.4v9.8h-2.8v-9.5c0-2.5-1.1-4.4-3.3-4.4c-1.8,0-3.1,1.4-3.6,2.9c-0.2,0.4-0.2,0.9-0.2,1.4v9.6h-2.8V574.9
				z"/>
			<path class="st2" d="M208.8,579c0.1,3.9,2.6,5.5,5.4,5.5c2.1,0,3.3-0.4,4.4-0.8l0.5,2.1c-1,0.5-2.8,1-5.3,1c-4.9,0-7.8-3.2-7.8-8
				c0-4.8,2.8-8.5,7.4-8.5c5.2,0,6.5,4.6,6.5,7.5c0,0.6-0.1,1-0.1,1.3H208.8z M217.2,577c0-1.8-0.8-4.7-4-4.7
				c-2.9,0-4.2,2.7-4.4,4.7H217.2z"/>
			<path class="st2" d="M224.3,574.9c0-1.6,0-3-0.1-4.3h2.6l0.2,2.6h0.1c0.8-1.5,2.6-3,5.2-3c2.2,0,5.6,1.3,5.6,6.7v9.5h-2.9v-9.1
				c0-2.6-0.9-4.7-3.7-4.7c-1.9,0-3.4,1.3-3.9,2.9c-0.1,0.4-0.2,0.9-0.2,1.3v9.5h-2.9V574.9z"/>
			<path class="st2" d="M257.4,578.4c0,5.9-4.1,8.4-7.9,8.4c-4.3,0-7.6-3.1-7.6-8.2c0-5.3,3.5-8.4,7.9-8.4
				C254.3,570.2,257.4,573.5,257.4,578.4z M244.9,578.6c0,3.5,2,6.1,4.8,6.1c2.8,0,4.8-2.6,4.8-6.2c0-2.7-1.3-6.1-4.7-6.1
				C246.3,572.4,244.9,575.5,244.9,578.6z"/>
			<path class="st2" d="M261.3,583.5c0.9,0.6,2.4,1.1,3.8,1.1c2.1,0,3.1-1,3.1-2.4c0-1.4-0.8-2.1-2.9-2.9c-2.8-1-4.2-2.6-4.2-4.5
				c0-2.6,2.1-4.6,5.5-4.6c1.6,0,3,0.5,3.9,1l-0.7,2.1c-0.6-0.4-1.8-0.9-3.2-0.9c-1.7,0-2.7,1-2.7,2.2c0,1.3,0.9,1.9,3,2.7
				c2.8,1,4.2,2.4,4.2,4.8c0,2.8-2.2,4.7-5.9,4.7c-1.7,0-3.3-0.4-4.5-1.1L261.3,583.5z"/>
			<path class="st2" d="M286.1,566.1c0,1-0.7,1.8-1.8,1.8c-1,0-1.7-0.8-1.7-1.8c0-1,0.8-1.8,1.8-1.8
				C285.5,564.3,286.1,565.1,286.1,566.1z M282.9,586.4v-15.8h2.9v15.8H282.9z"/>
			<path class="st2" d="M291.3,574.9c0-1.6,0-3-0.1-4.3h2.6l0.2,2.6h0.1c0.8-1.5,2.6-3,5.2-3c2.2,0,5.6,1.3,5.6,6.7v9.5h-2.9v-9.1
				c0-2.6-0.9-4.7-3.7-4.7c-1.9,0-3.4,1.3-3.9,2.9c-0.1,0.4-0.2,0.9-0.2,1.3v9.5h-2.9V574.9z"/>
			<path class="st2" d="M313.4,566v4.6h4.1v2.2h-4.1v8.5c0,2,0.6,3.1,2.2,3.1c0.8,0,1.3-0.1,1.7-0.2l0.1,2.2
				c-0.6,0.2-1.4,0.4-2.6,0.4c-1.3,0-2.4-0.4-3.1-1.2c-0.8-0.9-1.1-2.3-1.1-4.1v-8.6h-2.5v-2.2h2.5v-3.8L313.4,566z"/>
			<path class="st2" d="M322.9,579c0.1,3.9,2.6,5.5,5.4,5.5c2.1,0,3.3-0.4,4.4-0.8l0.5,2.1c-1,0.5-2.8,1-5.3,1c-4.9,0-7.8-3.2-7.8-8
				c0-4.8,2.8-8.5,7.4-8.5c5.2,0,6.5,4.6,6.5,7.5c0,0.6-0.1,1-0.1,1.3H322.9z M331.3,577c0-1.8-0.8-4.7-4-4.7
				c-2.9,0-4.2,2.7-4.4,4.7H331.3z"/>
			<path class="st2" d="M338.3,574.9c0-1.6,0-3-0.1-4.3h2.6l0.2,2.6h0.1c0.8-1.5,2.6-3,5.2-3c2.2,0,5.6,1.3,5.6,6.7v9.5h-2.9v-9.1
				c0-2.6-0.9-4.7-3.7-4.7c-1.9,0-3.4,1.3-3.9,2.9c-0.1,0.4-0.2,0.9-0.2,1.3v9.5h-2.9V574.9z"/>
			<path class="st2" d="M356.8,583.5c0.9,0.6,2.4,1.1,3.8,1.1c2.1,0,3.1-1,3.1-2.4c0-1.4-0.8-2.1-2.9-2.9c-2.8-1-4.2-2.6-4.2-4.5
				c0-2.6,2.1-4.6,5.5-4.6c1.6,0,3,0.5,3.9,1l-0.7,2.1c-0.6-0.4-1.8-0.9-3.2-0.9c-1.7,0-2.7,1-2.7,2.2c0,1.3,0.9,1.9,3,2.7
				c2.8,1,4.2,2.4,4.2,4.8c0,2.8-2.2,4.7-5.9,4.7c-1.7,0-3.3-0.4-4.5-1.1L356.8,583.5z"/>
			<path class="st2" d="M374,566.1c0,1-0.7,1.8-1.8,1.8c-1,0-1.7-0.8-1.7-1.8c0-1,0.8-1.8,1.8-1.8C373.3,564.3,374,565.1,374,566.1z
				 M370.8,586.4v-15.8h2.9v15.8H370.8z"/>
			<path class="st2" d="M392.8,563.2v19.2c0,1.4,0,3,0.1,4.1h-2.6l-0.1-2.8h-0.1c-0.9,1.8-2.8,3.1-5.4,3.1c-3.8,0-6.8-3.2-6.8-8.1
				c0-5.3,3.2-8.5,7.1-8.5c2.4,0,4.1,1.1,4.8,2.4h0.1v-9.5H392.8z M389.9,577c0-0.4,0-0.9-0.1-1.2c-0.4-1.8-2-3.3-4.2-3.3
				c-3,0-4.7,2.6-4.7,6.1c0,3.2,1.6,5.9,4.7,5.9c1.9,0,3.7-1.3,4.2-3.4c0.1-0.4,0.1-0.8,0.1-1.2V577z"/>
			<path class="st2" d="M407,586.4l-0.2-2h-0.1c-0.9,1.2-2.6,2.4-4.8,2.4c-3.2,0-4.8-2.3-4.8-4.6c0-3.8,3.4-5.9,9.5-5.9V576
				c0-1.3-0.4-3.7-3.6-3.7c-1.5,0-3,0.5-4.1,1.2l-0.7-1.9c1.3-0.9,3.2-1.4,5.2-1.4c4.8,0,6,3.3,6,6.5v5.9c0,1.4,0.1,2.7,0.3,3.8H407
				z M406.6,578.4c-3.1-0.1-6.7,0.5-6.7,3.6c0,1.9,1.2,2.8,2.7,2.8c2.1,0,3.4-1.3,3.8-2.7c0.1-0.3,0.2-0.6,0.2-0.9V578.4z"/>
			<path class="st2" d="M428.4,563.2v19.2c0,1.4,0,3,0.1,4.1h-2.6l-0.1-2.8h-0.1c-0.9,1.8-2.8,3.1-5.4,3.1c-3.8,0-6.8-3.2-6.8-8.1
				c0-5.3,3.2-8.5,7.1-8.5c2.4,0,4.1,1.1,4.8,2.4h0.1v-9.5H428.4z M425.5,577c0-0.4,0-0.9-0.1-1.2c-0.4-1.8-2-3.3-4.2-3.3
				c-3,0-4.7,2.6-4.7,6.1c0,3.2,1.6,5.9,4.7,5.9c1.9,0,3.7-1.3,4.2-3.4c0.1-0.4,0.1-0.8,0.1-1.2V577z"/>
			<path class="st2" d="M105.1,620L105.1,620c-0.9,1.6-2.7,2.8-5.2,2.8c-3.7,0-6.7-3.2-6.7-8c0-5.9,3.8-8.5,7.2-8.5
				c2.5,0,4.1,1.2,4.9,2.8h0.1l0.1-2.4h2.7c-0.1,1.3-0.1,2.7-0.1,4.4v18h-2.9V620z M105.1,613c0-0.4,0-0.9-0.1-1.2
				c-0.4-1.8-2-3.3-4.1-3.3c-3,0-4.8,2.5-4.8,6.1c0,3.1,1.5,5.9,4.7,5.9c1.9,0,3.5-1.1,4.1-3.1c0.1-0.4,0.2-1,0.2-1.4V613z"/>
			<path class="st2" d="M126.6,618.1c0,1.6,0,3.1,0.1,4.3h-2.6l-0.2-2.6H124c-0.8,1.3-2.4,2.9-5.2,2.9c-2.5,0-5.5-1.4-5.5-6.9v-9.3
				h2.9v8.8c0,3,0.9,5,3.5,5c1.9,0,3.3-1.3,3.8-2.6c0.2-0.4,0.3-1,0.3-1.5v-9.7h2.9V618.1z"/>
			<path class="st2" d="M133.7,615c0.1,3.9,2.6,5.5,5.4,5.5c2.1,0,3.3-0.4,4.4-0.8l0.5,2.1c-1,0.5-2.8,1-5.3,1c-4.9,0-7.8-3.2-7.8-8
				c0-4.8,2.8-8.5,7.4-8.5c5.2,0,6.5,4.6,6.5,7.5c0,0.6-0.1,1-0.1,1.3H133.7z M142.1,612.9c0-1.8-0.8-4.7-4-4.7
				c-2.9,0-4.2,2.7-4.4,4.7H142.1z"/>
			<path class="st2" d="M156.7,599.2h2.9v23.2h-2.9V599.2z"/>
			<path class="st2" d="M173.9,622.4l-0.2-2h-0.1c-0.9,1.2-2.6,2.4-4.8,2.4c-3.2,0-4.8-2.3-4.8-4.6c0-3.8,3.4-5.9,9.5-5.9V612
				c0-1.3-0.4-3.7-3.6-3.7c-1.5,0-3,0.5-4.1,1.2l-0.7-1.9c1.3-0.9,3.2-1.4,5.2-1.4c4.8,0,6,3.3,6,6.5v5.9c0,1.4,0.1,2.7,0.3,3.8
				H173.9z M173.5,614.3c-3.1-0.1-6.7,0.5-6.7,3.6c0,1.9,1.2,2.8,2.7,2.8c2.1,0,3.4-1.3,3.8-2.7c0.1-0.3,0.2-0.6,0.2-0.9V614.3z"/>
			<path class="st2" d="M189.1,599.2h2.9v23.2h-2.9V599.2z"/>
			<path class="st2" d="M210.8,618.1c0,1.6,0,3.1,0.1,4.3h-2.6l-0.2-2.6h-0.1c-0.8,1.3-2.4,2.9-5.2,2.9c-2.5,0-5.5-1.4-5.5-6.9v-9.3
				h2.9v8.8c0,3,0.9,5,3.5,5c1.9,0,3.3-1.3,3.8-2.6c0.2-0.4,0.3-1,0.3-1.5v-9.7h2.9V618.1z"/>
			<path class="st2" d="M214.4,620.7l7.2-9.3c0.7-0.9,1.3-1.6,2.1-2.5v-0.1h-8.6v-2.3h12.1l0,1.8l-7.1,9.2c-0.7,0.9-1.3,1.7-2,2.5
				v0.1h9.3v2.3h-12.9V620.7z"/>
			<path class="st2" d="M252.2,599.2v19.2c0,1.4,0,3,0.1,4.1h-2.6l-0.1-2.8h-0.1c-0.9,1.8-2.8,3.1-5.4,3.1c-3.8,0-6.8-3.2-6.8-8.1
				c0-5.3,3.2-8.5,7.1-8.5c2.4,0,4.1,1.1,4.8,2.4h0.1v-9.5H252.2z M249.3,613c0-0.4,0-0.9-0.1-1.2c-0.4-1.8-2-3.3-4.2-3.3
				c-3,0-4.7,2.6-4.7,6.1c0,3.2,1.6,5.9,4.7,5.9c1.9,0,3.7-1.3,4.2-3.4c0.1-0.4,0.1-0.8,0.1-1.2V613z"/>
			<path class="st2" d="M259.2,615c0.1,3.9,2.6,5.5,5.4,5.5c2.1,0,3.3-0.4,4.4-0.8l0.5,2.1c-1,0.5-2.8,1-5.3,1c-4.9,0-7.8-3.2-7.8-8
				c0-4.8,2.8-8.5,7.4-8.5c5.2,0,6.5,4.6,6.5,7.5c0,0.6-0.1,1-0.1,1.3H259.2z M267.7,612.9c0-1.8-0.8-4.7-4-4.7
				c-2.9,0-4.2,2.7-4.4,4.7H267.7z"/>
			<path class="st2" d="M285.8,602v4.6h4.1v2.2h-4.1v8.5c0,2,0.6,3.1,2.2,3.1c0.8,0,1.3-0.1,1.7-0.2l0.1,2.2
				c-0.6,0.2-1.4,0.4-2.6,0.4c-1.3,0-2.4-0.4-3.1-1.2c-0.8-0.9-1.1-2.3-1.1-4.1v-8.6h-2.5v-2.2h2.5v-3.8L285.8,602z"/>
			<path class="st2" d="M293.8,611.5c0-1.9,0-3.5-0.1-4.9h2.5l0.1,3.1h0.1c0.7-2.1,2.5-3.5,4.4-3.5c0.3,0,0.6,0,0.8,0.1v2.7
				c-0.3-0.1-0.6-0.1-1-0.1c-2,0-3.5,1.5-3.9,3.7c-0.1,0.4-0.1,0.9-0.1,1.3v8.4h-2.8V611.5z"/>
			<path class="st2" d="M313.8,622.4l-0.2-2h-0.1c-0.9,1.2-2.6,2.4-4.8,2.4c-3.2,0-4.8-2.3-4.8-4.6c0-3.8,3.4-5.9,9.5-5.9V612
				c0-1.3-0.4-3.7-3.6-3.7c-1.5,0-3,0.5-4.1,1.2l-0.7-1.9c1.3-0.9,3.2-1.4,5.2-1.4c4.8,0,6,3.3,6,6.5v5.9c0,1.4,0.1,2.7,0.3,3.8
				H313.8z M313.3,614.3c-3.1-0.1-6.7,0.5-6.7,3.6c0,1.9,1.2,2.8,2.7,2.8c2.1,0,3.4-1.3,3.8-2.7c0.1-0.3,0.2-0.6,0.2-0.9V614.3z"/>
			<path class="st2" d="M321.3,622.4c0.1-1.1,0.1-2.7,0.1-4.1v-19.2h2.8v10h0.1c1-1.8,2.8-2.9,5.4-2.9c3.9,0,6.7,3.3,6.7,8.1
				c0,5.7-3.6,8.5-7.1,8.5c-2.3,0-4.1-0.9-5.3-3h-0.1l-0.1,2.6H321.3z M324.3,616.1c0,0.4,0.1,0.7,0.1,1c0.6,2,2.2,3.4,4.3,3.4
				c3,0,4.8-2.5,4.8-6.1c0-3.2-1.6-5.9-4.7-5.9c-2,0-3.8,1.3-4.4,3.5c-0.1,0.3-0.2,0.7-0.2,1.2V616.1z"/>
			<path class="st2" d="M349.5,622.4l-0.2-2h-0.1c-0.9,1.2-2.6,2.4-4.8,2.4c-3.2,0-4.8-2.3-4.8-4.6c0-3.8,3.4-5.9,9.5-5.9V612
				c0-1.3-0.4-3.7-3.6-3.7c-1.5,0-3,0.5-4.1,1.2l-0.7-1.9c1.3-0.9,3.2-1.4,5.2-1.4c4.8,0,6,3.3,6,6.5v5.9c0,1.4,0.1,2.7,0.3,3.8
				H349.5z M349.1,614.3c-3.1-0.1-6.7,0.5-6.7,3.6c0,1.9,1.2,2.8,2.7,2.8c2.1,0,3.4-1.3,3.8-2.7c0.1-0.3,0.2-0.6,0.2-0.9V614.3z"/>
			<path class="st2" d="M353.3,627c1.3-0.1,2.5-0.5,3.1-1.2c0.8-0.9,1.1-2.2,1.1-6v-13.3h2.9v14.4c0,3.1-0.5,5.1-1.9,6.5
				c-1.3,1.3-3.4,1.8-4.9,1.8L353.3,627z M360.7,602.1c0,0.9-0.7,1.8-1.8,1.8c-1.1,0-1.8-0.8-1.8-1.8c0-1,0.8-1.8,1.8-1.8
				C360,600.3,360.7,601.1,360.7,602.1z"/>
			<path class="st2" d="M380.1,614.4c0,5.9-4.1,8.4-7.9,8.4c-4.3,0-7.6-3.1-7.6-8.2c0-5.3,3.5-8.4,7.9-8.4
				C377,606.2,380.1,609.5,380.1,614.4z M367.5,614.5c0,3.5,2,6.1,4.8,6.1c2.8,0,4.8-2.6,4.8-6.2c0-2.7-1.3-6.1-4.7-6.1
				C369,608.4,367.5,611.5,367.5,614.5z"/>
		</g>
	</g>
	<g>
		<g>
			<path class="st2" d="M733.5,570.2c1.4-0.3,3.5-0.5,5.5-0.5c3,0,5,0.6,6.4,1.8c1.1,1,1.7,2.5,1.7,4.2c0,2.9-1.8,4.8-4.2,5.6v0.1
				c1.7,0.6,2.7,2.2,3.2,4.5c0.7,3.1,1.2,5.2,1.7,6.1h-2.9c-0.4-0.6-0.9-2.5-1.5-5.3c-0.7-3-1.8-4.2-4.4-4.3h-2.7v9.6h-2.8V570.2z
				 M736.3,580.2h2.9c3,0,5-1.7,5-4.2c0-2.8-2.1-4.1-5.1-4.1c-1.4,0-2.4,0.1-2.8,0.3V580.2z"/>
			<path class="st2" d="M753.4,584.5c0.1,3.9,2.6,5.5,5.4,5.5c2.1,0,3.3-0.4,4.4-0.8l0.5,2.1c-1,0.5-2.8,1-5.3,1
				c-4.9,0-7.8-3.2-7.8-8c0-4.8,2.8-8.5,7.4-8.5c5.2,0,6.5,4.6,6.5,7.5c0,0.6-0.1,1-0.1,1.3H753.4z M761.8,582.5
				c0-1.8-0.8-4.7-4-4.7c-2.9,0-4.2,2.7-4.4,4.7H761.8z"/>
			<path class="st2" d="M782.5,568.7v19.2c0,1.4,0,3,0.1,4.1h-2.6l-0.1-2.8h-0.1c-0.9,1.8-2.8,3.1-5.4,3.1c-3.8,0-6.8-3.2-6.8-8.1
				c0-5.3,3.2-8.5,7.1-8.5c2.4,0,4.1,1.1,4.8,2.4h0.1v-9.5H782.5z M779.6,582.5c0-0.4,0-0.9-0.1-1.2c-0.4-1.8-2-3.3-4.2-3.3
				c-3,0-4.7,2.6-4.7,6.1c0,3.2,1.6,5.9,4.7,5.9c1.9,0,3.7-1.3,4.2-3.4c0.1-0.4,0.1-0.8,0.1-1.2V582.5z"/>
			<path class="st2" d="M801.2,587.6c0,1.6,0,3.1,0.1,4.3h-2.6l-0.2-2.6h-0.1c-0.8,1.3-2.4,2.9-5.2,2.9c-2.5,0-5.5-1.4-5.5-6.9v-9.3
				h2.9v8.8c0,3,0.9,5,3.5,5c1.9,0,3.3-1.3,3.8-2.6c0.2-0.4,0.3-1,0.3-1.5v-9.7h2.9V587.6z"/>
			<path class="st2" d="M818,591.3c-0.8,0.4-2.4,0.9-4.6,0.9c-4.8,0-7.9-3.2-7.9-8.1c0-4.9,3.3-8.4,8.5-8.4c1.7,0,3.2,0.4,4,0.8
				l-0.7,2.2c-0.7-0.4-1.8-0.8-3.3-0.8c-3.6,0-5.6,2.7-5.6,6c0,3.7,2.4,5.9,5.5,5.9c1.6,0,2.7-0.4,3.5-0.8L818,591.3z"/>
			<path class="st2" d="M833.1,591.3c-0.8,0.4-2.4,0.9-4.6,0.9c-4.8,0-7.9-3.2-7.9-8.1c0-4.9,3.3-8.4,8.5-8.4c1.7,0,3.2,0.4,4,0.8
				l-0.7,2.2c-0.7-0.4-1.8-0.8-3.3-0.8c-3.6,0-5.6,2.7-5.6,6c0,3.7,2.4,5.9,5.5,5.9c1.6,0,2.7-0.4,3.5-0.8L833.1,591.3z"/>
			<path class="st2" d="M840.3,571.6c0,1-0.7,1.8-1.8,1.8c-1,0-1.7-0.8-1.7-1.8c0-1,0.8-1.8,1.8-1.8
				C839.7,569.8,840.3,570.6,840.3,571.6z M837.1,591.9v-15.8h2.9v15.8H837.1z"/>
			<path class="st2" d="M859.8,583.9c0,5.9-4.1,8.4-7.9,8.4c-4.3,0-7.6-3.1-7.6-8.2c0-5.3,3.5-8.4,7.9-8.4
				C856.7,575.7,859.8,579,859.8,583.9z M847.2,584c0,3.5,2,6.1,4.8,6.1c2.8,0,4.8-2.6,4.8-6.2c0-2.7-1.3-6.1-4.7-6.1
				C848.7,577.9,847.2,581,847.2,584z M856.4,569.2l-4,4.7h-2.1l2.9-4.7H856.4z"/>
			<path class="st2" d="M864.1,580.4c0-1.6,0-3-0.1-4.3h2.6l0.2,2.6h0.1c0.8-1.5,2.6-3,5.2-3c2.2,0,5.6,1.3,5.6,6.7v9.5h-2.9v-9.1
				c0-2.6-0.9-4.7-3.7-4.7c-1.9,0-3.4,1.3-3.9,2.9c-0.1,0.4-0.2,0.9-0.2,1.3v9.5h-2.9V580.4z"/>
			<path class="st2" d="M904.2,568.7v19.2c0,1.4,0,3,0.1,4.1h-2.6l-0.1-2.8h-0.1c-0.9,1.8-2.8,3.1-5.4,3.1c-3.8,0-6.8-3.2-6.8-8.1
				c0-5.3,3.2-8.5,7.1-8.5c2.4,0,4.1,1.1,4.8,2.4h0.1v-9.5H904.2z M901.3,582.5c0-0.4,0-0.9-0.1-1.2c-0.4-1.8-2-3.3-4.2-3.3
				c-3,0-4.7,2.6-4.7,6.1c0,3.2,1.6,5.9,4.7,5.9c1.9,0,3.7-1.3,4.2-3.4c0.1-0.4,0.1-0.8,0.1-1.2V582.5z"/>
			<path class="st2" d="M911.2,584.5c0.1,3.9,2.6,5.5,5.4,5.5c2.1,0,3.3-0.4,4.4-0.8l0.5,2.1c-1,0.5-2.8,1-5.3,1
				c-4.9,0-7.8-3.2-7.8-8c0-4.8,2.8-8.5,7.4-8.5c5.2,0,6.5,4.6,6.5,7.5c0,0.6-0.1,1-0.1,1.3H911.2z M919.7,582.5
				c0-1.8-0.8-4.7-4-4.7c-2.9,0-4.2,2.7-4.4,4.7H919.7z"/>
			<path class="st2" d="M934.6,591.9v-13.7h-2.2v-2.2h2.2v-0.8c0-2.2,0.5-4.3,1.8-5.5c1.1-1,2.5-1.5,3.9-1.5c1,0,1.9,0.2,2.5,0.5
				l-0.4,2.2c-0.4-0.2-1-0.4-1.8-0.4c-2.5,0-3.1,2.2-3.1,4.6v0.9h3.8v2.2h-3.8v13.7H934.6z"/>
			<path class="st2" d="M957.8,587.6c0,1.6,0,3.1,0.1,4.3h-2.6l-0.2-2.6h-0.1c-0.8,1.3-2.4,2.9-5.2,2.9c-2.5,0-5.5-1.4-5.5-6.9v-9.3
				h2.9v8.8c0,3,0.9,5,3.5,5c1.9,0,3.3-1.3,3.8-2.6c0.2-0.4,0.3-1,0.3-1.5v-9.7h2.9V587.6z"/>
			<path class="st2" d="M964.8,584.5c0.1,3.9,2.6,5.5,5.4,5.5c2.1,0,3.3-0.4,4.4-0.8l0.5,2.1c-1,0.5-2.8,1-5.3,1
				c-4.9,0-7.8-3.2-7.8-8c0-4.8,2.8-8.5,7.4-8.5c5.2,0,6.5,4.6,6.5,7.5c0,0.6-0.1,1-0.1,1.3H964.8z M973.3,582.5
				c0-1.8-0.8-4.7-4-4.7c-2.9,0-4.2,2.7-4.4,4.7H973.3z"/>
			<path class="st2" d="M980.3,581c0-1.9,0-3.5-0.1-4.9h2.5l0.1,3.1h0.1c0.7-2.1,2.5-3.5,4.4-3.5c0.3,0,0.6,0,0.8,0.1v2.7
				c-0.3-0.1-0.6-0.1-1-0.1c-2,0-3.5,1.5-3.9,3.7c-0.1,0.4-0.1,0.9-0.1,1.3v8.4h-2.8V581z"/>
			<path class="st2" d="M990.1,590.3l7.2-9.3c0.7-0.9,1.3-1.6,2.1-2.5v-0.1h-8.6v-2.3h12.1l0,1.8l-7.1,9.2c-0.7,0.9-1.3,1.7-2,2.5
				v0.1h9.3v2.3h-12.9V590.3z"/>
			<path class="st2" d="M1015.4,591.9l-0.2-2h-0.1c-0.9,1.2-2.6,2.4-4.8,2.4c-3.2,0-4.8-2.3-4.8-4.6c0-3.8,3.4-5.9,9.5-5.9v-0.3
				c0-1.3-0.4-3.7-3.6-3.7c-1.5,0-3,0.5-4.1,1.2l-0.7-1.9c1.3-0.9,3.2-1.4,5.2-1.4c4.8,0,6,3.3,6,6.5v5.9c0,1.4,0.1,2.7,0.3,3.8
				H1015.4z M1015,583.8c-3.1-0.1-6.7,0.5-6.7,3.6c0,1.9,1.2,2.8,2.7,2.8c2.1,0,3.4-1.3,3.8-2.7c0.1-0.3,0.2-0.6,0.2-0.9V583.8z"/>
			<path class="st2" d="M1022.7,589c0.9,0.6,2.4,1.1,3.8,1.1c2.1,0,3.1-1,3.1-2.4c0-1.4-0.8-2.1-2.9-2.9c-2.8-1-4.2-2.6-4.2-4.5
				c0-2.6,2.1-4.6,5.5-4.6c1.6,0,3,0.5,3.9,1l-0.7,2.1c-0.6-0.4-1.8-0.9-3.2-0.9c-1.7,0-2.7,1-2.7,2.2c0,1.3,0.9,1.9,3,2.7
				c2.8,1,4.2,2.4,4.2,4.8c0,2.8-2.2,4.7-5.9,4.7c-1.7,0-3.3-0.4-4.5-1.1L1022.7,589z"/>
			<path class="st2" d="M805.4,604.6v19.2c0,1.4,0,3,0.1,4.1h-2.6l-0.1-2.8h-0.1c-0.9,1.8-2.8,3.1-5.4,3.1c-3.8,0-6.8-3.2-6.8-8.1
				c0-5.3,3.2-8.5,7.1-8.5c2.4,0,4.1,1.1,4.8,2.4h0.1v-9.5H805.4z M802.5,618.5c0-0.4,0-0.9-0.1-1.2c-0.4-1.8-2-3.3-4.2-3.3
				c-3,0-4.7,2.6-4.7,6.1c0,3.2,1.6,5.9,4.7,5.9c1.9,0,3.7-1.3,4.2-3.4c0.1-0.4,0.1-0.8,0.1-1.2V618.5z"/>
			<path class="st2" d="M812.4,620.5c0.1,3.9,2.6,5.5,5.4,5.5c2.1,0,3.3-0.4,4.4-0.8l0.5,2.1c-1,0.5-2.8,1-5.3,1
				c-4.9,0-7.8-3.2-7.8-8c0-4.8,2.8-8.5,7.4-8.5c5.2,0,6.5,4.6,6.5,7.5c0,0.6-0.1,1-0.1,1.3H812.4z M820.9,618.4
				c0-1.8-0.8-4.7-4-4.7c-2.9,0-4.2,2.7-4.4,4.7H820.9z"/>
			<path class="st2" d="M835.1,624.9c0.9,0.6,2.4,1.1,3.8,1.1c2.1,0,3.1-1,3.1-2.4c0-1.4-0.8-2.1-2.9-2.9c-2.8-1-4.2-2.6-4.2-4.5
				c0-2.6,2.1-4.6,5.5-4.6c1.6,0,3,0.5,3.9,1l-0.7,2.1c-0.6-0.4-1.8-0.9-3.2-0.9c-1.7,0-2.7,1-2.7,2.2c0,1.3,0.9,1.9,3,2.7
				c2.8,1,4.2,2.4,4.2,4.8c0,2.8-2.2,4.7-5.9,4.7c-1.7,0-3.3-0.4-4.5-1.1L835.1,624.9z"/>
			<path class="st2" d="M850.7,620.5c0.1,3.9,2.6,5.5,5.4,5.5c2.1,0,3.3-0.4,4.4-0.8l0.5,2.1c-1,0.5-2.8,1-5.3,1
				c-4.9,0-7.8-3.2-7.8-8c0-4.8,2.8-8.5,7.4-8.5c5.2,0,6.5,4.6,6.5,7.5c0,0.6-0.1,1-0.1,1.3H850.7z M859.2,618.4
				c0-1.8-0.8-4.7-4-4.7c-2.9,0-4.2,2.7-4.4,4.7H859.2z"/>
			<path class="st2" d="M879.8,612c-0.1,1.1-0.1,2.4-0.1,4.4v9.2c0,3.6-0.7,5.9-2.3,7.2c-1.5,1.4-3.8,1.9-5.8,1.9
				c-1.9,0-4-0.5-5.3-1.3l0.7-2.2c1,0.7,2.7,1.2,4.7,1.2c2.9,0,5.1-1.5,5.1-5.5v-1.8h-0.1c-0.9,1.5-2.6,2.7-5,2.7
				c-3.9,0-6.7-3.3-6.7-7.7c0-5.4,3.5-8.4,7.1-8.4c2.8,0,4.3,1.4,4.9,2.8h0.1l0.1-2.4H879.8z M876.9,618.3c0-0.5,0-0.9-0.2-1.3
				c-0.5-1.7-1.9-3-4-3c-2.8,0-4.7,2.3-4.7,6c0,3.1,1.6,5.7,4.7,5.7c1.8,0,3.4-1.1,4-2.9c0.2-0.5,0.2-1,0.2-1.5V618.3z"/>
			<path class="st2" d="M898.4,623.6c0,1.6,0,3.1,0.1,4.3H896l-0.2-2.6h-0.1c-0.8,1.3-2.4,2.9-5.2,2.9c-2.5,0-5.5-1.4-5.5-6.9V612
				h2.9v8.8c0,3,0.9,5,3.5,5c1.9,0,3.3-1.3,3.8-2.6c0.2-0.4,0.3-1,0.3-1.5V612h2.9V623.6z"/>
			<path class="st2" d="M903.8,617c0-1.9,0-3.5-0.1-4.9h2.5l0.1,3.1h0.1c0.7-2.1,2.5-3.5,4.4-3.5c0.3,0,0.6,0,0.8,0.1v2.7
				c-0.3-0.1-0.6-0.1-1-0.1c-2,0-3.5,1.5-3.9,3.7c-0.1,0.4-0.1,0.9-0.1,1.3v8.4h-2.8V617z"/>
			<path class="st2" d="M918.5,607.6c0,1-0.7,1.8-1.8,1.8c-1,0-1.7-0.8-1.7-1.8c0-1,0.8-1.8,1.8-1.8
				C917.9,605.8,918.5,606.6,918.5,607.6z M915.3,627.9V612h2.9v15.8H915.3z"/>
			<path class="st2" d="M937.3,604.6v19.2c0,1.4,0,3,0.1,4.1h-2.6l-0.1-2.8h-0.1c-0.9,1.8-2.8,3.1-5.4,3.1c-3.8,0-6.8-3.2-6.8-8.1
				c0-5.3,3.2-8.5,7.1-8.5c2.4,0,4.1,1.1,4.8,2.4h0.1v-9.5H937.3z M934.5,618.5c0-0.4,0-0.9-0.1-1.2c-0.4-1.8-2-3.3-4.2-3.3
				c-3,0-4.7,2.6-4.7,6.1c0,3.2,1.6,5.9,4.7,5.9c1.9,0,3.7-1.3,4.2-3.4c0.1-0.4,0.1-0.8,0.1-1.2V618.5z"/>
			<path class="st2" d="M951.6,627.9l-0.2-2h-0.1c-0.9,1.2-2.6,2.4-4.8,2.4c-3.2,0-4.8-2.3-4.8-4.6c0-3.8,3.4-5.9,9.5-5.9v-0.3
				c0-1.3-0.4-3.7-3.6-3.7c-1.5,0-3,0.5-4.1,1.2l-0.7-1.9c1.3-0.9,3.2-1.4,5.2-1.4c4.8,0,6,3.3,6,6.5v5.9c0,1.4,0.1,2.7,0.3,3.8
				H951.6z M951.1,619.8c-3.1-0.1-6.7,0.5-6.7,3.6c0,1.9,1.2,2.8,2.7,2.8c2.1,0,3.4-1.3,3.8-2.7c0.1-0.3,0.2-0.6,0.2-0.9V619.8z"/>
			<path class="st2" d="M972.9,604.6v19.2c0,1.4,0,3,0.1,4.1h-2.6l-0.1-2.8h-0.1c-0.9,1.8-2.8,3.1-5.4,3.1c-3.8,0-6.8-3.2-6.8-8.1
				c0-5.3,3.2-8.5,7.1-8.5c2.4,0,4.1,1.1,4.8,2.4h0.1v-9.5H972.9z M970,618.5c0-0.4,0-0.9-0.1-1.2c-0.4-1.8-2-3.3-4.2-3.3
				c-3,0-4.7,2.6-4.7,6.1c0,3.2,1.6,5.9,4.7,5.9c1.9,0,3.7-1.3,4.2-3.4c0.1-0.4,0.1-0.8,0.1-1.2V618.5z"/>
		</g>
	</g>
	<g>
		<g>
			<path class="st2" d="M458.8,854.3c1.4-0.3,3.5-0.5,5.5-0.5c3,0,5,0.6,6.4,1.8c1.1,1,1.7,2.5,1.7,4.2c0,2.9-1.8,4.8-4.2,5.6v0.1
				c1.7,0.6,2.7,2.2,3.2,4.5c0.7,3.1,1.2,5.2,1.7,6.1h-2.9c-0.4-0.6-0.9-2.5-1.5-5.3c-0.7-3-1.8-4.2-4.4-4.3h-2.7v9.6h-2.8V854.3z
				 M461.7,864.4h2.9c3,0,5-1.7,5-4.2c0-2.8-2.1-4.1-5.1-4.1c-1.4,0-2.4,0.1-2.8,0.3V864.4z"/>
			<path class="st2" d="M478.8,868.7c0.1,3.9,2.6,5.5,5.4,5.5c2.1,0,3.3-0.4,4.4-0.8l0.5,2.1c-1,0.5-2.8,1-5.3,1
				c-4.9,0-7.8-3.2-7.8-8c0-4.8,2.8-8.5,7.4-8.5c5.2,0,6.5,4.6,6.5,7.5c0,0.6-0.1,1-0.1,1.3H478.8z M487.2,866.6
				c0-1.8-0.8-4.7-4-4.7c-2.9,0-4.2,2.7-4.4,4.7H487.2z"/>
			<path class="st2" d="M507.9,852.9V872c0,1.4,0,3,0.1,4.1h-2.6l-0.1-2.8h-0.1c-0.9,1.8-2.8,3.1-5.4,3.1c-3.8,0-6.8-3.2-6.8-8.1
				c0-5.3,3.2-8.5,7.1-8.5c2.4,0,4.1,1.1,4.8,2.4h0.1v-9.5H507.9z M505,866.7c0-0.4,0-0.9-0.1-1.2c-0.4-1.8-2-3.3-4.2-3.3
				c-3,0-4.7,2.6-4.7,6.1c0,3.2,1.6,5.9,4.7,5.9c1.9,0,3.7-1.3,4.2-3.4c0.1-0.4,0.1-0.8,0.1-1.2V866.7z"/>
			<path class="st2" d="M526.6,871.8c0,1.6,0,3.1,0.1,4.3h-2.6l-0.2-2.6H524c-0.8,1.3-2.4,2.9-5.2,2.9c-2.5,0-5.5-1.4-5.5-6.9v-9.3
				h2.9v8.8c0,3,0.9,5,3.5,5c1.9,0,3.3-1.3,3.8-2.6c0.2-0.4,0.3-1,0.3-1.5v-9.7h2.9V871.8z"/>
			<path class="st2" d="M543.3,875.5c-0.8,0.4-2.4,0.9-4.6,0.9c-4.8,0-7.9-3.2-7.9-8.1c0-4.9,3.3-8.4,8.5-8.4c1.7,0,3.2,0.4,4,0.8
				l-0.7,2.2c-0.7-0.4-1.8-0.8-3.3-0.8c-3.6,0-5.6,2.7-5.6,6c0,3.7,2.4,5.9,5.5,5.9c1.6,0,2.7-0.4,3.5-0.8L543.3,875.5z"/>
			<path class="st2" d="M558.5,875.5c-0.8,0.4-2.4,0.9-4.6,0.9c-4.8,0-7.9-3.2-7.9-8.1c0-4.9,3.3-8.4,8.5-8.4c1.7,0,3.2,0.4,4,0.8
				l-0.7,2.2c-0.7-0.4-1.8-0.8-3.3-0.8c-3.6,0-5.6,2.7-5.6,6c0,3.7,2.4,5.9,5.5,5.9c1.6,0,2.7-0.4,3.5-0.8L558.5,875.5z"/>
			<path class="st2" d="M565.7,855.8c0,1-0.7,1.8-1.8,1.8c-1,0-1.7-0.8-1.7-1.8c0-1,0.8-1.8,1.8-1.8
				C565,854,565.7,854.8,565.7,855.8z M562.5,876.1v-15.8h2.9v15.8H562.5z"/>
			<path class="st2" d="M585.2,868.1c0,5.9-4.1,8.4-7.9,8.4c-4.3,0-7.6-3.1-7.6-8.2c0-5.3,3.5-8.4,7.9-8.4
				C582.1,859.9,585.2,863.2,585.2,868.1z M572.6,868.2c0,3.5,2,6.1,4.8,6.1c2.8,0,4.8-2.6,4.8-6.2c0-2.7-1.3-6.1-4.7-6.1
				C574.1,862.1,572.6,865.2,572.6,868.2z M581.7,853.4l-4,4.7h-2.1l2.9-4.7H581.7z"/>
			<path class="st2" d="M589.5,864.5c0-1.6,0-3-0.1-4.3h2.6l0.2,2.6h0.1c0.8-1.5,2.6-3,5.2-3c2.2,0,5.6,1.3,5.6,6.7v9.5h-2.9V867
				c0-2.6-0.9-4.7-3.7-4.7c-1.9,0-3.4,1.3-3.9,2.9c-0.1,0.4-0.2,0.9-0.2,1.3v9.5h-2.9V864.5z"/>
			<path class="st2" d="M629.6,852.9V872c0,1.4,0,3,0.1,4.1h-2.6l-0.1-2.8h-0.1c-0.9,1.8-2.8,3.1-5.4,3.1c-3.8,0-6.8-3.2-6.8-8.1
				c0-5.3,3.2-8.5,7.1-8.5c2.4,0,4.1,1.1,4.8,2.4h0.1v-9.5H629.6z M626.7,866.7c0-0.4,0-0.9-0.1-1.2c-0.4-1.8-2-3.3-4.2-3.3
				c-3,0-4.7,2.6-4.7,6.1c0,3.2,1.6,5.9,4.7,5.9c1.9,0,3.7-1.3,4.2-3.4c0.1-0.4,0.1-0.8,0.1-1.2V866.7z"/>
			<path class="st2" d="M636.6,868.7c0.1,3.9,2.6,5.5,5.4,5.5c2.1,0,3.3-0.4,4.4-0.8l0.5,2.1c-1,0.5-2.8,1-5.3,1
				c-4.9,0-7.8-3.2-7.8-8c0-4.8,2.8-8.5,7.4-8.5c5.2,0,6.5,4.6,6.5,7.5c0,0.6-0.1,1-0.1,1.3H636.6z M645.1,866.6
				c0-1.8-0.8-4.7-4-4.7c-2.9,0-4.2,2.7-4.4,4.7H645.1z"/>
			<path class="st2" d="M494.4,909.1c0.9,0.6,2.4,1.1,3.8,1.1c2.1,0,3.1-1,3.1-2.4c0-1.4-0.8-2.1-2.9-2.9c-2.8-1-4.2-2.6-4.2-4.5
				c0-2.6,2.1-4.6,5.5-4.6c1.6,0,3,0.5,3.9,1l-0.7,2.1c-0.6-0.4-1.8-0.9-3.2-0.9c-1.7,0-2.7,1-2.7,2.2c0,1.3,0.9,1.9,3,2.7
				c2.8,1,4.2,2.4,4.2,4.8c0,2.8-2.2,4.7-5.9,4.7c-1.7,0-3.3-0.4-4.5-1.1L494.4,909.1z"/>
			<path class="st2" d="M522.8,904c0,5.9-4.1,8.4-7.9,8.4c-4.3,0-7.6-3.1-7.6-8.2c0-5.3,3.5-8.4,7.9-8.4
				C519.7,895.9,522.8,899.2,522.8,904z M510.2,904.2c0,3.5,2,6.1,4.8,6.1c2.8,0,4.8-2.6,4.8-6.2c0-2.7-1.3-6.1-4.7-6.1
				C511.7,898,510.2,901.2,510.2,904.2z"/>
			<path class="st2" d="M527.1,901.2c0-1.9,0-3.5-0.1-4.9h2.5l0.1,3.1h0.1c0.7-2.1,2.5-3.5,4.4-3.5c0.3,0,0.6,0,0.8,0.1v2.7
				c-0.3-0.1-0.6-0.1-1-0.1c-2,0-3.5,1.5-3.9,3.7c-0.1,0.4-0.1,0.9-0.1,1.3v8.4h-2.8V901.2z"/>
			<path class="st2" d="M538.6,901.4c0-2-0.1-3.7-0.1-5.2h2.6l0.1,2.7h0.1c1.2-1.9,3-3.1,5.6-3.1c3.8,0,6.7,3.2,6.7,8.1
				c0,5.7-3.5,8.5-7.2,8.5c-2.1,0-3.9-0.9-4.9-2.5h-0.1v8.6h-2.8V901.4z M541.4,905.6c0,0.4,0.1,0.8,0.1,1.2c0.5,2,2.3,3.4,4.3,3.4
				c3,0,4.8-2.5,4.8-6.1c0-3.2-1.7-5.9-4.7-5.9c-2,0-3.8,1.4-4.4,3.6c-0.1,0.4-0.2,0.8-0.2,1.2V905.6z"/>
			<path class="st2" d="M557.9,901.2c0-1.9,0-3.5-0.1-4.9h2.5l0.1,3.1h0.1c0.7-2.1,2.5-3.5,4.4-3.5c0.3,0,0.6,0,0.8,0.1v2.7
				c-0.3-0.1-0.6-0.1-1-0.1c-2,0-3.5,1.5-3.9,3.7c-0.1,0.4-0.1,0.9-0.1,1.3v8.4h-2.8V901.2z"/>
			<path class="st2" d="M570.5,904.7c0.1,3.9,2.6,5.5,5.4,5.5c2.1,0,3.3-0.4,4.4-0.8l0.5,2.1c-1,0.5-2.8,1-5.3,1
				c-4.9,0-7.8-3.2-7.8-8c0-4.8,2.8-8.5,7.4-8.5c5.2,0,6.5,4.6,6.5,7.5c0,0.6-0.1,1-0.1,1.3H570.5z M578.9,902.6
				c0-1.8-0.8-4.7-4-4.7c-2.9,0-4.2,2.7-4.4,4.7H578.9z"/>
			<path class="st2" d="M585.6,909.1c0.9,0.6,2.4,1.1,3.8,1.1c2.1,0,3.1-1,3.1-2.4c0-1.4-0.8-2.1-2.9-2.9c-2.8-1-4.2-2.6-4.2-4.5
				c0-2.6,2.1-4.6,5.5-4.6c1.6,0,3,0.5,3.9,1l-0.7,2.1c-0.6-0.4-1.8-0.9-3.2-0.9c-1.7,0-2.7,1-2.7,2.2c0,1.3,0.9,1.9,3,2.7
				c2.8,1,4.2,2.4,4.2,4.8c0,2.8-2.2,4.7-5.9,4.7c-1.7,0-3.3-0.4-4.5-1.1L585.6,909.1z"/>
			<path class="st2" d="M608.4,912.1l-0.2-2H608c-0.9,1.2-2.6,2.4-4.8,2.4c-3.2,0-4.8-2.3-4.8-4.6c0-3.8,3.4-5.9,9.5-5.9v-0.3
				c0-1.3-0.4-3.7-3.6-3.7c-1.5,0-3,0.5-4.1,1.2l-0.7-1.9c1.3-0.9,3.2-1.4,5.2-1.4c4.8,0,6,3.3,6,6.5v5.9c0,1.4,0.1,2.7,0.3,3.8
				H608.4z M607.9,904c-3.1-0.1-6.7,0.5-6.7,3.6c0,1.9,1.2,2.8,2.7,2.8c2.1,0,3.4-1.3,3.8-2.7c0.1-0.3,0.2-0.6,0.2-0.9V904z"/>
		</g>
	</g>
	<g>
		<path class="st3" d="M530.8,735c0,0,11.8,6.9,14.4,8.1c2.6,1.3,4.6,2.6,7.9,2.6c3.3,0,7.9-2.2,7.9-2.2l16.7-8.8L530.8,735z"/>
		<path class="st4" d="M495,631.8c0,0-1.6,7.3,1.3,12.3c2.9,5,1.8,2.7,1.8,2.7s-1.1,4.3,4.3,7.9c-2.9,2.1-5.6,6.1-5.6,8.7
			c0,2.6,4.5,6.1,4.5,6.1c-1.3,1.1-4.3,5-4.3,8.5c0,3.6,4.2,6.6,4.2,6.6s-3.5,3.4-3.5,8.2c0,4.8,4.2,7.1,4.2,7.1s-3.4,3.9-1.8,8.7
			c1.6,4.8,5.5,6.6,10,11.1c4.5,4.5,15.4,12.6,20.8,15.3c4.8,1.8,33.3,6.9,48-1c14.7-7.9,24.3-16.3,25.1-18.7
			c0.8-2.4,0.5-3.1,0.5-3.1s6.6-5.8,6-11c-0.7-5.1-2.4-7.6-2.4-7.6s3.2-5.5,3.1-8.9c-0.2-3.4-2.9-6.6-2.9-6.6s3.1-4.5,2.9-8.9
			c-0.2-4.4-3.2-6.8-3.2-6.8s4.5-2.3,3.5-9.2c-1-6.9-1.9-8.5-1-11.3c1-2.7,1.3-4.4,0.6-7.1c-1.8,1.1-12.7,8.9-57.8,8.9
			C505.2,644,495,631.8,495,631.8z"/>
		<path class="st5" d="M501.2,635.5c0,0,1.2,2.7-0.4,3.3c-1.5,0.6-3.9-2.7-3.9-2.7s1.2,3.5,2.5,5.8c1.3,2.3,3.9,5.8,4.2,6.8
			c-1,1.2-1.2,2.3-0.4,3.3c0-1.2,1.4-2.9,2.7-2.9c1.4,0,1.6-2.3,1.6-3.5c0-1.1,2.3-4,5.6-2.9c-0.4-0.8-0.8-2.9,0.8-2.9
			C510.9,638.8,501.2,635.5,501.2,635.5z"/>
		<path class="st6" d="M511.9,717.5c0,0,12,10,43.4,8.5c31.4-1.5,46.5-13.9,46.5-13.9s-21,10-45.7,10.9
			C534.4,723.9,520.7,721.6,511.9,717.5z"/>
		<path class="st6" d="M504.6,702.8c0,0,4,4.6,23.7,8.1c-7.9,0.2-13.9,0.6-13.9,0.6s10.2,6.5,42.3,3.8c32-2.7,38.6-9.6,38.6-9.6
			s-8.9,2.1-12.2,2.1c4.8-1,17.4-6.6,19.9-9.1c-5,2.5-17.2,7.5-32,9.9c9.5-1.6,28.2-10,32.6-13.7c-9.8,4.4-25.7,11-49.8,11
			c-24.1,0-36.8-2.1-42.8-4.2c3.1,2.5,9.1,6,26.2,7.3C522.5,708.2,512.6,707.7,504.6,702.8z"/>
		<path class="st6" d="M504.9,687.6c0,0,6.3,5,20.7,6.9c-7.4,0.5-11,0.9-11,0.9s7.9,5.8,43.2,3.6c13.1-0.5,30-5.6,35.3-8.1
			c-7.2,2.9-15.7,4.2-16.7,4.2c6.1-2.2,15.5-5.4,17.6-7.2c-4.7,3.1-16.2,4.7-16.2,4.7s22.7-8.5,26.3-13.3c-13,6.5-32,11.3-51.1,11.3
			c-19.1,0-31.3-1.6-39.6-3.6c5.2,2,11,4.9,17.3,5.6C522.7,692.1,512.6,691.7,504.9,687.6z"/>
		<path class="st6" d="M514.4,679.2c0,0,12.2,4.1,41.2,2.7c29-1.4,38.7-7.9,38.7-7.9s-11.5,2.7-16.2,2.2c8.1-1.3,21.9-6.5,25.4-9.9
			c-3.8,3.2-16.7,7.6-35.3,9.2c13.9-2.4,30.3-7.6,36.2-12.6c-13.7,5.2-27.2,10.8-50.9,10.8c-23.8,0-39.2-2.7-41.4-3.2
			c2.5,1.3,10.3,4.3,20.7,5.6c-13.1-0.9-23.2-2.3-28.4-5.2c5.1,3.4,14.9,6.7,23.2,7.9C518.8,678.4,517.9,680.4,514.4,679.2z"/>
		<path class="st6" d="M514.8,662.9c0,0,12.8,4.9,41.4,2.9c28.6-2,40.5-6.7,40.5-6.7s-16.9,4.2-34,3.1c7.9,0,28.6-3.4,38.5-11
			c-9.9,5.2-28.3,7-40.5,7.2c-12.3,0.2-36.5-0.5-49.1-5.8c6.3,3,10.8,6.3,23.8,7.2c-12.8-0.5-16.4,0.4-27.5-3.4
			c12.8,4.3,13.5,5.6,24.3,6.9C520.4,662.2,521.5,664.2,514.8,662.9z"/>
		<path class="st7" d="M516.1,717.7c0,0,9.7,6.3,40.7,4.9c31-1.4,41.2-10.1,42.5-11c-4.1,2.5-14.4,4.5-15.9,4.7
			c5.8-0.5,12.4-5.4,14.1-7.4c-3.2,2.3-8.3,3.4-8.6,3.8c2.2-1.1,5.9-4.3,5.9-4.3s-26,7.1-38.1,7.1c-12.1,0-26.8,2.4-42.3-3.8
			c10.9,4.7,13.6,6.1,17.9,6.1c-5.8-0.4-15.5-1.8-23.8-6.1c7.9,4,7.7,5,14.4,6.7C516.6,717.1,516.1,717.7,516.1,717.7z"/>
		<path class="st7" d="M519.7,703.8c0,0,20,3.6,38.5,2.3c18.5-1.3,30.2-3.8,42.8-10.1c-8.3,3.6-17.3,4.5-19.1,4.5
			c4.9,0.4,12.6-4.7,12.6-4.7s-8.1,2-10.4,2.1c4.5-1.3,12.4-6.1,11.5-7.2c-1.1-0.9-6.5,2.2-13.1,4c-6.7,1.8-25.4,5-40.5,4.9
			c-15.1-0.2-21.1-2-21.1-2s10.4,4.2,17.3,4.3c-7.2-0.2-9,0.5-14.9-1.1c5.2,2.3,9,3.4,10.8,3.2C531.7,704.5,521.5,703.8,519.7,703.8
			z"/>
		<path class="st7" d="M522.7,687.1c0,0,13.1,3.6,34,2c20.9-1.6,34.2-4.3,39.8-8.1c1.3-0.7-2.7-1.8-5.8,0.2c1.3-0.2,2-3.1,0.2-1.6
			c-2,0.7-6.8,1.6-7.6,1.6c-0.7,0,10.6-2.5,12.6-6.7c-1.8,1.1-24.5,7.9-38.3,7.9c-13.9,0-32.6,1.2-44.1-1.8
			c11.2,2.9,24.3,4.7,29.7,4.5c-6,0.4-18.9,0-22.3-0.7c4.3,0.7,6.8,2.3,6.8,2.3L522.7,687.1z"/>
		<path class="st7" d="M520,670c0,0,10.6,2.5,34.2,2.5c23.6,0,42.8-7,44.6-8.8c-3.6,1.8-9.2,1.3-9.2,1.3s6.6-3.6,7.4-4.5
			c-1.3,1.1-23.6,6.8-42.1,6.8c-18.5,0-34.4-2-34.4-2s6.3,3.6,17.5,4.1C529.4,669.2,521.5,670.1,520,670z"/>
		<path class="st5" d="M517,643.1c0,0,16.7,2.7,17.6,1.8c0.9-0.9,0.5-2,0.5-2s38.2,1.6,56.5-2.2c-14.4,3-19.4,3.8-19.4,3.8
			c5.6-0.5,12.8,0.2,17.1-0.5c-5.8,1.6-11.5,3.1-9.5,4.5c2,1.4,8.8,2,11.3,1.3c-5.9,3.1-17.8,6.8-37.6,5.4
			c-19.8-1.4-33.5-2.7-37.4-4.1c5.2,0.5,7.9-0.4,7.9-1.6C524,648.1,512.1,647.4,517,643.1z"/>
		<path class="st8" d="M696.3,426.5c0-75.8-61.4-137.2-137.2-137.2c-75.7,0-137.2,61.4-137.2,137.2c0,13.8,2,27.1,5.8,39.7
			c0.7,3.3,5,20.3,22.4,48.2c19.4,31.3,30.1,58,32.1,68.3c1.9,10.3-0.8,25.2,2.3,31.3c3.1,6.1,10.3,12.2,10.3,14.5
			c0,2.3,0,2.3,0,2.3s0,0,0,0c0.4,4,9.8,7.8,23.8,10.3c2.7,0.5,5.7,1,9.1,1.4c8.8,1.1,18.8,1.6,29.2,1.4c6.7,0.2,13.1,0,18.9-0.4
			c5.1-0.3,9.6-0.9,13.5-1.6c14.7-2.4,24.1-6.6,24.7-10.8c0.1-0.2,0.3-0.7,0.3-2.2c0-2.3,8.4-7.6,11.5-13.7c3-6.1,5.8-22,7.2-32.4
			c1.9-14.1,15.2-37,34.7-68.3c10.8-17.4,16.6-30.6,19.6-38.8C693.1,460.4,696.3,443.8,696.3,426.5z"/>
		<path class="st9" d="M495,629.4c0,0-2.2-10,57.5-10c59.7,0,61.5,6.8,61.8,10c0,2.1-1.6,14.4-59.6,14.4
			C500.4,643.8,493.9,632.2,495,629.4z"/>
		<path class="st10" d="M473.7,461.4c0,0-3.2,15,9.7,45.7c13,30.6,18.3,34.2,20,43c1.8,8.8,2.7,12.4,2.7,12.4s2.6-4.4,8.8-2.7
			c6.2,1.8,12.7,1.8,16.5-3c3.8-4.7,17.7-12.1,28-6.2c10.3,5.9,20.3,3.8,29.1-0.3c8.8-4.1,18.8-3.2,18.8-3.2s12.4-49.8,20.3-61.9
			c-4.4,2.7-32.1-5.3-36.5-8.8c-4.4-3.5-13-1.2-22.4,1.2c-9.4,2.4-38.6,0.3-50.1-3.8c-11.5-4.1-20.3-9.4-28.3-8.8
			C482.5,465.5,473.7,461.4,473.7,461.4z"/>
		<g>
			<path class="st11" d="M559.2,289.3c-75.7,0-137.2,61.4-137.2,137.2c0,13.8,2,27.1,5.8,39.7c0.7,3.3,5,20.3,22.4,48.2
				c19.4,31.3,30.1,58,32.1,68.3c1.9,10.3-0.8,25.2,2.3,31.3c3.1,6.1,10.3,12.2,10.3,14.5c0,2.3,0,2.3,0,2.3s0,0,0,0
				c0.2,2,2.7,4,6.9,5.7c0.2-2.1,0.6-8.5-1.8-12.9c-2.9-5.3,2.1-39.5,2.9-42.4c-3.2,1.2-10.6-0.3-14.1-14.4
				c-3.5-14.1-26.8-57.4-40.3-85.1c-13.6-27.7-22.1-96.6,12.7-139.3c34.8-42.7,77.5-50.9,104-50.9c26.5,0,77.8,19.1,106.9,73.1
				c29.1,53.9,10.3,91.6-3.2,110.4c-13.5,18.9-44.8,60.4-49.2,72.8c-4.4,12.4-5,19.1-5,19.1s8.8,2.1,8.8,13.6
				c0,11.5-3.8,29.7-7.7,34.2c-3.8,4.4-10.6,11.8-10.3,22.7c0,0.2,0,0.4,0,0.6c5.2-2,8.3-4.4,8.7-6.8c0.1-0.2,0.3-0.7,0.3-2.2
				c0-2.3,8.4-7.6,11.5-13.7c3-6.1,5.8-22,7.2-32.4c1.9-14.1,15.2-37,34.7-68.3c10.8-17.4,16.6-30.6,19.6-38.8
				c5.9-15.2,9.1-31.8,9.1-49.1C696.3,350.7,634.9,289.3,559.2,289.3z"/>
			<path class="st6" d="M575.8,643.4c-5.9,0.4-12.2,0.6-18.9,0.4c-10.3,0.2-20.3-0.3-29.2-1.4c-3.4-0.4-6.4-0.9-9.1-1.4
				c-7-1.2-12.8-2.8-16.9-4.6c-0.1,0.4-0.1,0.7-0.1,0.7c1.7,13,26.2,17.1,52.1,17.1c25.4,0,50.8-6.8,51.5-16.5c-4.1,1.6-9.6,3-16,4
				C585.4,642.6,581,643.1,575.8,643.4z"/>
		</g>
		<path class="st10" d="M508.6,433.2l10,0.8c0,0,15.6,3.2,26.2,5.6c10.6,2.4,20.9,5.5,24.1,6.3c3.2,0.8,26.9-0.4,26.9-0.4l4.8,1
			l-1.1-7.7l-0.5,5.8c0,0-3.2-0.8-13,0c-9.8,0.8-16.7-0.3-16.7-0.3s-15.1-4.8-23.8-6.9c-8.7-2.1-26.7-5.3-26.7-5.3L508.6,433.2z"/>

			<linearGradient id="SVGID_1_" gradientUnits="userSpaceOnUse" x1="2069.9072" y1="252.4204" x2="2069.9072" y2="40.3111" gradientTransform="matrix(-1 0 0 -1 2631.1367 683.8008)">
			<stop  offset="0" style="stop-color:#FFFFFF"/>
			<stop  offset="0.2145" style="stop-color:#BBBBBB"/>
			<stop  offset="0.4163" style="stop-color:#828282"/>
			<stop  offset="0.6012" style="stop-color:#565656"/>
			<stop  offset="0.766" style="stop-color:#363636"/>
			<stop  offset="0.9045" style="stop-color:#232323"/>
			<stop  offset="1" style="stop-color:#1C1C1C"/>
		</linearGradient>
		<path class="st12" d="M535.9,642.9L538,604l0.8-29.5v-16.9c0,0,1.4-9.2,1-13.3c-0.5-4.1-3-8.6-4-12.7c-1-4.1-9.5-38.3-9.5-38.3
			L515.5,450l-1.3-3.3c0,0-0.8,0.1-1.4-0.6c-0.6-0.8-3.3-12.2-3.3-12.2s-1-2.1,0.5-2.4c1.4-0.3,2.4,0,3,3.3c0.6,3.3,7.8,30,7.8,30
			l13.5,54.7c0,0,1.8,7.4,3.2,12.7c1.4,5.2,3.5,9,4.1,11.6c0.6,2.5-0.5,9.5-0.8,14.4c-0.3,4.9-1.4,40.6-1.7,47.2
			c-0.3,6.7-2.4,37.7-2.4,37.7L535.9,642.9z M565.2,643.5l2.2-47.4c0,0,2.1-43.1,2.1-52c0-8.9,2.5-17.1,2.5-17.1l6.6-22.2l16.6-53.4
			c0,0,0.6,1.4,1.7-2.7c1.1-4.1,3.3-9.7,1.6-10.3c-1.7-0.6-2.9,7-2.9,7l-4.7,15.1c0,0-18.1,57.8-20.5,65.9
			c-2.4,8.1-2.5,17.9-2.5,17.9l-1.9,37.4l-0.3,20.6l-1.4,41.2H565.2z M554.3,483.4c0.1-0.1,2.5-2.3,5.2-7.6l13.2-26.4l0-0.1l0-0.1
			c0.1-0.5,0.6-5.2-1-7c-0.4-0.5-0.9-0.7-1.6-0.7c-0.7,0-1.3,0.4-1.6,1.2c-0.7,1.9,0.3,5.8,2,7.3c0.9,0.8,1.9,1,2.8,0.5
			c3.4-1.7,3.6-3.3,3.6-3.6h-1.5v-0.1c0,0-0.2,1-2.8,2.3c-0.3,0.1-0.6,0.2-1.2-0.2c-1.3-1.2-2.1-4.5-1.6-5.7
			c0.1-0.3,0.2-0.3,0.3-0.3c0.2,0,0.3,0.1,0.5,0.2c0.9,1,0.9,4.1,0.6,5.8l0.1-0.2l-13.2,26.4c-2.5,5.1-4.8,7.2-4.9,7.2L554.3,483.4z
			 M567.5,483.8c0.3-0.1,6.3-2.2,11.6-6.7c5.2-4.4,27.8-26.5,28.1-26.7l0,0l0,0c0,0,2.7-3.8-2-7.6c-1.9-1.5-4-1.4-5.7,0.5
			c-1.7,1.9-2.6,5.3-1.1,6.7c1.1,1.1,2.7,1.7,4.3,1.6c3.1-0.1,6.7-2.6,10.5-7.2l-1.1-0.9c-4.5,5.4-7.6,6.6-9.5,6.7
			c-1.6,0.1-2.6-0.6-3.2-1.2c-0.7-0.7-0.2-3.1,1.2-4.7c1.1-1.2,2.4-1.4,3.7-0.3c3.6,2.9,1.8,5.5,1.7,5.6l0.1-0.1
			c-0.2,0.2-22.8,22.2-28,26.7c-5.1,4.3-11.1,6.5-11.1,6.5L567.5,483.8z"/>

			<linearGradient id="SVGID_2_" gradientUnits="userSpaceOnUse" x1="2078.092" y1="204.2713" x2="2078.092" y2="40.5862" gradientTransform="matrix(-1 0 0 -1 2631.1367 683.8008)">
			<stop  offset="0" style="stop-color:#FFFFFF"/>
			<stop  offset="4.054844e-03" style="stop-color:#FEFEFE"/>
			<stop  offset="0.3179" style="stop-color:#D3D3D3"/>
			<stop  offset="0.5995" style="stop-color:#B3B3B3"/>
			<stop  offset="0.8365" style="stop-color:#A0A0A0"/>
			<stop  offset="1" style="stop-color:#999999"/>
		</linearGradient>
		<path class="st13" d="M555.9,569.4c0,0-2.7,5.4,1.1,7.3c3.8,1.9,9.7-1.1,10.3-3c0,1.6-3.5,5.1-5.9,5.1c3,1.9,9.4-2.1,9.4-2.1
			s-2.4,4.6-9.4,4.3c-7-0.3-10.3-7.3-10.3-7.3C554.8,576.1,555.9,569.4,555.9,569.4z M530.1,643.2c0,0-0.8-16.4,1.1-17.3
			c1.9-0.8,3,5.9,3,5.9l0.5-22.4c0,0,1.6,4.6-2.4,4.6c-4.1,0,1.1-20.5,3.5-21.3c-2.2-3.5-0.3-14.8,1.1-16.7
			c-6.5,3.2-8.1,18.1-8.1,18.1v48.8L530.1,643.2z M558.1,581.8c0,0,4.1,2.7,8.9,1.9c4.9-0.8,7.3-3.2,7.3-3.2s1.4,3.8,1.4,13.2
			c0,9.4-2.2,10.2-3.8,10.2c-1.6,0-1.9-6.2-1.9-6.2v19.4c0,0,0.3-5.1,3-5.1c2.7,0,1.9,12.1,1.9,12.1l0.3,19.1l2.2-0.3v-49.6
			c0,0,1.1-9.2-2.7-15.9c-1.6-3-2.4-2.7-2.4-2.7S574.8,582,558.1,581.8z M543.8,580.1c0,0-1.1-1.4,0.3-4.3c1.3-3,5.4,2.1,9.2,3.8
			c-2.7-1.6-6.2-8.4-7-9.4c-1.9,2.4-8.6,5.4-8.6,5.4C538.7,575.3,543.8,580.1,543.8,580.1z M539.8,573.4c0,0,0-14.8,1.9-14.8
			c1.9,0,2.4,4.9,2.7,5.7c-0.3-1.1,1.1-12.1,1.1-12.1s-0.8,1.6-3.8,0.3c-3-1.3,0.5-7.5,2.2-7.5c-6.7,0-7,8.4-7,8.4v20.8
			C539,574.7,539.8,573.4,539.8,573.4z M552.4,547.5c1.9-1.4,13.5,0.5,13.5,3c0,2.4-4,3.5-7,3.2c1.6,1.4,7.8,0.5,7.8,0.5l-0.6,11.6
			c0,0-1.9,3-3.8,2.4c-1.9-0.6,2.7-7.8,2.7-7.8s0,3.2-5.6,5.4c-5.7,2.1,4.6,8.4,1.1,10c3.2,0.5,7.3-5.4,8.1-4.6
			c0.8,0.8-0.8,5.7-1.9,6.5c1.6-0.5,4.3-4.6,4.3-4.6s0-18.6,0-24c0-5.4-8.4-5.4-8.4-5.4C554.8,543.8,557.3,545.9,552.4,547.5z
			 M551.9,564.5c1.6-1.1,3,3.2,4,4.8c-0.3-2.7,1.9-11.6,1.9-11.6s0,3.5-3.2,4.3c-3.2,0.8-4.6-14-4-8.1c0.5,5.9-3.5,12.9-3.5,12.9
			S550.3,565.6,551.9,564.5z M548.4,546.4l-1.1-29.1l-0.6,18.6l-1.3-49.9v57.1C545.4,549.7,548.4,546.4,548.4,546.4z M562.4,542.7
			v-56.6l-1.6,37.5l-1.3-10l0.5,23.7l0.8-5.9L562.4,542.7z M549.7,487.2v56.1c0,0-0.3,3,1.9,2.2c2.1-0.8,1.3-2.4,1.3-2.4l4.3-0.5
			l-5.6-1.1l-0.3-54.4L549.7,487.2z M543.8,482.6c0-1.6,4.9-2.2,8.4,1.1c3.5,3.2,3.2-2.4,9.5-2.2c6.2,0.3,2.9,4.3,2.9,4.3
			s4.3-0.8,4.3-3.2c0-3.2-8.4-3-13-3c-4.6,0-14.6-0.8-14.6,3c0,3.8,4,3.5,4,3.5C544.1,485.8,543.8,484.2,543.8,482.6z"/>
		<g>
			<path class="st10" d="M443.4,441.4c-0.9-13.7,14.8-48.9,45.8-75.1c-8.5-1-14.6-1.2-14.6-1.2c0.9-7.7,31.2-65.1,103.1-53.6
				c71.9,11.5,83.9,74.5,85.1,81.3c-1.6-0.9-4.7-1.9-8.4-2.9c14.4,30.4,16.4,63.6,13.2,72.2c0,0,29-35.9,1.5-94.4
				c-27.5-58.5-86.5-72.8-104.2-72.8c-17.7,0-75.7,5.9-112,66.4C444.4,377,438,413.4,443.4,441.4z"/>
			<path class="st14" d="M573.7,334.8c-35.1,0-63.3,13.7-84.5,31.6c10.5,1.2,24.7,3.4,35.1,7.3c9.4-2.4,63.3-16.8,106.3,12.4
				c4.3,0,15.5,1.8,23.7,3.9C640.7,361,615.8,334.8,573.7,334.8z"/>
			<path class="st8" d="M577.7,311.5c-71.9-11.5-102.2,45.9-103.1,53.6c0,0,6.2,0.3,14.6,1.2c21.1-17.9,49.4-31.6,84.5-31.6
				c42.2,0,67.1,26.3,80.7,55.1c3.7,0.9,6.8,2,8.4,2.9C661.6,386,649.6,323,577.7,311.5z"/>
		</g>
	</g>
</g>
<g>
	<path d="M426.8,68c-1.3,0.6-3.8,1.3-7,1.3c-7.5,0-13.1-4.7-13.1-13.4c0-8.3,5.6-13.9,13.8-13.9c3.3,0,5.4,0.7,6.3,1.2l-0.8,2.8
		c-1.3-0.6-3.1-1.1-5.3-1.1c-6.2,0-10.3,4-10.3,10.9c0,6.5,3.7,10.7,10.2,10.7c2.1,0,4.2-0.4,5.6-1.1L426.8,68z"/>
	<path d="M435.5,60.6l-2.8,8.3h-3.5l9-26.5h4.1l9,26.5h-3.7l-2.8-8.3H435.5z M444.2,57.9l-2.6-7.6c-0.6-1.7-1-3.3-1.4-4.8h-0.1
		c-0.4,1.6-0.8,3.2-1.3,4.8l-2.6,7.7H444.2z"/>
	<path d="M455.2,42.8c1.7-0.4,4.2-0.6,6.6-0.6c3.7,0,6,0.7,7.7,2.2c1.3,1.2,2.1,3,2.1,5c0,3.5-2.2,5.8-5,6.8v0.1
		c2,0.7,3.3,2.6,3.9,5.3c0.9,3.7,1.5,6.2,2,7.3H469c-0.4-0.7-1-3-1.8-6.3c-0.8-3.7-2.2-5-5.3-5.1h-3.2v11.5h-3.4V42.8z M458.7,54.8
		h3.5c3.7,0,6-2,6-5c0-3.4-2.5-4.9-6.1-5c-1.7,0-2.8,0.2-3.4,0.3V54.8z"/>
	<path d="M480.9,60.6l-2.8,8.3h-3.5l9-26.5h4.1l9,26.5h-3.7l-2.8-8.3H480.9z M489.6,57.9l-2.6-7.6c-0.6-1.7-1-3.3-1.4-4.8h-0.1
		c-0.4,1.6-0.8,3.2-1.3,4.8l-2.6,7.7H489.6z"/>
	<path d="M518.6,68c-1.3,0.6-3.8,1.3-7,1.3c-7.5,0-13.1-4.7-13.1-13.4c0-8.3,5.6-13.9,13.8-13.9c3.3,0,5.4,0.7,6.3,1.2l-0.8,2.8
		c-1.3-0.6-3.1-1.1-5.3-1.1c-6.2,0-10.3,4-10.3,10.9c0,6.5,3.7,10.7,10.2,10.7c2.1,0,4.2-0.4,5.6-1.1L518.6,68z"/>
	<path d="M529,45.3h-8.1v-2.9h19.6v2.9h-8.1v23.6H529V45.3z"/>
	<path d="M557.2,56.5h-10.3V66h11.5v2.9h-14.9V42.4h14.3v2.9h-10.9v8.4h10.3V56.5z"/>
	<path d="M562.8,42.8c1.7-0.4,4.2-0.6,6.6-0.6c3.7,0,6,0.7,7.7,2.2c1.3,1.2,2.1,3,2.1,5c0,3.5-2.2,5.8-5,6.8v0.1
		c2,0.7,3.3,2.6,3.9,5.3c0.9,3.7,1.5,6.2,2,7.3h-3.5c-0.4-0.7-1-3-1.8-6.3c-0.8-3.7-2.2-5-5.3-5.1h-3.2v11.5h-3.4V42.8z M566.2,54.8
		h3.5c3.7,0,6-2,6-5c0-3.4-2.5-4.9-6.1-5c-1.7,0-2.8,0.2-3.4,0.3V54.8z"/>
	<path d="M591.4,36.4l-5,4.6h-2.8l3.6-4.6H591.4z M587.4,42.4v26.5H584V42.4H587.4z"/>
	<path d="M592.9,64.7c1.5,0.9,3.8,1.7,6.1,1.7c3.5,0,5.5-1.8,5.5-4.5c0-2.5-1.4-3.9-5-5.3c-4.3-1.5-7-3.8-7-7.5
		c0-4.1,3.4-7.2,8.6-7.2c2.7,0,4.7,0.6,5.9,1.3l-0.9,2.8c-0.9-0.5-2.6-1.3-5-1.3c-3.6,0-5,2.2-5,4c0,2.5,1.6,3.7,5.3,5.1
		c4.5,1.7,6.8,3.9,6.8,7.8c0,4.1-3,7.6-9.3,7.6c-2.6,0-5.3-0.7-6.8-1.7L592.9,64.7z"/>
	<path d="M617.8,45.3h-8.1v-2.9h19.6v2.9h-8.1v23.6h-3.5V45.3z"/>
	<path d="M635.7,42.4v26.5h-3.4V42.4H635.7z"/>
	<path d="M660.2,68c-1.3,0.6-3.8,1.3-7,1.3c-7.5,0-13.1-4.7-13.1-13.4c0-8.3,5.6-13.9,13.8-13.9c3.3,0,5.4,0.7,6.3,1.2l-0.8,2.8
		c-1.3-0.6-3.1-1.1-5.3-1.1c-6.2,0-10.3,4-10.3,10.9c0,6.5,3.7,10.7,10.2,10.7c2.1,0,4.2-0.4,5.6-1.1L660.2,68z"/>
	<path d="M668.9,60.6l-2.8,8.3h-3.5l9-26.5h4.1l9,26.5h-3.7l-2.8-8.3H668.9z M677.6,57.9l-2.6-7.6c-0.6-1.7-1-3.3-1.4-4.8h-0.1
		c-0.4,1.6-0.8,3.2-1.3,4.8l-2.6,7.7H677.6z"/>
	<path d="M688.2,64.7c1.5,0.9,3.8,1.7,6.1,1.7c3.5,0,5.5-1.8,5.5-4.5c0-2.5-1.4-3.9-5-5.3c-4.3-1.5-7-3.8-7-7.5
		c0-4.1,3.4-7.2,8.6-7.2c2.7,0,4.7,0.6,5.9,1.3l-0.9,2.8c-0.9-0.5-2.6-1.3-5-1.3c-3.6,0-5,2.2-5,4c0,2.5,1.6,3.7,5.3,5.1
		c4.5,1.7,6.8,3.9,6.8,7.8c0,4.1-3,7.6-9.3,7.6c-2.6,0-5.3-0.7-6.8-1.7L688.2,64.7z"/>
</g>
</svg>
