<?xml version="1.0" encoding="utf-8"?>
<!-- Generator: Adobe Illustrator 22.0.0, SVG Export Plug-In . SVG Version: 6.00 Build 0)  -->
<svg version="1.1" id="Layer_1" xmlns="http://www.w3.org/2000/svg" xmlns:xlink="http://www.w3.org/1999/xlink" x="0px" y="0px"
	 viewBox="0 0 1001.3 396.4" style="enable-background:new 0 0 1001.3 396.4;" xml:space="preserve">
<style type="text/css">
	.st0{fill:#455927;}
	.st1{fill:#FFFFFF;}
	.st2{fill:url(#SVGID_1_);}
	.st3{fill:url(#SVGID_2_);}
</style>
<g>
	<circle class="st0" cx="492.4" cy="185.2" r="167.1"/>
	<g>
		<path class="st1" d="M431.3,102.2H425c-0.7,0-1.3-0.2-1.7-0.5c-0.4-0.3-0.8-0.7-1-1.3l-2.1-6.1H407l-2.1,6.1
			c-0.2,0.4-0.5,0.9-0.9,1.2c-0.5,0.4-1,0.5-1.7,0.5h-6.3l13.5-35h8.3L431.3,102.2z M418.4,88.8l-3.2-9.6c-0.2-0.6-0.5-1.3-0.8-2.1
			s-0.5-1.7-0.8-2.7c-0.2,1-0.5,1.9-0.8,2.7c-0.3,0.8-0.5,1.6-0.8,2.2l-3.2,9.5H418.4z"/>
		<path class="st1" d="M440.6,66.3v35.9h-7.4V66.3H440.6z"/>
		<path class="st1" d="M468.3,78.1v2.7c0,0.4-0.1,0.7-0.3,1c-0.2,0.2-0.6,0.4-1.2,0.6l-1.8,0.4c0.1,0.4,0.2,0.7,0.2,1.1
			c0.1,0.4,0.1,0.8,0.1,1.2c0,1.2-0.3,2.4-0.8,3.4s-1.2,1.8-2.1,2.5c-0.9,0.7-2,1.2-3.2,1.6c-1.2,0.4-2.6,0.6-4,0.6
			c-0.4,0-0.8,0-1.1,0c-0.4,0-0.7-0.1-1.1-0.1c-0.5,0.3-0.8,0.7-0.8,1.1s0.2,0.7,0.7,0.9c0.4,0.2,1,0.3,1.8,0.4
			c0.7,0.1,1.6,0.1,2.5,0.1s1.9,0.1,2.9,0.2s1.9,0.2,2.9,0.4s1.8,0.5,2.5,1s1.3,1.1,1.8,1.9c0.4,0.8,0.7,1.8,0.7,3
			c0,1.1-0.3,2.2-0.8,3.3c-0.5,1.1-1.3,2-2.4,2.9c-1.1,0.8-2.4,1.5-3.9,2s-3.3,0.8-5.3,0.8c-2,0-3.6-0.2-5.1-0.6s-2.6-0.9-3.5-1.5
			c-0.9-0.6-1.6-1.3-2.1-2.1c-0.4-0.8-0.7-1.6-0.7-2.4c0-1.1,0.3-2,1-2.8c0.6-0.7,1.5-1.3,2.7-1.8c-0.6-0.4-1.1-0.8-1.4-1.4
			c-0.4-0.6-0.5-1.3-0.5-2.2c0-0.4,0.1-0.8,0.2-1.2c0.1-0.4,0.3-0.8,0.6-1.2c0.3-0.4,0.6-0.8,1-1.1s0.9-0.7,1.5-0.9
			c-1.3-0.7-2.3-1.6-3.1-2.7c-0.8-1.1-1.1-2.4-1.1-3.9c0-1.2,0.3-2.4,0.8-3.4c0.5-1,1.3-1.8,2.2-2.5s2-1.2,3.3-1.6s2.6-0.6,4.1-0.6
			c2.1,0,4,0.4,5.6,1.2H468.3z M460.9,103.1c0-0.6-0.3-1-0.8-1.3c-0.5-0.3-1.2-0.5-2.1-0.6c-0.8-0.1-1.8-0.2-2.8-0.2
			c-1,0-2.1-0.1-3.1-0.2c-0.5,0.3-0.8,0.7-1.1,1.1c-0.3,0.4-0.4,0.8-0.4,1.3c0,0.4,0.1,0.7,0.2,1s0.4,0.5,0.8,0.7
			c0.4,0.2,0.9,0.4,1.5,0.5s1.5,0.2,2.5,0.2c1.1,0,2-0.1,2.6-0.2s1.2-0.3,1.6-0.5c0.4-0.2,0.7-0.5,0.9-0.8
			C460.8,103.8,460.9,103.5,460.9,103.1z M455.2,88.5c1.2,0,2.1-0.3,2.7-0.9c0.6-0.6,0.8-1.4,0.8-2.4c0-1-0.3-1.8-0.8-2.4
			c-0.6-0.6-1.4-0.9-2.7-0.9c-1.2,0-2.1,0.3-2.7,0.9c-0.6,0.6-0.8,1.4-0.8,2.4c0,0.5,0.1,0.9,0.2,1.3c0.1,0.4,0.3,0.7,0.6,1
			s0.7,0.5,1.1,0.7C454,88.4,454.6,88.5,455.2,88.5z"/>
		<path class="st1" d="M482.4,76.9c1.9,0,3.6,0.3,5.2,0.9s2.9,1.4,4,2.5c1.1,1.1,2,2.4,2.6,4c0.6,1.6,0.9,3.3,0.9,5.3
			c0,2-0.3,3.8-0.9,5.4c-0.6,1.6-1.5,2.9-2.6,4.1c-1.1,1.1-2.4,2-4,2.6c-1.6,0.6-3.3,0.9-5.2,0.9c-1.9,0-3.6-0.3-5.2-0.9
			c-1.6-0.6-2.9-1.5-4-2.6s-2-2.5-2.6-4.1c-0.6-1.6-0.9-3.4-0.9-5.4c0-2,0.3-3.7,0.9-5.3c0.6-1.6,1.5-2.9,2.6-4c1.1-1.1,2.5-2,4-2.5
			S480.5,76.9,482.4,76.9z M482.4,97.1c1.7,0,3-0.6,3.8-1.8c0.8-1.2,1.2-3,1.2-5.5s-0.4-4.3-1.2-5.5c-0.8-1.2-2.1-1.8-3.8-1.8
			c-1.8,0-3,0.6-3.9,1.8s-1.2,3-1.2,5.5s0.4,4.3,1.2,5.5S480.6,97.1,482.4,97.1z"/>
		<path class="st1" d="M532.4,77.3v32.8H525V99.5c-0.9,0.9-2,1.7-3.2,2.2c-1.2,0.6-2.5,0.9-4.1,0.9c-1.3,0-2.5-0.3-3.6-0.9
			s-2.1-1.4-2.9-2.5c-0.8-1.1-1.4-2.4-1.9-4c-0.5-1.6-0.7-3.4-0.7-5.4c0-1.9,0.3-3.6,0.8-5.2c0.5-1.6,1.2-3,2.2-4.1s2.1-2.1,3.4-2.7
			s2.8-1,4.3-1c0.8,0,1.4,0.1,2,0.2c0.6,0.1,1.2,0.3,1.7,0.6c0.5,0.2,1,0.5,1.4,0.9c0.4,0.3,0.8,0.7,1.2,1.1l0.3-1
			c0.3-0.8,0.9-1.2,1.8-1.2H532.4z M525,84c-0.6-0.6-1.2-1-1.8-1.3c-0.7-0.3-1.3-0.4-2.1-0.4c-0.7,0-1.3,0.1-1.9,0.4
			c-0.6,0.3-1.1,0.7-1.5,1.3c-0.4,0.6-0.8,1.4-1,2.3c-0.2,1-0.4,2.1-0.4,3.5c0,1.3,0.1,2.4,0.3,3.3c0.2,0.9,0.5,1.6,0.8,2.2
			c0.3,0.6,0.8,0.9,1.2,1.2s1,0.4,1.6,0.4c0.5,0,1-0.1,1.5-0.2c0.4-0.1,0.8-0.3,1.2-0.4c0.4-0.2,0.7-0.4,1-0.7c0.3-0.3,0.7-0.6,1-1
			V84z"/>
		<path class="st1" d="M559.8,77.3v24.9h-4.6c-0.9,0-1.5-0.4-1.8-1.2l-0.4-1.4c-0.5,0.5-1,0.9-1.5,1.3c-0.5,0.4-1.1,0.7-1.6,1
			c-0.6,0.3-1.2,0.5-1.9,0.6c-0.7,0.2-1.4,0.2-2.2,0.2c-1.4,0-2.6-0.2-3.6-0.7s-1.9-1.1-2.7-2c-0.7-0.8-1.3-1.8-1.6-3
			c-0.4-1.2-0.6-2.4-0.6-3.8V77.3h7.4v15.8c0,1.2,0.3,2.2,0.8,2.9c0.6,0.7,1.4,1,2.5,1c0.8,0,1.6-0.2,2.3-0.5s1.4-0.8,2.1-1.4V77.3
			H559.8z"/>
		<path class="st1" d="M570.9,91.1c0.2,2.1,0.9,3.6,1.9,4.5c1,0.9,2.3,1.4,4,1.4c0.9,0,1.6-0.1,2.2-0.3s1.2-0.4,1.7-0.7
			c0.5-0.3,0.9-0.5,1.3-0.7c0.4-0.2,0.8-0.3,1.3-0.3c0.6,0,1,0.2,1.3,0.6l2.2,2.7c-0.8,0.9-1.6,1.6-2.5,2.1c-0.9,0.6-1.8,1-2.7,1.3
			c-0.9,0.3-1.9,0.5-2.8,0.6c-0.9,0.1-1.8,0.2-2.7,0.2c-1.7,0-3.4-0.3-4.9-0.9c-1.5-0.6-2.9-1.4-4-2.5c-1.1-1.1-2-2.5-2.7-4.2
			s-1-3.6-1-5.8c0-1.7,0.3-3.2,0.9-4.7c0.6-1.5,1.4-2.8,2.4-3.9s2.4-2,3.9-2.7s3.2-1,5.1-1c1.6,0,3.2,0.3,4.5,0.8
			c1.4,0.5,2.5,1.3,3.5,2.2c1,1,1.8,2.2,2.3,3.6c0.6,1.4,0.8,3,0.8,4.8c0,0.6,0,1-0.1,1.4c0,0.4-0.1,0.6-0.3,0.8s-0.3,0.4-0.5,0.4
			s-0.5,0.1-0.8,0.1H570.9z M580.3,86.8c0-0.6-0.1-1.2-0.2-1.7c-0.2-0.6-0.4-1.1-0.7-1.5c-0.3-0.4-0.8-0.8-1.4-1.1
			c-0.6-0.3-1.2-0.4-2-0.4c-1.4,0-2.5,0.4-3.3,1.2c-0.8,0.8-1.3,2-1.6,3.5H580.3z"/>
		<path class="st1" d="M477.4,134.9v24.9h-4.6c-0.9,0-1.5-0.4-1.8-1.2l-0.4-1.4c-0.5,0.5-1,0.9-1.5,1.3s-1.1,0.7-1.6,1
			c-0.6,0.3-1.2,0.5-1.9,0.6c-0.7,0.2-1.4,0.2-2.2,0.2c-1.4,0-2.6-0.2-3.6-0.7c-1-0.5-1.9-1.1-2.7-2c-0.7-0.8-1.3-1.8-1.6-3
			c-0.4-1.2-0.6-2.4-0.6-3.8v-15.8h7.4v15.8c0,1.2,0.3,2.2,0.8,2.9c0.6,0.7,1.4,1,2.5,1c0.8,0,1.6-0.2,2.3-0.5
			c0.7-0.3,1.4-0.8,2.1-1.4v-17.7H477.4z"/>
		<path class="st1" d="M489.3,137.6c0.5-0.4,1-0.9,1.5-1.2c0.5-0.4,1.1-0.7,1.6-1c0.6-0.3,1.2-0.5,1.9-0.6c0.7-0.2,1.4-0.2,2.2-0.2
			c1.4,0,2.6,0.2,3.6,0.7c1,0.5,1.9,1.1,2.7,2s1.3,1.8,1.6,3s0.6,2.4,0.6,3.8v15.8h-7.4V144c0-1.2-0.3-2.2-0.8-2.8
			c-0.6-0.7-1.4-1-2.5-1c-0.8,0-1.6,0.2-2.3,0.5c-0.7,0.3-1.4,0.8-2.1,1.4v17.8h-7.4v-24.9h4.6c0.9,0,1.5,0.4,1.8,1.2L489.3,137.6z"
			/>
		<path class="st1" d="M509.3,138.4c1.5-1.3,3.2-2.3,5-3c1.8-0.6,3.8-1,5.9-1c1.5,0,2.9,0.2,4.1,0.7c1.2,0.5,2.2,1.2,3.1,2
			c0.8,0.9,1.5,1.9,1.9,3.1c0.4,1.2,0.7,2.5,0.7,3.9v15.6h-3.4c-0.7,0-1.2-0.1-1.6-0.3c-0.4-0.2-0.7-0.6-0.9-1.2l-0.5-1.4
			c-0.6,0.5-1.2,1-1.8,1.4c-0.6,0.4-1.2,0.7-1.8,1c-0.6,0.3-1.3,0.5-2,0.6c-0.7,0.1-1.5,0.2-2.3,0.2c-1.1,0-2.2-0.1-3.1-0.4
			c-0.9-0.3-1.7-0.7-2.4-1.3c-0.6-0.6-1.1-1.3-1.5-2.1c-0.4-0.9-0.5-1.8-0.5-3c0-0.9,0.2-1.8,0.7-2.7c0.4-0.9,1.2-1.8,2.3-2.5
			s2.6-1.4,4.5-1.9c1.9-0.5,4.2-0.8,7.1-0.9v-1.1c0-1.5-0.3-2.5-0.9-3.2c-0.6-0.6-1.5-1-2.6-1c-0.9,0-1.6,0.1-2.2,0.3
			c-0.6,0.2-1.1,0.4-1.5,0.6c-0.4,0.2-0.9,0.5-1.3,0.6s-0.9,0.3-1.5,0.3c-0.5,0-0.9-0.1-1.3-0.4s-0.6-0.6-0.9-0.9L509.3,138.4z
			 M522.7,149.7c-1.5,0.1-2.7,0.2-3.7,0.4c-1,0.2-1.7,0.4-2.3,0.7c-0.6,0.3-0.9,0.6-1.2,1c-0.2,0.4-0.3,0.8-0.3,1.2
			c0,0.8,0.2,1.4,0.7,1.8c0.5,0.3,1.1,0.5,2,0.5c1,0,1.8-0.2,2.5-0.5c0.7-0.3,1.4-0.9,2.2-1.6V149.7z"/>
		<path class="st1" d="M415.2,195.6c1-1,2.1-1.9,3.3-2.6c1.2-0.7,2.7-1,4.4-1c1.3,0,2.5,0.3,3.6,0.9c1.1,0.6,2.1,1.4,2.9,2.5
			c0.8,1.1,1.4,2.4,1.9,4c0.5,1.6,0.7,3.4,0.7,5.4c0,1.9-0.3,3.6-0.8,5.2c-0.5,1.6-1.2,3-2.2,4.1s-2.1,2.1-3.4,2.7
			c-1.3,0.7-2.7,1-4.3,1c-1.3,0-2.4-0.2-3.3-0.6c-0.9-0.4-1.7-0.9-2.4-1.5v9.6h-7.4v-32.8h4.6c0.9,0,1.5,0.4,1.8,1.2L415.2,195.6z
			 M415.7,210.6c0.6,0.6,1.2,1,1.8,1.3c0.7,0.3,1.3,0.4,2.1,0.4c0.7,0,1.3-0.1,1.9-0.4c0.6-0.3,1.1-0.7,1.5-1.3
			c0.4-0.6,0.8-1.4,1-2.3c0.2-1,0.4-2.1,0.4-3.5c0-1.3-0.1-2.4-0.3-3.3c-0.2-0.9-0.5-1.6-0.8-2.2c-0.3-0.6-0.8-0.9-1.2-1.2
			s-1-0.4-1.6-0.4c-1.1,0-2,0.2-2.7,0.6c-0.7,0.4-1.4,1-2,1.8V210.6z"/>
		<path class="st1" d="M442,206.3c0.2,2.1,0.9,3.6,1.9,4.5c1,0.9,2.3,1.4,4,1.4c0.9,0,1.6-0.1,2.2-0.3s1.2-0.4,1.7-0.7
			c0.5-0.3,0.9-0.5,1.3-0.7c0.4-0.2,0.8-0.3,1.3-0.3c0.6,0,1,0.2,1.3,0.6l2.2,2.7c-0.8,0.9-1.6,1.6-2.5,2.1s-1.8,1-2.7,1.3
			c-0.9,0.3-1.9,0.5-2.8,0.6s-1.8,0.2-2.7,0.2c-1.7,0-3.4-0.3-4.9-0.9c-1.5-0.6-2.9-1.4-4-2.5c-1.1-1.1-2-2.5-2.7-4.2s-1-3.6-1-5.8
			c0-1.7,0.3-3.2,0.9-4.7c0.6-1.5,1.4-2.8,2.4-3.9c1.1-1.1,2.4-2,3.9-2.7c1.5-0.7,3.2-1,5.1-1c1.6,0,3.2,0.3,4.5,0.8
			c1.4,0.5,2.5,1.3,3.5,2.2c1,1,1.8,2.2,2.3,3.6c0.6,1.4,0.8,3,0.8,4.8c0,0.6,0,1-0.1,1.4c0,0.4-0.1,0.6-0.3,0.8
			c-0.1,0.2-0.3,0.4-0.5,0.4c-0.2,0.1-0.5,0.1-0.8,0.1H442z M451.3,202c0-0.6-0.1-1.2-0.2-1.7c-0.2-0.6-0.4-1.1-0.7-1.5
			s-0.8-0.8-1.4-1.1c-0.6-0.3-1.2-0.4-2-0.4c-1.4,0-2.5,0.4-3.3,1.2c-0.8,0.8-1.3,2-1.6,3.5H451.3z"/>
		<path class="st1" d="M468.7,196.4c0.8-1.3,1.7-2.4,2.7-3.2c1-0.8,2.1-1.2,3.4-1.2c1.1,0,2,0.3,2.7,0.8l-0.5,5.5
			c-0.1,0.4-0.2,0.6-0.4,0.7c-0.2,0.1-0.4,0.2-0.8,0.2c-0.1,0-0.3,0-0.5,0c-0.2,0-0.4,0-0.6-0.1c-0.2,0-0.5,0-0.7-0.1
			c-0.2,0-0.4,0-0.6,0c-1.1,0-2,0.3-2.6,0.9s-1.2,1.4-1.6,2.4v15.1h-7.4v-24.9h4.4c0.4,0,0.7,0,0.9,0.1c0.2,0.1,0.5,0.2,0.6,0.3
			s0.3,0.3,0.4,0.5c0.1,0.2,0.2,0.5,0.2,0.8L468.7,196.4z"/>
		<path class="st1" d="M495.9,198c-0.2,0.3-0.4,0.5-0.6,0.6c-0.2,0.1-0.5,0.2-0.8,0.2c-0.4,0-0.7-0.1-1.1-0.2s-0.7-0.3-1.1-0.5
			c-0.4-0.2-0.9-0.3-1.4-0.5c-0.5-0.2-1.1-0.2-1.8-0.2c-0.9,0-1.7,0.2-2.2,0.5c-0.5,0.4-0.8,0.9-0.8,1.5c0,0.5,0.2,0.8,0.5,1.2
			c0.3,0.3,0.8,0.6,1.3,0.8c0.5,0.2,1.2,0.5,1.8,0.7c0.7,0.2,1.4,0.4,2.1,0.7c0.7,0.3,1.4,0.6,2.1,0.9c0.7,0.3,1.3,0.8,1.8,1.3
			s1,1.1,1.3,1.8c0.3,0.7,0.5,1.6,0.5,2.6c0,1.2-0.2,2.4-0.7,3.4c-0.4,1-1.1,1.9-2,2.7c-0.9,0.8-2,1.3-3.3,1.8s-2.8,0.6-4.5,0.6
			c-0.8,0-1.7-0.1-2.5-0.2c-0.8-0.2-1.7-0.4-2.5-0.6c-0.8-0.3-1.5-0.6-2.2-1c-0.7-0.4-1.2-0.8-1.7-1.2l1.7-2.7
			c0.2-0.3,0.4-0.6,0.7-0.8c0.3-0.2,0.7-0.3,1.1-0.3c0.4,0,0.8,0.1,1.2,0.3c0.3,0.2,0.7,0.4,1.1,0.6c0.4,0.2,0.9,0.4,1.4,0.6
			c0.5,0.2,1.2,0.3,2,0.3c0.6,0,1.1-0.1,1.5-0.2s0.7-0.3,1-0.5c0.2-0.2,0.4-0.4,0.5-0.7c0.1-0.3,0.2-0.5,0.2-0.8
			c0-0.5-0.2-0.9-0.5-1.2c-0.3-0.3-0.8-0.6-1.3-0.8c-0.5-0.2-1.2-0.4-1.9-0.6c-0.7-0.2-1.4-0.4-2.1-0.7c-0.7-0.3-1.4-0.6-2.1-0.9
			c-0.7-0.4-1.3-0.8-1.9-1.4c-0.5-0.6-1-1.2-1.3-2s-0.5-1.8-0.5-2.9c0-1.1,0.2-2.1,0.6-3c0.4-1,1-1.8,1.8-2.5
			c0.8-0.7,1.8-1.3,3.1-1.7c1.2-0.4,2.7-0.6,4.3-0.6c0.9,0,1.8,0.1,2.6,0.2c0.8,0.2,1.6,0.4,2.4,0.7c0.7,0.3,1.4,0.6,2,1
			c0.6,0.4,1.1,0.8,1.6,1.3L495.9,198z"/>
		<path class="st1" d="M512.9,192.1c1.9,0,3.6,0.3,5.2,0.9s2.9,1.4,4,2.5c1.1,1.1,2,2.4,2.6,4c0.6,1.6,0.9,3.3,0.9,5.3
			c0,2-0.3,3.8-0.9,5.4c-0.6,1.6-1.5,2.9-2.6,4.1c-1.1,1.1-2.4,2-4,2.6c-1.6,0.6-3.3,0.9-5.2,0.9c-1.9,0-3.6-0.3-5.2-0.9
			c-1.6-0.6-2.9-1.5-4-2.6s-2-2.5-2.6-4.1c-0.6-1.6-0.9-3.4-0.9-5.4c0-2,0.3-3.7,0.9-5.3c0.6-1.6,1.5-2.9,2.6-4c1.1-1.1,2.5-2,4-2.5
			S511,192.1,512.9,192.1z M512.9,212.3c1.7,0,3-0.6,3.8-1.8c0.8-1.2,1.2-3,1.2-5.5s-0.4-4.3-1.2-5.5c-0.8-1.2-2.1-1.8-3.8-1.8
			c-1.8,0-3,0.6-3.9,1.8s-1.2,3-1.2,5.5s0.4,4.3,1.2,5.5S511.1,212.3,512.9,212.3z"/>
		<path class="st1" d="M536.2,195.2c0.5-0.4,1-0.9,1.5-1.2c0.5-0.4,1.1-0.7,1.6-1c0.6-0.3,1.2-0.5,1.9-0.6s1.4-0.2,2.2-0.2
			c1.4,0,2.6,0.2,3.6,0.7c1,0.5,1.9,1.1,2.7,2c0.7,0.8,1.3,1.8,1.6,3c0.4,1.2,0.6,2.4,0.6,3.8v15.8h-7.4v-15.8
			c0-1.2-0.3-2.2-0.8-2.8c-0.6-0.7-1.4-1-2.5-1c-0.8,0-1.6,0.2-2.3,0.5c-0.7,0.3-1.4,0.8-2.1,1.4v17.8h-7.4v-24.9h4.6
			c0.9,0,1.5,0.4,1.8,1.2L536.2,195.2z"/>
		<path class="st1" d="M556.1,196c1.5-1.3,3.2-2.3,5-3c1.8-0.6,3.8-1,5.9-1c1.5,0,2.9,0.2,4.1,0.7c1.2,0.5,2.2,1.2,3.1,2
			c0.8,0.9,1.5,1.9,1.9,3.1c0.4,1.2,0.7,2.5,0.7,3.9v15.6h-3.4c-0.7,0-1.2-0.1-1.6-0.3c-0.4-0.2-0.7-0.6-0.9-1.2l-0.5-1.4
			c-0.6,0.5-1.2,1-1.8,1.4c-0.6,0.4-1.2,0.7-1.8,1c-0.6,0.3-1.3,0.5-2,0.6s-1.5,0.2-2.3,0.2c-1.1,0-2.2-0.1-3.1-0.4
			s-1.7-0.7-2.4-1.3c-0.6-0.6-1.1-1.3-1.5-2.1c-0.4-0.9-0.5-1.8-0.5-3c0-0.9,0.2-1.8,0.7-2.7c0.4-0.9,1.2-1.8,2.3-2.5
			c1.1-0.8,2.6-1.4,4.5-1.9c1.9-0.5,4.2-0.8,7.1-0.9v-1.1c0-1.5-0.3-2.5-0.9-3.2c-0.6-0.6-1.5-1-2.6-1c-0.9,0-1.6,0.1-2.2,0.3
			c-0.6,0.2-1.1,0.4-1.5,0.6s-0.9,0.5-1.3,0.6c-0.4,0.2-0.9,0.3-1.5,0.3c-0.5,0-0.9-0.1-1.3-0.4c-0.4-0.3-0.6-0.6-0.9-0.9L556.1,196
			z M569.5,207.3c-1.5,0.1-2.7,0.2-3.7,0.4s-1.7,0.4-2.3,0.7c-0.6,0.3-0.9,0.6-1.2,1s-0.3,0.8-0.3,1.2c0,0.8,0.2,1.4,0.7,1.8
			c0.5,0.3,1.1,0.5,2,0.5c1,0,1.8-0.2,2.5-0.5c0.7-0.3,1.4-0.9,2.2-1.6V207.3z"/>
		<path class="st1" d="M401.8,263.9c0.2,2.1,0.9,3.6,1.9,4.5c1,0.9,2.3,1.4,4,1.4c0.9,0,1.6-0.1,2.2-0.3c0.6-0.2,1.2-0.4,1.7-0.7
			c0.5-0.3,0.9-0.5,1.3-0.7c0.4-0.2,0.8-0.3,1.3-0.3c0.6,0,1,0.2,1.3,0.6l2.2,2.7c-0.8,0.9-1.6,1.6-2.5,2.1c-0.9,0.6-1.8,1-2.7,1.3
			c-0.9,0.3-1.9,0.5-2.8,0.6s-1.8,0.2-2.7,0.2c-1.7,0-3.4-0.3-4.9-0.9c-1.5-0.6-2.9-1.4-4-2.5c-1.1-1.1-2-2.5-2.7-4.2s-1-3.6-1-5.8
			c0-1.7,0.3-3.2,0.9-4.7s1.4-2.8,2.4-3.9c1.1-1.1,2.4-2,3.9-2.7c1.5-0.7,3.2-1,5.1-1c1.6,0,3.2,0.3,4.5,0.8
			c1.4,0.5,2.5,1.3,3.5,2.2s1.8,2.2,2.3,3.6c0.6,1.4,0.8,3,0.8,4.8c0,0.6,0,1-0.1,1.4c0,0.4-0.1,0.6-0.3,0.8
			c-0.1,0.2-0.3,0.4-0.5,0.4c-0.2,0.1-0.5,0.1-0.8,0.1H401.8z M411.2,259.6c0-0.6-0.1-1.2-0.2-1.7c-0.2-0.6-0.4-1.1-0.7-1.5
			c-0.3-0.4-0.8-0.8-1.4-1.1s-1.2-0.4-2-0.4c-1.4,0-2.5,0.4-3.3,1.2c-0.8,0.8-1.3,2-1.6,3.5H411.2z"/>
		<path class="st1" d="M437.4,255.6c-0.2,0.3-0.4,0.5-0.6,0.6c-0.2,0.1-0.5,0.2-0.8,0.2c-0.4,0-0.7-0.1-1.1-0.2
			c-0.4-0.2-0.7-0.3-1.1-0.5c-0.4-0.2-0.9-0.3-1.4-0.5s-1.1-0.2-1.8-0.2c-0.9,0-1.7,0.2-2.2,0.5c-0.5,0.4-0.8,0.9-0.8,1.5
			c0,0.5,0.2,0.8,0.5,1.2s0.8,0.6,1.3,0.8c0.5,0.2,1.2,0.5,1.8,0.7c0.7,0.2,1.4,0.4,2.1,0.7c0.7,0.3,1.4,0.6,2.1,0.9
			c0.7,0.3,1.3,0.8,1.8,1.3s1,1.1,1.3,1.8c0.3,0.7,0.5,1.6,0.5,2.6c0,1.2-0.2,2.4-0.7,3.4s-1.1,1.9-2,2.7c-0.9,0.8-2,1.3-3.3,1.8
			c-1.3,0.4-2.8,0.6-4.5,0.6c-0.8,0-1.7-0.1-2.5-0.2c-0.8-0.2-1.7-0.4-2.5-0.6c-0.8-0.3-1.5-0.6-2.2-1s-1.2-0.8-1.7-1.2l1.7-2.7
			c0.2-0.3,0.4-0.6,0.7-0.8c0.3-0.2,0.7-0.3,1.1-0.3c0.4,0,0.8,0.1,1.2,0.3c0.3,0.2,0.7,0.4,1.1,0.6c0.4,0.2,0.9,0.4,1.4,0.6
			c0.5,0.2,1.2,0.3,2,0.3c0.6,0,1.1-0.1,1.5-0.2s0.7-0.3,1-0.5c0.2-0.2,0.4-0.4,0.5-0.7c0.1-0.3,0.2-0.5,0.2-0.8
			c0-0.5-0.2-0.9-0.5-1.2c-0.3-0.3-0.8-0.6-1.3-0.8c-0.5-0.2-1.2-0.4-1.9-0.6c-0.7-0.2-1.4-0.4-2.1-0.7c-0.7-0.3-1.4-0.6-2.1-0.9
			c-0.7-0.4-1.3-0.8-1.9-1.4c-0.5-0.6-1-1.2-1.3-2c-0.3-0.8-0.5-1.8-0.5-2.9c0-1.1,0.2-2.1,0.6-3c0.4-1,1-1.8,1.8-2.5
			c0.8-0.7,1.8-1.3,3.1-1.7c1.2-0.4,2.7-0.6,4.3-0.6c0.9,0,1.8,0.1,2.6,0.2c0.8,0.2,1.6,0.4,2.4,0.7c0.7,0.3,1.4,0.6,2,1
			c0.6,0.4,1.1,0.8,1.6,1.3L437.4,255.6z"/>
		<path class="st1" d="M465.5,249.7c1.9,0,3.6,0.3,5.2,0.9s2.9,1.4,4,2.5c1.1,1.1,2,2.4,2.6,4c0.6,1.6,0.9,3.3,0.9,5.3
			c0,2-0.3,3.8-0.9,5.4c-0.6,1.6-1.5,2.9-2.6,4.1c-1.1,1.1-2.4,2-4,2.6c-1.6,0.6-3.3,0.9-5.2,0.9c-1.9,0-3.6-0.3-5.2-0.9
			c-1.6-0.6-2.9-1.5-4-2.6c-1.1-1.1-2-2.5-2.6-4.1c-0.6-1.6-0.9-3.4-0.9-5.4c0-2,0.3-3.7,0.9-5.3c0.6-1.6,1.5-2.9,2.6-4
			c1.1-1.1,2.5-2,4-2.5S463.6,249.7,465.5,249.7z M465.5,269.9c1.7,0,3-0.6,3.8-1.8c0.8-1.2,1.2-3,1.2-5.5c0-2.5-0.4-4.3-1.2-5.5
			c-0.8-1.2-2.1-1.8-3.8-1.8c-1.8,0-3,0.6-3.9,1.8c-0.8,1.2-1.2,3-1.2,5.5c0,2.5,0.4,4.3,1.2,5.5
			C462.5,269.3,463.8,269.9,465.5,269.9z"/>
		<path class="st1" d="M500.5,252.3c0.9-0.8,1.9-1.4,2.9-1.9c1-0.5,2.3-0.7,3.8-0.7c1.4,0,2.6,0.2,3.6,0.7c1,0.5,1.9,1.1,2.7,2
			s1.3,1.8,1.6,3s0.6,2.4,0.6,3.8V275h-7.4v-15.8c0-1.2-0.3-2.2-0.8-2.8c-0.6-0.7-1.4-1-2.5-1c-0.8,0-1.6,0.2-2.3,0.5
			c-0.7,0.3-1.4,0.8-2.1,1.4V275H493v-35.9h7.4V252.3z"/>
		<path class="st1" d="M519.8,253.6c1.5-1.3,3.2-2.3,5-3c1.8-0.6,3.8-1,5.9-1c1.5,0,2.9,0.2,4.1,0.7c1.2,0.5,2.2,1.2,3.1,2
			c0.8,0.9,1.5,1.9,1.9,3.1c0.4,1.2,0.7,2.5,0.7,3.9V275h-3.4c-0.7,0-1.2-0.1-1.6-0.3c-0.4-0.2-0.7-0.6-0.9-1.2l-0.5-1.4
			c-0.6,0.5-1.2,1-1.8,1.4c-0.6,0.4-1.2,0.7-1.8,1c-0.6,0.3-1.3,0.5-2,0.6c-0.7,0.1-1.5,0.2-2.3,0.2c-1.1,0-2.2-0.1-3.1-0.4
			c-0.9-0.3-1.7-0.7-2.4-1.3c-0.6-0.6-1.1-1.3-1.5-2.1c-0.4-0.9-0.5-1.8-0.5-3c0-0.9,0.2-1.8,0.7-2.7c0.4-0.9,1.2-1.8,2.3-2.5
			s2.6-1.4,4.5-1.9c1.9-0.5,4.2-0.8,7.1-0.9v-1.1c0-1.5-0.3-2.5-0.9-3.2c-0.6-0.6-1.5-1-2.6-1c-0.9,0-1.6,0.1-2.2,0.3
			c-0.6,0.2-1.1,0.4-1.5,0.6c-0.4,0.2-0.9,0.5-1.3,0.6s-0.9,0.3-1.5,0.3c-0.5,0-0.9-0.1-1.3-0.4s-0.6-0.6-0.9-0.9L519.8,253.6z
			 M533.2,264.9c-1.5,0.1-2.7,0.2-3.7,0.4c-1,0.2-1.7,0.4-2.3,0.7c-0.6,0.3-0.9,0.6-1.2,1c-0.2,0.4-0.3,0.8-0.3,1.2
			c0,0.8,0.2,1.4,0.7,1.8c0.5,0.3,1.1,0.5,2,0.5c1,0,1.8-0.2,2.5-0.5c0.7-0.3,1.4-0.9,2.2-1.6V264.9z"/>
		<path class="st1" d="M563.5,256c-0.2,0.3-0.4,0.5-0.6,0.6c-0.2,0.2-0.5,0.2-0.9,0.2c-0.4,0-0.7-0.1-1-0.3s-0.6-0.4-1-0.6
			c-0.4-0.2-0.8-0.4-1.3-0.6c-0.5-0.2-1.1-0.3-1.8-0.3c-0.9,0-1.7,0.2-2.4,0.5s-1.2,0.8-1.6,1.4c-0.4,0.6-0.8,1.4-1,2.3
			s-0.3,1.9-0.3,3.1c0,2.4,0.5,4.2,1.4,5.5s2.2,1.9,3.8,1.9c0.9,0,1.5-0.1,2.1-0.3c0.5-0.2,0.9-0.5,1.3-0.7c0.4-0.3,0.7-0.5,1-0.7
			c0.3-0.2,0.7-0.3,1.1-0.3c0.6,0,1,0.2,1.3,0.6l2.2,2.7c-0.8,0.9-1.6,1.6-2.4,2.1c-0.8,0.6-1.7,1-2.6,1.3c-0.9,0.3-1.8,0.5-2.7,0.6
			c-0.9,0.1-1.8,0.2-2.6,0.2c-1.5,0-3-0.3-4.4-0.9c-1.4-0.6-2.6-1.4-3.6-2.5c-1-1.1-1.9-2.4-2.5-4c-0.6-1.6-0.9-3.4-0.9-5.5
			c0-1.8,0.3-3.5,0.8-5c0.5-1.6,1.3-2.9,2.4-4.1c1-1.1,2.3-2,3.9-2.7c1.5-0.7,3.3-1,5.4-1c2,0,3.7,0.3,5.1,0.9
			c1.5,0.6,2.8,1.5,4,2.7L563.5,256z"/>
		<path class="st1" d="M574.3,263.9c0.2,2.1,0.9,3.6,1.9,4.5c1,0.9,2.3,1.4,4,1.4c0.9,0,1.6-0.1,2.2-0.3c0.6-0.2,1.2-0.4,1.7-0.7
			c0.5-0.3,0.9-0.5,1.3-0.7s0.8-0.3,1.3-0.3c0.6,0,1,0.2,1.3,0.6l2.2,2.7c-0.8,0.9-1.6,1.6-2.5,2.1c-0.9,0.6-1.8,1-2.7,1.3
			c-0.9,0.3-1.9,0.5-2.8,0.6c-0.9,0.1-1.8,0.2-2.7,0.2c-1.7,0-3.4-0.3-4.9-0.9s-2.9-1.4-4-2.5c-1.1-1.1-2-2.5-2.7-4.2s-1-3.6-1-5.8
			c0-1.7,0.3-3.2,0.9-4.7c0.6-1.5,1.4-2.8,2.4-3.9c1.1-1.1,2.4-2,3.9-2.7c1.5-0.7,3.2-1,5.1-1c1.6,0,3.2,0.3,4.5,0.8
			c1.4,0.5,2.5,1.3,3.5,2.2c1,1,1.8,2.2,2.3,3.6c0.6,1.4,0.8,3,0.8,4.8c0,0.6,0,1-0.1,1.4c0,0.4-0.1,0.6-0.3,0.8
			c-0.1,0.2-0.3,0.4-0.5,0.4s-0.5,0.1-0.8,0.1H574.3z M583.6,259.6c0-0.6-0.1-1.2-0.2-1.7c-0.2-0.6-0.4-1.1-0.7-1.5
			c-0.3-0.4-0.8-0.8-1.4-1.1c-0.6-0.3-1.2-0.4-2-0.4c-1.4,0-2.5,0.4-3.3,1.2c-0.8,0.8-1.3,2-1.6,3.5H583.6z"/>
	</g>
</g>
<g>

		<linearGradient id="SVGID_1_" gradientUnits="userSpaceOnUse" x1="73.4874" y1="355.9574" x2="407.7165" y2="355.9574" gradientTransform="matrix(1 0 0 -1 -41.5 541.5)">
		<stop  offset="0" style="stop-color:#733122"/>
		<stop  offset="0.9996" style="stop-color:#F27A5E;stop-opacity:0.5"/>
	</linearGradient>
	<circle class="st2" cx="199.1" cy="185.5" r="167.1"/>
	<g>
		<path class="st1" d="M138,111.5h-6.3c-0.7,0-1.3-0.2-1.7-0.5c-0.4-0.3-0.8-0.7-1-1.3l-2.1-6.1h-13.3l-2.1,6.1
			c-0.2,0.4-0.5,0.9-0.9,1.2c-0.5,0.4-1,0.5-1.7,0.5h-6.3l13.5-35h8.3L138,111.5z M125.2,98.2l-3.2-9.6c-0.2-0.6-0.5-1.3-0.8-2.1
			s-0.5-1.7-0.8-2.7c-0.2,1-0.5,1.9-0.8,2.7c-0.3,0.8-0.5,1.6-0.8,2.2l-3.2,9.5H125.2z"/>
		<path class="st1" d="M147.4,75.6v35.9h-7.4V75.6H147.4z"/>
		<path class="st1" d="M175,87.4v2.7c0,0.4-0.1,0.7-0.3,1c-0.2,0.2-0.6,0.4-1.2,0.6l-1.8,0.4c0.1,0.4,0.2,0.7,0.2,1.1
			c0.1,0.4,0.1,0.8,0.1,1.2c0,1.2-0.3,2.4-0.8,3.4c-0.5,1-1.2,1.8-2.1,2.5c-0.9,0.7-2,1.2-3.2,1.6c-1.2,0.4-2.6,0.6-4,0.6
			c-0.4,0-0.8,0-1.1,0c-0.4,0-0.7-0.1-1.1-0.1c-0.5,0.3-0.8,0.7-0.8,1.1s0.2,0.7,0.7,0.9c0.4,0.2,1,0.3,1.8,0.4
			c0.7,0.1,1.6,0.1,2.5,0.1c0.9,0,1.9,0.1,2.9,0.2s1.9,0.2,2.9,0.4s1.8,0.5,2.5,1c0.7,0.5,1.3,1.1,1.8,1.9c0.4,0.8,0.7,1.8,0.7,3
			c0,1.1-0.3,2.2-0.8,3.3c-0.5,1.1-1.3,2-2.4,2.9c-1.1,0.8-2.4,1.5-3.9,2s-3.3,0.8-5.3,0.8c-2,0-3.6-0.2-5.1-0.6
			c-1.4-0.4-2.6-0.9-3.5-1.5s-1.6-1.3-2.1-2.1c-0.4-0.8-0.7-1.6-0.7-2.4c0-1.1,0.3-2,1-2.8c0.6-0.7,1.5-1.3,2.7-1.8
			c-0.6-0.4-1.1-0.8-1.4-1.4c-0.4-0.6-0.5-1.3-0.5-2.2c0-0.4,0.1-0.8,0.2-1.2c0.1-0.4,0.3-0.8,0.6-1.2c0.3-0.4,0.6-0.8,1-1.1
			c0.4-0.4,0.9-0.7,1.5-0.9c-1.3-0.7-2.3-1.6-3.1-2.7c-0.8-1.1-1.1-2.4-1.1-3.9c0-1.2,0.3-2.4,0.8-3.4c0.5-1,1.3-1.8,2.2-2.5
			c0.9-0.7,2-1.2,3.3-1.6s2.6-0.6,4.1-0.6c2.1,0,4,0.4,5.6,1.2H175z M167.7,112.4c0-0.6-0.3-1-0.8-1.3c-0.5-0.3-1.2-0.5-2.1-0.6
			c-0.8-0.1-1.8-0.2-2.8-0.2c-1,0-2.1-0.1-3.1-0.2c-0.5,0.3-0.8,0.7-1.1,1.1c-0.3,0.4-0.4,0.8-0.4,1.3c0,0.4,0.1,0.7,0.2,1
			s0.4,0.5,0.8,0.7c0.4,0.2,0.9,0.4,1.5,0.5s1.5,0.2,2.5,0.2c1.1,0,2-0.1,2.6-0.2c0.7-0.1,1.2-0.3,1.6-0.5s0.7-0.5,0.9-0.8
			C167.6,113.1,167.7,112.8,167.7,112.4z M161.9,97.8c1.2,0,2.1-0.3,2.7-0.9c0.6-0.6,0.8-1.4,0.8-2.4c0-1-0.3-1.8-0.8-2.4
			c-0.6-0.6-1.4-0.9-2.7-0.9c-1.2,0-2.1,0.3-2.7,0.9c-0.6,0.6-0.8,1.4-0.8,2.4c0,0.5,0.1,0.9,0.2,1.3c0.1,0.4,0.3,0.7,0.6,1
			c0.3,0.3,0.7,0.5,1.1,0.7C160.8,97.7,161.3,97.8,161.9,97.8z"/>
		<path class="st1" d="M189.1,86.3c1.9,0,3.6,0.3,5.2,0.9s2.9,1.4,4,2.5c1.1,1.1,2,2.4,2.6,4c0.6,1.6,0.9,3.3,0.9,5.3
			c0,2-0.3,3.8-0.9,5.4c-0.6,1.6-1.5,2.9-2.6,4.1c-1.1,1.1-2.4,2-4,2.6s-3.3,0.9-5.2,0.9c-1.9,0-3.6-0.3-5.2-0.9s-2.9-1.5-4-2.6
			c-1.1-1.1-2-2.5-2.6-4.1c-0.6-1.6-0.9-3.4-0.9-5.4c0-2,0.3-3.7,0.9-5.3c0.6-1.6,1.5-2.9,2.6-4s2.5-2,4-2.5S187.2,86.3,189.1,86.3z
			 M189.1,106.4c1.7,0,3-0.6,3.8-1.8c0.8-1.2,1.2-3,1.2-5.5c0-2.5-0.4-4.3-1.2-5.5c-0.8-1.2-2.1-1.8-3.8-1.8c-1.8,0-3,0.6-3.9,1.8
			c-0.8,1.2-1.2,3-1.2,5.5c0,2.5,0.4,4.3,1.2,5.5C186.1,105.8,187.4,106.4,189.1,106.4z"/>
		<path class="st1" d="M239.2,86.6v32.8h-7.4v-10.6c-0.9,0.9-2,1.7-3.2,2.2c-1.2,0.6-2.5,0.9-4.1,0.9c-1.3,0-2.5-0.3-3.6-0.9
			s-2.1-1.4-2.9-2.5c-0.8-1.1-1.4-2.4-1.9-4c-0.5-1.6-0.7-3.4-0.7-5.4c0-1.9,0.3-3.6,0.8-5.2c0.5-1.6,1.2-3,2.2-4.1
			c0.9-1.2,2.1-2.1,3.4-2.7s2.8-1,4.3-1c0.8,0,1.4,0.1,2,0.2c0.6,0.1,1.2,0.3,1.7,0.6c0.5,0.2,1,0.5,1.4,0.9
			c0.4,0.3,0.8,0.7,1.2,1.1l0.3-1c0.3-0.8,0.9-1.2,1.8-1.2H239.2z M231.7,93.3c-0.6-0.6-1.2-1-1.8-1.3c-0.7-0.3-1.3-0.4-2.1-0.4
			c-0.7,0-1.3,0.1-1.9,0.4s-1.1,0.7-1.5,1.3c-0.4,0.6-0.8,1.4-1,2.3c-0.2,1-0.4,2.1-0.4,3.5c0,1.3,0.1,2.4,0.3,3.3
			c0.2,0.9,0.5,1.6,0.8,2.2c0.3,0.6,0.8,0.9,1.2,1.2c0.5,0.2,1,0.4,1.6,0.4c0.5,0,1-0.1,1.5-0.2c0.4-0.1,0.8-0.3,1.2-0.4
			c0.4-0.2,0.7-0.4,1-0.7c0.3-0.3,0.7-0.6,1-1V93.3z"/>
		<path class="st1" d="M266.5,86.6v24.9h-4.6c-0.9,0-1.5-0.4-1.8-1.2l-0.4-1.4c-0.5,0.5-1,0.9-1.5,1.3c-0.5,0.4-1.1,0.7-1.6,1
			c-0.6,0.3-1.2,0.5-1.9,0.6c-0.7,0.2-1.4,0.2-2.2,0.2c-1.4,0-2.6-0.2-3.6-0.7c-1-0.5-1.9-1.1-2.7-2c-0.7-0.8-1.3-1.8-1.6-3
			c-0.4-1.2-0.6-2.4-0.6-3.8V86.6h7.4v15.8c0,1.2,0.3,2.2,0.8,2.9c0.6,0.7,1.4,1,2.5,1c0.8,0,1.6-0.2,2.3-0.5
			c0.7-0.3,1.4-0.8,2.1-1.4V86.6H266.5z"/>
		<path class="st1" d="M277.7,100.4c0.2,2.1,0.9,3.6,1.9,4.5c1,0.9,2.3,1.4,4,1.4c0.9,0,1.6-0.1,2.2-0.3c0.6-0.2,1.2-0.4,1.7-0.7
			c0.5-0.3,0.9-0.5,1.3-0.7c0.4-0.2,0.8-0.3,1.3-0.3c0.6,0,1,0.2,1.3,0.6l2.2,2.7c-0.8,0.9-1.6,1.6-2.5,2.1c-0.9,0.6-1.8,1-2.7,1.3
			s-1.9,0.5-2.8,0.6s-1.8,0.2-2.7,0.2c-1.7,0-3.4-0.3-4.9-0.9c-1.5-0.6-2.9-1.4-4-2.5c-1.1-1.1-2-2.5-2.7-4.2s-1-3.6-1-5.8
			c0-1.7,0.3-3.2,0.9-4.7c0.6-1.5,1.4-2.8,2.4-3.9c1.1-1.1,2.4-2,3.9-2.7c1.5-0.7,3.2-1,5.1-1c1.6,0,3.2,0.3,4.5,0.8
			c1.4,0.5,2.5,1.3,3.5,2.2c1,1,1.8,2.2,2.3,3.6c0.6,1.4,0.8,3,0.8,4.8c0,0.6,0,1-0.1,1.4c0,0.4-0.1,0.6-0.3,0.8
			c-0.1,0.2-0.3,0.4-0.5,0.4c-0.2,0.1-0.5,0.1-0.8,0.1H277.7z M287,96.1c0-0.6-0.1-1.2-0.2-1.7c-0.2-0.6-0.4-1.1-0.7-1.5
			c-0.3-0.4-0.8-0.8-1.4-1.1c-0.6-0.3-1.2-0.4-2-0.4c-1.4,0-2.5,0.4-3.3,1.2s-1.3,2-1.6,3.5H287z"/>
		<path class="st1" d="M184.2,144.2v24.9h-4.6c-0.9,0-1.5-0.4-1.8-1.2l-0.4-1.4c-0.5,0.5-1,0.9-1.5,1.3c-0.5,0.4-1.1,0.7-1.6,1
			c-0.6,0.3-1.2,0.5-1.9,0.6c-0.7,0.2-1.4,0.2-2.2,0.2c-1.4,0-2.6-0.2-3.6-0.7c-1-0.5-1.9-1.1-2.7-2c-0.7-0.8-1.3-1.8-1.6-3
			c-0.4-1.2-0.6-2.4-0.6-3.8v-15.8h7.4V160c0,1.2,0.3,2.2,0.8,2.9c0.6,0.7,1.4,1,2.5,1c0.8,0,1.6-0.2,2.3-0.5
			c0.7-0.3,1.4-0.8,2.1-1.4v-17.7H184.2z"/>
		<path class="st1" d="M196.1,146.9c0.5-0.4,1-0.9,1.5-1.2c0.5-0.4,1.1-0.7,1.6-1c0.6-0.3,1.2-0.5,1.9-0.6c0.7-0.2,1.4-0.2,2.2-0.2
			c1.4,0,2.6,0.2,3.6,0.7c1,0.5,1.9,1.1,2.7,2c0.7,0.8,1.3,1.8,1.6,3c0.4,1.2,0.6,2.4,0.6,3.8v15.8h-7.4v-15.8
			c0-1.2-0.3-2.2-0.8-2.8c-0.6-0.7-1.4-1-2.5-1c-0.8,0-1.6,0.2-2.3,0.5c-0.7,0.3-1.4,0.8-2.1,1.4v17.8h-7.4v-24.9h4.6
			c0.9,0,1.5,0.4,1.8,1.2L196.1,146.9z"/>
		<path class="st1" d="M216,147.7c1.5-1.3,3.2-2.3,5-3c1.8-0.6,3.8-1,5.9-1c1.5,0,2.9,0.2,4.1,0.7c1.2,0.5,2.2,1.2,3.1,2
			c0.8,0.9,1.5,1.9,1.9,3.1c0.4,1.2,0.7,2.5,0.7,3.9v15.6h-3.4c-0.7,0-1.2-0.1-1.6-0.3s-0.7-0.6-0.9-1.2l-0.5-1.4
			c-0.6,0.5-1.2,1-1.8,1.4s-1.2,0.7-1.8,1c-0.6,0.3-1.3,0.5-2,0.6c-0.7,0.1-1.5,0.2-2.3,0.2c-1.1,0-2.2-0.1-3.1-0.4
			c-0.9-0.3-1.7-0.7-2.4-1.3c-0.6-0.6-1.1-1.3-1.5-2.1c-0.4-0.9-0.5-1.8-0.5-3c0-0.9,0.2-1.8,0.7-2.7c0.4-0.9,1.2-1.8,2.3-2.5
			c1.1-0.8,2.6-1.4,4.5-1.9c1.9-0.5,4.2-0.8,7.1-0.9v-1.1c0-1.5-0.3-2.5-0.9-3.2s-1.5-1-2.6-1c-0.9,0-1.6,0.1-2.2,0.3
			c-0.6,0.2-1.1,0.4-1.5,0.6c-0.4,0.2-0.9,0.5-1.3,0.6c-0.4,0.2-0.9,0.3-1.5,0.3c-0.5,0-0.9-0.1-1.3-0.4s-0.6-0.6-0.9-0.9L216,147.7
			z M229.4,159c-1.5,0.1-2.7,0.2-3.7,0.4c-1,0.2-1.7,0.4-2.3,0.7c-0.6,0.3-0.9,0.6-1.2,1c-0.2,0.4-0.3,0.8-0.3,1.2
			c0,0.8,0.2,1.4,0.7,1.8c0.5,0.3,1.1,0.5,2,0.5c1,0,1.8-0.2,2.5-0.5c0.7-0.3,1.4-0.9,2.2-1.6V159z"/>
		<path class="st1" d="M122,204.9c1-1,2.1-1.9,3.3-2.6c1.2-0.7,2.7-1,4.4-1c1.3,0,2.5,0.3,3.6,0.9c1.1,0.6,2.1,1.4,2.9,2.5
			c0.8,1.1,1.4,2.4,1.9,4c0.5,1.6,0.7,3.4,0.7,5.4c0,1.9-0.3,3.6-0.8,5.2c-0.5,1.6-1.2,3-2.2,4.1s-2.1,2.1-3.4,2.7
			c-1.3,0.7-2.7,1-4.3,1c-1.3,0-2.4-0.2-3.3-0.6s-1.7-0.9-2.4-1.5v9.6H115v-32.8h4.6c0.9,0,1.5,0.4,1.8,1.2L122,204.9z M122.4,220
			c0.6,0.6,1.2,1,1.8,1.3c0.7,0.3,1.3,0.4,2.1,0.4c0.7,0,1.3-0.1,1.9-0.4c0.6-0.3,1.1-0.7,1.5-1.3c0.4-0.6,0.8-1.4,1-2.3
			c0.2-1,0.4-2.1,0.4-3.5c0-1.3-0.1-2.4-0.3-3.3s-0.5-1.6-0.8-2.2c-0.3-0.6-0.8-0.9-1.2-1.2c-0.5-0.2-1-0.4-1.6-0.4
			c-1.1,0-2,0.2-2.7,0.6c-0.7,0.4-1.4,1-2,1.8V220z"/>
		<path class="st1" d="M148.7,215.6c0.2,2.1,0.9,3.6,1.9,4.5c1,0.9,2.3,1.4,4,1.4c0.9,0,1.6-0.1,2.2-0.3c0.6-0.2,1.2-0.4,1.7-0.7
			c0.5-0.3,0.9-0.5,1.3-0.7c0.4-0.2,0.8-0.3,1.3-0.3c0.6,0,1,0.2,1.3,0.6l2.2,2.7c-0.8,0.9-1.6,1.6-2.5,2.1c-0.9,0.6-1.8,1-2.7,1.3
			s-1.9,0.5-2.8,0.6s-1.8,0.2-2.7,0.2c-1.7,0-3.4-0.3-4.9-0.9c-1.5-0.6-2.9-1.4-4-2.5c-1.1-1.1-2-2.5-2.7-4.2s-1-3.6-1-5.8
			c0-1.7,0.3-3.2,0.9-4.7c0.6-1.5,1.4-2.8,2.4-3.9c1.1-1.1,2.4-2,3.9-2.7c1.5-0.7,3.2-1,5.1-1c1.6,0,3.2,0.3,4.5,0.8
			c1.4,0.5,2.5,1.3,3.5,2.2c1,1,1.8,2.2,2.3,3.6c0.6,1.4,0.8,3,0.8,4.8c0,0.6,0,1-0.1,1.4c0,0.4-0.1,0.6-0.3,0.8
			c-0.1,0.2-0.3,0.4-0.5,0.4c-0.2,0.1-0.5,0.1-0.8,0.1H148.7z M158.1,211.3c0-0.6-0.1-1.2-0.2-1.7c-0.2-0.6-0.4-1.1-0.7-1.5
			c-0.3-0.4-0.8-0.8-1.4-1.1c-0.6-0.3-1.2-0.4-2-0.4c-1.4,0-2.5,0.4-3.3,1.2s-1.3,2-1.6,3.5H158.1z"/>
		<path class="st1" d="M175.4,205.7c0.8-1.3,1.7-2.4,2.7-3.2c1-0.8,2.1-1.2,3.4-1.2c1.1,0,2,0.3,2.7,0.8l-0.5,5.5
			c-0.1,0.4-0.2,0.6-0.4,0.7c-0.2,0.1-0.4,0.2-0.8,0.2c-0.1,0-0.3,0-0.5,0s-0.4,0-0.6-0.1s-0.5,0-0.7-0.1c-0.2,0-0.4,0-0.6,0
			c-1.1,0-2,0.3-2.6,0.9s-1.2,1.4-1.6,2.4v15.1h-7.4v-24.9h4.4c0.4,0,0.7,0,0.9,0.1s0.5,0.2,0.6,0.3c0.2,0.1,0.3,0.3,0.4,0.5
			c0.1,0.2,0.2,0.5,0.2,0.8L175.4,205.7z"/>
		<path class="st1" d="M202.6,207.3c-0.2,0.3-0.4,0.5-0.6,0.6c-0.2,0.1-0.5,0.2-0.8,0.2c-0.4,0-0.7-0.1-1.1-0.2
			c-0.4-0.2-0.7-0.3-1.1-0.5c-0.4-0.2-0.9-0.3-1.4-0.5c-0.5-0.2-1.1-0.2-1.8-0.2c-0.9,0-1.7,0.2-2.2,0.5s-0.8,0.9-0.8,1.5
			c0,0.5,0.2,0.8,0.5,1.2c0.3,0.3,0.8,0.6,1.3,0.8s1.2,0.5,1.8,0.7c0.7,0.2,1.4,0.4,2.1,0.7c0.7,0.3,1.4,0.6,2.1,0.9
			c0.7,0.3,1.3,0.8,1.8,1.3s1,1.1,1.3,1.8c0.3,0.7,0.5,1.6,0.5,2.6c0,1.2-0.2,2.4-0.7,3.4c-0.4,1-1.1,1.9-2,2.7
			c-0.9,0.8-2,1.3-3.3,1.8c-1.3,0.4-2.8,0.6-4.5,0.6c-0.8,0-1.7-0.1-2.5-0.2s-1.7-0.4-2.5-0.6s-1.5-0.6-2.2-1
			c-0.7-0.4-1.2-0.8-1.7-1.2l1.7-2.7c0.2-0.3,0.4-0.6,0.7-0.8c0.3-0.2,0.7-0.3,1.1-0.3c0.4,0,0.8,0.1,1.2,0.3
			c0.3,0.2,0.7,0.4,1.1,0.6s0.9,0.4,1.4,0.6s1.2,0.3,2,0.3c0.6,0,1.1-0.1,1.5-0.2s0.7-0.3,1-0.5c0.2-0.2,0.4-0.4,0.5-0.7
			c0.1-0.3,0.2-0.5,0.2-0.8c0-0.5-0.2-0.9-0.5-1.2c-0.3-0.3-0.8-0.6-1.3-0.8c-0.5-0.2-1.2-0.4-1.9-0.6c-0.7-0.2-1.4-0.4-2.1-0.7
			c-0.7-0.3-1.4-0.6-2.1-0.9c-0.7-0.4-1.3-0.8-1.9-1.4c-0.5-0.6-1-1.2-1.3-2c-0.3-0.8-0.5-1.8-0.5-2.9c0-1.1,0.2-2.1,0.6-3
			c0.4-1,1-1.8,1.8-2.5c0.8-0.7,1.8-1.3,3.1-1.7c1.2-0.4,2.7-0.6,4.3-0.6c0.9,0,1.8,0.1,2.6,0.2c0.8,0.2,1.6,0.4,2.4,0.7
			c0.7,0.3,1.4,0.6,2,1c0.6,0.4,1.1,0.8,1.6,1.3L202.6,207.3z"/>
		<path class="st1" d="M219.6,201.5c1.9,0,3.6,0.3,5.2,0.9s2.9,1.4,4,2.5c1.1,1.1,2,2.4,2.6,4c0.6,1.6,0.9,3.3,0.9,5.3
			c0,2-0.3,3.8-0.9,5.4c-0.6,1.6-1.5,2.9-2.6,4.1c-1.1,1.1-2.4,2-4,2.6s-3.3,0.9-5.2,0.9c-1.9,0-3.6-0.3-5.2-0.9s-2.9-1.5-4-2.6
			c-1.1-1.1-2-2.5-2.6-4.1c-0.6-1.6-0.9-3.4-0.9-5.4c0-2,0.3-3.7,0.9-5.3c0.6-1.6,1.5-2.9,2.6-4s2.5-2,4-2.5
			S217.7,201.5,219.6,201.5z M219.6,221.6c1.7,0,3-0.6,3.8-1.8c0.8-1.2,1.2-3,1.2-5.5c0-2.5-0.4-4.3-1.2-5.5
			c-0.8-1.2-2.1-1.8-3.8-1.8c-1.8,0-3,0.6-3.9,1.8c-0.8,1.2-1.2,3-1.2,5.5c0,2.5,0.4,4.3,1.2,5.5C216.6,221,217.9,221.6,219.6,221.6
			z"/>
		<path class="st1" d="M242.9,204.5c0.5-0.4,1-0.9,1.5-1.2c0.5-0.4,1.1-0.7,1.6-1c0.6-0.3,1.2-0.5,1.9-0.6c0.7-0.2,1.4-0.2,2.2-0.2
			c1.4,0,2.6,0.2,3.6,0.7c1,0.5,1.9,1.1,2.7,2c0.7,0.8,1.3,1.8,1.6,3c0.4,1.2,0.6,2.4,0.6,3.8v15.8h-7.4v-15.8
			c0-1.2-0.3-2.2-0.8-2.8c-0.6-0.7-1.4-1-2.5-1c-0.8,0-1.6,0.2-2.3,0.5c-0.7,0.3-1.4,0.8-2.1,1.4v17.8H236v-24.9h4.6
			c0.9,0,1.5,0.4,1.8,1.2L242.9,204.5z"/>
		<path class="st1" d="M262.9,205.3c1.5-1.3,3.2-2.3,5-3c1.8-0.6,3.8-1,5.9-1c1.5,0,2.9,0.2,4.1,0.7c1.2,0.5,2.2,1.2,3.1,2
			c0.8,0.9,1.5,1.9,1.9,3.1c0.4,1.2,0.7,2.5,0.7,3.9v15.6h-3.4c-0.7,0-1.2-0.1-1.6-0.3s-0.7-0.6-0.9-1.2l-0.5-1.4
			c-0.6,0.5-1.2,1-1.8,1.4s-1.2,0.7-1.8,1c-0.6,0.3-1.3,0.5-2,0.6c-0.7,0.1-1.5,0.2-2.3,0.2c-1.1,0-2.2-0.1-3.1-0.4
			c-0.9-0.3-1.7-0.7-2.4-1.3c-0.6-0.6-1.1-1.3-1.5-2.1c-0.4-0.9-0.5-1.8-0.5-3c0-0.9,0.2-1.8,0.7-2.7c0.4-0.9,1.2-1.8,2.3-2.5
			c1.1-0.8,2.6-1.4,4.5-1.9c1.9-0.5,4.2-0.8,7.1-0.9v-1.1c0-1.5-0.3-2.5-0.9-3.2s-1.5-1-2.6-1c-0.9,0-1.6,0.1-2.2,0.3
			c-0.6,0.2-1.1,0.4-1.5,0.6c-0.4,0.2-0.9,0.5-1.3,0.6c-0.4,0.2-0.9,0.3-1.5,0.3c-0.5,0-0.9-0.1-1.3-0.4s-0.6-0.6-0.9-0.9
			L262.9,205.3z M276.2,216.6c-1.5,0.1-2.7,0.2-3.7,0.4c-1,0.2-1.7,0.4-2.3,0.7c-0.6,0.3-0.9,0.6-1.2,1c-0.2,0.4-0.3,0.8-0.3,1.2
			c0,0.8,0.2,1.4,0.7,1.8c0.5,0.3,1.1,0.5,2,0.5c1,0,1.8-0.2,2.5-0.5c0.7-0.3,1.4-0.9,2.2-1.6V216.6z"/>
		<path class="st1" d="M142.5,265.3c-0.2,0.3-0.4,0.5-0.6,0.6c-0.2,0.2-0.5,0.2-0.9,0.2c-0.4,0-0.7-0.1-1-0.3
			c-0.3-0.2-0.6-0.4-1-0.6c-0.4-0.2-0.8-0.4-1.3-0.6c-0.5-0.2-1.1-0.3-1.8-0.3c-0.9,0-1.7,0.2-2.4,0.5c-0.7,0.3-1.2,0.8-1.6,1.4
			s-0.8,1.4-1,2.3c-0.2,0.9-0.3,1.9-0.3,3.1c0,2.4,0.5,4.2,1.4,5.5s2.2,1.9,3.8,1.9c0.9,0,1.5-0.1,2.1-0.3c0.5-0.2,0.9-0.5,1.3-0.7
			c0.4-0.3,0.7-0.5,1-0.7c0.3-0.2,0.7-0.3,1.1-0.3c0.6,0,1,0.2,1.3,0.6l2.2,2.7c-0.8,0.9-1.6,1.6-2.4,2.1c-0.8,0.6-1.7,1-2.6,1.3
			s-1.8,0.5-2.7,0.6c-0.9,0.1-1.8,0.2-2.6,0.2c-1.5,0-3-0.3-4.4-0.9c-1.4-0.6-2.6-1.4-3.6-2.5c-1-1.1-1.9-2.4-2.5-4
			c-0.6-1.6-0.9-3.4-0.9-5.5c0-1.8,0.3-3.5,0.8-5c0.5-1.6,1.3-2.9,2.4-4.1s2.3-2,3.9-2.7c1.5-0.7,3.3-1,5.4-1c2,0,3.7,0.3,5.1,0.9
			c1.5,0.6,2.8,1.5,4,2.7L142.5,265.3z"/>
		<path class="st1" d="M158.6,259.1c1.9,0,3.6,0.3,5.2,0.9s2.9,1.4,4,2.5c1.1,1.1,2,2.4,2.6,4c0.6,1.6,0.9,3.3,0.9,5.3
			c0,2-0.3,3.8-0.9,5.4c-0.6,1.6-1.5,2.9-2.6,4.1c-1.1,1.1-2.4,2-4,2.6s-3.3,0.9-5.2,0.9c-1.9,0-3.6-0.3-5.2-0.9s-2.9-1.5-4-2.6
			c-1.1-1.1-2-2.5-2.6-4.1c-0.6-1.6-0.9-3.4-0.9-5.4c0-2,0.3-3.7,0.9-5.3c0.6-1.6,1.5-2.9,2.6-4s2.5-2,4-2.5
			S156.7,259.1,158.6,259.1z M158.6,279.2c1.7,0,3-0.6,3.8-1.8c0.8-1.2,1.2-3,1.2-5.5c0-2.5-0.4-4.3-1.2-5.5
			c-0.8-1.2-2.1-1.8-3.8-1.8c-1.8,0-3,0.6-3.9,1.8c-0.8,1.2-1.2,3-1.2,5.5c0,2.5,0.4,4.3,1.2,5.5
			C155.5,278.6,156.8,279.2,158.6,279.2z"/>
		<path class="st1" d="M181.9,262.1c0.5-0.4,1-0.9,1.5-1.2c0.5-0.4,1.1-0.7,1.6-1c0.6-0.3,1.2-0.5,1.9-0.6c0.7-0.2,1.4-0.2,2.2-0.2
			c1.4,0,2.6,0.2,3.6,0.7c1,0.5,1.9,1.1,2.7,2c0.7,0.8,1.3,1.8,1.6,3c0.4,1.2,0.6,2.4,0.6,3.8v15.8h-7.4v-15.8
			c0-1.2-0.3-2.2-0.8-2.8c-0.6-0.7-1.4-1-2.5-1c-0.8,0-1.6,0.2-2.3,0.5c-0.7,0.3-1.4,0.8-2.1,1.4v17.8H175v-24.9h4.6
			c0.9,0,1.5,0.4,1.8,1.2L181.9,262.1z"/>
		<path class="st1" d="M213.8,259.1c1.9,0,3.6,0.3,5.2,0.9s2.9,1.4,4,2.5c1.1,1.1,2,2.4,2.6,4c0.6,1.6,0.9,3.3,0.9,5.3
			c0,2-0.3,3.8-0.9,5.4c-0.6,1.6-1.5,2.9-2.6,4.1c-1.1,1.1-2.4,2-4,2.6s-3.3,0.9-5.2,0.9c-1.9,0-3.6-0.3-5.2-0.9s-2.9-1.5-4-2.6
			c-1.1-1.1-2-2.5-2.6-4.1c-0.6-1.6-0.9-3.4-0.9-5.4c0-2,0.3-3.7,0.9-5.3c0.6-1.6,1.5-2.9,2.6-4s2.5-2,4-2.5
			S211.9,259.1,213.8,259.1z M213.8,279.2c1.7,0,3-0.6,3.8-1.8c0.8-1.2,1.2-3,1.2-5.5c0-2.5-0.4-4.3-1.2-5.5
			c-0.8-1.2-2.1-1.8-3.8-1.8c-1.8,0-3,0.6-3.9,1.8c-0.8,1.2-1.2,3-1.2,5.5c0,2.5,0.4,4.3,1.2,5.5
			C210.8,278.6,212.1,279.2,213.8,279.2z"/>
		<path class="st1" d="M248.5,265.3c-0.2,0.3-0.4,0.5-0.6,0.6c-0.2,0.2-0.5,0.2-0.9,0.2c-0.4,0-0.7-0.1-1-0.3
			c-0.3-0.2-0.6-0.4-1-0.6c-0.4-0.2-0.8-0.4-1.3-0.6c-0.5-0.2-1.1-0.3-1.8-0.3c-0.9,0-1.7,0.2-2.4,0.5c-0.7,0.3-1.2,0.8-1.6,1.4
			s-0.8,1.4-1,2.3c-0.2,0.9-0.3,1.9-0.3,3.1c0,2.4,0.5,4.2,1.4,5.5s2.2,1.9,3.8,1.9c0.9,0,1.5-0.1,2.1-0.3c0.5-0.2,0.9-0.5,1.3-0.7
			c0.4-0.3,0.7-0.5,1-0.7c0.3-0.2,0.7-0.3,1.1-0.3c0.6,0,1,0.2,1.3,0.6l2.2,2.7c-0.8,0.9-1.6,1.6-2.4,2.1c-0.8,0.6-1.7,1-2.6,1.3
			s-1.8,0.5-2.7,0.6c-0.9,0.1-1.8,0.2-2.6,0.2c-1.5,0-3-0.3-4.4-0.9c-1.4-0.6-2.6-1.4-3.6-2.5c-1-1.1-1.9-2.4-2.5-4
			c-0.6-1.6-0.9-3.4-0.9-5.5c0-1.8,0.3-3.5,0.8-5c0.5-1.6,1.3-2.9,2.4-4.1s2.3-2,3.9-2.7c1.5-0.7,3.3-1,5.4-1c2,0,3.7,0.3,5.1,0.9
			c1.5,0.6,2.8,1.5,4,2.7L248.5,265.3z"/>
		<path class="st1" d="M259.3,273.2c0.2,2.1,0.9,3.6,1.9,4.5c1,0.9,2.3,1.4,4,1.4c0.9,0,1.6-0.1,2.2-0.3c0.6-0.2,1.2-0.4,1.7-0.7
			c0.5-0.3,0.9-0.5,1.3-0.7c0.4-0.2,0.8-0.3,1.3-0.3c0.6,0,1,0.2,1.3,0.6l2.2,2.7c-0.8,0.9-1.6,1.6-2.5,2.1c-0.9,0.6-1.8,1-2.7,1.3
			s-1.9,0.5-2.8,0.6s-1.8,0.2-2.7,0.2c-1.7,0-3.4-0.3-4.9-0.9c-1.5-0.6-2.9-1.4-4-2.5c-1.1-1.1-2-2.5-2.7-4.2s-1-3.6-1-5.8
			c0-1.7,0.3-3.2,0.9-4.7c0.6-1.5,1.4-2.8,2.4-3.9c1.1-1.1,2.4-2,3.9-2.7c1.5-0.7,3.2-1,5.1-1c1.6,0,3.2,0.3,4.5,0.8
			c1.4,0.5,2.5,1.3,3.5,2.2c1,1,1.8,2.2,2.3,3.6c0.6,1.4,0.8,3,0.8,4.8c0,0.6,0,1-0.1,1.4c0,0.4-0.1,0.6-0.3,0.8
			c-0.1,0.2-0.3,0.4-0.5,0.4c-0.2,0.1-0.5,0.1-0.8,0.1H259.3z M268.7,268.9c0-0.6-0.1-1.2-0.2-1.7c-0.2-0.6-0.4-1.1-0.7-1.5
			c-0.3-0.4-0.8-0.8-1.4-1.1c-0.6-0.3-1.2-0.4-2-0.4c-1.4,0-2.5,0.4-3.3,1.2s-1.3,2-1.6,3.5H268.7z"/>
	</g>
</g>
<g>

		<linearGradient id="SVGID_2_" gradientUnits="userSpaceOnUse" x1="665.2614" y1="349.4558" x2="999.4904" y2="349.4558" gradientTransform="matrix(-1 0 0 -1 1624 535)">
		<stop  offset="0" style="stop-color:#733122"/>
		<stop  offset="1" style="stop-color:#F27A5E;stop-opacity:0.5"/>
	</linearGradient>
	<circle class="st3" cx="791.6" cy="185.5" r="167.1"/>
	<g>
		<path class="st1" d="M730.6,118h-6.3c-0.7,0-1.3-0.2-1.7-0.5c-0.4-0.3-0.8-0.7-1-1.3l-2.1-6.1h-13.3l-2.1,6.1
			c-0.2,0.4-0.5,0.9-0.9,1.2c-0.5,0.4-1,0.5-1.7,0.5h-6.3l13.5-35h8.3L730.6,118z M717.7,104.7l-3.2-9.6c-0.2-0.6-0.5-1.3-0.8-2.1
			c-0.3-0.8-0.5-1.7-0.8-2.7c-0.2,1-0.5,1.9-0.8,2.7c-0.3,0.8-0.5,1.6-0.8,2.2l-3.2,9.5H717.7z"/>
		<path class="st1" d="M739.9,82.1V118h-7.4V82.1H739.9z"/>
		<path class="st1" d="M767.5,93.9v2.7c0,0.4-0.1,0.7-0.3,1c-0.2,0.2-0.6,0.4-1.2,0.6l-1.8,0.4c0.1,0.4,0.2,0.7,0.2,1.1
			c0.1,0.4,0.1,0.8,0.1,1.2c0,1.2-0.3,2.4-0.8,3.4c-0.5,1-1.2,1.8-2.1,2.5c-0.9,0.7-2,1.2-3.2,1.6c-1.2,0.4-2.6,0.6-4,0.6
			c-0.4,0-0.8,0-1.1,0c-0.4,0-0.7-0.1-1.1-0.1c-0.5,0.3-0.8,0.7-0.8,1.1s0.2,0.7,0.7,0.9c0.4,0.2,1,0.3,1.8,0.4
			c0.7,0.1,1.6,0.1,2.5,0.1c0.9,0,1.9,0.1,2.9,0.2c1,0.1,1.9,0.2,2.9,0.4c0.9,0.2,1.8,0.5,2.5,1c0.7,0.5,1.3,1.1,1.8,1.9
			c0.4,0.8,0.7,1.8,0.7,3c0,1.1-0.3,2.2-0.8,3.3c-0.5,1.1-1.3,2-2.4,2.9c-1.1,0.8-2.4,1.5-3.9,2s-3.3,0.8-5.3,0.8
			c-2,0-3.6-0.2-5.1-0.6c-1.4-0.4-2.6-0.9-3.5-1.5c-0.9-0.6-1.6-1.3-2.1-2.1c-0.4-0.8-0.7-1.6-0.7-2.4c0-1.1,0.3-2,1-2.8
			c0.6-0.7,1.5-1.3,2.7-1.8c-0.6-0.4-1.1-0.8-1.4-1.4c-0.4-0.6-0.5-1.3-0.5-2.2c0-0.4,0.1-0.8,0.2-1.2c0.1-0.4,0.3-0.8,0.6-1.2
			s0.6-0.8,1-1.1c0.4-0.4,0.9-0.7,1.5-0.9c-1.3-0.7-2.3-1.6-3.1-2.7c-0.8-1.1-1.1-2.4-1.1-3.9c0-1.2,0.3-2.4,0.8-3.4
			c0.5-1,1.3-1.8,2.2-2.5c0.9-0.7,2-1.2,3.3-1.6s2.6-0.6,4.1-0.6c2.1,0,4,0.4,5.6,1.2H767.5z M760.2,118.9c0-0.6-0.3-1-0.8-1.3
			s-1.2-0.5-2.1-0.6c-0.8-0.1-1.8-0.2-2.8-0.2s-2.1-0.1-3.1-0.2c-0.5,0.3-0.8,0.7-1.1,1.1c-0.3,0.4-0.4,0.8-0.4,1.3
			c0,0.4,0.1,0.7,0.2,1c0.2,0.3,0.4,0.5,0.8,0.7c0.4,0.2,0.9,0.4,1.5,0.5c0.6,0.1,1.5,0.2,2.5,0.2c1.1,0,2-0.1,2.6-0.2
			c0.7-0.1,1.2-0.3,1.6-0.5s0.7-0.5,0.9-0.8S760.2,119.3,760.2,118.9z M754.4,104.3c1.2,0,2.1-0.3,2.7-0.9c0.6-0.6,0.8-1.4,0.8-2.4
			c0-1-0.3-1.8-0.8-2.4s-1.4-0.9-2.7-0.9c-1.2,0-2.1,0.3-2.7,0.9c-0.6,0.6-0.8,1.4-0.8,2.4c0,0.5,0.1,0.9,0.2,1.3
			c0.1,0.4,0.3,0.7,0.6,1c0.3,0.3,0.7,0.5,1.1,0.7C753.3,104.2,753.8,104.3,754.4,104.3z"/>
		<path class="st1" d="M781.6,92.8c1.9,0,3.6,0.3,5.2,0.9s2.9,1.4,4,2.5s2,2.4,2.6,4c0.6,1.6,0.9,3.3,0.9,5.3c0,2-0.3,3.8-0.9,5.4
			c-0.6,1.6-1.5,2.9-2.6,4.1c-1.1,1.1-2.4,2-4,2.6s-3.3,0.9-5.2,0.9c-1.9,0-3.6-0.3-5.2-0.9c-1.6-0.6-2.9-1.5-4-2.6
			c-1.1-1.1-2-2.5-2.6-4.1c-0.6-1.6-0.9-3.4-0.9-5.4c0-2,0.3-3.7,0.9-5.3c0.6-1.6,1.5-2.9,2.6-4s2.5-2,4-2.5
			C778,93.1,779.7,92.8,781.6,92.8z M781.6,112.9c1.7,0,3-0.6,3.8-1.8c0.8-1.2,1.2-3,1.2-5.5c0-2.5-0.4-4.3-1.2-5.5
			c-0.8-1.2-2.1-1.8-3.8-1.8c-1.8,0-3,0.6-3.9,1.8c-0.8,1.2-1.2,3-1.2,5.5c0,2.5,0.4,4.3,1.2,5.5
			C778.6,112.3,779.9,112.9,781.6,112.9z"/>
		<path class="st1" d="M831.7,93.1v32.8h-7.4v-10.6c-0.9,0.9-2,1.7-3.2,2.2c-1.2,0.6-2.5,0.9-4.1,0.9c-1.3,0-2.5-0.3-3.6-0.9
			c-1.1-0.6-2.1-1.4-2.9-2.5c-0.8-1.1-1.4-2.4-1.9-4c-0.5-1.6-0.7-3.4-0.7-5.4c0-1.9,0.3-3.6,0.8-5.2c0.5-1.6,1.2-3,2.2-4.1
			c0.9-1.2,2.1-2.1,3.4-2.7c1.3-0.7,2.8-1,4.3-1c0.8,0,1.4,0.1,2,0.2c0.6,0.1,1.2,0.3,1.7,0.6c0.5,0.2,1,0.5,1.4,0.9
			c0.4,0.3,0.8,0.7,1.2,1.1l0.3-1c0.3-0.8,0.9-1.2,1.8-1.2H831.7z M824.2,99.8c-0.6-0.6-1.2-1-1.8-1.3c-0.7-0.3-1.3-0.4-2.1-0.4
			c-0.7,0-1.3,0.1-1.9,0.4s-1.1,0.7-1.5,1.3c-0.4,0.6-0.8,1.4-1,2.3s-0.4,2.1-0.4,3.5c0,1.3,0.1,2.4,0.3,3.3s0.5,1.6,0.8,2.2
			c0.3,0.6,0.8,0.9,1.2,1.2c0.5,0.2,1,0.4,1.6,0.4c0.5,0,1-0.1,1.5-0.2c0.4-0.1,0.8-0.3,1.2-0.4c0.4-0.2,0.7-0.4,1-0.7
			c0.3-0.3,0.7-0.6,1-1V99.8z"/>
		<path class="st1" d="M859,93.1V118h-4.6c-0.9,0-1.5-0.4-1.8-1.2l-0.4-1.4c-0.5,0.5-1,0.9-1.5,1.3c-0.5,0.4-1.1,0.7-1.6,1
			c-0.6,0.3-1.2,0.5-1.9,0.6c-0.7,0.2-1.4,0.2-2.2,0.2c-1.4,0-2.6-0.2-3.6-0.7c-1-0.5-1.9-1.1-2.7-2c-0.7-0.8-1.3-1.8-1.6-3
			c-0.4-1.2-0.6-2.4-0.6-3.8V93.1h7.4v15.8c0,1.2,0.3,2.2,0.8,2.9c0.6,0.7,1.4,1,2.5,1c0.8,0,1.6-0.2,2.3-0.5
			c0.7-0.3,1.4-0.8,2.1-1.4V93.1H859z"/>
		<path class="st1" d="M870.2,106.9c0.2,2.1,0.9,3.6,1.9,4.5c1,0.9,2.3,1.4,4,1.4c0.9,0,1.6-0.1,2.2-0.3c0.6-0.2,1.2-0.4,1.7-0.7
			s0.9-0.5,1.3-0.7c0.4-0.2,0.8-0.3,1.3-0.3c0.6,0,1,0.2,1.3,0.6l2.2,2.7c-0.8,0.9-1.6,1.6-2.5,2.1c-0.9,0.6-1.8,1-2.7,1.3
			c-0.9,0.3-1.9,0.5-2.8,0.6c-0.9,0.1-1.8,0.2-2.7,0.2c-1.7,0-3.4-0.3-4.9-0.9c-1.5-0.6-2.9-1.4-4-2.5c-1.1-1.1-2-2.5-2.7-4.2
			s-1-3.6-1-5.8c0-1.7,0.3-3.2,0.9-4.7c0.6-1.5,1.4-2.8,2.4-3.9c1.1-1.1,2.4-2,3.9-2.7c1.5-0.7,3.2-1,5.1-1c1.6,0,3.2,0.3,4.5,0.8
			s2.5,1.3,3.5,2.2c1,1,1.8,2.2,2.3,3.6s0.8,3,0.8,4.8c0,0.6,0,1-0.1,1.4s-0.1,0.6-0.3,0.8c-0.1,0.2-0.3,0.4-0.5,0.4
			c-0.2,0.1-0.5,0.1-0.8,0.1H870.2z M879.6,102.6c0-0.6-0.1-1.2-0.2-1.7c-0.2-0.6-0.4-1.1-0.7-1.5c-0.3-0.4-0.8-0.8-1.4-1.1
			c-0.6-0.3-1.2-0.4-2-0.4c-1.4,0-2.5,0.4-3.3,1.2c-0.8,0.8-1.3,2-1.6,3.5H879.6z"/>
		<path class="st1" d="M776.7,150.7v24.9h-4.6c-0.9,0-1.5-0.4-1.8-1.2l-0.4-1.4c-0.5,0.5-1,0.9-1.5,1.3c-0.5,0.4-1.1,0.7-1.6,1
			c-0.6,0.3-1.2,0.5-1.9,0.6c-0.7,0.2-1.4,0.2-2.2,0.2c-1.4,0-2.6-0.2-3.6-0.7c-1-0.5-1.9-1.1-2.7-2c-0.7-0.8-1.3-1.8-1.6-3
			c-0.4-1.2-0.6-2.4-0.6-3.8v-15.8h7.4v15.8c0,1.2,0.3,2.2,0.8,2.9c0.6,0.7,1.4,1,2.5,1c0.8,0,1.6-0.2,2.3-0.5
			c0.7-0.3,1.4-0.8,2.1-1.4v-17.7H776.7z"/>
		<path class="st1" d="M788.6,153.4c0.5-0.4,1-0.9,1.5-1.2c0.5-0.4,1.1-0.7,1.6-1s1.2-0.5,1.9-0.6c0.7-0.2,1.4-0.2,2.2-0.2
			c1.4,0,2.6,0.2,3.6,0.7c1,0.5,1.9,1.1,2.7,2c0.7,0.8,1.3,1.8,1.6,3c0.4,1.2,0.6,2.4,0.6,3.8v15.8h-7.4v-15.8
			c0-1.2-0.3-2.2-0.8-2.8c-0.6-0.7-1.4-1-2.5-1c-0.8,0-1.6,0.2-2.3,0.5c-0.7,0.3-1.4,0.8-2.1,1.4v17.8h-7.4v-24.9h4.6
			c0.9,0,1.5,0.4,1.8,1.2L788.6,153.4z"/>
		<path class="st1" d="M808.5,154.2c1.5-1.3,3.2-2.3,5-3s3.8-1,5.9-1c1.5,0,2.9,0.2,4.1,0.7c1.2,0.5,2.2,1.2,3.1,2
			c0.8,0.9,1.5,1.9,1.9,3.1c0.4,1.2,0.7,2.5,0.7,3.9v15.6h-3.4c-0.7,0-1.2-0.1-1.6-0.3c-0.4-0.2-0.7-0.6-0.9-1.2l-0.5-1.4
			c-0.6,0.5-1.2,1-1.8,1.4s-1.2,0.7-1.8,1c-0.6,0.3-1.3,0.5-2,0.6c-0.7,0.1-1.5,0.2-2.3,0.2c-1.1,0-2.2-0.1-3.1-0.4
			c-0.9-0.3-1.7-0.7-2.4-1.3c-0.6-0.6-1.1-1.3-1.5-2.1c-0.4-0.9-0.5-1.8-0.5-3c0-0.9,0.2-1.8,0.7-2.7c0.4-0.9,1.2-1.8,2.3-2.5
			c1.1-0.8,2.6-1.4,4.5-1.9c1.9-0.5,4.2-0.8,7.1-0.9v-1.1c0-1.5-0.3-2.5-0.9-3.2c-0.6-0.6-1.5-1-2.6-1c-0.9,0-1.6,0.1-2.2,0.3
			c-0.6,0.2-1.1,0.4-1.5,0.6c-0.4,0.2-0.9,0.5-1.3,0.6c-0.4,0.2-0.9,0.3-1.5,0.3c-0.5,0-0.9-0.1-1.3-0.4c-0.4-0.3-0.6-0.6-0.9-0.9
			L808.5,154.2z M821.9,165.5c-1.5,0.1-2.7,0.2-3.7,0.4c-1,0.2-1.7,0.4-2.3,0.7c-0.6,0.3-0.9,0.6-1.2,1c-0.2,0.4-0.3,0.8-0.3,1.2
			c0,0.8,0.2,1.4,0.7,1.8c0.5,0.3,1.1,0.5,2,0.5c1,0,1.8-0.2,2.5-0.5s1.4-0.9,2.2-1.6V165.5z"/>
		<path class="st1" d="M714.5,211.4c1-1,2.1-1.9,3.3-2.6c1.2-0.7,2.7-1,4.4-1c1.3,0,2.5,0.3,3.6,0.9c1.1,0.6,2.1,1.4,2.9,2.5
			s1.4,2.4,1.9,4c0.5,1.6,0.7,3.4,0.7,5.4c0,1.9-0.3,3.6-0.8,5.2s-1.2,3-2.2,4.1c-0.9,1.2-2.1,2.1-3.4,2.7s-2.7,1-4.3,1
			c-1.3,0-2.4-0.2-3.3-0.6s-1.7-0.9-2.4-1.5v9.6h-7.4v-32.8h4.6c0.9,0,1.5,0.4,1.8,1.2L714.5,211.4z M715,226.5
			c0.6,0.6,1.2,1,1.8,1.3c0.7,0.3,1.3,0.4,2.1,0.4c0.7,0,1.3-0.1,1.9-0.4c0.6-0.3,1.1-0.7,1.5-1.3c0.4-0.6,0.8-1.4,1-2.3
			s0.4-2.1,0.4-3.5c0-1.3-0.1-2.4-0.3-3.3c-0.2-0.9-0.5-1.6-0.8-2.2c-0.3-0.6-0.8-0.9-1.2-1.2c-0.5-0.2-1-0.4-1.6-0.4
			c-1.1,0-2,0.2-2.7,0.6c-0.7,0.4-1.4,1-2,1.8V226.5z"/>
		<path class="st1" d="M741.2,222.1c0.2,2.1,0.9,3.6,1.9,4.5c1,0.9,2.3,1.4,4,1.4c0.9,0,1.6-0.1,2.2-0.3c0.6-0.2,1.2-0.4,1.7-0.7
			s0.9-0.5,1.3-0.7c0.4-0.2,0.8-0.3,1.3-0.3c0.6,0,1,0.2,1.3,0.6l2.2,2.7c-0.8,0.9-1.6,1.6-2.5,2.1c-0.9,0.6-1.8,1-2.7,1.3
			c-0.9,0.3-1.9,0.5-2.8,0.6c-0.9,0.1-1.8,0.2-2.7,0.2c-1.7,0-3.4-0.3-4.9-0.9c-1.5-0.6-2.9-1.4-4-2.5c-1.1-1.1-2-2.5-2.7-4.2
			s-1-3.6-1-5.8c0-1.7,0.3-3.2,0.9-4.7c0.6-1.5,1.4-2.8,2.4-3.9c1.1-1.1,2.4-2,3.9-2.7c1.5-0.7,3.2-1,5.1-1c1.6,0,3.2,0.3,4.5,0.8
			s2.5,1.3,3.5,2.2c1,1,1.8,2.2,2.3,3.6s0.8,3,0.8,4.8c0,0.6,0,1-0.1,1.4s-0.1,0.6-0.3,0.8c-0.1,0.2-0.3,0.4-0.5,0.4
			c-0.2,0.1-0.5,0.1-0.8,0.1H741.2z M750.6,217.8c0-0.6-0.1-1.2-0.2-1.7c-0.2-0.6-0.4-1.1-0.7-1.5c-0.3-0.4-0.8-0.8-1.4-1.1
			c-0.6-0.3-1.2-0.4-2-0.4c-1.4,0-2.5,0.4-3.3,1.2c-0.8,0.8-1.3,2-1.6,3.5H750.6z"/>
		<path class="st1" d="M767.9,212.2c0.8-1.3,1.7-2.4,2.7-3.2c1-0.8,2.1-1.2,3.4-1.2c1.1,0,2,0.3,2.7,0.8l-0.5,5.5
			c-0.1,0.4-0.2,0.6-0.4,0.7s-0.4,0.2-0.8,0.2c-0.1,0-0.3,0-0.5,0s-0.4,0-0.6-0.1c-0.2,0-0.5,0-0.7-0.1c-0.2,0-0.4,0-0.6,0
			c-1.1,0-2,0.3-2.6,0.9c-0.6,0.6-1.2,1.4-1.6,2.4v15.1H761v-24.9h4.4c0.4,0,0.7,0,0.9,0.1s0.5,0.2,0.6,0.3c0.2,0.1,0.3,0.3,0.4,0.5
			c0.1,0.2,0.2,0.5,0.2,0.8L767.9,212.2z"/>
		<path class="st1" d="M795.1,213.8c-0.2,0.3-0.4,0.5-0.6,0.6c-0.2,0.1-0.5,0.2-0.8,0.2c-0.4,0-0.7-0.1-1.1-0.2
			c-0.4-0.2-0.7-0.3-1.1-0.5c-0.4-0.2-0.9-0.3-1.4-0.5c-0.5-0.2-1.1-0.2-1.8-0.2c-0.9,0-1.7,0.2-2.2,0.5s-0.8,0.9-0.8,1.5
			c0,0.5,0.2,0.8,0.5,1.2c0.3,0.3,0.8,0.6,1.3,0.8s1.2,0.5,1.8,0.7c0.7,0.2,1.4,0.4,2.1,0.7c0.7,0.3,1.4,0.6,2.1,0.9
			c0.7,0.3,1.3,0.8,1.8,1.3s1,1.1,1.3,1.8c0.3,0.7,0.5,1.6,0.5,2.6c0,1.2-0.2,2.4-0.7,3.4c-0.4,1-1.1,1.9-2,2.7
			c-0.9,0.8-2,1.3-3.3,1.8c-1.3,0.4-2.8,0.6-4.5,0.6c-0.8,0-1.7-0.1-2.5-0.2c-0.8-0.2-1.7-0.4-2.5-0.6s-1.5-0.6-2.2-1
			c-0.7-0.4-1.2-0.8-1.7-1.2l1.7-2.7c0.2-0.3,0.4-0.6,0.7-0.8c0.3-0.2,0.7-0.3,1.1-0.3c0.4,0,0.8,0.1,1.2,0.3
			c0.3,0.2,0.7,0.4,1.1,0.6c0.4,0.2,0.9,0.4,1.4,0.6s1.2,0.3,2,0.3c0.6,0,1.1-0.1,1.5-0.2c0.4-0.1,0.7-0.3,1-0.5
			c0.2-0.2,0.4-0.4,0.5-0.7c0.1-0.3,0.2-0.5,0.2-0.8c0-0.5-0.2-0.9-0.5-1.2c-0.3-0.3-0.8-0.6-1.3-0.8c-0.5-0.2-1.2-0.4-1.9-0.6
			c-0.7-0.2-1.4-0.4-2.1-0.7s-1.4-0.6-2.1-0.9s-1.3-0.8-1.9-1.4c-0.5-0.6-1-1.2-1.3-2c-0.3-0.8-0.5-1.8-0.5-2.9c0-1.1,0.2-2.1,0.6-3
			c0.4-1,1-1.8,1.8-2.5c0.8-0.7,1.8-1.3,3.1-1.7c1.2-0.4,2.7-0.6,4.3-0.6c0.9,0,1.8,0.1,2.6,0.2c0.8,0.2,1.6,0.4,2.4,0.7
			s1.4,0.6,2,1c0.6,0.4,1.1,0.8,1.6,1.3L795.1,213.8z"/>
		<path class="st1" d="M812.2,208c1.9,0,3.6,0.3,5.2,0.9s2.9,1.4,4,2.5s2,2.4,2.6,4c0.6,1.6,0.9,3.3,0.9,5.3c0,2-0.3,3.8-0.9,5.4
			c-0.6,1.6-1.5,2.9-2.6,4.1c-1.1,1.1-2.4,2-4,2.6s-3.3,0.9-5.2,0.9c-1.9,0-3.6-0.3-5.2-0.9c-1.6-0.6-2.9-1.5-4-2.6
			c-1.1-1.1-2-2.5-2.6-4.1c-0.6-1.6-0.9-3.4-0.9-5.4c0-2,0.3-3.7,0.9-5.3c0.6-1.6,1.5-2.9,2.6-4s2.5-2,4-2.5
			C808.5,208.3,810.3,208,812.2,208z M812.2,228.1c1.7,0,3-0.6,3.8-1.8c0.8-1.2,1.2-3,1.2-5.5c0-2.5-0.4-4.3-1.2-5.5
			c-0.8-1.2-2.1-1.8-3.8-1.8c-1.8,0-3,0.6-3.9,1.8c-0.8,1.2-1.2,3-1.2,5.5c0,2.5,0.4,4.3,1.2,5.5
			C809.1,227.5,810.4,228.1,812.2,228.1z"/>
		<path class="st1" d="M835.4,211c0.5-0.4,1-0.9,1.5-1.2c0.5-0.4,1.1-0.7,1.6-1s1.2-0.5,1.9-0.6c0.7-0.2,1.4-0.2,2.2-0.2
			c1.4,0,2.6,0.2,3.6,0.7c1,0.5,1.9,1.1,2.7,2c0.7,0.8,1.3,1.8,1.6,3c0.4,1.2,0.6,2.4,0.6,3.8v15.8h-7.4v-15.8
			c0-1.2-0.3-2.2-0.8-2.8c-0.6-0.7-1.4-1-2.5-1c-0.8,0-1.6,0.2-2.3,0.5c-0.7,0.3-1.4,0.8-2.1,1.4v17.8h-7.4v-24.9h4.6
			c0.9,0,1.5,0.4,1.8,1.2L835.4,211z"/>
		<path class="st1" d="M855.4,211.8c1.5-1.3,3.2-2.3,5-3s3.8-1,5.9-1c1.5,0,2.9,0.2,4.1,0.7c1.2,0.5,2.2,1.2,3.1,2
			c0.8,0.9,1.5,1.9,1.9,3.1c0.4,1.2,0.7,2.5,0.7,3.9v15.6h-3.4c-0.7,0-1.2-0.1-1.6-0.3c-0.4-0.2-0.7-0.6-0.9-1.2l-0.5-1.4
			c-0.6,0.5-1.2,1-1.8,1.4s-1.2,0.7-1.8,1c-0.6,0.3-1.3,0.5-2,0.6c-0.7,0.1-1.5,0.2-2.3,0.2c-1.1,0-2.2-0.1-3.1-0.4
			c-0.9-0.3-1.7-0.7-2.4-1.3c-0.6-0.6-1.1-1.3-1.5-2.1c-0.4-0.9-0.5-1.8-0.5-3c0-0.9,0.2-1.8,0.7-2.7c0.4-0.9,1.2-1.8,2.3-2.5
			c1.1-0.8,2.6-1.4,4.5-1.9c1.9-0.5,4.2-0.8,7.1-0.9v-1.1c0-1.5-0.3-2.5-0.9-3.2c-0.6-0.6-1.5-1-2.6-1c-0.9,0-1.6,0.1-2.2,0.3
			c-0.6,0.2-1.1,0.4-1.5,0.6c-0.4,0.2-0.9,0.5-1.3,0.6c-0.4,0.2-0.9,0.3-1.5,0.3c-0.5,0-0.9-0.1-1.3-0.4c-0.4-0.3-0.6-0.6-0.9-0.9
			L855.4,211.8z M868.8,223.1c-1.5,0.1-2.7,0.2-3.7,0.4c-1,0.2-1.7,0.4-2.3,0.7c-0.6,0.3-0.9,0.6-1.2,1c-0.2,0.4-0.3,0.8-0.3,1.2
			c0,0.8,0.2,1.4,0.7,1.8c0.5,0.3,1.1,0.5,2,0.5c1,0,1.8-0.2,2.5-0.5s1.4-0.9,2.2-1.6V223.1z"/>
		<path class="st1" d="M765.4,290.8H758v-19.8h-10.4v12.4c0,0.6,0.1,1.1,0.4,1.4c0.3,0.4,0.7,0.6,1.2,0.6c0.3,0,0.5,0,0.7-0.1
			c0.2-0.1,0.3-0.1,0.5-0.2c0.1-0.1,0.3-0.1,0.4-0.2c0.1-0.1,0.3-0.1,0.4-0.1c0.2,0,0.4,0.1,0.5,0.2s0.3,0.3,0.4,0.5l2.3,3.5
			c-1,0.7-2,1.3-3.2,1.6c-1.2,0.4-2.4,0.5-3.7,0.5c-1.2,0-2.2-0.2-3.1-0.5c-0.9-0.3-1.7-0.8-2.3-1.5c-0.6-0.6-1.1-1.4-1.4-2.3
			c-0.3-0.9-0.5-1.9-0.5-3v-12.9H738c-0.4,0-0.7-0.1-1-0.4c-0.3-0.2-0.4-0.6-0.4-1.1v-2.9l4-0.8l1.5-6c0.2-0.8,0.7-1.2,1.6-1.2h3.9
			v7.3h17.9V290.8z M766.5,259.1c0,0.6-0.1,1.2-0.4,1.7c-0.2,0.5-0.6,1-1,1.4s-0.9,0.7-1.5,0.9c-0.6,0.2-1.1,0.3-1.8,0.3
			c-0.6,0-1.2-0.1-1.7-0.3c-0.5-0.2-1-0.5-1.4-0.9s-0.7-0.9-1-1.4c-0.2-0.5-0.3-1.1-0.3-1.7c0-0.6,0.1-1.2,0.3-1.7
			c0.2-0.5,0.6-1,1-1.4s0.9-0.7,1.4-0.9s1.1-0.3,1.7-0.3c0.6,0,1.2,0.1,1.8,0.3s1,0.5,1.5,0.9s0.7,0.9,1,1.4
			C766.4,257.9,766.5,258.5,766.5,259.1z"/>
		<path class="st1" d="M776.8,279.7c0.2,2.1,0.9,3.6,1.9,4.5c1,0.9,2.3,1.4,4,1.4c0.9,0,1.6-0.1,2.2-0.3c0.6-0.2,1.2-0.4,1.7-0.7
			s0.9-0.5,1.3-0.7c0.4-0.2,0.8-0.3,1.3-0.3c0.6,0,1,0.2,1.3,0.6l2.2,2.7c-0.8,0.9-1.6,1.6-2.5,2.1c-0.9,0.6-1.8,1-2.7,1.3
			c-0.9,0.3-1.9,0.5-2.8,0.6c-0.9,0.1-1.8,0.2-2.7,0.2c-1.7,0-3.4-0.3-4.9-0.9c-1.5-0.6-2.9-1.4-4-2.5c-1.1-1.1-2-2.5-2.7-4.2
			s-1-3.6-1-5.8c0-1.7,0.3-3.2,0.9-4.7c0.6-1.5,1.4-2.8,2.4-3.9c1.1-1.1,2.4-2,3.9-2.7c1.5-0.7,3.2-1,5.1-1c1.6,0,3.2,0.3,4.5,0.8
			s2.5,1.3,3.5,2.2c1,1,1.8,2.2,2.3,3.6s0.8,3,0.8,4.8c0,0.6,0,1-0.1,1.4s-0.1,0.6-0.3,0.8c-0.1,0.2-0.3,0.4-0.5,0.4
			c-0.2,0.1-0.5,0.1-0.8,0.1H776.8z M786.1,275.4c0-0.6-0.1-1.2-0.2-1.7c-0.2-0.6-0.4-1.1-0.7-1.5c-0.3-0.4-0.8-0.8-1.4-1.1
			c-0.6-0.3-1.2-0.4-2-0.4c-1.4,0-2.5,0.4-3.3,1.2c-0.8,0.8-1.3,2-1.6,3.5H786.1z"/>
		<path class="st1" d="M803.4,268.6c0.5-0.4,1-0.9,1.5-1.2c0.5-0.4,1.1-0.7,1.6-1s1.2-0.5,1.9-0.6c0.7-0.2,1.4-0.2,2.2-0.2
			c1.4,0,2.6,0.2,3.6,0.7c1,0.5,1.9,1.1,2.7,2c0.7,0.8,1.3,1.8,1.6,3c0.4,1.2,0.6,2.4,0.6,3.8v15.8h-7.4V275c0-1.2-0.3-2.2-0.8-2.8
			c-0.6-0.7-1.4-1-2.5-1c-0.8,0-1.6,0.2-2.3,0.5c-0.7,0.3-1.4,0.8-2.1,1.4v17.8h-7.4v-24.9h4.6c0.9,0,1.5,0.4,1.8,1.2L803.4,268.6z"
			/>
		<path class="st1" d="M830,279.7c0.2,2.1,0.9,3.6,1.9,4.5c1,0.9,2.3,1.4,4,1.4c0.9,0,1.6-0.1,2.2-0.3c0.6-0.2,1.2-0.4,1.7-0.7
			s0.9-0.5,1.3-0.7c0.4-0.2,0.8-0.3,1.3-0.3c0.6,0,1,0.2,1.3,0.6l2.2,2.7c-0.8,0.9-1.6,1.6-2.5,2.1c-0.9,0.6-1.8,1-2.7,1.3
			c-0.9,0.3-1.9,0.5-2.8,0.6c-0.9,0.1-1.8,0.2-2.7,0.2c-1.7,0-3.4-0.3-4.9-0.9c-1.5-0.6-2.9-1.4-4-2.5c-1.1-1.1-2-2.5-2.7-4.2
			s-1-3.6-1-5.8c0-1.7,0.3-3.2,0.9-4.7c0.6-1.5,1.4-2.8,2.4-3.9c1.1-1.1,2.4-2,3.9-2.7c1.5-0.7,3.2-1,5.1-1c1.6,0,3.2,0.3,4.5,0.8
			s2.5,1.3,3.5,2.2c1,1,1.8,2.2,2.3,3.6s0.8,3,0.8,4.8c0,0.6,0,1-0.1,1.4s-0.1,0.6-0.3,0.8c-0.1,0.2-0.3,0.4-0.5,0.4
			c-0.2,0.1-0.5,0.1-0.8,0.1H830z M839.4,275.4c0-0.6-0.1-1.2-0.2-1.7c-0.2-0.6-0.4-1.1-0.7-1.5c-0.3-0.4-0.8-0.8-1.4-1.1
			c-0.6-0.3-1.2-0.4-2-0.4c-1.4,0-2.5,0.4-3.3,1.2c-0.8,0.8-1.3,2-1.6,3.5H839.4z"/>
	</g>
</g>
</svg>
