<?xml version="1.0" encoding="utf-8"?>
<!-- Generator: Adobe Illustrator 22.0.0, SVG Export Plug-In . SVG Version: 6.00 Build 0)  -->
<svg version="1.1" id="Layer_1" xmlns="http://www.w3.org/2000/svg" xmlns:xlink="http://www.w3.org/1999/xlink" x="0px" y="0px"
	 viewBox="0 0 1080 1049.6" style="enable-background:new 0 0 1080 1049.6;" xml:space="preserve">
<style type="text/css">
	.st0{fill:#455927;}
	.st1{fill:url(#SVGID_1_);}
	.st2{fill:url(#SVGID_2_);}
	.st3{fill:url(#SVGID_3_);}
	.st4{fill:url(#SVGID_4_);}
	.st5{fill:#FFFFFF;}
</style>
<g>
	<circle class="st0" cx="535.1" cy="522.9" r="292.6"/>

		<linearGradient id="SVGID_1_" gradientUnits="userSpaceOnUse" x1="272.2235" y1="236.8895" x2="606.4526" y2="236.8895" gradientTransform="matrix(-6.123234e-17 1 -1 -6.123234e-17 772 -272)">
		<stop  offset="0" style="stop-color:#733122"/>
		<stop  offset="1" style="stop-color:#F27A5E;stop-opacity:0.3"/>
	</linearGradient>
	<circle class="st1" cx="535.1" cy="167.3" r="167.1"/>

		<linearGradient id="SVGID_2_" gradientUnits="userSpaceOnUse" x1="543.6031" y1="12.0893" x2="877.8322" y2="12.0893" gradientTransform="matrix(-1 0 0 -1 1624 535)">
		<stop  offset="0" style="stop-color:#733122"/>
		<stop  offset="1" style="stop-color:#F27A5E;stop-opacity:0.3"/>
	</linearGradient>
	<circle class="st2" cx="913.3" cy="522.9" r="167.1"/>

		<linearGradient id="SVGID_3_" gradientUnits="userSpaceOnUse" x1="41.8968" y1="18.5893" x2="376.1259" y2="18.5893" gradientTransform="matrix(1 0 0 -1 -41.5 541.5)">
		<stop  offset="0" style="stop-color:#733122"/>
		<stop  offset="1" style="stop-color:#F27A5E;stop-opacity:0.3"/>
	</linearGradient>
	<circle class="st3" cx="167.5" cy="522.9" r="167.1"/>

		<linearGradient id="SVGID_4_" gradientUnits="userSpaceOnUse" x1="344.2016" y1="230.3895" x2="678.4307" y2="230.3895" gradientTransform="matrix(-4.489659e-11 -1 -1 4.489659e-11 765.5 1393.5)">
		<stop  offset="0" style="stop-color:#733122"/>
		<stop  offset="1" style="stop-color:#F27A5E;stop-opacity:0.3"/>
	</linearGradient>
	<circle class="st4" cx="535.1" cy="882.2" r="167.1"/>
</g>
<g>
	<path class="st5" d="M475.3,133v10.2h13.7v7.5h-13.7v10.4h17.9v7.8h-28.1v-43.7h28.1v7.8H475.3z"/>
	<path class="st5" d="M527,137.8l-12.1,31.1h-8.5l-12.1-31.1h7.7c0.7,0,1.2,0.2,1.7,0.5c0.4,0.3,0.8,0.7,0.9,1.2l4.3,14
		c0.4,1.1,0.7,2.2,1,3.3c0.3,1.1,0.5,2.2,0.8,3.2c0.4-2.2,1-4.3,1.8-6.6l4.5-14c0.2-0.5,0.5-0.8,0.9-1.2c0.4-0.3,1-0.5,1.6-0.5H527z
		"/>
	<path class="st5" d="M540.5,129.3c0,0.7-0.1,1.4-0.5,2.1c-0.3,0.6-0.7,1.2-1.2,1.7c-0.5,0.5-1.1,0.9-1.8,1.2
		c-0.7,0.3-1.4,0.4-2.2,0.4c-0.8,0-1.5-0.1-2.1-0.4c-0.7-0.3-1.2-0.7-1.8-1.2c-0.5-0.5-0.9-1.1-1.2-1.7c-0.3-0.6-0.4-1.3-0.4-2.1
		c0-0.8,0.1-1.5,0.4-2.1c0.3-0.7,0.7-1.2,1.2-1.7c0.5-0.5,1.1-0.9,1.8-1.2c0.7-0.3,1.4-0.4,2.1-0.4c0.8,0,1.5,0.1,2.2,0.4
		c0.7,0.3,1.3,0.7,1.8,1.2c0.5,0.5,0.9,1.1,1.2,1.7C540.4,127.8,540.5,128.5,540.5,129.3z M539.5,137.8v31.1h-9.3v-31.1H539.5z"/>
	<path class="st5" d="M557.2,169.4c-1.5,0-2.8-0.2-3.9-0.6s-2.1-1-2.8-1.8c-0.8-0.8-1.4-1.7-1.8-2.9c-0.4-1.1-0.6-2.4-0.6-3.8v-16.1
		h-2.6c-0.5,0-0.9-0.2-1.2-0.5c-0.3-0.3-0.5-0.8-0.5-1.4v-3.6l5-1l1.8-7.6c0.2-1,0.9-1.4,2-1.4h4.9v9.1h7.7v6.4h-7.7v15.4
		c0,0.7,0.2,1.3,0.5,1.8c0.3,0.5,0.9,0.7,1.5,0.7c0.3,0,0.6,0,0.9-0.1c0.2-0.1,0.4-0.1,0.6-0.2c0.2-0.1,0.3-0.2,0.5-0.2
		c0.2-0.1,0.3-0.1,0.5-0.1c0.3,0,0.5,0.1,0.7,0.2c0.2,0.1,0.3,0.3,0.5,0.6l2.8,4.4c-1.2,0.9-2.5,1.6-4,2
		C560.3,169.2,558.8,169.4,557.2,169.4z"/>
	<path class="st5" d="M568.4,142.1c1.9-1.7,4-2.9,6.3-3.7c2.3-0.8,4.7-1.2,7.4-1.2c1.9,0,3.6,0.3,5.1,0.9c1.5,0.6,2.8,1.5,3.8,2.5
		c1,1.1,1.9,2.4,2.4,3.9c0.6,1.5,0.8,3.1,0.8,4.9v19.4h-4.3c-0.9,0-1.5-0.1-2-0.4c-0.5-0.2-0.8-0.7-1.1-1.5l-0.7-1.7
		c-0.8,0.7-1.5,1.2-2.2,1.7c-0.7,0.5-1.5,0.9-2.2,1.3c-0.8,0.4-1.6,0.6-2.5,0.8c-0.9,0.2-1.8,0.3-2.9,0.3c-1.4,0-2.7-0.2-3.9-0.6
		c-1.2-0.4-2.1-0.9-3-1.6c-0.8-0.7-1.4-1.6-1.9-2.7c-0.4-1.1-0.7-2.3-0.7-3.7c0-1.1,0.3-2.3,0.8-3.4c0.6-1.1,1.5-2.2,2.9-3.1
		s3.2-1.7,5.6-2.4c2.3-0.6,5.3-1,8.9-1.1v-1.3c0-1.8-0.4-3.1-1.1-3.9c-0.8-0.8-1.8-1.2-3.2-1.2c-1.1,0-2,0.1-2.7,0.4
		c-0.7,0.2-1.3,0.5-1.9,0.8c-0.5,0.3-1.1,0.6-1.6,0.8c-0.5,0.2-1.1,0.4-1.9,0.4c-0.6,0-1.2-0.2-1.6-0.5c-0.4-0.3-0.8-0.7-1.1-1.1
		L568.4,142.1z M585.1,156.2c-1.9,0.1-3.4,0.2-4.6,0.5c-1.2,0.2-2.1,0.5-2.9,0.9c-0.7,0.4-1.2,0.8-1.5,1.2s-0.4,1-0.4,1.5
		c0,1.1,0.3,1.8,0.9,2.2c0.6,0.4,1.4,0.6,2.5,0.6c1.2,0,2.2-0.2,3.2-0.6c0.9-0.4,1.8-1.1,2.7-2V156.2z"/>
	<path class="st5" d="M608.8,142.6c1-1.7,2.1-3,3.3-4s2.7-1.4,4.3-1.4c1.4,0,2.5,0.3,3.4,1l-0.6,6.8c-0.1,0.4-0.3,0.7-0.5,0.9
		c-0.2,0.2-0.5,0.2-0.9,0.2c-0.2,0-0.4,0-0.6,0c-0.3,0-0.5,0-0.8-0.1c-0.3,0-0.6-0.1-0.9-0.1c-0.3,0-0.6,0-0.8,0
		c-1.4,0-2.4,0.4-3.3,1.1c-0.8,0.7-1.5,1.7-2.1,3v18.9h-9.3v-31.1h5.5c0.5,0,0.8,0,1.2,0.1c0.3,0.1,0.6,0.2,0.8,0.4
		c0.2,0.2,0.4,0.4,0.5,0.7c0.1,0.3,0.2,0.6,0.3,1L608.8,142.6z"/>
</g>
<g>
	<path class="st5" d="M487.4,927.9h-7.9c-0.9,0-1.6-0.2-2.1-0.6s-1-0.9-1.2-1.6l-2.6-7.6H457l-2.6,7.6c-0.2,0.6-0.6,1.1-1.2,1.5
		s-1.3,0.7-2.1,0.7h-7.9l16.9-43.7h10.4L487.4,927.9z M471.3,911.2l-4.1-12c-0.3-0.8-0.6-1.7-1-2.7c-0.3-1-0.7-2.1-1-3.3
		c-0.3,1.2-0.6,2.4-1,3.4c-0.3,1-0.7,1.9-1,2.7l-4,11.9H471.3z"/>
	<path class="st5" d="M509.6,903.6c-0.2,0.4-0.5,0.6-0.8,0.8c-0.3,0.2-0.6,0.2-1,0.2c-0.4,0-0.9-0.1-1.3-0.3
		c-0.4-0.2-0.9-0.4-1.4-0.6c-0.5-0.2-1.1-0.4-1.7-0.6c-0.6-0.2-1.4-0.3-2.2-0.3c-1.2,0-2.1,0.2-2.7,0.7s-0.9,1.1-0.9,1.9
		c0,0.6,0.2,1.1,0.6,1.4c0.4,0.4,1,0.7,1.6,1c0.7,0.3,1.5,0.6,2.3,0.8c0.9,0.3,1.7,0.6,2.6,0.9c0.9,0.3,1.8,0.7,2.6,1.1
		c0.9,0.4,1.6,1,2.3,1.6c0.7,0.6,1.2,1.4,1.6,2.3c0.4,0.9,0.6,2,0.6,3.2c0,1.5-0.3,3-0.8,4.3c-0.6,1.3-1.4,2.4-2.5,3.4
		c-1.1,0.9-2.5,1.7-4.1,2.2c-1.6,0.5-3.5,0.8-5.6,0.8c-1.1,0-2.1-0.1-3.2-0.3c-1.1-0.2-2.1-0.5-3.1-0.8c-1-0.3-1.9-0.7-2.7-1.2
		c-0.8-0.5-1.6-1-2.2-1.5l2.2-3.4c0.2-0.4,0.5-0.7,0.9-0.9c0.4-0.2,0.8-0.3,1.4-0.3c0.5,0,1,0.1,1.5,0.4c0.4,0.2,0.9,0.5,1.4,0.8
		c0.5,0.3,1.1,0.5,1.8,0.8s1.5,0.4,2.5,0.4c0.7,0,1.3-0.1,1.8-0.2c0.5-0.1,0.9-0.4,1.2-0.6c0.3-0.3,0.5-0.5,0.7-0.9
		c0.1-0.3,0.2-0.7,0.2-1c0-0.6-0.2-1.1-0.6-1.5s-1-0.7-1.7-1s-1.5-0.6-2.3-0.8s-1.8-0.5-2.7-0.9c-0.9-0.3-1.8-0.7-2.7-1.2
		s-1.6-1-2.3-1.7s-1.2-1.5-1.7-2.5c-0.4-1-0.6-2.2-0.6-3.6c0-1.3,0.3-2.6,0.8-3.8c0.5-1.2,1.3-2.2,2.3-3.1c1-0.9,2.3-1.6,3.8-2.1
		c1.5-0.5,3.3-0.8,5.4-0.8c1.1,0,2.2,0.1,3.3,0.3c1,0.2,2,0.5,3,0.8c0.9,0.4,1.8,0.8,2.5,1.3c0.8,0.5,1.4,1,2,1.6L509.6,903.6z"/>
	<path class="st5" d="M544.4,896.8v31.1h-5.8c-1.2,0-1.9-0.5-2.3-1.6l-0.5-1.8c-0.6,0.6-1.2,1.1-1.9,1.6c-0.6,0.5-1.3,0.9-2.1,1.2
		c-0.7,0.3-1.5,0.6-2.4,0.8c-0.9,0.2-1.8,0.3-2.8,0.3c-1.7,0-3.2-0.3-4.5-0.9c-1.3-0.6-2.4-1.4-3.3-2.5c-0.9-1.1-1.6-2.3-2-3.8
		c-0.5-1.4-0.7-3-0.7-4.7v-19.7h9.3v19.7c0,1.5,0.3,2.7,1.1,3.6c0.7,0.8,1.7,1.3,3.1,1.3c1,0,2-0.2,2.9-0.6c0.9-0.4,1.8-1,2.6-1.8
		v-22.2H544.4z"/>
	<path class="st5" d="M550.7,927.9v-31.1h5.8c1.2,0,1.9,0.5,2.3,1.6l0.5,1.7c0.5-0.5,1.1-1,1.6-1.5c0.6-0.4,1.2-0.8,1.8-1.2
		c0.7-0.3,1.4-0.6,2.1-0.8s1.6-0.3,2.5-0.3c1.9,0,3.4,0.5,4.7,1.5c1.2,1,2.2,2.3,2.8,3.9c0.5-1,1.2-1.8,1.9-2.5
		c0.8-0.7,1.6-1.2,2.4-1.6c0.9-0.4,1.8-0.7,2.8-0.9c1-0.2,1.9-0.3,2.9-0.3c1.8,0,3.4,0.3,4.7,0.8c1.4,0.5,2.5,1.3,3.5,2.3
		c0.9,1,1.6,2.2,2.1,3.7c0.5,1.5,0.7,3.1,0.7,5v19.8h-9.3v-19.8c0-3.2-1.4-4.8-4.1-4.8c-1.3,0-2.3,0.4-3.1,1.2
		c-0.8,0.8-1.2,2-1.2,3.6v19.8h-9.3v-19.8c0-1.8-0.3-3-1-3.8c-0.7-0.7-1.7-1.1-3.1-1.1c-0.8,0-1.6,0.2-2.4,0.6
		c-0.8,0.4-1.5,0.9-2.1,1.5v22.5H550.7z"/>
	<path class="st5" d="M612.3,888.3c0,0.7-0.1,1.4-0.5,2.1c-0.3,0.7-0.7,1.2-1.2,1.7c-0.5,0.5-1.1,0.9-1.8,1.2
		c-0.7,0.3-1.4,0.4-2.2,0.4c-0.8,0-1.5-0.1-2.1-0.4s-1.2-0.7-1.8-1.2c-0.5-0.5-0.9-1.1-1.2-1.7s-0.4-1.3-0.4-2.1
		c0-0.8,0.1-1.5,0.4-2.1s0.7-1.2,1.2-1.7s1.1-0.9,1.8-1.2c0.7-0.3,1.4-0.4,2.1-0.4c0.8,0,1.5,0.1,2.2,0.4c0.7,0.3,1.3,0.7,1.8,1.2
		c0.5,0.5,0.9,1.1,1.2,1.7C612.1,886.8,612.3,887.5,612.3,888.3z M611.3,896.8v31.1H602v-31.1H611.3z"/>
	<path class="st5" d="M626.5,901.6c1-1.7,2.1-3,3.3-4c1.2-1,2.7-1.4,4.3-1.4c1.4,0,2.5,0.3,3.4,1L637,904c-0.1,0.4-0.3,0.7-0.5,0.9
		c-0.2,0.2-0.5,0.2-0.9,0.2c-0.2,0-0.4,0-0.6,0s-0.5,0-0.8-0.1c-0.3,0-0.6-0.1-0.9-0.1c-0.3,0-0.6,0-0.8,0c-1.4,0-2.4,0.4-3.3,1.1
		c-0.8,0.7-1.5,1.7-2.1,3v18.9h-9.3v-31.1h5.5c0.5,0,0.8,0,1.2,0.1c0.3,0.1,0.6,0.2,0.8,0.4s0.4,0.4,0.5,0.7c0.1,0.3,0.2,0.6,0.3,1
		L626.5,901.6z"/>
</g>
<g>
	<path class="st5" d="M56.4,506H44.1v35.7H34V506H21.7v-8h34.7V506z"/>
	<path class="st5" d="M63.6,515.4c1-1.7,2.1-3,3.3-4c1.2-1,2.7-1.4,4.3-1.4c1.4,0,2.5,0.3,3.4,1l-0.6,6.8c-0.1,0.4-0.3,0.7-0.5,0.9
		c-0.2,0.2-0.5,0.2-0.9,0.2c-0.2,0-0.4,0-0.6,0c-0.3,0-0.5,0-0.8-0.1c-0.3,0-0.6-0.1-0.9-0.1c-0.3,0-0.6,0-0.8,0
		c-1.4,0-2.4,0.4-3.3,1.1c-0.8,0.7-1.5,1.7-2.1,3v18.9h-9.3v-31.1h5.5c0.5,0,0.8,0,1.2,0.1c0.3,0.1,0.6,0.2,0.8,0.4
		c0.2,0.2,0.4,0.4,0.5,0.7c0.1,0.3,0.2,0.6,0.3,1L63.6,515.4z"/>
	<path class="st5" d="M76.8,514.9c1.9-1.7,4-2.9,6.3-3.7s4.7-1.2,7.4-1.2c1.9,0,3.6,0.3,5.1,0.9c1.5,0.6,2.8,1.5,3.8,2.5
		c1.1,1.1,1.9,2.4,2.4,3.9c0.6,1.5,0.8,3.1,0.8,4.9v19.4h-4.3c-0.9,0-1.5-0.1-2-0.4c-0.4-0.2-0.8-0.7-1.1-1.5l-0.7-1.7
		c-0.8,0.7-1.5,1.2-2.2,1.7c-0.7,0.5-1.5,0.9-2.2,1.3s-1.6,0.6-2.5,0.8c-0.9,0.2-1.8,0.3-2.9,0.3c-1.4,0-2.7-0.2-3.9-0.6
		c-1.2-0.4-2.1-0.9-3-1.6c-0.8-0.7-1.4-1.6-1.9-2.7c-0.4-1.1-0.7-2.3-0.7-3.7c0-1.1,0.3-2.3,0.8-3.4c0.6-1.1,1.5-2.2,2.9-3.1
		s3.2-1.7,5.6-2.4c2.3-0.6,5.3-1,8.9-1.1v-1.3c0-1.8-0.4-3.1-1.1-3.9c-0.8-0.8-1.8-1.2-3.2-1.2c-1.1,0-2,0.1-2.7,0.4
		c-0.7,0.2-1.3,0.5-1.9,0.8c-0.6,0.3-1.1,0.6-1.6,0.8c-0.5,0.2-1.1,0.4-1.9,0.4c-0.6,0-1.2-0.2-1.6-0.5c-0.4-0.3-0.8-0.7-1.1-1.1
		L76.8,514.9z M93.5,529c-1.9,0.1-3.4,0.2-4.6,0.5c-1.2,0.2-2.1,0.5-2.9,0.9c-0.7,0.4-1.2,0.8-1.5,1.2s-0.4,1-0.4,1.5
		c0,1.1,0.3,1.8,0.9,2.2c0.6,0.4,1.4,0.6,2.5,0.6c1.2,0,2.2-0.2,3.2-0.6c0.9-0.4,1.8-1.1,2.7-2V529z"/>
	<path class="st5" d="M117.1,514c0.6-0.6,1.2-1.1,1.9-1.6s1.3-0.9,2.1-1.2c0.7-0.3,1.5-0.6,2.4-0.8c0.8-0.2,1.8-0.3,2.8-0.3
		c1.7,0,3.2,0.3,4.5,0.9c1.3,0.6,2.4,1.4,3.3,2.5c0.9,1.1,1.6,2.3,2,3.8c0.5,1.5,0.7,3,0.7,4.7v19.8h-9.3v-19.8c0-1.5-0.4-2.7-1-3.6
		c-0.7-0.8-1.7-1.3-3.1-1.3c-1,0-2,0.2-2.9,0.6c-0.9,0.4-1.8,1-2.6,1.8v22.2h-9.3v-31.1h5.8c1.2,0,1.9,0.5,2.3,1.6L117.1,514z"/>
	<path class="st5" d="M162.5,517.4c-0.2,0.4-0.5,0.6-0.8,0.8c-0.3,0.2-0.6,0.2-1,0.2c-0.4,0-0.9-0.1-1.3-0.3
		c-0.4-0.2-0.9-0.4-1.4-0.6c-0.5-0.2-1.1-0.4-1.7-0.6c-0.6-0.2-1.4-0.3-2.2-0.3c-1.2,0-2.1,0.2-2.7,0.7s-0.9,1.1-0.9,1.9
		c0,0.6,0.2,1.1,0.6,1.4c0.4,0.4,1,0.7,1.6,1c0.7,0.3,1.5,0.6,2.3,0.8c0.9,0.3,1.7,0.6,2.6,0.9s1.8,0.7,2.6,1.1
		c0.9,0.4,1.6,1,2.3,1.6c0.7,0.6,1.2,1.4,1.6,2.3c0.4,0.9,0.6,2,0.6,3.2c0,1.5-0.3,3-0.8,4.3c-0.6,1.3-1.4,2.4-2.5,3.4
		c-1.1,0.9-2.5,1.7-4.1,2.2c-1.6,0.5-3.5,0.8-5.6,0.8c-1.1,0-2.1-0.1-3.2-0.3c-1.1-0.2-2.1-0.5-3.1-0.8c-1-0.3-1.9-0.7-2.7-1.2
		c-0.8-0.5-1.6-1-2.2-1.5l2.2-3.4c0.2-0.4,0.5-0.7,0.9-0.9c0.4-0.2,0.8-0.3,1.4-0.3c0.5,0,1,0.1,1.5,0.4c0.4,0.2,0.9,0.5,1.4,0.8
		c0.5,0.3,1.1,0.5,1.8,0.8c0.7,0.2,1.5,0.4,2.5,0.4c0.7,0,1.3-0.1,1.8-0.2c0.5-0.1,0.9-0.4,1.2-0.6c0.3-0.3,0.5-0.5,0.7-0.9
		c0.1-0.3,0.2-0.6,0.2-1c0-0.6-0.2-1.1-0.6-1.5c-0.4-0.4-1-0.7-1.6-1c-0.7-0.3-1.5-0.6-2.3-0.8c-0.9-0.2-1.8-0.5-2.7-0.9
		c-0.9-0.3-1.8-0.7-2.7-1.2s-1.6-1-2.3-1.7s-1.2-1.5-1.6-2.5c-0.4-1-0.6-2.2-0.6-3.6c0-1.3,0.3-2.6,0.8-3.8c0.5-1.2,1.3-2.2,2.3-3.1
		s2.3-1.6,3.8-2.1c1.5-0.5,3.3-0.8,5.4-0.8c1.1,0,2.2,0.1,3.3,0.3c1,0.2,2,0.5,3,0.8c0.9,0.4,1.8,0.8,2.5,1.3s1.4,1,2,1.6
		L162.5,517.4z"/>
	<path class="st5" d="M171.8,541.7V517l-2-0.4c-0.7-0.2-1.3-0.4-1.7-0.8c-0.4-0.3-0.6-0.8-0.6-1.5v-3.7h4.4v-1.8
		c0-1.8,0.3-3.4,0.9-4.8s1.4-2.7,2.5-3.7s2.4-1.8,3.9-2.4c1.5-0.6,3.3-0.8,5.2-0.8c0.8,0,1.5,0,2.1,0.1c0.6,0.1,1.3,0.2,2,0.4
		l-0.2,4.5c0,0.3-0.1,0.6-0.2,0.8c-0.1,0.2-0.3,0.4-0.6,0.5c-0.2,0.1-0.5,0.2-0.7,0.3s-0.5,0.1-0.8,0.1c-0.8,0-1.6,0.1-2.2,0.2
		c-0.6,0.2-1.2,0.4-1.6,0.9c-0.4,0.4-0.8,1-1,1.6c-0.2,0.7-0.3,1.5-0.3,2.5v1.5h7.3v6.4h-7v24.7H171.8z"/>
	<path class="st5" d="M198.4,527.8c0.3,2.6,1.1,4.5,2.4,5.7c1.3,1.2,2.9,1.8,5,1.8c1.1,0,2-0.1,2.8-0.4c0.8-0.3,1.5-0.5,2.1-0.9
		c0.6-0.3,1.2-0.6,1.7-0.9c0.5-0.3,1-0.4,1.6-0.4c0.7,0,1.3,0.3,1.7,0.8l2.7,3.3c-1,1.1-2,2-3.1,2.7c-1.1,0.7-2.2,1.2-3.4,1.6
		c-1.2,0.4-2.3,0.7-3.5,0.8c-1.2,0.2-2.3,0.2-3.3,0.2c-2.2,0-4.2-0.4-6.1-1.1c-1.9-0.7-3.6-1.8-5-3.2c-1.4-1.4-2.6-3.1-3.4-5.2
		c-0.8-2.1-1.2-4.5-1.2-7.3c0-2.1,0.4-4,1.1-5.9c0.7-1.9,1.7-3.5,3.1-4.9s2.9-2.5,4.8-3.3c1.9-0.8,4-1.2,6.4-1.2
		c2.1,0,3.9,0.3,5.7,1s3.2,1.6,4.4,2.8c1.2,1.2,2.2,2.7,2.9,4.5s1,3.8,1,6c0,0.7,0,1.3-0.1,1.7s-0.2,0.8-0.3,1
		c-0.2,0.3-0.4,0.4-0.6,0.5c-0.3,0.1-0.6,0.1-1,0.1H198.4z M210.1,522.4c0-0.7-0.1-1.5-0.3-2.2c-0.2-0.7-0.5-1.3-0.9-1.9
		c-0.4-0.5-1-1-1.7-1.3c-0.7-0.3-1.5-0.5-2.5-0.5c-1.8,0-3.1,0.5-4.1,1.5s-1.7,2.5-2,4.4H210.1z"/>
	<path class="st5" d="M231.8,515.4c1-1.7,2.1-3,3.3-4c1.2-1,2.7-1.4,4.3-1.4c1.4,0,2.5,0.3,3.4,1l-0.6,6.8c-0.1,0.4-0.3,0.7-0.5,0.9
		c-0.2,0.2-0.5,0.2-0.9,0.2c-0.2,0-0.4,0-0.6,0c-0.3,0-0.5,0-0.8-0.1c-0.3,0-0.6-0.1-0.9-0.1c-0.3,0-0.6,0-0.8,0
		c-1.4,0-2.4,0.4-3.3,1.1c-0.8,0.7-1.5,1.7-2.1,3v18.9h-9.3v-31.1h5.5c0.5,0,0.8,0,1.2,0.1c0.3,0.1,0.6,0.2,0.8,0.4
		c0.2,0.2,0.4,0.4,0.5,0.7c0.1,0.3,0.2,0.6,0.3,1L231.8,515.4z"/>
	<path class="st5" d="M256.5,502.1c0,0.7-0.1,1.4-0.5,2.1c-0.3,0.6-0.7,1.2-1.2,1.7c-0.5,0.5-1.1,0.9-1.8,1.2
		c-0.7,0.3-1.4,0.4-2.2,0.4c-0.8,0-1.5-0.1-2.1-0.4c-0.7-0.3-1.2-0.7-1.8-1.2c-0.5-0.5-0.9-1.1-1.2-1.7c-0.3-0.6-0.4-1.3-0.4-2.1
		c0-0.8,0.1-1.5,0.4-2.1c0.3-0.7,0.7-1.2,1.2-1.7c0.5-0.5,1.1-0.9,1.8-1.2c0.7-0.3,1.4-0.4,2.1-0.4c0.8,0,1.5,0.1,2.2,0.4
		c0.7,0.3,1.3,0.7,1.8,1.2c0.5,0.5,0.9,1.1,1.2,1.7C256.3,500.6,256.5,501.3,256.5,502.1z M255.5,510.6v31.1h-9.3v-31.1H255.5z"/>
	<path class="st5" d="M270.7,515.4c1-1.7,2.1-3,3.3-4c1.2-1,2.7-1.4,4.3-1.4c1.4,0,2.5,0.3,3.4,1l-0.6,6.8c-0.1,0.4-0.3,0.7-0.5,0.9
		c-0.2,0.2-0.5,0.2-0.9,0.2c-0.2,0-0.4,0-0.6,0c-0.3,0-0.5,0-0.8-0.1c-0.3,0-0.6-0.1-0.9-0.1c-0.3,0-0.6,0-0.8,0
		c-1.4,0-2.4,0.4-3.3,1.1c-0.8,0.7-1.5,1.7-2.1,3v18.9H262v-31.1h5.5c0.5,0,0.8,0,1.2,0.1c0.3,0.1,0.6,0.2,0.8,0.4
		c0.2,0.2,0.4,0.4,0.5,0.7c0.1,0.3,0.2,0.6,0.3,1L270.7,515.4z"/>
</g>
<g>
	<path class="st5" d="M872.8,541.7h-9.2c-1.7,0-2.9-0.6-3.7-1.9l-7.3-12.7c-0.3-0.5-0.7-0.9-1.1-1.2s-1-0.4-1.8-0.4h-2.6v16.2H837
		V498h14.2c3.2,0,5.9,0.3,8.1,1c2.2,0.6,4,1.6,5.5,2.7c1.4,1.2,2.4,2.5,3.1,4.1c0.6,1.6,1,3.3,1,5.2c0,1.4-0.2,2.8-0.6,4
		c-0.4,1.3-0.9,2.4-1.7,3.5c-0.7,1.1-1.7,2-2.7,2.9c-1.1,0.8-2.3,1.5-3.8,2.1c0.7,0.3,1.3,0.8,1.9,1.3c0.6,0.5,1.1,1.1,1.6,1.8
		L872.8,541.7z M851.2,518.5c1.4,0,2.6-0.2,3.5-0.5c1-0.3,1.8-0.8,2.4-1.5c0.6-0.6,1.1-1.3,1.3-2.2c0.3-0.8,0.4-1.7,0.4-2.7
		c0-1.9-0.6-3.4-1.9-4.5s-3.2-1.6-5.8-1.6h-4.1v13H851.2z"/>
	<path class="st5" d="M880.9,527.8c0.3,2.6,1.1,4.5,2.4,5.7c1.3,1.2,2.9,1.8,5,1.8c1.1,0,2-0.1,2.8-0.4c0.8-0.3,1.5-0.5,2.1-0.9
		c0.6-0.3,1.2-0.6,1.7-0.9c0.5-0.3,1-0.4,1.6-0.4c0.7,0,1.3,0.3,1.7,0.8l2.7,3.3c-1,1.1-2,2-3.1,2.7c-1.1,0.7-2.2,1.2-3.4,1.6
		s-2.3,0.7-3.5,0.8c-1.2,0.2-2.3,0.2-3.3,0.2c-2.2,0-4.2-0.4-6.1-1.1c-1.9-0.7-3.6-1.8-5-3.2c-1.4-1.4-2.6-3.1-3.4-5.2
		c-0.8-2.1-1.2-4.5-1.2-7.3c0-2.1,0.4-4,1.1-5.9c0.7-1.9,1.7-3.5,3.1-4.9s2.9-2.5,4.8-3.3c1.9-0.8,4-1.2,6.4-1.2
		c2.1,0,3.9,0.3,5.7,1c1.7,0.6,3.2,1.6,4.4,2.8c1.2,1.2,2.2,2.7,2.9,4.5c0.7,1.8,1,3.8,1,6c0,0.7,0,1.3-0.1,1.7s-0.2,0.8-0.3,1
		c-0.2,0.3-0.4,0.4-0.6,0.5c-0.3,0.1-0.6,0.1-1,0.1H880.9z M892.6,522.4c0-0.7-0.1-1.5-0.3-2.2c-0.2-0.7-0.5-1.3-0.9-1.9
		c-0.4-0.5-1-1-1.7-1.3c-0.7-0.3-1.5-0.5-2.5-0.5c-1.8,0-3.1,0.5-4.1,1.5s-1.7,2.5-2,4.4H892.6z"/>
	<path class="st5" d="M933.8,496.8v44.9H928c-1.2,0-1.9-0.5-2.3-1.6l-0.7-2.4c-0.6,0.7-1.3,1.3-2,1.8s-1.4,1-2.2,1.4
		c-0.8,0.4-1.6,0.7-2.5,0.9c-0.9,0.2-1.9,0.3-3,0.3c-1.6,0-3.1-0.4-4.5-1.1s-2.6-1.8-3.6-3.1c-1-1.4-1.8-3-2.4-5
		c-0.6-2-0.9-4.2-0.9-6.7c0-2.3,0.3-4.5,1-6.5c0.6-2,1.5-3.7,2.7-5.2c1.2-1.4,2.6-2.6,4.2-3.4c1.6-0.8,3.4-1.2,5.4-1.2
		c1.6,0,3,0.2,4.1,0.7c1.1,0.5,2.1,1.1,3,1.9v-15.8H933.8z M924.5,518.9c-0.7-0.8-1.5-1.3-2.3-1.6c-0.8-0.3-1.7-0.5-2.6-0.5
		c-0.9,0-1.7,0.2-2.4,0.5c-0.7,0.3-1.3,0.9-1.9,1.6c-0.5,0.8-0.9,1.7-1.2,2.9c-0.3,1.2-0.5,2.6-0.5,4.3c0,1.6,0.1,3,0.4,4.1
		c0.2,1.1,0.6,2,1,2.7c0.4,0.7,0.9,1.2,1.5,1.5c0.6,0.3,1.3,0.4,2,0.4c0.7,0,1.3-0.1,1.8-0.2c0.5-0.1,1.1-0.3,1.5-0.6
		c0.5-0.2,0.9-0.5,1.3-0.9c0.4-0.4,0.8-0.8,1.2-1.3V518.9z"/>
	<path class="st5" d="M968,510.6v31.1h-5.8c-1.2,0-1.9-0.5-2.3-1.6l-0.5-1.8c-0.6,0.6-1.2,1.1-1.9,1.6c-0.6,0.5-1.3,0.9-2.1,1.2
		c-0.7,0.3-1.5,0.6-2.4,0.8c-0.9,0.2-1.8,0.3-2.8,0.3c-1.7,0-3.2-0.3-4.5-0.9c-1.3-0.6-2.4-1.4-3.3-2.5c-0.9-1.1-1.6-2.3-2-3.8
		c-0.5-1.4-0.7-3-0.7-4.7v-19.7h9.3v19.7c0,1.5,0.3,2.7,1.1,3.6c0.7,0.8,1.7,1.3,3.1,1.3c1,0,2-0.2,2.9-0.6c0.9-0.4,1.8-1,2.6-1.8
		v-22.2H968z"/>
	<path class="st5" d="M997.2,518c-0.3,0.3-0.5,0.6-0.8,0.8c-0.3,0.2-0.6,0.3-1.1,0.3c-0.5,0-0.9-0.1-1.2-0.3
		c-0.4-0.2-0.8-0.5-1.2-0.7s-1-0.5-1.6-0.7c-0.6-0.2-1.4-0.3-2.3-0.3c-1.1,0-2.1,0.2-3,0.6s-1.5,1-2.1,1.8c-0.5,0.8-0.9,1.7-1.2,2.9
		c-0.3,1.1-0.4,2.4-0.4,3.8c0,3,0.6,5.3,1.7,6.9s2.7,2.4,4.8,2.4c1.1,0,1.9-0.1,2.6-0.4c0.6-0.3,1.2-0.6,1.6-0.9
		c0.4-0.3,0.8-0.6,1.2-0.9c0.4-0.3,0.8-0.4,1.4-0.4c0.7,0,1.3,0.3,1.7,0.8l2.7,3.3c-1,1.1-2,2-3,2.7c-1.1,0.7-2.1,1.2-3.3,1.6
		c-1.1,0.4-2.2,0.7-3.3,0.8c-1.1,0.2-2.2,0.2-3.3,0.2c-1.9,0-3.7-0.4-5.4-1.1s-3.2-1.8-4.6-3.1c-1.3-1.4-2.4-3.1-3.1-5.1
		c-0.8-2-1.2-4.3-1.2-6.8c0-2.2,0.3-4.3,1-6.3s1.7-3.6,3-5.1c1.3-1.4,2.9-2.6,4.9-3.4c1.9-0.8,4.2-1.2,6.7-1.2
		c2.4,0,4.6,0.4,6.4,1.2c1.8,0.8,3.5,1.9,5,3.4L997.2,518z"/>
	<path class="st5" d="M1014,502.1c0,0.7-0.2,1.4-0.5,2.1s-0.7,1.2-1.2,1.7c-0.5,0.5-1.1,0.9-1.8,1.2c-0.7,0.3-1.4,0.4-2.2,0.4
		c-0.8,0-1.5-0.1-2.1-0.4c-0.7-0.3-1.2-0.7-1.8-1.2c-0.5-0.5-0.9-1.1-1.2-1.7c-0.3-0.6-0.4-1.3-0.4-2.1c0-0.8,0.1-1.5,0.4-2.1
		c0.3-0.7,0.7-1.2,1.2-1.7c0.5-0.5,1.1-0.9,1.8-1.2c0.7-0.3,1.4-0.4,2.1-0.4c0.8,0,1.5,0.1,2.2,0.4c0.7,0.3,1.3,0.7,1.8,1.2
		c0.5,0.5,0.9,1.1,1.2,1.7C1013.8,500.6,1014,501.3,1014,502.1z M1013,510.6v31.1h-9.3v-31.1H1013z"/>
	<path class="st5" d="M1028.2,515.4c1-1.7,2.1-3,3.3-4s2.7-1.4,4.3-1.4c1.4,0,2.5,0.3,3.4,1l-0.6,6.8c-0.1,0.4-0.3,0.7-0.5,0.9
		c-0.2,0.2-0.5,0.2-0.9,0.2c-0.2,0-0.4,0-0.6,0c-0.3,0-0.5,0-0.8-0.1c-0.3,0-0.6-0.1-0.9-0.1c-0.3,0-0.6,0-0.8,0
		c-1.4,0-2.4,0.4-3.3,1.1c-0.8,0.7-1.5,1.7-2.1,3v18.9h-9.3v-31.1h5.5c0.5,0,0.8,0,1.2,0.1c0.3,0.1,0.6,0.2,0.8,0.4
		c0.2,0.2,0.4,0.4,0.5,0.7c0.1,0.3,0.2,0.6,0.3,1L1028.2,515.4z"/>
</g>
<g>
	<path class="st5" d="M433.2,553.4h-15.5c-2.9,0-4.9-1.1-6.2-3.2l-12.3-21.4c-0.6-0.9-1.2-1.6-1.9-2c-0.7-0.4-1.7-0.6-3-0.6h-4.4
		v27.3h-17.1v-73.9h24c5.3,0,9.9,0.5,13.7,1.6c3.8,1.1,6.8,2.6,9.2,4.6c2.4,2,4.1,4.3,5.2,6.9c1.1,2.7,1.6,5.6,1.6,8.7
		c0,2.4-0.3,4.7-1,6.8c-0.6,2.1-1.6,4.1-2.8,5.9c-1.3,1.8-2.8,3.4-4.6,4.8c-1.8,1.4-4,2.6-6.4,3.5c1.1,0.6,2.2,1.3,3.1,2.2
		c1,0.9,1.9,1.9,2.6,3.1L433.2,553.4z M396.8,514.3c2.3,0,4.3-0.3,6-0.9c1.6-0.6,3-1.4,4-2.5c1-1,1.8-2.3,2.3-3.7
		c0.5-1.4,0.7-2.9,0.7-4.5c0-3.2-1.1-5.8-3.2-7.6c-2.1-1.8-5.4-2.7-9.8-2.7h-6.9v21.9H396.8z"/>
	<path class="st5" d="M454.6,486.4c0,1.3-0.3,2.4-0.8,3.5c-0.5,1.1-1.2,2.1-2.1,2.9c-0.9,0.8-1.9,1.5-3.1,2
		c-1.2,0.5-2.4,0.7-3.7,0.7c-1.3,0-2.5-0.2-3.6-0.7c-1.1-0.5-2.1-1.1-3-2c-0.9-0.8-1.5-1.8-2-2.9c-0.5-1.1-0.7-2.3-0.7-3.5
		c0-1.3,0.2-2.5,0.7-3.6c0.5-1.1,1.2-2.1,2-2.9c0.9-0.8,1.9-1.5,3-2c1.1-0.5,2.3-0.7,3.6-0.7c1.3,0,2.6,0.2,3.7,0.7
		c1.2,0.5,2.2,1.1,3.1,2c0.9,0.8,1.6,1.8,2.1,2.9S454.6,485.1,454.6,486.4z M452.9,500.8v52.6h-15.7v-52.6H452.9z"/>
	<path class="st5" d="M476.9,529.9c0.5,4.4,1.8,7.6,4,9.6c2.2,2,5,3,8.4,3c1.8,0,3.4-0.2,4.7-0.7c1.3-0.4,2.5-0.9,3.5-1.5
		c1-0.5,2-1,2.8-1.5c0.9-0.4,1.8-0.7,2.7-0.7c1.2,0,2.2,0.5,2.8,1.4l4.6,5.6c-1.6,1.9-3.4,3.4-5.2,4.5c-1.9,1.2-3.8,2.1-5.8,2.7
		c-2,0.7-4,1.1-5.9,1.4c-2,0.3-3.9,0.4-5.7,0.4c-3.7,0-7.1-0.6-10.4-1.8c-3.2-1.2-6-3-8.5-5.3c-2.4-2.4-4.3-5.3-5.7-8.8
		c-1.4-3.5-2.1-7.6-2.1-12.3c0-3.5,0.6-6.8,1.8-10c1.2-3.1,2.9-5.9,5.2-8.3c2.2-2.4,5-4.2,8.2-5.6c3.2-1.4,6.8-2.1,10.8-2.1
		c3.5,0,6.7,0.5,9.6,1.6c2.9,1.1,5.4,2.7,7.5,4.7c2.1,2.1,3.7,4.6,4.9,7.6c1.2,3,1.7,6.4,1.7,10.2c0,1.2-0.1,2.1-0.2,2.9
		c-0.1,0.7-0.3,1.3-0.6,1.8c-0.3,0.4-0.6,0.7-1.1,0.9c-0.5,0.2-1,0.3-1.7,0.3H476.9z M496.6,520.8c0-1.2-0.2-2.5-0.5-3.6
		c-0.3-1.2-0.8-2.2-1.6-3.2c-0.7-0.9-1.7-1.7-2.9-2.3c-1.2-0.6-2.6-0.9-4.3-0.9c-3,0-5.3,0.9-7,2.6c-1.7,1.7-2.8,4.2-3.3,7.4H496.6z
		"/>
	<path class="st5" d="M552,512.3c-0.4,0.6-0.8,1.1-1.3,1.4s-1,0.4-1.7,0.4c-0.7,0-1.5-0.2-2.2-0.5c-0.7-0.3-1.5-0.7-2.4-1
		c-0.9-0.4-1.8-0.7-2.9-1c-1.1-0.3-2.3-0.5-3.7-0.5c-2,0-3.5,0.4-4.6,1.1s-1.6,1.8-1.6,3.2c0,1,0.3,1.8,1,2.4
		c0.7,0.6,1.6,1.2,2.8,1.7c1.1,0.5,2.4,1,3.9,1.4c1.5,0.4,2.9,0.9,4.5,1.5c1.5,0.5,3,1.2,4.5,1.9c1.5,0.7,2.8,1.6,3.9,2.7
		s2.1,2.4,2.8,3.9c0.7,1.5,1,3.3,1,5.5c0,2.6-0.5,5-1.4,7.2c-0.9,2.2-2.4,4.1-4.2,5.7c-1.9,1.6-4.2,2.8-6.9,3.7
		c-2.8,0.9-5.9,1.3-9.5,1.3c-1.8,0-3.6-0.2-5.4-0.5c-1.8-0.3-3.5-0.8-5.2-1.4c-1.7-0.6-3.2-1.3-4.6-2.1s-2.6-1.6-3.6-2.6l3.6-5.8
		c0.4-0.7,0.9-1.2,1.5-1.6c0.6-0.4,1.4-0.6,2.4-0.6c0.9,0,1.7,0.2,2.5,0.6c0.7,0.4,1.5,0.8,2.4,1.3c0.8,0.5,1.8,0.9,3,1.3
		c1.1,0.4,2.6,0.6,4.3,0.6c1.2,0,2.2-0.1,3.1-0.4c0.8-0.3,1.5-0.6,2-1c0.5-0.4,0.9-0.9,1.1-1.5c0.2-0.5,0.4-1.1,0.4-1.7
		c0-1-0.4-1.9-1.1-2.6c-0.7-0.7-1.6-1.3-2.8-1.7c-1.1-0.5-2.5-0.9-3.9-1.4c-1.5-0.4-3-0.9-4.5-1.4c-1.5-0.5-3-1.2-4.5-2
		c-1.5-0.8-2.8-1.7-3.9-2.9c-1.1-1.2-2.1-2.6-2.8-4.3c-0.7-1.7-1.1-3.7-1.1-6.1c0-2.2,0.4-4.4,1.3-6.4c0.9-2,2.2-3.8,3.9-5.3
		c1.7-1.5,3.9-2.7,6.5-3.6c2.6-0.9,5.6-1.3,9.1-1.3c1.9,0,3.7,0.2,5.5,0.5c1.8,0.3,3.4,0.8,5,1.4c1.6,0.6,3,1.3,4.3,2.2
		s2.4,1.7,3.4,2.7L552,512.3z"/>
	<path class="st5" d="M610.9,502.4v5.7c0,0.9-0.2,1.6-0.7,2.1c-0.5,0.5-1.3,0.9-2.5,1.2l-3.8,0.9c0.2,0.7,0.4,1.5,0.5,2.3
		c0.1,0.8,0.2,1.6,0.2,2.4c0,2.6-0.5,5-1.6,7.1c-1.1,2.1-2.6,3.9-4.5,5.3c-1.9,1.5-4.2,2.6-6.8,3.4c-2.6,0.8-5.4,1.2-8.4,1.2
		c-0.8,0-1.6,0-2.4-0.1s-1.5-0.1-2.3-0.3c-1.1,0.7-1.7,1.5-1.7,2.4c0,0.9,0.5,1.5,1.4,1.9c0.9,0.4,2.2,0.7,3.8,0.8
		c1.6,0.2,3.3,0.3,5.3,0.3c2,0.1,4,0.2,6.1,0.4c2.1,0.2,4.1,0.5,6.1,0.9c2,0.4,3.7,1.1,5.3,2.1c1.6,1,2.8,2.3,3.8,3.9
		c0.9,1.6,1.4,3.7,1.4,6.3c0,2.4-0.6,4.7-1.7,6.9c-1.1,2.3-2.8,4.3-5.1,6c-2.2,1.8-5,3.2-8.2,4.2c-3.2,1.1-7,1.6-11.2,1.6
		c-4.1,0-7.7-0.4-10.7-1.2c-3-0.8-5.5-1.8-7.5-3.1c-2-1.3-3.4-2.7-4.4-4.4c-0.9-1.7-1.4-3.4-1.4-5.2c0-2.3,0.7-4.3,2-5.8
		c1.4-1.6,3.2-2.8,5.7-3.8c-1.3-0.8-2.3-1.8-3-3c-0.7-1.2-1.1-2.8-1.1-4.7c0-0.8,0.1-1.6,0.4-2.5s0.7-1.7,1.3-2.5
		c0.6-0.8,1.3-1.6,2.2-2.4c0.9-0.7,1.9-1.4,3.1-2c-2.7-1.5-4.9-3.4-6.5-5.8c-1.6-2.4-2.4-5.2-2.4-8.3c0-2.6,0.6-5,1.7-7.1
		c1.1-2.1,2.6-3.9,4.6-5.4c1.9-1.5,4.2-2.6,6.9-3.4c2.6-0.8,5.5-1.2,8.6-1.2c4.5,0,8.4,0.8,11.9,2.5H610.9z M595.4,555.3
		c0-1.2-0.6-2.2-1.7-2.7s-2.6-1-4.4-1.2c-1.8-0.2-3.8-0.4-6-0.4c-2.2-0.1-4.4-0.2-6.6-0.4c-1,0.7-1.8,1.4-2.4,2.3
		c-0.6,0.8-0.9,1.8-0.9,2.8c0,0.7,0.2,1.4,0.5,2c0.3,0.6,0.9,1.1,1.7,1.6c0.8,0.4,1.9,0.8,3.3,1c1.4,0.3,3.1,0.4,5.2,0.4
		c2.3,0,4.1-0.1,5.6-0.4s2.6-0.6,3.5-1.1c0.9-0.5,1.5-1,1.8-1.7C595.2,556.8,595.4,556.1,595.4,555.3z M583.2,524.3
		c2.6,0,4.5-0.7,5.7-2c1.2-1.3,1.7-3,1.7-5c0-2.1-0.6-3.8-1.7-5c-1.2-1.2-3.1-1.8-5.7-1.8c-2.6,0-4.5,0.6-5.7,1.8
		c-1.2,1.2-1.7,2.9-1.7,5c0,1,0.1,1.9,0.4,2.8c0.3,0.8,0.7,1.6,1.3,2.2c0.6,0.6,1.4,1.1,2.3,1.5
		C580.8,524.2,581.9,524.3,583.2,524.3z"/>
	<path class="st5" d="M640.7,500c4,0,7.6,0.6,10.9,1.9c3.3,1.3,6.1,3,8.4,5.4c2.3,2.3,4.2,5.2,5.5,8.5c1.3,3.3,2,7.1,2,11.2
		c0,4.2-0.7,8-2,11.3c-1.3,3.4-3.1,6.2-5.5,8.6c-2.3,2.3-5.2,4.2-8.4,5.4c-3.3,1.3-6.9,1.9-10.9,1.9c-4,0-7.7-0.6-11-1.9
		s-6.1-3.1-8.5-5.4c-2.4-2.3-4.2-5.2-5.5-8.6c-1.3-3.4-2-7.1-2-11.3c0-4.2,0.7-7.9,2-11.2c1.3-3.3,3.1-6.2,5.5-8.5
		c2.4-2.3,5.2-4.1,8.5-5.4C633,500.6,636.7,500,640.7,500z M640.7,542.5c3.6,0,6.3-1.3,8-3.8c1.7-2.6,2.6-6.4,2.6-11.6
		c0-5.2-0.9-9.1-2.6-11.6c-1.7-2.5-4.4-3.8-8-3.8c-3.7,0-6.4,1.3-8.2,3.8s-2.6,6.4-2.6,11.6c0,5.2,0.9,9.1,2.6,11.6
		C634.3,541.3,637,542.5,640.7,542.5z"/>
	<path class="st5" d="M708.8,512.3c-0.4,0.6-0.8,1.1-1.3,1.4s-1,0.4-1.7,0.4c-0.7,0-1.5-0.2-2.2-0.5c-0.7-0.3-1.5-0.7-2.4-1
		c-0.9-0.4-1.8-0.7-2.9-1c-1.1-0.3-2.3-0.5-3.7-0.5c-2,0-3.5,0.4-4.6,1.1s-1.6,1.8-1.6,3.2c0,1,0.3,1.8,1,2.4
		c0.7,0.6,1.6,1.2,2.8,1.7c1.1,0.5,2.4,1,3.9,1.4c1.5,0.4,2.9,0.9,4.5,1.5c1.5,0.5,3,1.2,4.5,1.9c1.5,0.7,2.8,1.6,3.9,2.7
		s2.1,2.4,2.8,3.9c0.7,1.5,1,3.3,1,5.5c0,2.6-0.5,5-1.4,7.2c-0.9,2.2-2.4,4.1-4.2,5.7c-1.9,1.6-4.2,2.8-6.9,3.7
		c-2.8,0.9-5.9,1.3-9.5,1.3c-1.8,0-3.6-0.2-5.4-0.5c-1.8-0.3-3.5-0.8-5.2-1.4c-1.7-0.6-3.2-1.3-4.6-2.1c-1.4-0.8-2.6-1.6-3.6-2.6
		l3.6-5.8c0.4-0.7,0.9-1.2,1.5-1.6c0.6-0.4,1.4-0.6,2.4-0.6c0.9,0,1.7,0.2,2.5,0.6c0.7,0.4,1.5,0.8,2.4,1.3c0.8,0.5,1.8,0.9,3,1.3
		c1.1,0.4,2.6,0.6,4.3,0.6c1.2,0,2.2-0.1,3.1-0.4c0.8-0.3,1.5-0.6,2-1c0.5-0.4,0.9-0.9,1.1-1.5c0.2-0.5,0.4-1.1,0.4-1.7
		c0-1-0.4-1.9-1.1-2.6c-0.7-0.7-1.6-1.3-2.8-1.7c-1.1-0.5-2.5-0.9-3.9-1.4c-1.5-0.4-3-0.9-4.5-1.4c-1.5-0.5-3-1.2-4.5-2
		c-1.5-0.8-2.8-1.7-3.9-2.9c-1.1-1.2-2.1-2.6-2.8-4.3c-0.7-1.7-1.1-3.7-1.1-6.1c0-2.2,0.4-4.4,1.3-6.4c0.9-2,2.2-3.8,3.9-5.3
		c1.7-1.5,3.9-2.7,6.5-3.6c2.6-0.9,5.6-1.3,9.1-1.3c1.9,0,3.7,0.2,5.5,0.5c1.8,0.3,3.4,0.8,5,1.4c1.6,0.6,3,1.3,4.3,2.2
		s2.4,1.7,3.4,2.7L708.8,512.3z"/>
</g>
</svg>
