<?xml version="1.0" encoding="utf-8"?>
<!-- Generator: Adobe Illustrator 22.0.0, SVG Export Plug-In . SVG Version: 6.00 Build 0)  -->
<svg version="1.1" id="Layer_1" xmlns="http://www.w3.org/2000/svg" xmlns:xlink="http://www.w3.org/1999/xlink" x="0px" y="0px"
	 viewBox="0 0 1080 860.3" style="enable-background:new 0 0 1080 860.3;" xml:space="preserve">
<style type="text/css">
	.st0{fill:#7A7575;stroke:#CECECE;stroke-miterlimit:10;}
	.st1{fill:#A6A0A0;}
	.st2{fill:none;stroke:#CECECE;stroke-width:6;stroke-miterlimit:10;}
	.st3{fill:none;stroke:#2B2823;stroke-width:6;stroke-miterlimit:10;}
	.st4{fill:none;stroke:#2B2823;stroke-width:10;stroke-miterlimit:10;}
	.st5{fill:none;stroke:#2B2823;stroke-width:1.8;stroke-miterlimit:10;}
	.st6{fill:none;stroke:#7A7575;stroke-width:1.8;stroke-miterlimit:10;}
	.st7{fill:#3F3C37;}
	.st8{fill:#7A7575;}
	.st9{fill:none;stroke:#CECECE;stroke-width:5.4;stroke-miterlimit:10;}
	.st10{fill:#231F20;}
	.st11{fill:#FDCF9D;}
	.st12{fill:#808080;}
	.st13{fill:#FFFFFF;}
	.st14{fill:#4D4D4D;}
	.st15{fill:#CCCCCC;}
	.st16{fill:none;stroke:#3F3C37;stroke-width:2;stroke-miterlimit:10;}
	.st17{fill:#FF0000;}
	.st18{fill:#CECECE;}
	.st19{fill:none;stroke:#4D4D4D;stroke-width:3.6;stroke-linecap:round;stroke-miterlimit:10;}
</style>
<g>
	<polygon class="st0" points="449.3,242.2 452.6,43.3 384.7,45.1 381.4,241 	"/>
	<polygon class="st1" points="381.4,240.1 384.6,48 217.6,173.3 215.2,319.1 282.4,320.3 	"/>
	<polyline class="st2" points="215.2,319.1 217.6,173.3 387.9,47.1 462.2,48.3 459,242.3 	"/>
	<line class="st3" x1="31.9" y1="60.6" x2="26.8" y2="367.8"/>
	<line class="st3" x1="206.5" y1="63.5" x2="201.4" y2="370.7"/>
	<g>
		<line class="st4" x1="128.6" y1="78.4" x2="123.5" y2="388.8"/>
		<path class="st5" d="M140.5,105.1c0,0,26.3-0.4,34.9,0.6c4.4,0.5,11.6,1.4,11.5,9.4c-0.1,7.8-6.1,14-12.8,13.9
			c-6.8-0.1-35.9-1.6-39.8-0.7"/>
		<path class="st5" d="M139.7,151.7c0,0,26.3-0.4,34.9,0.6c4.4,0.5,11.6,1.4,11.5,9.4c-0.1,7.8-6.1,14-12.8,13.9
			c-6.8-0.1-35.9-1.6-39.8-0.7"/>
		<path class="st5" d="M138.9,198.2c0,0,26.3-0.4,34.9,0.6c4.4,0.5,11.6,1.4,11.5,9.4c-0.1,7.8-6.1,14-12.8,13.9
			c-6.8-0.1-35.9-1.6-39.8-0.7"/>
		<path class="st5" d="M111,127.9c0,0-26.2-1.2-34.9-0.6c-4.5,0.3-11.7,1-11.8,9c-0.1,7.8,5.6,14.2,12.4,14.3
			c6.8,0.1,35.9-0.4,39.8,0.7"/>
		<path class="st5" d="M110.2,174.5c0,0-26.2-1.2-34.9-0.6c-4.5,0.3-11.7,1-11.8,9c-0.1,7.8,5.6,14.2,12.4,14.3
			c6.8,0.1,35.9-0.4,39.8,0.7"/>
		<path class="st5" d="M109.4,221c0,0-26.2-1.2-34.9-0.6c-4.5,0.3-11.7,1-11.8,9c-0.1,7.8,5.6,14.2,12.4,14.3
			c6.8,0.1,35.9-0.4,39.8,0.7"/>
	</g>
	<path class="st6" d="M140.3,88.1c9.7,0.2,80.8,4.2,80.4,15.9c-0.4,11.6-67.8,11-95,10.6c-27.2-0.4-100.3-4.1-101.6-15
		c-1.3-10.9,78.8-13,87-11.9"/>
	<path class="st6" d="M139.8,117.2c9.7,0.2,80.8,4.2,80.4,15.9c-0.4,11.6-67.8,11-95,10.6c-27.2-0.4-100.3-4.1-101.6-15
		c-1.3-10.9,78.8-13,87-11.9"/>
	<path class="st6" d="M139.2,152.1c9.7,0.2,80.8,4.2,80.4,15.9c-0.4,11.6-67.8,11-95,10.6c-27.2-0.4-100.3-4.1-101.6-15
		c-1.3-10.9,78.8-13,87-11.9"/>
	<path class="st6" d="M138.6,187.1c9.7,0.2,80.8,4.2,80.4,15.9c-0.4,11.6-67.8,11-95,10.6c-27.2-0.4-100.3-4.1-101.6-15
		c-1.3-10.9,78.8-13,87-11.9"/>
	<path class="st6" d="M138,227.8c9.7,0.2,80.8,4.2,80.4,15.9c-0.4,11.6-67.8,11-95,10.6c-27.2-0.4-100.3-4.1-101.6-15
		c-1.3-10.9,78.8-13,87-11.9"/>
	<path class="st6" d="M137.4,262.7c9.7,0.2,80.8,4.2,80.4,15.9c-0.4,11.6-67.8,11-95,10.6s-100.3-4.1-101.6-15
		c-1.3-10.9,78.8-13,87-11.9"/>
	<polygon class="st7" points="512.8,824.3 157.6,830.1 323.2,671.3 308.9,481.2 257.1,331.5 382.7,237.8 761,244.1 789.8,400.1
		787.6,599.7 	"/>
	<polygon class="st8" points="569,243.2 572,56.9 915.4,62.6 750.1,199.6 743.5,246 	"/>
	<polygon class="st1" points="953.7,51.6 951.4,195.5 761.9,192.3 	"/>
	<polygon class="st1" points="517.3,824.4 521.1,597.5 1064.5,198.9 1061.2,396.8 	"/>
	<polygon class="st8" points="773,403.7 735.1,403.1 738.4,205.2 1029.4,210 	"/>
	<polygon class="st1" points="34.3,309.7 155.4,221.8 153.8,314.9 	"/>
	<polygon class="st1" points="153.2,469.1 318.6,323.8 316.1,477.7 	"/>
	<polygon class="st1" points="338.7,478 335.5,670.1 158.3,830.1 161.4,638.1 	"/>
	<polygon class="st8" points="14.6,322.3 11.4,519.5 116.1,521.2 122.6,480.9 290.1,326.8 	"/>
	<polygon class="st8" points="154.2,683.6 113.5,682.9 110.9,485.6 303.7,488.8 153.1,633.4 	"/>
	<polyline class="st2" points="517,824.1 513.6,607.1 1042.1,206.2 755.8,199.3 934.8,59.4 568.9,53.3 	"/>
	<polyline class="st9" points="150.8,831.5 152.5,641.8 318.3,484.2 134.3,477.6 299.8,329.3 32.2,315.8 152.2,215.9 	"/>
	<g>
		<path class="st1" d="M510.3,117.3c0,0-6.6,8.6-7,10.8l2.2,2.8l0.1,5l1.3,21.7l-1.4,5.7l13.1,0.6l8.7,0.5l0.6-4.2l1.7-10.7
			l-2.1-4.3c0,0,4.5-4.4,1.1-10.9l-3-7.5l-1.6-3.2l-4-5.8C519.9,117.8,514.8,114.2,510.3,117.3z"/>
		<path class="st10" d="M508.8,110.2c0,0-2.1,2-3.7,1.8l1.7,0.2l0.3,1.7c0,0,0.9,3,1.6,3c0.7,0,3.1,1,3.1,1l2.4-1.1l2.2-0.3l1.9-2.7
			l0.8-3.3l0.1-3.1l-1-4.1l0.6-1.8l3,0.4l1.1,1.1c0,0,6.4-7.9,6.7-10.8c0,0-8.2-6.2-15.9-1c0,0-2.7,3.7-3.9,10.5
			C509.6,101.5,507.9,107.1,508.8,110.2z"/>
		<path class="st11" d="M530.8,99.9l0.2-1.1l-1.9-5.4c-1.4,3.5-6.3,9.5-6.3,9.5l-1.1-1.1l-3-0.4l-0.6,1.8l1,4.1l-0.1,3.1l-0.8,3.3
			l-1.8,2.6c2,0.5,3.4,1.5,3.4,1.5l4,5.8l0.3,0.5l-1.1-6.1l1-3.7l1.5-2.9l3.7,0.1l1-2.9l0.8-1.5l0.6-1.5l1.7-1.6L530.8,99.9z"/>
		<path class="st11" d="M510.2,133.7c0,0,0.1-4.4,5.1-4.2c0,0,4.6,0.6,5.3,3.6l-2,10.7l6.3,1.4l7.4,0.1l6.1-1.4l4.8-0.7l5.2,0.3
			l-0.2,1.3L545,146l-0.2,2l1.3,1.1l1.7,0.2l1.1-1.1l2,0.8l-1.5,2.6l-7.2,1.9l-4.4-3.2c0,0-4-1.5-10,0.6c0,0-10.2,3.5-16.3,1
			C511.4,151.9,507.4,146.8,510.2,133.7z"/>
		<path class="st11" d="M505.6,135.9l-0.1-5l-1.8-2.4c-1.8,3-7.2,12.1-7.2,13.7c0,0,2.4,4.2,9.8,4.7L505.6,135.9z"/>
		<path d="M542.7,204.2l-2-2.4l-5.9-9.9l-0.9-1.3l-8.8-16.4l1.5-2.2l-0.7-0.4l0.7-7.2l-8-0.5l-12.8-0.6l-2.4,4.8c0,0-2,6.8,0.9,11.3
			l-1.8,8.7l-3.5,8.1l-1.3,2.9l-3,4.4l-4.1,3.4c0,0,3.3,2.5,3.8,2.7c0.5,0.2,6.8,1.6,6.8,1.6l27.9-1.2l1.5-1.5l4.8-12.9l3.6,6.5
			l1.9,5l2.4-0.9L542.7,204.2z"/>
		<path class="st11" d="M485.7,241.7l0.6-1.8c0,0,9.8-22,16.2-28.8l-1.3,0.1c0,0-6.3-1.4-6.8-1.6c-0.3-0.1-1.6-1-2.5-1.7
			c-2.1,2.6-7.9,10.5-8.4,16.9c0,0-2.3,14-6.2,16.2c0,0,2.7,5.4,2.6,9.1l2.7,5c0,0,4.2,0.4,4.3-0.1c0-0.6-1-5.6-1-5.6L485.7,241.7z"
			/>
		<path d="M486.6,253.6c0.1,0.6,0.2,1.1,0.2,1.3c0,0.6-4.3,0.1-4.3,0.1l-2.7-5c0.1-3.7-2.6-9.1-2.6-9.1c0.2-0.1,0.3-0.2,0.5-0.3
			c-1.1,0.2-5,1-4.3,6c0,0,0.1,7.4-0.7,8.3l0.7,0.6c0,0,1.6-6.8,3.2-5.5l4.5,6.4l1.3,2.1l8,0.1l0.9-0.9l-3.5-2.5
			C487.9,255.1,487.2,254.4,486.6,253.6z"/>
		<path class="st11" d="M548.4,250.7l3.7,2.8l1.8,0.8l1.3,0l2.9-1.5l-2.8-5.5l-3.5-3.2c0,0-5.4-6.2-8.2-19.7l-2.9-13l0.1-4.7
			l-1.8-4.6l-3.6-6.5l-4.8,12.9l-0.8,0.8l1.3,2l1,10l0.3,2.6l10,18.7l0,1.1C544,244.4,547.4,246.7,548.4,250.7z"/>
		<path d="M543.2,252.5l1.2,5.6l0.7-0.2l-0.5-5.7c0,0,3.3,1.7,8.4,4.8c0,0,10,0.9,11.3-1.3l-0.9-0.4c0,0-2-1.7-5.1-1.9l-0.2-0.5
			l-2.9,1.5l-1.3,0l-1.8-0.8l-3.7-2.8c-1.1-4-4.5-6.3-6-7.1l0,0.6C542.4,244.1,538.3,249.2,543.2,252.5z"/>
		<polygon class="st12" points="564,142.4 549.9,141.4 545.2,143.5 548.3,143.6 548.1,144.9 545,146 544.8,148 546,149.1
			547.7,149.3 548.8,148.3 550.8,149 550.7,149.2 563.4,145.6 563.2,143.9 		"/>
	</g>
	<g>
		<path class="st10" d="M416.5,547l0-2.5l-1.4-5l-4.1-4.8l-6.4-1.1l-2.9,1.2l-2.7-0.5l-2.8,3l0.5,0.6l-1.4,9.7l2.3,9.8l3,3.8
			l0.7,5.6l3,5.2l1.8,1.3l7.3-6.1l3.2-3.9l0.8-9.3l1-0.2c0,0,1.7-3.3,1.7-3.9c0-0.6,0.5-4.6,0.5-4.6l-0.5-1.4l-2,1.1L416.5,547z"/>
		<polygon class="st10" points="420.1,541.1 418.8,535.9 414.9,530.4 404.6,529.2 402.5,529.8 398.6,532 394.6,534.9 396.3,537.4
			399.1,534.3 401.8,534.8 404.7,533.6 411.1,534.7 415.2,539.5 416.6,544.5 416.5,547 418.4,545.2 420.4,544.1 420.1,543.4 		"/>
		<path class="st10" d="M463.5,637.7c-0.2-0.6-13.6-39.1-13.6-39.1l-4.6-24.1l-3.7-3.2l-10.3-2L423,566l-6-4.6l-0.2,2l-3.2,3.9
			l-7.3,6.1l-1.8-1.3l-3-5.2l-0.2-1.4l-1.9,2l-5.6,2.2l-13.8,7.6l-2.1,2.2l0.2,2.9l-3.6,16.5l-1.6,6.2l-3.3,11.3l-4.2,3.2l-2,7.8
			l-1.5,2.9l-6.3,19.1l0.4,1.3c0.7-4.3,6.1-4.5,6.1-4.5c6.6,0.5,4.4,7.7,4.4,7.7l9.1-13.1l7.5-12.9l0.4,16l-3,4.5l-7.4,20.6
			l-0.5,4.3l6.2,2.8l4.1,0.5l3.4-7.2l6.1-3.6l-2.1-9.8l1.7-13.4l6,0.7l5.4,1.9l0.9,8.5l8.1,21.7l5.8,0.5c0,0,19.5-2.6,20.1-2.6
			c0.6,0,1.9-2,1.9-2l3.3-21.7l-1-16.6l-1.3-10.8l1.4,2.3l9.6,31.2l3.1,0.1l11.6-2.1l0-2.3C467,651.6,463.7,638.3,463.5,637.7z"/>
		<path class="st13" d="M403.3,607.9l9-29.7c0,0,3.7-8.8,3.7-9.7c0-0.8,2.8-5.5,2.8-5.5l0.1-0.3l-1.8-1.3l-0.2,2l-3.2,3.9l-7.3,6.1
			l-1.8-1.3l-3-5.2l-0.2-1.4l-1.6,1.7c0.1,3.7,0.5,13.9,0.5,14.4c0,0.6-0.1,5.8-0.1,5.8l-2.9,26.2l-3.6,16.1l-1.4,13.1l5.7,0.7
			l5.4,1.9l-1.1-34.2L403.3,607.9z"/>
		<path class="st11" d="M416.5,547l0-2.5l-1.4-5l-4.1-4.8l-6.4-1.1l-2.9,1.2l-2.7-0.5l-2.8,3l0.5,0.6l-1.4,9.7l2.3,9.8l3,3.8
			l0.7,5.6l3,5.2l1.8,1.3l7.3-6.1l3.2-3.9l0.8-9.3l1-0.2c0,0,1.7-3.3,1.7-3.9c0-0.6,0.5-4.6,0.5-4.6l-0.5-1.4l-2,1.1L416.5,547z"/>
		<polygon class="st8" points="409.5,587.3 408.1,580.8 410.4,576.3 406.8,574.2 403.2,575.2 402,576.8 403.6,580.1 400.1,587.3
			397.2,613.6 393.6,629.7 392.3,642.7 398.3,648.4 403.3,645.4 402.2,611.2 403.3,607.9 		"/>
		<path class="st10" d="M433.7,709l-6.7-8.4l7.7-24.7l0.3-2c-5.7,0.7-16.8,2.2-16.8,2.2l-5.8-0.5l-8.1-21.7l-0.9-8.5l-5.4-1.9
			l-6-0.7l-1.6,13.1l4.3,15.1l10.2,20.9l0.8,2.1l-3.2,15.3l-10.3,24.1l-3.4,15.5l-2.2,21.7l4.5,1.3l13.6,5.4c0,0,3.6-2.8,4.2-3.7
			c0.6-0.8,2.4-10.1,2.4-10.1l7.5-25.5l2.4-6l6.2,12.1l6.3,4.5l7.3-3.4l4.9-6.3l0.9-4.1l-1.5-9.3L433.7,709z"/>
		<path class="st10" d="M391.1,771.7l-1.8,6l-2.3,0.8l-1.7,4.7l0.2,2.7l5.1,3l1.2,1.5l10.1,1l0.9-2.9l2.2-6.6l0.1-5.1
			c-0.3,0.2-0.4,0.3-0.4,0.3L391.1,771.7z M451.5,747.4l-1.2-3.5l-4.4-5.5l-0.1,0.3l-4.9,6.3l-6.9,3.2c-0.4,1.8-1.1,5.2-1.1,5.8
			c0,0.8-1.5,5.4-1.5,5.4l-3.6,4.5l-1.1,2.9l1.4,1.9l12.2-1.5l1.9-3.5l1.3-3.7l2.4-4.9l1.4,0.9l4.2-5.3L451.5,747.4z"/>
		<path class="st11" d="M455.8,662.4l-0.2,2.3l0.9,8.5l1.2,0.2l1.3-3.3l0.1,6.8l1.7,0l4.6-4.7l1.7-2l0.7-3.1l0.1-6.6
			C461.4,664.1,457.5,663.2,455.8,662.4z"/>
		<path class="st13" d="M466.1,654l-9.7,1.7l-0.6,6.6v0c1.7,0.8,5.6,1.7,12-1.9l0-0.2L466.1,654z"/>
		<path class="st11" d="M356.1,650.5l-0.1,0.3l-1.5,2.5l-0.3,3.5l-0.7,3.9l4.7,5.5l2.5,0.2l0-1.2l-1.2-3.1l0.7-2.9l2.5-0.4l1.5-2.9
			l0.9-0.9C364.3,647.9,359,649.2,356.1,650.5z"/>
		<path class="st13" d="M362.1,646.3c0,0-4,0.1-5.6,2.9l-0.4,1.2c2.8-1.2,8.2-2.5,9,4.5l1.6-1.6C367,651.5,367.4,646.8,362.1,646.3z
			"/>
	</g>
	<g>
		<path class="st11" d="M413.3,242.8l-2.3-3.4l-1.4-2.2l0-5.8l-5.1-8.3l-0.7-0.5c0,0-0.9,1.1,0.4,2.7l-3.7-0.6c0,0-3.9,0.4-1.3,1.7
			l0.4,0.9l0.8,1.6c0,0,4.6,0.2,4.1,2.5l-0.5,2.3l-0.3-0.9l-1.4-2.6c0,0-2-0.3-1.6,3.3l1.2,5.8c0,0,0.5,2.3,2.4,2.8l3.9,3.9
			C409.7,245.9,411.8,245.2,413.3,242.8z"/>
		<path d="M432.2,393.2c0,0-8-12.7-12.6-14.6c0,0-1.1-11.6-2.6-14.2l-0.2-4.3l-4.5-7l-1.1-11.1l-1-2.9l0.1-5.2l-0.8-12.6
			c0,0-0.8-4.3-0.9-4.9c0-0.1-0.5-0.7-1.1-1.5c-9.3,6.3-32.8,2.7-32.8,2.7l-5.2-0.4l-4.7-1c-1.2,1.3-3.1,4.2-4.1,9.8l0,5.9
			l-4.1,18.8l-2.3,22.8l-1.3,7.3l1.1,12.4l1.7,4.2l3.8,3.4l10-1c0,0,0.2-1.3,0.2-1.7c0-0.4-1-9-1-9l1.5-5l1.8-10.6l1.2-4.9l6.3-25.7
			l3.5-10.3l2.5-3.8l7.5,19.2l10.6,28l8.3,24l1.3,2.3l19.3-6.6L432.2,393.2z"/>
		<path d="M427.4,261.6l-9.6-14.3l-3.1-3.5l0.1,3.5c0,0-0.9,3-5.8,1.8l-1.3-2.3l-3-3.8l-3.7-2.1l-1.1-0.7l-0.7-2.9l0,0
			c-0.9,0.6-2.1,1.1-3.6,1l-4.9-2.1c0,0-3.5-0.8-4.8-2l-0.6,0.9l-3.4,2.7l-5.4,1.2l-3.8,0.9l-4.8,0.5l-0.6,1.4l-0.9,3.4l-4.7,12.3
			c0,0-3.4,11.5-1.6,16l0,1.9l-2.4,5l-2.1,24.8l-1.3,5.9l1.9,0l5.6-0.6l1.9-0.1l0.1,4.8l0.6,0.9l4.9,1.1l5.2,0.4
			c0,0,28.5,4.4,35.2-4.9c0,0-2.5-14.3-1.9-18.6L406,283l3.9-16.2l0.7-1.1l3.8,3.2c0,0,0.1,4.3,9.5,3.5
			C423.9,272.4,432.2,269,427.4,261.6z"/>
		<path class="st13" d="M407.7,246.7l1.3,2.3c4.9,1.2,5.8-1.8,5.8-1.8l-0.1-3.2l-1.1-1.7c-1.8,3.5-4.9,3.8-6.3,3.8L407.7,246.7z"/>
		<path class="st11" d="M402.8,221.5l-1.9,1.6l-0.1-0.7l-0.7-3.3l-3.1-1.8l-0.7-0.6c0,0,1.2-2.3,1.3-2.7c0.2-0.4,0.3-2.3,0.3-2.3
			l-1.2-0.2l-5.5,0.8c0,0-4.2-0.8-4.7-0.9c-0.2-0.1-0.5-0.2-0.9-0.5c-1.4,1.9-1.8,3.7-1.8,3.7l-0.3,11c-0.5,2.6,1.9,7.8,1.9,7.8
			c0.6,1.6,5.3,2.7,5.3,2.7l4.9,2.1c4.6,0.4,6.6-4.8,6.6-4.8l1.8-4.2l1.5-4.4c1.2-2-0.1-4-0.1-4l-1.7-0.6L402.8,221.5z"/>
		<path d="M404,211.9c-2.9-5.7-9.9-4.9-9.9-4.9c-4.5,0-7,2-8.5,3.9c0.4,0.2,0.7,0.4,0.9,0.5c0.6,0.2,4.7,0.9,4.7,0.9l5.5-0.8
			l1.2,0.2c0,0-0.2,1.9-0.3,2.3c-0.2,0.4-1.3,2.7-1.3,2.7l0.7,0.6l3.1,1.8l0.7,3.3l0.1,0.7l1.9-1.6l0.9-1.4l1.7,0.6l0.1-4.8
			L404,211.9z"/>
		<path d="M399.1,225.2l-3.5,2.7l0.1,1.2l1.2,3.5l1,0l6.7-5.1l-1.3-2.9l-0.8-0.9C402.6,223.7,400.3,223.5,399.1,225.2z"/>
		<path class="st13" d="M394.1,260l1.5,4.5l2.2,6.7l2.5-17.4l0.9-10.1l-0.3-3l-0.9-0.6l-0.7-2.9l0,0c-0.9,0.6-2.1,1.1-3.6,1
			l-4.9-2.1c0,0-3.1-0.7-4.6-1.8l0,1l5.1,16.5L394.1,260z"/>
		<polygon points="397.8,271.2 400.3,253.8 400.4,251.6 400,250.8 399,245.4 399.1,243.5 399.9,242.7 398.9,240.5 398.2,239.6
			395.5,239 394,241.4 394.5,242.3 395.1,242.5 395.7,243.6 395.4,264 395.6,264.5 		"/>
		<polygon points="363.8,310.3 361.9,310.5 356.3,311.1 356.1,311.1 355.8,313.8 361.7,315.1 363.9,315 		"/>
		<polygon class="st11" points="366.2,321.4 364.4,316 363.9,314.9 363.9,315 361.7,315.1 357,314.1 356.2,316.9 354.4,322.9
			354.6,324.2 356.3,326.1 359.9,327.3 361.9,327.8 361.8,325.5 362.5,322.7 363.3,322.5 364.7,326.4 366.5,325.5 		"/>
		<path d="M372.4,403l-2.8-3.2l-10,1l-3.5-3.1l-1.4,5l0.5,7.4l14.9,4.3c0,0,11.5,2.2,13.2-3.1c0,0-1.9-1.3-5.6-2.1L372.4,403z
			 M443.5,396.9l-5.8,1.9l-2.9,0l-5.2-2.4l-15.6,5.3l-0.3,3.5l2,4.1l0.7,0.2l9.1-2.3l6.8-0.8c0,0,14.2-3.4,14.3-8.3
			C446.7,398.2,445.7,396,443.5,396.9z"/>
		<path class="st14" d="M368.4,332.8l-2.7-0.9l-0.2-5.9l-0.8,0.4l-1.4-3.9l-0.9,0.3l-0.6,2.7l0.1,2.3l-1.4-0.3l0,2.6l-4.4-2l1.4-1.6
			l-1.1-0.4l-1.4-1.6l-1.3,2L351,327l-4.5,0.1c0,0-2.7-0.2-3.7,3.8l-5.9,26.7c0,0-2,5.6,0.2,7.1l18.2,9.7l3.6,1.6l3.6,0.1
			c0,0,4.8,0.8,6.5-2.2l7.2-33.2C376.2,340.7,376.7,335.5,368.4,332.8z"/>
	</g>
	<g>
		<path class="st15" d="M600.1,117.5c0,2.5-0.1,4.3-2.4,4.3l-18.9-0.3c-0.9,0-1.3-1-1.3-3.2l0.4-23.8c0-1,0.2-2.1,1.4-2.1l18.8,0.3
			c1.2,0,2.4,0.9,2.4,2.2L600.1,117.5z"/>
		<line class="st16" x1="600.2" y1="112.1" x2="580.8" y2="111.7"/>
		<g>
			<g>
				<path class="st17" d="M591.4,99c0.9,0,0.9-1.3,0-1.3C590.5,97.7,590.5,99,591.4,99L591.4,99z"/>
			</g>
		</g>
	</g>
	<path class="st8" d="M23.6,42.8c0.2-11.7,44.6-20.4,99.3-19.5c54.6,0.9,98.8,11.1,98.6,22.7c-0.2,11.7-44.6,20.4-99.3,19.5
		C67.6,64.6,23.4,54.4,23.6,42.8z"/>
	<path class="st1" d="M22.4,46.4c-0.3,16.4-0.3,17.5-0.3,17.5s29.4,15.7,98.5,16.9c68,1.2,99.8-13.6,99.8-13.6l0.9-21.1
		c0,0-32.2,20.6-100.6,19.4C52.7,64.4,22.4,46.4,22.4,46.4z"/>
	<g>
		<polyline class="st8" points="430.6,788.4 432.5,674.6 442.2,675.5 442.4,659.5 414.4,659.4 414.2,801.1 446.2,801.6 459.2,790.6
					"/>
		<polygon class="st18" points="414.4,658.6 432,648.9 462,651.2 461.7,666.3 442.2,675.5 442.4,659.5 		"/>
		<g>
			<line class="st19" x1="438.7" y1="682.7" x2="494" y2="684.3"/>
			<line class="st19" x1="438.7" y1="682.7" x2="412.6" y2="723.7"/>
			<line class="st19" x1="438.7" y1="682.7" x2="453.4" y2="717.9"/>
		</g>
	</g>
	<g>
		<polyline class="st8" points="336.8,786.8 338.7,673 351.6,674 351.9,658 322.6,657.9 321.1,799.5 353.1,800 365.8,789.1 		"/>
		<polygon class="st18" points="322.6,657.1 340.8,647.4 371.4,649.7 371.2,664.8 351.6,674 351.9,658 		"/>
		<g>
			<line class="st19" x1="345.6" y1="681.2" x2="400.9" y2="682.8"/>
			<line class="st19" x1="345.6" y1="681.2" x2="319.5" y2="722.2"/>
			<line class="st19" x1="345.6" y1="681.2" x2="360.3" y2="716.3"/>
		</g>
	</g>
	<g>
		<polyline class="st8" points="239.8,785.2 241.7,671.4 254.6,672.4 254.9,656.4 224.6,656.3 222.2,797.9 254.2,798.4 267.8,787.4
					"/>
		<polygon class="st18" points="224.6,655.5 240.1,645.8 268,648 267.7,663.1 254.6,672.4 254.9,656.4 		"/>
		<g>
			<line class="st19" x1="246.7" y1="679.5" x2="302" y2="681.2"/>
			<line class="st19" x1="246.7" y1="679.5" x2="220.5" y2="720.6"/>
			<line class="st19" x1="246.7" y1="679.5" x2="261.4" y2="714.7"/>
		</g>
	</g>
</g>
</svg>
