<?xml version="1.0" encoding="utf-8"?>
<!-- Generator: Adobe Illustrator 22.0.0, SVG Export Plug-In . SVG Version: 6.00 Build 0)  -->
<svg version="1.1" id="Layer_1" xmlns="http://www.w3.org/2000/svg" xmlns:xlink="http://www.w3.org/1999/xlink" x="0px" y="0px"
	 viewBox="0 0 1080 1049.6" style="enable-background:new 0 0 1080 1049.6;" xml:space="preserve">
<style type="text/css">
	.st0{fill:#455927;}
	.st1{fill:url(#SVGID_1_);}
	.st2{fill:url(#SVGID_2_);}
	.st3{fill:url(#SVGID_3_);}
	.st4{fill:#FFFFFF;}
</style>
<polygon class="st0" points="540,207.5 261.5,689.8 818.5,689.8 "/>
<linearGradient id="SVGID_1_" gradientUnits="userSpaceOnUse" x1="272.2235" y1="236.8895" x2="606.4526" y2="236.8895" gradientTransform="matrix(0 1 -1 0 772 -272)">
	<stop  offset="0" style="stop-color:#733122"/>
	<stop  offset="1" style="stop-color:#F27A5E;stop-opacity:0.5"/>
</linearGradient>
<circle class="st1" cx="535.1" cy="167.3" r="167.1"/>
<linearGradient id="SVGID_2_" gradientUnits="userSpaceOnUse" x1="543.6031" y1="-107.9107" x2="877.8322" y2="-107.9107" gradientTransform="matrix(-1 0 0 -1 1624 535)">
	<stop  offset="0" style="stop-color:#733122"/>
	<stop  offset="1" style="stop-color:#F27A5E;stop-opacity:0.5"/>
</linearGradient>
<circle class="st2" cx="913.3" cy="642.9" r="167.1"/>
<linearGradient id="SVGID_3_" gradientUnits="userSpaceOnUse" x1="41.8968" y1="-101.4107" x2="376.1259" y2="-101.4107" gradientTransform="matrix(1 0 0 -1 -41.5 541.5)">
	<stop  offset="0" style="stop-color:#733122"/>
	<stop  offset="0.9996" style="stop-color:#F27A5E;stop-opacity:0.5"/>
</linearGradient>
<circle class="st3" cx="167.5" cy="642.9" r="167.1"/>
<g>
	<path class="st4" d="M415.6,125.2c3.1,0,5.7,0.4,7.9,1.1c2.2,0.7,4,1.7,5.5,3c1.4,1.3,2.5,2.8,3.2,4.5c0.7,1.7,1,3.6,1,5.6
		c0,2.2-0.4,4.2-1,6c-0.7,1.8-1.8,3.4-3.2,4.7c-1.4,1.3-3.3,2.3-5.5,3c-2.2,0.7-4.8,1.1-7.8,1.1h-5.3v14.6h-10.1v-43.7H415.6z
		 M415.6,146.6c2.6,0,4.5-0.6,5.7-1.9c1.2-1.3,1.7-3,1.7-5.3c0-1-0.1-1.9-0.4-2.7c-0.3-0.8-0.8-1.5-1.4-2.1c-0.6-0.6-1.4-1-2.3-1.4
		c-0.9-0.3-2-0.5-3.3-0.5h-5.3v13.9H415.6z"/>
	<path class="st4" d="M445.5,142.6c1-1.7,2.1-3,3.3-4c1.2-1,2.7-1.4,4.3-1.4c1.4,0,2.5,0.3,3.4,1L456,145c-0.1,0.4-0.3,0.7-0.5,0.9
		c-0.2,0.2-0.5,0.2-0.9,0.2c-0.2,0-0.4,0-0.6,0c-0.3,0-0.5,0-0.8-0.1c-0.3,0-0.6-0.1-0.9-0.1c-0.3,0-0.6,0-0.8,0
		c-1.4,0-2.4,0.4-3.3,1.1c-0.8,0.7-1.5,1.7-2.1,3v18.9h-9.3v-31.1h5.5c0.5,0,0.8,0,1.2,0.1c0.3,0.1,0.6,0.2,0.8,0.4
		c0.2,0.2,0.4,0.4,0.5,0.7c0.1,0.3,0.2,0.6,0.3,1L445.5,142.6z"/>
	<path class="st4" d="M473.5,137.3c2.4,0,4.5,0.4,6.4,1.1c1.9,0.7,3.6,1.8,5,3.2c1.4,1.4,2.5,3.1,3.2,5c0.8,2,1.2,4.2,1.2,6.6
		c0,2.5-0.4,4.7-1.2,6.7s-1.9,3.7-3.2,5.1c-1.4,1.4-3.1,2.5-5,3.2s-4.1,1.1-6.4,1.1c-2.4,0-4.5-0.4-6.5-1.1c-2-0.8-3.6-1.8-5-3.2
		c-1.4-1.4-2.5-3.1-3.3-5.1c-0.8-2-1.2-4.2-1.2-6.7c0-2.5,0.4-4.7,1.2-6.6c0.8-2,1.9-3.6,3.3-5c1.4-1.4,3.1-2.4,5-3.2
		C469,137.7,471.1,137.3,473.5,137.3z M473.5,162.5c2.1,0,3.7-0.8,4.7-2.3c1-1.5,1.5-3.8,1.5-6.9s-0.5-5.4-1.5-6.9s-2.6-2.2-4.7-2.2
		c-2.2,0-3.8,0.8-4.8,2.2s-1.5,3.8-1.5,6.9s0.5,5.4,1.5,6.9C469.7,161.7,471.3,162.5,473.5,162.5z"/>
	<path class="st4" d="M504.5,169.4c-1.5,0-2.8-0.2-3.9-0.6c-1.1-0.4-2.1-1-2.9-1.8c-0.8-0.8-1.4-1.7-1.8-2.9s-0.6-2.4-0.6-3.8v-16.1
		h-2.6c-0.5,0-0.9-0.2-1.2-0.5c-0.3-0.3-0.5-0.8-0.5-1.4v-3.6l5-1l1.8-7.6c0.2-1,0.9-1.4,2-1.4h4.9v9.1h7.7v6.4h-7.7v15.4
		c0,0.7,0.2,1.3,0.5,1.8c0.3,0.5,0.9,0.7,1.5,0.7c0.3,0,0.6,0,0.9-0.1c0.2-0.1,0.4-0.1,0.6-0.2c0.2-0.1,0.3-0.2,0.5-0.2
		c0.1-0.1,0.3-0.1,0.5-0.1c0.3,0,0.5,0.1,0.7,0.2c0.2,0.1,0.3,0.3,0.5,0.6l2.8,4.4c-1.2,0.9-2.5,1.6-4,2
		C507.7,169.2,506.1,169.4,504.5,169.4z"/>
	<path class="st4" d="M523.8,155c0.3,2.6,1.1,4.5,2.4,5.7c1.3,1.2,2.9,1.8,5,1.8c1.1,0,2-0.1,2.8-0.4c0.8-0.3,1.5-0.5,2.1-0.9
		c0.6-0.3,1.2-0.6,1.7-0.9c0.5-0.3,1-0.4,1.6-0.4c0.7,0,1.3,0.3,1.7,0.8l2.7,3.3c-1,1.1-2,2-3.1,2.7c-1.1,0.7-2.2,1.2-3.4,1.6
		c-1.2,0.4-2.3,0.7-3.5,0.8s-2.3,0.2-3.3,0.2c-2.2,0-4.2-0.4-6.1-1.1c-1.9-0.7-3.6-1.8-5-3.2c-1.4-1.4-2.6-3.1-3.4-5.2
		c-0.8-2.1-1.2-4.5-1.2-7.3c0-2.1,0.4-4,1.1-5.9c0.7-1.9,1.7-3.5,3.1-4.9s2.9-2.5,4.8-3.3c1.9-0.8,4-1.2,6.4-1.2
		c2.1,0,3.9,0.3,5.7,1s3.2,1.6,4.4,2.8c1.2,1.2,2.2,2.7,2.9,4.5c0.7,1.8,1,3.8,1,6c0,0.7,0,1.3-0.1,1.7s-0.2,0.8-0.3,1
		c-0.2,0.3-0.4,0.4-0.6,0.5c-0.3,0.1-0.6,0.1-1,0.1H523.8z M535.5,149.6c0-0.7-0.1-1.5-0.3-2.2c-0.2-0.7-0.5-1.3-0.9-1.9
		c-0.4-0.5-1-1-1.7-1.3c-0.7-0.3-1.5-0.5-2.5-0.5c-1.8,0-3.1,0.5-4.1,1.5s-1.7,2.5-2,4.4H535.5z"/>
	<path class="st4" d="M571.4,145.2c-0.3,0.3-0.5,0.6-0.8,0.8c-0.3,0.2-0.6,0.3-1.1,0.3c-0.5,0-0.9-0.1-1.2-0.3
		c-0.4-0.2-0.8-0.5-1.2-0.7s-1-0.5-1.6-0.7c-0.6-0.2-1.4-0.3-2.3-0.3c-1.1,0-2.1,0.2-3,0.6s-1.5,1-2.1,1.8c-0.5,0.8-0.9,1.7-1.2,2.9
		c-0.3,1.1-0.4,2.4-0.4,3.8c0,3,0.6,5.3,1.7,6.9s2.7,2.4,4.8,2.4c1.1,0,1.9-0.1,2.6-0.4c0.6-0.3,1.2-0.6,1.6-0.9
		c0.4-0.3,0.8-0.6,1.2-0.9c0.4-0.3,0.8-0.4,1.4-0.4c0.7,0,1.3,0.3,1.7,0.8l2.7,3.3c-1,1.1-2,2-3,2.7c-1.1,0.7-2.1,1.2-3.3,1.6
		c-1.1,0.4-2.2,0.7-3.3,0.8s-2.2,0.2-3.3,0.2c-1.9,0-3.7-0.4-5.4-1.1c-1.7-0.7-3.2-1.8-4.6-3.1c-1.3-1.4-2.4-3.1-3.1-5.1
		c-0.8-2-1.2-4.3-1.2-6.8c0-2.2,0.3-4.3,1-6.3s1.7-3.6,3-5.1c1.3-1.4,2.9-2.6,4.9-3.4c1.9-0.8,4.2-1.2,6.7-1.2
		c2.4,0,4.6,0.4,6.4,1.2c1.8,0.8,3.5,1.9,5,3.4L571.4,145.2z"/>
	<path class="st4" d="M600,145.2c-0.3,0.3-0.5,0.6-0.8,0.8c-0.3,0.2-0.6,0.3-1.1,0.3c-0.5,0-0.9-0.1-1.2-0.3
		c-0.4-0.2-0.8-0.5-1.2-0.7s-1-0.5-1.6-0.7c-0.6-0.2-1.4-0.3-2.3-0.3c-1.1,0-2.1,0.2-3,0.6s-1.5,1-2.1,1.8c-0.5,0.8-0.9,1.7-1.2,2.9
		c-0.3,1.1-0.4,2.4-0.4,3.8c0,3,0.6,5.3,1.7,6.9s2.7,2.4,4.8,2.4c1.1,0,1.9-0.1,2.6-0.4c0.6-0.3,1.2-0.6,1.6-0.9
		c0.4-0.3,0.8-0.6,1.2-0.9c0.4-0.3,0.8-0.4,1.4-0.4c0.7,0,1.3,0.3,1.7,0.8l2.7,3.3c-1,1.1-2,2-3,2.7c-1.1,0.7-2.1,1.2-3.3,1.6
		c-1.1,0.4-2.2,0.7-3.3,0.8s-2.2,0.2-3.3,0.2c-1.9,0-3.7-0.4-5.4-1.1c-1.7-0.7-3.2-1.8-4.6-3.1c-1.3-1.4-2.4-3.1-3.1-5.1
		c-0.8-2-1.2-4.3-1.2-6.8c0-2.2,0.3-4.3,1-6.3s1.7-3.6,3-5.1c1.3-1.4,2.9-2.6,4.9-3.4c1.9-0.8,4.2-1.2,6.7-1.2
		c2.4,0,4.6,0.4,6.4,1.2c1.8,0.8,3.5,1.9,5,3.4L600,145.2z"/>
	<path class="st4" d="M616.8,129.3c0,0.7-0.2,1.4-0.5,2.1s-0.7,1.2-1.2,1.7c-0.5,0.5-1.1,0.9-1.8,1.2c-0.7,0.3-1.4,0.4-2.2,0.4
		c-0.8,0-1.5-0.1-2.1-0.4c-0.7-0.3-1.2-0.7-1.8-1.2c-0.5-0.5-0.9-1.1-1.2-1.7c-0.3-0.6-0.4-1.3-0.4-2.1c0-0.8,0.1-1.5,0.4-2.1
		c0.3-0.7,0.7-1.2,1.2-1.7c0.5-0.5,1.1-0.9,1.8-1.2c0.7-0.3,1.4-0.4,2.1-0.4c0.8,0,1.5,0.1,2.2,0.4c0.7,0.3,1.3,0.7,1.8,1.2
		c0.5,0.5,0.9,1.1,1.2,1.7C616.7,127.8,616.8,128.5,616.8,129.3z M615.8,137.8v31.1h-9.3v-31.1H615.8z"/>
	<path class="st4" d="M636.7,137.3c2.4,0,4.5,0.4,6.4,1.1c1.9,0.7,3.6,1.8,5,3.2c1.4,1.4,2.5,3.1,3.2,5c0.8,2,1.2,4.2,1.2,6.6
		c0,2.5-0.4,4.7-1.2,6.7c-0.8,2-1.8,3.7-3.2,5.1c-1.4,1.4-3.1,2.5-5,3.2s-4.1,1.1-6.4,1.1c-2.4,0-4.5-0.4-6.5-1.1
		c-1.9-0.8-3.6-1.8-5-3.2c-1.4-1.4-2.5-3.1-3.3-5.1c-0.8-2-1.2-4.2-1.2-6.7c0-2.5,0.4-4.7,1.2-6.6c0.8-2,1.9-3.6,3.3-5
		c1.4-1.4,3.1-2.4,5-3.2C632.1,137.7,634.3,137.3,636.7,137.3z M636.7,162.5c2.1,0,3.7-0.8,4.7-2.3c1-1.5,1.5-3.8,1.5-6.9
		s-0.5-5.4-1.5-6.9s-2.6-2.2-4.7-2.2c-2.2,0-3.8,0.8-4.8,2.2c-1,1.5-1.5,3.8-1.5,6.9s0.5,5.4,1.5,6.9
		C632.9,161.7,634.5,162.5,636.7,162.5z M648.6,124.7l-7.8,7.9c-0.5,0.5-0.9,0.8-1.3,1c-0.4,0.2-1,0.3-1.7,0.3h-5.6l4.1-7.4
		c0.3-0.6,0.7-1,1.2-1.3c0.5-0.3,1.2-0.5,2.1-0.5H648.6z"/>
	<path class="st4" d="M665.8,141.1c0.6-0.6,1.2-1.1,1.9-1.6c0.6-0.5,1.3-0.9,2.1-1.2s1.5-0.6,2.4-0.8c0.8-0.2,1.8-0.3,2.8-0.3
		c1.7,0,3.2,0.3,4.5,0.9c1.3,0.6,2.4,1.4,3.3,2.5c0.9,1.1,1.6,2.3,2,3.8c0.5,1.5,0.7,3,0.7,4.7v19.8h-9.3v-19.8c0-1.5-0.3-2.7-1-3.6
		c-0.7-0.8-1.7-1.3-3.1-1.3c-1,0-2,0.2-2.9,0.6c-0.9,0.4-1.8,1-2.6,1.8v22.2h-9.3v-31.1h5.8c1.2,0,1.9,0.5,2.3,1.6L665.8,141.1z"/>
</g>
<g>
	<path class="st4" d="M97.5,650.4c0.2,0,0.5,0,0.7,0.1c0.2,0.1,0.5,0.2,0.7,0.5l4,4.2c-1.8,2.3-4,4-6.6,5.2
		c-2.7,1.2-5.8,1.8-9.4,1.8c-3.3,0-6.3-0.6-8.9-1.7s-4.9-2.7-6.7-4.7s-3.2-4.4-4.2-7.1c-1-2.7-1.5-5.7-1.5-8.9c0-3.3,0.5-6.3,1.6-9
		c1.1-2.7,2.5-5.1,4.5-7.1c1.9-2,4.2-3.5,6.9-4.6c2.7-1.1,5.6-1.6,8.9-1.6c1.6,0,3.2,0.1,4.6,0.4c1.4,0.3,2.8,0.7,4.1,1.2
		c1.3,0.5,2.4,1.1,3.5,1.8c1.1,0.7,2,1.5,2.8,2.3l-3.4,4.6c-0.2,0.3-0.5,0.5-0.8,0.8c-0.3,0.2-0.7,0.3-1.3,0.3c-0.4,0-0.7-0.1-1-0.2
		c-0.3-0.2-0.7-0.4-1-0.6c-0.4-0.2-0.8-0.5-1.2-0.8c-0.4-0.3-0.9-0.5-1.5-0.8c-0.6-0.2-1.3-0.4-2.1-0.6c-0.8-0.2-1.7-0.2-2.8-0.2
		c-1.7,0-3.2,0.3-4.6,0.9s-2.6,1.5-3.6,2.7c-1,1.2-1.8,2.7-2.3,4.4c-0.6,1.7-0.8,3.7-0.8,5.9c0,2.2,0.3,4.2,0.9,6
		c0.6,1.7,1.4,3.2,2.5,4.4c1,1.2,2.3,2.1,3.7,2.7c1.4,0.6,2.9,0.9,4.5,0.9c0.9,0,1.8,0,2.5-0.1c0.8-0.1,1.5-0.2,2.1-0.4
		c0.7-0.2,1.3-0.5,1.9-0.8c0.6-0.3,1.2-0.8,1.8-1.3c0.2-0.2,0.5-0.4,0.8-0.5C96.9,650.5,97.2,650.4,97.5,650.4z"/>
	<path class="st4" d="M119.9,630.1c2.4,0,4.5,0.4,6.4,1.1s3.6,1.8,5,3.2c1.4,1.4,2.5,3.1,3.2,5s1.2,4.2,1.2,6.6
		c0,2.5-0.4,4.7-1.2,6.7s-1.9,3.7-3.2,5.1c-1.4,1.4-3.1,2.5-5,3.2s-4.1,1.1-6.4,1.1c-2.4,0-4.5-0.4-6.5-1.1c-2-0.8-3.6-1.8-5-3.2
		s-2.5-3.1-3.3-5.1c-0.8-2-1.2-4.2-1.2-6.7c0-2.5,0.4-4.7,1.2-6.6c0.8-2,1.9-3.6,3.3-5s3.1-2.4,5-3.2
		C115.4,630.5,117.5,630.1,119.9,630.1z M119.9,655.3c2.1,0,3.7-0.8,4.7-2.3s1.5-3.8,1.5-6.9s-0.5-5.4-1.5-6.9s-2.6-2.2-4.7-2.2
		c-2.2,0-3.8,0.8-4.8,2.2s-1.5,3.8-1.5,6.9s0.5,5.4,1.5,6.9S117.7,655.3,119.9,655.3z"/>
	<path class="st4" d="M149,634c0.6-0.6,1.2-1.1,1.9-1.6c0.6-0.5,1.3-0.9,2.1-1.2c0.7-0.3,1.5-0.6,2.4-0.8c0.8-0.2,1.8-0.3,2.8-0.3
		c1.7,0,3.2,0.3,4.5,0.9c1.3,0.6,2.4,1.4,3.3,2.5c0.9,1.1,1.6,2.3,2,3.8c0.5,1.5,0.7,3,0.7,4.7v19.8h-9.3v-19.8c0-1.5-0.4-2.7-1-3.6
		c-0.7-0.8-1.7-1.3-3.1-1.3c-1,0-2,0.2-2.9,0.6c-0.9,0.4-1.8,1-2.6,1.8v22.2h-9.3v-31.1h5.8c1.2,0,1.9,0.5,2.3,1.6L149,634z"/>
	<path class="st4" d="M185.4,662.2c-1.5,0-2.8-0.2-3.9-0.6c-1.1-0.4-2.1-1-2.9-1.8c-0.8-0.8-1.4-1.7-1.8-2.9s-0.6-2.4-0.6-3.8V637
		h-2.6c-0.5,0-0.9-0.2-1.2-0.5c-0.3-0.3-0.5-0.8-0.5-1.4v-3.6l5-1l1.8-7.6c0.2-1,0.9-1.4,2-1.4h4.9v9.1h7.7v6.4h-7.7v15.4
		c0,0.7,0.2,1.3,0.5,1.8c0.3,0.5,0.9,0.7,1.5,0.7c0.3,0,0.6,0,0.9-0.1c0.2-0.1,0.4-0.2,0.6-0.2c0.2-0.1,0.3-0.2,0.5-0.2
		c0.1-0.1,0.3-0.1,0.5-0.1c0.3,0,0.5,0.1,0.7,0.2c0.2,0.1,0.3,0.3,0.5,0.6l2.8,4.4c-1.2,0.9-2.5,1.6-4,2
		C188.5,662,187,662.2,185.4,662.2z"/>
	<path class="st4" d="M206,635.4c1-1.7,2.1-3,3.3-4c1.2-1,2.7-1.4,4.3-1.4c1.4,0,2.5,0.3,3.4,1l-0.6,6.8c-0.1,0.4-0.3,0.7-0.5,0.9
		s-0.5,0.2-0.9,0.2c-0.2,0-0.4,0-0.6,0c-0.3,0-0.5,0-0.8-0.1c-0.3,0-0.6-0.1-0.9-0.1c-0.3,0-0.6,0-0.8,0c-1.4,0-2.4,0.4-3.3,1.1
		c-0.8,0.7-1.5,1.7-2.1,3v18.9h-9.3v-31.1h5.5c0.5,0,0.8,0,1.2,0.1c0.3,0.1,0.6,0.2,0.8,0.4c0.2,0.2,0.4,0.4,0.5,0.7
		c0.1,0.3,0.2,0.6,0.3,1L206,635.4z"/>
	<path class="st4" d="M234,630.1c2.4,0,4.5,0.4,6.4,1.1s3.6,1.8,5,3.2c1.4,1.4,2.5,3.1,3.2,5s1.2,4.2,1.2,6.6c0,2.5-0.4,4.7-1.2,6.7
		s-1.9,3.7-3.2,5.1c-1.4,1.4-3.1,2.5-5,3.2s-4.1,1.1-6.4,1.1c-2.4,0-4.5-0.4-6.5-1.1c-2-0.8-3.6-1.8-5-3.2s-2.5-3.1-3.3-5.1
		c-0.8-2-1.2-4.2-1.2-6.7c0-2.5,0.4-4.7,1.2-6.6c0.8-2,1.9-3.6,3.3-5s3.1-2.4,5-3.2C229.4,630.5,231.6,630.1,234,630.1z M234,655.3
		c2.1,0,3.7-0.8,4.7-2.3s1.5-3.8,1.5-6.9s-0.5-5.4-1.5-6.9s-2.6-2.2-4.7-2.2c-2.2,0-3.8,0.8-4.8,2.2s-1.5,3.8-1.5,6.9
		s0.5,5.4,1.5,6.9S231.7,655.3,234,655.3z"/>
	<path class="st4" d="M263.8,616.8v44.9h-9.3v-44.9H263.8z"/>
</g>
<g>
	<path class="st4" d="M831.2,618l-17.5,43.7h-9.2L787,618h8.2c0.9,0,1.6,0.2,2.1,0.6s1,0.9,1.2,1.6l8.5,23.4c0.4,1,0.8,2.1,1.2,3.3
		c0.4,1.2,0.7,2.5,1.1,3.8c0.3-1.3,0.6-2.6,0.9-3.8c0.3-1.2,0.7-2.3,1.1-3.3l8.4-23.4c0.2-0.6,0.6-1.1,1.2-1.5
		c0.6-0.4,1.3-0.7,2.1-0.7H831.2z"/>
	<path class="st4" d="M844,622.1c0,0.7-0.2,1.4-0.5,2.1c-0.3,0.7-0.7,1.2-1.2,1.7c-0.5,0.5-1.1,0.9-1.8,1.2
		c-0.7,0.3-1.4,0.4-2.2,0.4c-0.8,0-1.5-0.1-2.1-0.4c-0.7-0.3-1.2-0.7-1.8-1.2c-0.5-0.5-0.9-1.1-1.2-1.7c-0.3-0.6-0.4-1.3-0.4-2.1
		c0-0.8,0.1-1.5,0.4-2.1c0.3-0.7,0.7-1.2,1.2-1.7c0.5-0.5,1.1-0.9,1.8-1.2c0.7-0.3,1.4-0.4,2.1-0.4c0.8,0,1.5,0.1,2.2,0.4
		c0.7,0.3,1.3,0.7,1.8,1.2c0.5,0.5,0.9,1.1,1.2,1.7S844,621.3,844,622.1z M843.1,630.6v31.1h-9.3v-31.1H843.1z"/>
	<path class="st4" d="M877.8,631.6v3.4c0,0.5-0.1,0.9-0.4,1.2c-0.3,0.3-0.8,0.5-1.5,0.7l-2.2,0.5c0.1,0.4,0.2,0.9,0.3,1.4
		s0.1,0.9,0.1,1.4c0,1.6-0.3,3-1,4.2c-0.7,1.2-1.5,2.3-2.7,3.2s-2.5,1.5-4,2c-1.5,0.5-3.2,0.7-5,0.7c-0.5,0-1,0-1.4,0
		s-0.9-0.1-1.3-0.2c-0.7,0.4-1,0.9-1,1.4c0,0.5,0.3,0.9,0.8,1.1c0.6,0.2,1.3,0.4,2.2,0.5c0.9,0.1,2,0.1,3.1,0.2s2.4,0.1,3.6,0.2
		c1.2,0.1,2.4,0.3,3.6,0.6c1.2,0.3,2.2,0.7,3.1,1.3c0.9,0.6,1.7,1.4,2.2,2.3c0.6,1,0.8,2.2,0.8,3.7c0,1.4-0.3,2.8-1,4.1
		c-0.7,1.3-1.7,2.5-3,3.6c-1.3,1-2.9,1.9-4.9,2.5c-1.9,0.6-4.1,0.9-6.6,0.9c-2.4,0-4.5-0.2-6.3-0.7c-1.8-0.5-3.2-1.1-4.4-1.8
		s-2-1.6-2.6-2.6c-0.6-1-0.8-2-0.8-3.1c0-1.4,0.4-2.5,1.2-3.4c0.8-0.9,1.9-1.7,3.4-2.2c-0.8-0.5-1.4-1-1.8-1.8
		c-0.4-0.7-0.7-1.7-0.7-2.8c0-0.5,0.1-0.9,0.2-1.5s0.4-1,0.8-1.5s0.8-1,1.3-1.4c0.5-0.4,1.1-0.8,1.9-1.2c-1.6-0.9-2.9-2-3.8-3.4
		c-0.9-1.4-1.4-3.1-1.4-4.9c0-1.6,0.3-3,1-4.2c0.7-1.2,1.6-2.3,2.7-3.2c1.1-0.9,2.5-1.5,4.1-2c1.6-0.5,3.2-0.7,5.1-0.7
		c2.6,0,5,0.5,7,1.5H877.8z M868.6,662.8c0-0.7-0.3-1.3-1-1.6s-1.5-0.6-2.6-0.7c-1.1-0.1-2.2-0.2-3.6-0.3c-1.3,0-2.6-0.1-3.9-0.2
		c-0.6,0.4-1.1,0.8-1.4,1.3c-0.4,0.5-0.6,1-0.6,1.7c0,0.4,0.1,0.8,0.3,1.2c0.2,0.4,0.5,0.7,1,0.9c0.5,0.3,1.1,0.5,1.9,0.6
		c0.8,0.1,1.8,0.2,3.1,0.2c1.3,0,2.4-0.1,3.3-0.2c0.9-0.2,1.5-0.4,2.1-0.7s0.9-0.6,1.1-1C868.5,663.7,868.6,663.3,868.6,662.8z
		 M861.4,644.5c1.5,0,2.7-0.4,3.3-1.2c0.7-0.8,1-1.8,1-3c0-1.3-0.3-2.2-1-3c-0.7-0.7-1.8-1.1-3.3-1.1s-2.7,0.4-3.3,1.1
		c-0.7,0.7-1,1.7-1,3c0,0.6,0.1,1.2,0.3,1.7s0.4,0.9,0.8,1.3c0.4,0.4,0.8,0.7,1.4,0.9S860.7,644.5,861.4,644.5z"/>
	<path class="st4" d="M892.2,622.1c0,0.7-0.1,1.4-0.5,2.1c-0.3,0.7-0.7,1.2-1.2,1.7c-0.5,0.5-1.1,0.9-1.8,1.2
		c-0.7,0.3-1.4,0.4-2.2,0.4c-0.8,0-1.5-0.1-2.1-0.4c-0.7-0.3-1.2-0.7-1.8-1.2c-0.5-0.5-0.9-1.1-1.2-1.7c-0.3-0.6-0.4-1.3-0.4-2.1
		c0-0.8,0.1-1.5,0.4-2.1s0.7-1.2,1.2-1.7c0.5-0.5,1.1-0.9,1.8-1.2c0.7-0.3,1.4-0.4,2.1-0.4c0.8,0,1.5,0.1,2.2,0.4
		c0.7,0.3,1.3,0.7,1.8,1.2c0.5,0.5,0.9,1.1,1.2,1.7C892,620.6,892.2,621.3,892.2,622.1z M891.2,630.6v31.1h-9.3v-31.1H891.2z"/>
	<path class="st4" d="M907,616.8v44.9h-9.3v-44.9H907z"/>
	<path class="st4" d="M912.6,634.9c1.9-1.7,4-2.9,6.3-3.7c2.3-0.8,4.7-1.2,7.4-1.2c1.9,0,3.6,0.3,5.1,0.9c1.5,0.6,2.8,1.5,3.8,2.5
		c1,1.1,1.9,2.4,2.4,3.9c0.6,1.5,0.8,3.1,0.8,4.9v19.4h-4.3c-0.9,0-1.5-0.1-2-0.4c-0.5-0.2-0.8-0.7-1.1-1.5l-0.7-1.7
		c-0.8,0.7-1.5,1.2-2.2,1.7c-0.7,0.5-1.5,0.9-2.2,1.3c-0.8,0.3-1.6,0.6-2.5,0.8c-0.9,0.2-1.8,0.3-2.9,0.3c-1.4,0-2.7-0.2-3.9-0.6
		c-1.2-0.4-2.1-0.9-3-1.6c-0.8-0.7-1.4-1.6-1.9-2.7s-0.7-2.3-0.7-3.7c0-1.1,0.3-2.3,0.8-3.4c0.6-1.1,1.5-2.2,2.9-3.1
		c1.4-1,3.2-1.7,5.6-2.4c2.3-0.6,5.3-1,8.9-1.1v-1.3c0-1.8-0.4-3.1-1.1-3.9s-1.8-1.2-3.2-1.2c-1.1,0-2,0.1-2.7,0.4
		c-0.7,0.2-1.3,0.5-1.9,0.8c-0.5,0.3-1.1,0.6-1.6,0.8c-0.5,0.2-1.1,0.4-1.9,0.4c-0.6,0-1.2-0.2-1.6-0.5c-0.4-0.3-0.8-0.7-1.1-1.1
		L912.6,634.9z M929.4,649c-1.9,0.1-3.4,0.2-4.6,0.5c-1.2,0.2-2.1,0.5-2.8,0.9c-0.7,0.4-1.2,0.8-1.5,1.2c-0.3,0.5-0.4,1-0.4,1.5
		c0,1.1,0.3,1.8,0.9,2.2s1.4,0.6,2.6,0.6c1.2,0,2.2-0.2,3.2-0.6c0.9-0.4,1.8-1.1,2.7-2V649z"/>
	<path class="st4" d="M953,634c0.6-0.6,1.2-1.1,1.9-1.6c0.6-0.5,1.3-0.9,2.1-1.2c0.7-0.3,1.5-0.6,2.4-0.8c0.8-0.2,1.8-0.3,2.8-0.3
		c1.7,0,3.2,0.3,4.5,0.9c1.3,0.6,2.4,1.4,3.3,2.5c0.9,1.1,1.6,2.3,2,3.8c0.5,1.5,0.7,3,0.7,4.7v19.8h-9.3v-19.8
		c0-1.5-0.4-2.7-1.1-3.6c-0.7-0.8-1.7-1.3-3.1-1.3c-1,0-2,0.2-2.9,0.6c-0.9,0.4-1.8,1-2.6,1.8v22.2h-9.3v-31.1h5.8
		c1.2,0,1.9,0.5,2.3,1.6L953,634z"/>
	<path class="st4" d="M1001.4,638c-0.3,0.3-0.5,0.6-0.8,0.8c-0.3,0.2-0.6,0.3-1.1,0.3c-0.5,0-0.9-0.1-1.2-0.3
		c-0.4-0.2-0.8-0.5-1.2-0.7c-0.5-0.3-1-0.5-1.6-0.7c-0.6-0.2-1.4-0.3-2.3-0.3c-1.1,0-2.1,0.2-3,0.6s-1.5,1-2.1,1.8
		c-0.5,0.8-0.9,1.7-1.2,2.9c-0.3,1.1-0.4,2.4-0.4,3.8c0,3,0.6,5.3,1.7,6.9c1.1,1.6,2.7,2.4,4.8,2.4c1.1,0,1.9-0.1,2.6-0.4
		c0.6-0.3,1.2-0.6,1.6-0.9s0.8-0.6,1.2-0.9c0.4-0.3,0.8-0.4,1.4-0.4c0.7,0,1.3,0.3,1.7,0.8l2.7,3.3c-1,1.1-2,2-3,2.7
		c-1.1,0.7-2.1,1.2-3.3,1.6c-1.1,0.4-2.2,0.7-3.3,0.8c-1.1,0.2-2.2,0.2-3.3,0.2c-1.9,0-3.7-0.4-5.4-1.1c-1.7-0.7-3.3-1.8-4.6-3.1
		c-1.3-1.4-2.4-3.1-3.1-5.1c-0.8-2-1.2-4.3-1.2-6.8c0-2.2,0.3-4.3,1-6.3c0.7-2,1.7-3.6,3-5.1c1.3-1.4,2.9-2.6,4.9-3.4
		c1.9-0.8,4.2-1.2,6.7-1.2c2.4,0,4.6,0.4,6.4,1.2c1.8,0.8,3.5,1.9,5,3.4L1001.4,638z"/>
	<path class="st4" d="M1018.2,622.1c0,0.7-0.2,1.4-0.5,2.1c-0.3,0.7-0.7,1.2-1.2,1.7c-0.5,0.5-1.1,0.9-1.8,1.2
		c-0.7,0.3-1.4,0.4-2.2,0.4c-0.8,0-1.5-0.1-2.1-0.4c-0.7-0.3-1.2-0.7-1.8-1.2c-0.5-0.5-0.9-1.1-1.2-1.7c-0.3-0.6-0.4-1.3-0.4-2.1
		c0-0.8,0.1-1.5,0.4-2.1c0.3-0.7,0.7-1.2,1.2-1.7c0.5-0.5,1.1-0.9,1.8-1.2c0.7-0.3,1.4-0.4,2.1-0.4c0.8,0,1.5,0.1,2.2,0.4
		c0.7,0.3,1.3,0.7,1.8,1.2c0.5,0.5,0.9,1.1,1.2,1.7S1018.2,621.3,1018.2,622.1z M1017.3,630.6v31.1h-9.3v-31.1H1017.3z"/>
	<path class="st4" d="M1023.1,634.9c1.9-1.7,4-2.9,6.3-3.7c2.3-0.8,4.7-1.2,7.4-1.2c1.9,0,3.6,0.3,5.1,0.9c1.5,0.6,2.8,1.5,3.8,2.5
		c1.1,1.1,1.9,2.4,2.4,3.9c0.6,1.5,0.8,3.1,0.8,4.9v19.4h-4.3c-0.9,0-1.5-0.1-2-0.4c-0.4-0.2-0.8-0.7-1.1-1.5l-0.7-1.7
		c-0.8,0.7-1.5,1.2-2.2,1.7c-0.7,0.5-1.5,0.9-2.2,1.3s-1.6,0.6-2.5,0.8c-0.9,0.2-1.8,0.3-2.9,0.3c-1.4,0-2.7-0.2-3.9-0.6
		c-1.2-0.4-2.1-0.9-3-1.6s-1.4-1.6-1.9-2.7c-0.4-1.1-0.7-2.3-0.7-3.7c0-1.1,0.3-2.3,0.8-3.4c0.6-1.1,1.5-2.2,2.9-3.1
		c1.4-1,3.2-1.7,5.6-2.4c2.3-0.6,5.3-1,8.8-1.1v-1.3c0-1.8-0.4-3.1-1.1-3.9s-1.8-1.2-3.2-1.2c-1.1,0-2,0.1-2.7,0.4
		c-0.7,0.2-1.3,0.5-1.9,0.8c-0.6,0.3-1.1,0.6-1.6,0.8c-0.5,0.2-1.1,0.4-1.9,0.4c-0.6,0-1.2-0.2-1.6-0.5c-0.4-0.3-0.8-0.7-1.1-1.1
		L1023.1,634.9z M1039.8,649c-1.9,0.1-3.4,0.2-4.6,0.5c-1.2,0.2-2.2,0.5-2.8,0.9c-0.7,0.4-1.2,0.8-1.5,1.2s-0.4,1-0.4,1.5
		c0,1.1,0.3,1.8,0.9,2.2s1.4,0.6,2.5,0.6c1.2,0,2.2-0.2,3.2-0.6c0.9-0.4,1.8-1.1,2.7-2V649z"/>
</g>
<g>
	<path d="M721.5,80.5h-7.4v-2.7h18v2.7h-7.4v21.6h-3.2V80.5z"/>
	<path d="M742,102.1l-0.3-2.2h-0.1c-1,1.4-2.8,2.6-5.3,2.6c-3.5,0-5.3-2.5-5.3-5c0-4.2,3.7-6.5,10.5-6.5v-0.4c0-1.4-0.4-4-4-4
		c-1.6,0-3.3,0.5-4.5,1.3l-0.7-2.1c1.4-0.9,3.5-1.5,5.7-1.5c5.3,0,6.6,3.6,6.6,7.1v6.5c0,1.5,0.1,3,0.3,4.2H742z M741.5,93.2
		c-3.5-0.1-7.4,0.5-7.4,3.9c0,2.1,1.4,3,3,3c2.3,0,3.7-1.4,4.2-2.9c0.1-0.3,0.2-0.7,0.2-1V93.2z"/>
	<path d="M749.7,89.4c0-1.8,0-3.3-0.1-4.7h2.8l0.2,2.9h0.1c0.9-1.7,2.9-3.3,5.8-3.3c2.4,0,6.2,1.4,6.2,7.4v10.4h-3.2v-10
		c0-2.8-1-5.1-4-5.1c-2.1,0-3.7,1.5-4.2,3.2c-0.1,0.4-0.2,0.9-0.2,1.5v10.5h-3.2V89.4z"/>
	<path d="M784.7,84.7c-0.1,1.3-0.1,2.7-0.1,4.8v10.1c0,4-0.8,6.4-2.5,8c-1.7,1.6-4.1,2.1-6.3,2.1c-2.1,0-4.4-0.5-5.8-1.4l0.8-2.4
		c1.2,0.7,3,1.4,5.1,1.4c3.2,0,5.6-1.7,5.6-6.1v-1.9h-0.1c-1,1.6-2.8,2.9-5.5,2.9c-4.3,0-7.4-3.7-7.4-8.5c0-5.9,3.9-9.3,7.8-9.3
		c3,0,4.7,1.6,5.4,3h0.1l0.1-2.6H784.7z M781.4,91.6c0-0.5,0-1-0.2-1.4c-0.6-1.8-2.1-3.3-4.4-3.3c-3,0-5.2,2.6-5.2,6.6
		c0,3.4,1.7,6.3,5.1,6.3c1.9,0,3.7-1.2,4.4-3.2c0.2-0.5,0.3-1.2,0.3-1.7V91.6z"/>
	<path d="M793.1,79.8c0,1.1-0.8,1.9-2,1.9c-1.1,0-1.9-0.9-1.9-1.9c0-1.1,0.8-2,2-2C792.4,77.8,793.1,78.7,793.1,79.8z M789.6,102.1
		V84.7h3.2v17.4H789.6z"/>
	<path d="M797.9,102.1c0.1-1.2,0.1-3,0.1-4.5V76.6h3.1v10.9h0.1c1.1-1.9,3.1-3.2,5.9-3.2c4.3,0,7.4,3.6,7.3,8.9
		c0,6.2-3.9,9.3-7.8,9.3c-2.5,0-4.5-1-5.8-3.3h-0.1l-0.1,2.9H797.9z M801.2,95.1c0,0.4,0.1,0.8,0.1,1.2c0.6,2.2,2.4,3.7,4.8,3.7
		c3.3,0,5.3-2.7,5.3-6.7c0-3.5-1.8-6.5-5.2-6.5c-2.2,0-4.2,1.5-4.8,3.9c-0.1,0.4-0.2,0.8-0.2,1.3V95.1z"/>
	<path d="M818.5,76.6h3.2v25.6h-3.2V76.6z"/>
	<path d="M828.8,94c0.1,4.3,2.8,6,6,6c2.3,0,3.6-0.4,4.8-0.9l0.5,2.3c-1.1,0.5-3,1.1-5.8,1.1c-5.4,0-8.6-3.5-8.6-8.8
		s3.1-9.4,8.2-9.4c5.7,0,7.2,5,7.2,8.2c0,0.6-0.1,1.2-0.1,1.5H828.8z M838.1,91.7c0-2-0.8-5.1-4.4-5.1c-3.2,0-4.6,3-4.9,5.1H838.1z"
		/>
	<path d="M852.7,90.4c0-2.2-0.1-4-0.1-5.7h2.8l0.1,3h0.1c1.3-2.1,3.3-3.4,6.2-3.4c4.2,0,7.4,3.6,7.4,8.9c0,6.3-3.8,9.4-7.9,9.4
		c-2.3,0-4.3-1-5.4-2.7h-0.1v9.5h-3.1V90.4z M855.8,95c0,0.5,0.1,0.9,0.1,1.3c0.6,2.2,2.5,3.7,4.8,3.7c3.3,0,5.3-2.7,5.3-6.7
		c0-3.5-1.8-6.5-5.2-6.5c-2.2,0-4.2,1.5-4.8,3.9c-0.1,0.4-0.2,0.9-0.2,1.3V95z"/>
	<path d="M882.8,102.1l-0.3-2.2h-0.1c-1,1.4-2.8,2.6-5.3,2.6c-3.5,0-5.3-2.5-5.3-5c0-4.2,3.7-6.5,10.5-6.5v-0.4c0-1.4-0.4-4-4-4
		c-1.6,0-3.3,0.5-4.5,1.3l-0.7-2.1c1.4-0.9,3.5-1.5,5.7-1.5c5.3,0,6.6,3.6,6.6,7.1v6.5c0,1.5,0.1,3,0.3,4.2H882.8z M882.3,93.2
		c-3.5-0.1-7.4,0.5-7.4,3.9c0,2.1,1.4,3,3,3c2.3,0,3.7-1.4,4.2-2.9c0.1-0.3,0.2-0.7,0.2-1V93.2z"/>
	<path d="M890.5,90.1c0-2.1,0-3.8-0.1-5.4h2.8l0.1,3.4h0.1c0.8-2.3,2.7-3.8,4.8-3.8c0.4,0,0.6,0,0.9,0.1v3c-0.3-0.1-0.6-0.1-1.1-0.1
		c-2.2,0-3.8,1.7-4.2,4.1c-0.1,0.4-0.1,0.9-0.1,1.5v9.3h-3.1V90.1z"/>
	<path d="M911.7,102.1l-0.3-2.2h-0.1c-1,1.4-2.8,2.6-5.3,2.6c-3.5,0-5.3-2.5-5.3-5c0-4.2,3.7-6.5,10.5-6.5v-0.4c0-1.4-0.4-4-4-4
		c-1.6,0-3.3,0.5-4.5,1.3l-0.7-2.1c1.4-0.9,3.5-1.5,5.7-1.5c5.3,0,6.6,3.6,6.6,7.1v6.5c0,1.5,0.1,3,0.3,4.2H911.7z M911.3,93.2
		c-3.5-0.1-7.4,0.5-7.4,3.9c0,2.1,1.4,3,3,3c2.3,0,3.7-1.4,4.2-2.9c0.1-0.3,0.2-0.7,0.2-1V93.2z"/>
	<path d="M930.6,79.8c0,1.1-0.8,1.9-2,1.9c-1.1,0-1.9-0.9-1.9-1.9c0-1.1,0.8-2,2-2C929.9,77.8,930.6,78.7,930.6,79.8z M927.1,102.1
		V84.7h3.2v17.4H927.1z"/>
	<path d="M935.5,89.4c0-1.8,0-3.3-0.1-4.7h2.8l0.1,2.8h0.1c1-1.7,2.6-3.2,5.5-3.2c2.4,0,4.2,1.4,4.9,3.5h0.1c0.5-1,1.2-1.7,1.9-2.3
		c1-0.8,2.2-1.2,3.9-1.2c2.3,0,5.7,1.5,5.7,7.6v10.3h-3.1v-9.9c0-3.3-1.2-5.4-3.8-5.4c-1.8,0-3.2,1.3-3.7,2.9
		c-0.1,0.4-0.3,1-0.3,1.6v10.8h-3.1V91.7c0-2.8-1.2-4.8-3.6-4.8c-2,0-3.4,1.6-3.9,3.2c-0.2,0.5-0.3,1-0.3,1.5v10.5h-3.1V89.4z"/>
	<path d="M965.5,90.4c0-2.2-0.1-4-0.1-5.7h2.8l0.1,3h0.1c1.3-2.1,3.3-3.4,6.2-3.4c4.2,0,7.4,3.6,7.4,8.9c0,6.3-3.8,9.4-7.9,9.4
		c-2.3,0-4.3-1-5.4-2.7h-0.1v9.5h-3.1V90.4z M968.7,95c0,0.5,0.1,0.9,0.1,1.3c0.6,2.2,2.5,3.7,4.8,3.7c3.3,0,5.3-2.7,5.3-6.7
		c0-3.5-1.8-6.5-5.2-6.5c-2.2,0-4.2,1.5-4.8,3.9c-0.1,0.4-0.2,0.9-0.2,1.3V95z"/>
	<path d="M987.8,94c0.1,4.3,2.8,6,6,6c2.3,0,3.6-0.4,4.8-0.9l0.5,2.3c-1.1,0.5-3,1.1-5.8,1.1c-5.4,0-8.6-3.5-8.6-8.8
		s3.1-9.4,8.2-9.4c5.7,0,7.2,5,7.2,8.2c0,0.6-0.1,1.2-0.1,1.5H987.8z M997.1,91.7c0-2-0.8-5.1-4.4-5.1c-3.2,0-4.6,3-4.9,5.1H997.1z"
		/>
	<path d="M1019.1,76.6v21.1c0,1.5,0,3.3,0.1,4.5h-2.8l-0.1-3h-0.1c-1,1.9-3.1,3.4-5.9,3.4c-4.2,0-7.5-3.6-7.5-8.9
		c0-5.8,3.6-9.4,7.8-9.4c2.7,0,4.5,1.3,5.3,2.7h0.1V76.6H1019.1z M1015.9,91.8c0-0.4,0-0.9-0.1-1.3c-0.5-2-2.2-3.7-4.6-3.7
		c-3.3,0-5.2,2.9-5.2,6.7c0,3.5,1.7,6.4,5.1,6.4c2.1,0,4.1-1.4,4.6-3.8c0.1-0.4,0.1-0.9,0.1-1.4V91.8z"/>
	<path d="M1027.9,79.8c0,1.1-0.8,1.9-2,1.9c-1.1,0-1.9-0.9-1.9-1.9c0-1.1,0.8-2,2-2C1027.1,77.8,1027.9,78.7,1027.9,79.8z
		 M1024.4,102.1V84.7h3.2v17.4H1024.4z"/>
	<path d="M1032.8,90.1c0-2.1,0-3.8-0.1-5.4h2.8l0.1,3.4h0.1c0.8-2.3,2.7-3.8,4.8-3.8c0.4,0,0.6,0,0.9,0.1v3
		c-0.3-0.1-0.6-0.1-1.1-0.1c-2.2,0-3.8,1.7-4.2,4.1c-0.1,0.4-0.1,0.9-0.1,1.5v9.3h-3.1V90.1z"/>
	<path d="M718.5,137.2c0.1,4.3,2.8,6,6,6c2.3,0,3.6-0.4,4.8-0.9l0.5,2.3c-1.1,0.5-3,1.1-5.8,1.1c-5.4,0-8.6-3.5-8.6-8.8
		s3.1-9.4,8.2-9.4c5.7,0,7.2,5,7.2,8.2c0,0.6-0.1,1.2-0.1,1.5H718.5z M727.8,134.9c0-2-0.8-5.1-4.4-5.1c-3.2,0-4.6,3-4.9,5.1H727.8z
		"/>
	<path d="M734.8,119.8h3.2v25.6h-3.2V119.8z"/>
	<path d="M766,119.8v21.1c0,1.5,0,3.3,0.1,4.5h-2.8l-0.1-3h-0.1c-1,1.9-3.1,3.4-5.9,3.4c-4.2,0-7.5-3.6-7.5-8.9
		c0-5.8,3.6-9.4,7.8-9.4c2.7,0,4.5,1.3,5.3,2.7h0.1v-10.4H766z M762.8,135c0-0.4,0-0.9-0.1-1.3c-0.5-2-2.2-3.7-4.6-3.7
		c-3.3,0-5.2,2.9-5.2,6.7c0,3.5,1.7,6.4,5.1,6.4c2.1,0,4.1-1.4,4.6-3.8c0.1-0.4,0.1-0.9,0.1-1.4V135z"/>
	<path d="M773,137.2c0.1,4.3,2.8,6,6,6c2.3,0,3.6-0.4,4.8-0.9l0.5,2.3c-1.1,0.5-3,1.1-5.8,1.1c-5.4,0-8.6-3.5-8.6-8.8
		s3.1-9.4,8.2-9.4c5.7,0,7.2,5,7.2,8.2c0,0.6-0.1,1.2-0.1,1.5H773z M782.3,134.9c0-2-0.8-5.1-4.4-5.1c-3.2,0-4.6,3-4.9,5.1H782.3z"
		/>
	<path d="M789.3,119.8h3.2v25.6h-3.2V119.8z"/>
	<path d="M801.3,123c0,1.1-0.8,1.9-2,1.9c-1.1,0-1.9-0.9-1.9-1.9c0-1.1,0.8-2,2-2C800.5,121,801.3,121.9,801.3,123z M797.8,145.3
		v-17.4h3.2v17.4H797.8z"/>
	<path d="M810,122.9v5h4.5v2.4H810v9.4c0,2.2,0.6,3.4,2.4,3.4c0.8,0,1.4-0.1,1.8-0.2l0.1,2.4c-0.6,0.3-1.6,0.4-2.8,0.4
		c-1.5,0-2.7-0.5-3.4-1.3c-0.9-0.9-1.2-2.5-1.2-4.5v-9.5h-2.7v-2.4h2.7v-4.2L810,122.9z"/>
	<path d="M833.7,136.5c0,6.4-4.5,9.3-8.7,9.3c-4.7,0-8.4-3.5-8.4-9c0-5.8,3.8-9.3,8.6-9.3C830.3,127.5,833.7,131.1,833.7,136.5z
		 M819.8,136.6c0,3.8,2.2,6.7,5.3,6.7c3,0,5.3-2.8,5.3-6.8c0-3-1.5-6.7-5.2-6.7C821.5,129.9,819.8,133.3,819.8,136.6z"/>
	<path d="M835.6,149.7c0.8-2.1,1.8-6,2.2-8.6l3.5-0.4c-0.9,3.1-2.4,7.1-3.5,8.7L835.6,149.7z M837.2,130.8c0-1.3,0.9-2.3,2.1-2.3
		c1.3,0,2.1,0.9,2.1,2.3c0,1.3-0.8,2.2-2.1,2.2C838.1,133,837.2,132,837.2,130.8z"/>
	<path d="M856.3,123c0,1.1-0.8,1.9-2,1.9c-1.1,0-1.9-0.9-1.9-1.9c0-1.1,0.8-2,2-2C855.5,121,856.3,121.9,856.3,123z M852.7,145.3
		v-17.4h3.2v17.4H852.7z"/>
	<path d="M861.2,132.6c0-1.8,0-3.3-0.1-4.7h2.8l0.2,2.9h0.1c0.9-1.7,2.9-3.3,5.8-3.3c2.4,0,6.2,1.4,6.2,7.4v10.4h-3.2v-10
		c0-2.8-1-5.1-4-5.1c-2.1,0-3.7,1.5-4.2,3.2c-0.1,0.4-0.2,0.9-0.2,1.5v10.5h-3.2V132.6z"/>
	<path d="M884.8,122.9v5h4.5v2.4h-4.5v9.4c0,2.2,0.6,3.4,2.4,3.4c0.8,0,1.4-0.1,1.8-0.2l0.1,2.4c-0.6,0.3-1.6,0.4-2.8,0.4
		c-1.5,0-2.7-0.5-3.4-1.3c-0.9-0.9-1.2-2.5-1.2-4.5v-9.5H879v-2.4h2.7v-4.2L884.8,122.9z"/>
	<path d="M902.6,145.3l-0.3-2.2h-0.1c-1,1.4-2.8,2.6-5.3,2.6c-3.5,0-5.3-2.5-5.3-5c0-4.2,3.7-6.5,10.5-6.5v-0.4c0-1.4-0.4-4-4-4
		c-1.6,0-3.3,0.5-4.5,1.3l-0.7-2.1c1.4-0.9,3.5-1.5,5.7-1.5c5.3,0,6.6,3.6,6.6,7.1v6.5c0,1.5,0.1,3,0.3,4.2H902.6z M902.1,136.4
		c-3.5-0.1-7.4,0.5-7.4,3.9c0,2.1,1.4,3,3,3c2.3,0,3.7-1.4,4.2-2.9c0.1-0.3,0.2-0.7,0.2-1V136.4z"/>
	<path d="M910.3,132.6c0-1.8,0-3.3-0.1-4.7h2.8l0.2,2.9h0.1c0.9-1.7,2.9-3.3,5.8-3.3c2.4,0,6.2,1.4,6.2,7.4v10.4h-3.2v-10
		c0-2.8-1-5.1-4-5.1c-2.1,0-3.7,1.5-4.2,3.2c-0.1,0.4-0.2,0.9-0.2,1.5v10.5h-3.2V132.6z"/>
	<path d="M945.3,127.9c-0.1,1.3-0.1,2.7-0.1,4.8v10.1c0,4-0.8,6.4-2.5,8c-1.7,1.6-4.1,2.1-6.3,2.1c-2.1,0-4.4-0.5-5.8-1.4l0.8-2.4
		c1.2,0.7,3,1.4,5.1,1.4c3.2,0,5.6-1.7,5.6-6.1v-1.9H942c-1,1.6-2.8,2.9-5.5,2.9c-4.3,0-7.4-3.7-7.4-8.5c0-5.9,3.9-9.3,7.8-9.3
		c3,0,4.7,1.6,5.4,3h0.1l0.1-2.6H945.3z M942,134.8c0-0.5,0-1-0.2-1.4c-0.6-1.8-2.1-3.3-4.4-3.3c-3,0-5.2,2.6-5.2,6.6
		c0,3.4,1.7,6.3,5.1,6.3c1.9,0,3.7-1.2,4.4-3.2c0.2-0.5,0.3-1.2,0.3-1.7V134.8z"/>
	<path d="M953.7,123c0,1.1-0.8,1.9-2,1.9c-1.1,0-1.9-0.9-1.9-1.9c0-1.1,0.8-2,2-2C952.9,121,953.7,121.9,953.7,123z M950.2,145.3
		v-17.4h3.2v17.4H950.2z"/>
	<path d="M958.4,145.3c0.1-1.2,0.1-3,0.1-4.5v-21.1h3.1v10.9h0.1c1.1-1.9,3.1-3.2,5.9-3.2c4.3,0,7.4,3.6,7.3,8.9
		c0,6.2-3.9,9.3-7.8,9.3c-2.5,0-4.5-1-5.8-3.3h-0.1l-0.1,2.9H958.4z M961.7,138.3c0,0.4,0.1,0.8,0.1,1.2c0.6,2.2,2.4,3.7,4.8,3.7
		c3.3,0,5.3-2.7,5.3-6.7c0-3.5-1.8-6.5-5.2-6.5c-2.2,0-4.2,1.5-4.8,3.9c-0.1,0.4-0.2,0.8-0.2,1.3V138.3z"/>
	<path d="M979.1,119.8h3.2v25.6h-3.2V119.8z"/>
	<path d="M989.3,137.2c0.1,4.3,2.8,6,6,6c2.3,0,3.6-0.4,4.8-0.9l0.5,2.3c-1.1,0.5-3,1.1-5.8,1.1c-5.4,0-8.6-3.5-8.6-8.8
		s3.1-9.4,8.2-9.4c5.7,0,7.2,5,7.2,8.2c0,0.6-0.1,1.2-0.1,1.5H989.3z M998.6,134.9c0-2-0.8-5.1-4.4-5.1c-3.2,0-4.6,3-4.9,5.1H998.6z
		"/>
	<path d="M716.8,176.8c0-2.2-0.1-4-0.1-5.7h2.8l0.1,3h0.1c1.3-2.1,3.3-3.4,6.2-3.4c4.2,0,7.4,3.6,7.4,8.9c0,6.3-3.8,9.4-7.9,9.4
		c-2.3,0-4.3-1-5.4-2.7h-0.1v9.5h-3.1V176.8z M719.9,181.4c0,0.5,0.1,0.9,0.1,1.3c0.6,2.2,2.5,3.7,4.8,3.7c3.3,0,5.3-2.7,5.3-6.7
		c0-3.5-1.8-6.5-5.2-6.5c-2.2,0-4.2,1.5-4.8,3.9c-0.1,0.4-0.2,0.9-0.2,1.3V181.4z"/>
	<path d="M746.9,188.5l-0.3-2.2h-0.1c-1,1.4-2.8,2.6-5.3,2.6c-3.5,0-5.3-2.5-5.3-5c0-4.2,3.7-6.5,10.5-6.5v-0.4c0-1.4-0.4-4-4-4
		c-1.6,0-3.3,0.5-4.5,1.3l-0.7-2.1c1.4-0.9,3.5-1.5,5.7-1.5c5.3,0,6.6,3.6,6.6,7.1v6.5c0,1.5,0.1,3,0.3,4.2H746.9z M746.4,179.6
		c-3.5-0.1-7.4,0.5-7.4,3.9c0,2.1,1.4,3,3,3c2.3,0,3.7-1.4,4.2-2.9c0.1-0.3,0.2-0.7,0.2-1V179.6z"/>
	<path d="M754.6,176.5c0-2.1,0-3.8-0.1-5.4h2.8l0.1,3.4h0.1c0.8-2.3,2.7-3.8,4.8-3.8c0.4,0,0.6,0,0.9,0.1v3
		c-0.3-0.1-0.6-0.1-1.1-0.1c-2.2,0-3.8,1.7-4.2,4.1c-0.1,0.4-0.1,0.9-0.1,1.5v9.3h-3.1V176.5z"/>
	<path d="M775.8,188.5l-0.3-2.2h-0.1c-1,1.4-2.8,2.6-5.3,2.6c-3.5,0-5.3-2.5-5.3-5c0-4.2,3.7-6.5,10.5-6.5v-0.4c0-1.4-0.4-4-4-4
		c-1.6,0-3.3,0.5-4.5,1.3l-0.7-2.1c1.4-0.9,3.5-1.5,5.7-1.5c5.3,0,6.6,3.6,6.6,7.1v6.5c0,1.5,0.1,3,0.3,4.2H775.8z M775.4,179.6
		c-3.5-0.1-7.4,0.5-7.4,3.9c0,2.1,1.4,3,3,3c2.3,0,3.7-1.4,4.2-2.9c0.1-0.3,0.2-0.7,0.2-1V179.6z"/>
	<path d="M806.2,163V184c0,1.5,0,3.3,0.1,4.5h-2.8l-0.1-3h-0.1c-1,1.9-3.1,3.4-5.9,3.4c-4.2,0-7.5-3.6-7.5-8.9
		c0-5.8,3.6-9.4,7.8-9.4c2.7,0,4.5,1.3,5.3,2.7h0.1V163H806.2z M803.1,178.2c0-0.4,0-0.9-0.1-1.3c-0.5-2-2.2-3.7-4.6-3.7
		c-3.3,0-5.2,2.9-5.2,6.7c0,3.5,1.7,6.4,5.1,6.4c2.1,0,4.1-1.4,4.6-3.8c0.1-0.4,0.1-0.9,0.1-1.4V178.2z"/>
	<path d="M815,166.2c0,1.1-0.8,1.9-2,1.9c-1.1,0-1.9-0.9-1.9-1.9c0-1.1,0.8-2,2-2C814.3,164.2,815,165.1,815,166.2z M811.5,188.5
		v-17.4h3.2v17.4H811.5z"/>
	<path d="M819.5,185.3c0.9,0.6,2.6,1.3,4.2,1.3c2.3,0,3.4-1.2,3.4-2.6c0-1.5-0.9-2.3-3.2-3.2c-3.1-1.1-4.6-2.8-4.6-4.9
		c0-2.8,2.3-5.1,6-5.1c1.8,0,3.3,0.5,4.3,1.1l-0.8,2.3c-0.7-0.4-1.9-1-3.6-1c-1.9,0-2.9,1.1-2.9,2.4c0,1.4,1,2.1,3.3,3
		c3,1.2,4.6,2.7,4.6,5.3c0,3.1-2.4,5.2-6.5,5.2c-1.9,0-3.7-0.5-4.9-1.2L819.5,185.3z"/>
	<path d="M848.7,183.8c0,1.8,0,3.4,0.1,4.8h-2.8l-0.2-2.8h-0.1c-0.8,1.4-2.7,3.2-5.8,3.2c-2.7,0-6-1.5-6-7.6v-10.2h3.2v9.6
		c0,3.3,1,5.5,3.9,5.5c2.1,0,3.6-1.5,4.2-2.9c0.2-0.5,0.3-1,0.3-1.6v-10.7h3.2V183.8z"/>
	<path d="M863.7,188.5l-0.3-2.2h-0.1c-1,1.4-2.8,2.6-5.3,2.6c-3.5,0-5.3-2.5-5.3-5c0-4.2,3.7-6.5,10.5-6.5v-0.4c0-1.4-0.4-4-4-4
		c-1.6,0-3.3,0.5-4.5,1.3l-0.7-2.1c1.4-0.9,3.5-1.5,5.7-1.5c5.3,0,6.6,3.6,6.6,7.1v6.5c0,1.5,0.1,3,0.3,4.2H863.7z M863.2,179.6
		c-3.5-0.1-7.4,0.5-7.4,3.9c0,2.1,1.4,3,3,3c2.3,0,3.7-1.4,4.2-2.9c0.1-0.3,0.2-0.7,0.2-1V179.6z"/>
	<path d="M886.4,163V184c0,1.5,0,3.3,0.1,4.5h-2.8l-0.1-3h-0.1c-1,1.9-3.1,3.4-5.9,3.4c-4.2,0-7.5-3.6-7.5-8.9
		c0-5.8,3.6-9.4,7.8-9.4c2.7,0,4.5,1.3,5.3,2.7h0.1V163H886.4z M883.2,178.2c0-0.4,0-0.9-0.1-1.3c-0.5-2-2.2-3.7-4.6-3.7
		c-3.3,0-5.2,2.9-5.2,6.7c0,3.5,1.7,6.4,5.1,6.4c2.1,0,4.1-1.4,4.6-3.8c0.1-0.4,0.1-0.9,0.1-1.4V178.2z"/>
	<path d="M895.2,166.2c0,1.1-0.8,1.9-2,1.9c-1.1,0-1.9-0.9-1.9-1.9c0-1.1,0.8-2,2-2C894.4,164.2,895.2,165.1,895.2,166.2z
		 M891.7,188.5v-17.4h3.2v17.4H891.7z"/>
	<path d="M900.1,176.5c0-2.1,0-3.8-0.1-5.4h2.8l0.1,3.4h0.1c0.8-2.3,2.7-3.8,4.8-3.8c0.4,0,0.6,0,0.9,0.1v3
		c-0.3-0.1-0.6-0.1-1.1-0.1c-2.2,0-3.8,1.7-4.2,4.1c-0.1,0.4-0.1,0.9-0.1,1.5v9.3h-3.1V176.5z"/>
	<path d="M929.1,188.5l-0.3-2.2h-0.1c-1,1.4-2.8,2.6-5.3,2.6c-3.5,0-5.3-2.5-5.3-5c0-4.2,3.7-6.5,10.5-6.5v-0.4c0-1.4-0.4-4-4-4
		c-1.6,0-3.3,0.5-4.5,1.3l-0.7-2.1c1.4-0.9,3.5-1.5,5.7-1.5c5.3,0,6.6,3.6,6.6,7.1v6.5c0,1.5,0.1,3,0.3,4.2H929.1z M928.7,179.6
		c-3.5-0.1-7.4,0.5-7.4,3.9c0,2.1,1.4,3,3,3c2.3,0,3.7-1.4,4.2-2.9c0.1-0.3,0.2-0.7,0.2-1V179.6z"/>
	<path d="M944.5,163h3.2v25.6h-3.2V163z"/>
	<path d="M968.7,179.7c0,6.4-4.5,9.3-8.7,9.3c-4.7,0-8.4-3.5-8.4-9c0-5.8,3.8-9.3,8.6-9.3C965.3,170.7,968.7,174.3,968.7,179.7z
		 M954.9,179.8c0,3.8,2.2,6.7,5.3,6.7c3,0,5.3-2.8,5.3-6.8c0-3-1.5-6.7-5.2-6.7C956.5,173.1,954.9,176.5,954.9,179.8z"/>
	<path d="M972.3,185.3c0.9,0.6,2.6,1.3,4.2,1.3c2.3,0,3.4-1.2,3.4-2.6c0-1.5-0.9-2.3-3.2-3.2c-3.1-1.1-4.6-2.8-4.6-4.9
		c0-2.8,2.3-5.1,6-5.1c1.8,0,3.3,0.5,4.3,1.1l-0.8,2.3c-0.7-0.4-1.9-1-3.6-1c-1.9,0-2.9,1.1-2.9,2.4c0,1.4,1,2.1,3.3,3
		c3,1.2,4.6,2.7,4.6,5.3c0,3.1-2.4,5.2-6.5,5.2c-1.9,0-3.7-0.5-4.9-1.2L972.3,185.3z"/>
	<path d="M731.8,206.2v21.1c0,1.5,0,3.3,0.1,4.5h-2.8l-0.1-3h-0.1c-1,1.9-3.1,3.4-5.9,3.4c-4.2,0-7.5-3.6-7.5-8.9
		c0-5.8,3.6-9.4,7.8-9.4c2.7,0,4.5,1.3,5.3,2.7h0.1v-10.4H731.8z M728.7,221.4c0-0.4,0-0.9-0.1-1.3c-0.5-2-2.2-3.7-4.6-3.7
		c-3.3,0-5.2,2.9-5.2,6.7c0,3.5,1.7,6.4,5.1,6.4c2.1,0,4.1-1.4,4.6-3.8c0.1-0.4,0.1-0.9,0.1-1.4V221.4z"/>
	<path d="M738.8,223.6c0.1,4.3,2.8,6,6,6c2.3,0,3.6-0.4,4.8-0.9l0.5,2.3c-1.1,0.5-3,1.1-5.8,1.1c-5.4,0-8.6-3.5-8.6-8.8
		s3.1-9.4,8.2-9.4c5.7,0,7.2,5,7.2,8.2c0,0.6-0.1,1.2-0.1,1.5H738.8z M748.1,221.3c0-2-0.8-5.1-4.4-5.1c-3.2,0-4.6,3-4.9,5.1H748.1z
		"/>
	<path d="M755.1,206.2h3.2v25.6h-3.2V206.2z"/>
	<path d="M767.1,209.4c0,1.1-0.8,1.9-2,1.9c-1.1,0-1.9-0.9-1.9-1.9c0-1.1,0.8-2,2-2C766.4,207.4,767.1,208.3,767.1,209.4z
		 M763.6,231.7v-17.4h3.2v17.4H763.6z"/>
	<path d="M772,219c0-1.8,0-3.3-0.1-4.7h2.8l0.2,2.9h0.1c0.9-1.7,2.9-3.3,5.8-3.3c2.4,0,6.2,1.4,6.2,7.4v10.4h-3.2v-10
		c0-2.8-1-5.1-4-5.1c-2.1,0-3.7,1.5-4.2,3.2c-0.1,0.4-0.2,0.9-0.2,1.5v10.5H772V219z"/>
	<path d="M804.4,231.1c-0.8,0.4-2.7,1-5,1c-5.3,0-8.7-3.6-8.7-8.9c0-5.4,3.7-9.3,9.4-9.3c1.9,0,3.5,0.5,4.4,0.9l-0.7,2.4
		c-0.8-0.4-1.9-0.8-3.7-0.8c-4,0-6.2,3-6.2,6.6c0,4,2.6,6.5,6,6.5c1.8,0,3-0.5,3.9-0.9L804.4,231.1z"/>
	<path d="M822.7,227c0,1.8,0,3.4,0.1,4.8h-2.8l-0.2-2.8h-0.1c-0.8,1.4-2.7,3.2-5.8,3.2c-2.7,0-6-1.5-6-7.6v-10.2h3.2v9.6
		c0,3.3,1,5.5,3.9,5.5c2.1,0,3.6-1.5,4.2-2.9c0.2-0.5,0.3-1,0.3-1.6v-10.7h3.2V227z"/>
	<path d="M829.7,223.6c0.1,4.3,2.8,6,6,6c2.3,0,3.6-0.4,4.8-0.9l0.5,2.3c-1.1,0.5-3,1.1-5.8,1.1c-5.4,0-8.6-3.5-8.6-8.8
		s3.1-9.4,8.2-9.4c5.7,0,7.2,5,7.2,8.2c0,0.6-0.1,1.2-0.1,1.5H829.7z M839,221.3c0-2-0.8-5.1-4.4-5.1c-3.2,0-4.6,3-4.9,5.1H839z"/>
	<path d="M846,219c0-1.8,0-3.3-0.1-4.7h2.8l0.2,2.9h0.1c0.9-1.7,2.9-3.3,5.8-3.3c2.4,0,6.2,1.4,6.2,7.4v10.4h-3.2v-10
		c0-2.8-1-5.1-4-5.1c-2.1,0-3.7,1.5-4.2,3.2c-0.1,0.4-0.2,0.9-0.2,1.5v10.5H846V219z"/>
	<path d="M869.7,209.3v5h4.5v2.4h-4.5v9.4c0,2.2,0.6,3.4,2.4,3.4c0.8,0,1.4-0.1,1.8-0.2l0.1,2.4c-0.6,0.3-1.6,0.4-2.8,0.4
		c-1.5,0-2.7-0.5-3.4-1.3c-0.9-0.9-1.2-2.5-1.2-4.5v-9.5h-2.7v-2.4h2.7v-4.2L869.7,209.3z"/>
	<path d="M879.3,223.6c0.1,4.3,2.8,6,6,6c2.3,0,3.6-0.4,4.8-0.9l0.5,2.3c-1.1,0.5-3,1.1-5.8,1.1c-5.4,0-8.6-3.5-8.6-8.8
		s3.1-9.4,8.2-9.4c5.7,0,7.2,5,7.2,8.2c0,0.6-0.1,1.2-0.1,1.5H879.3z M888.6,221.3c0-2-0.8-5.1-4.4-5.1c-3.2,0-4.6,3-4.9,5.1H888.6z
		"/>
	<path d="M895.2,228.5c0.9,0.6,2.6,1.3,4.2,1.3c2.3,0,3.4-1.2,3.4-2.6c0-1.5-0.9-2.3-3.2-3.2c-3.1-1.1-4.6-2.8-4.6-4.9
		c0-2.8,2.3-5.1,6-5.1c1.8,0,3.3,0.5,4.3,1.1l-0.8,2.3c-0.7-0.4-1.9-1-3.6-1c-1.9,0-2.9,1.1-2.9,2.4c0,1.4,1,2.1,3.3,3
		c3,1.2,4.6,2.7,4.6,5.3c0,3.1-2.4,5.2-6.5,5.2c-1.9,0-3.7-0.5-4.9-1.2L895.2,228.5z"/>
	<path d="M908.7,229.8c0-1.3,0.9-2.3,2.2-2.3s2.1,0.9,2.1,2.3c0,1.3-0.8,2.3-2.2,2.3C909.6,232.1,908.7,231.1,908.7,229.8z"/>
</g>
<g>
	<path d="M58.8,842.5l-2.5,7.6H53l8.2-24.3h3.8l8.3,24.3H70l-2.6-7.6H58.8z M66.8,840l-2.4-7c-0.5-1.6-0.9-3-1.3-4.4h-0.1
		c-0.4,1.4-0.8,2.9-1.2,4.4l-2.4,7H66.8z"/>
	<path d="M76.2,846.9c0.9,0.6,2.6,1.3,4.2,1.3c2.3,0,3.4-1.2,3.4-2.6c0-1.5-0.9-2.3-3.2-3.2c-3.1-1.1-4.6-2.8-4.6-4.9
		c0-2.8,2.3-5.1,6-5.1c1.8,0,3.3,0.5,4.3,1.1l-0.8,2.3c-0.7-0.4-1.9-1-3.6-1c-1.9,0-2.9,1.1-2.9,2.4c0,1.4,1,2.1,3.3,3
		c3,1.2,4.6,2.7,4.6,5.3c0,3.1-2.4,5.2-6.5,5.2c-1.9,0-3.7-0.5-4.9-1.2L76.2,846.9z"/>
	<path d="M92.6,842c0.1,4.3,2.8,6,6,6c2.3,0,3.6-0.4,4.8-0.9l0.5,2.3c-1.1,0.5-3,1.1-5.8,1.1c-5.4,0-8.6-3.5-8.6-8.8
		c0-5.3,3.1-9.4,8.2-9.4c5.7,0,7.2,5,7.2,8.2c0,0.6-0.1,1.2-0.1,1.5H92.6z M101.9,839.7c0-2-0.8-5.1-4.4-5.1c-3.2,0-4.6,3-4.9,5.1
		H101.9z"/>
	<path d="M123.9,832.7c-0.1,1.3-0.1,2.7-0.1,4.8v10.1c0,4-0.8,6.4-2.5,8c-1.7,1.6-4.1,2.1-6.3,2.1c-2.1,0-4.4-0.5-5.8-1.4l0.8-2.4
		c1.2,0.7,3,1.4,5.1,1.4c3.2,0,5.6-1.7,5.6-6.1v-1.9h-0.1c-1,1.6-2.8,2.9-5.5,2.9c-4.3,0-7.4-3.7-7.4-8.5c0-5.9,3.9-9.3,7.8-9.3
		c3,0,4.7,1.6,5.4,3h0.1l0.1-2.6H123.9z M120.6,839.6c0-0.5,0-1-0.2-1.4c-0.6-1.8-2.1-3.3-4.4-3.3c-3,0-5.2,2.6-5.2,6.6
		c0,3.4,1.7,6.3,5.1,6.3c1.9,0,3.7-1.2,4.4-3.2c0.2-0.5,0.3-1.2,0.3-1.7V839.6z"/>
	<path d="M143.6,845.4c0,1.8,0,3.4,0.1,4.8h-2.8l-0.2-2.8h-0.1c-0.8,1.4-2.7,3.2-5.8,3.2c-2.7,0-6-1.5-6-7.6v-10.2h3.2v9.6
		c0,3.3,1,5.5,3.9,5.5c2.1,0,3.6-1.5,4.2-2.9c0.2-0.5,0.3-1,0.3-1.6v-10.7h3.2V845.4z"/>
	<path d="M148.8,838.1c0-2.1,0-3.8-0.1-5.4h2.8l0.1,3.4h0.1c0.8-2.3,2.7-3.8,4.8-3.8c0.4,0,0.6,0,0.9,0.1v3
		c-0.3-0.1-0.6-0.1-1.1-0.1c-2.2,0-3.8,1.7-4.2,4.1c-0.1,0.4-0.1,0.9-0.1,1.5v9.3h-3.1V838.1z"/>
	<path d="M170.1,850.1l-0.3-2.2h-0.1c-1,1.4-2.8,2.6-5.3,2.6c-3.5,0-5.3-2.5-5.3-5c0-4.2,3.7-6.5,10.5-6.5v-0.4c0-1.4-0.4-4-4-4
		c-1.6,0-3.3,0.5-4.5,1.3l-0.7-2.1c1.4-0.9,3.5-1.5,5.7-1.5c5.3,0,6.6,3.6,6.6,7.1v6.5c0,1.5,0.1,3,0.3,4.2H170.1z M169.6,841.2
		c-3.5-0.1-7.4,0.5-7.4,3.9c0,2.1,1.4,3,3,3c2.3,0,3.7-1.4,4.2-2.9c0.1-0.3,0.2-0.7,0.2-1V841.2z"/>
	<path d="M197.3,847.4L197.3,847.4c-1,1.7-3,3.1-5.8,3.1c-4.1,0-7.4-3.5-7.4-8.8c0-6.5,4.2-9.4,7.9-9.4c2.7,0,4.5,1.3,5.4,3h0.1
		l0.1-2.6h3c-0.1,1.5-0.1,3-0.1,4.8v19.8h-3.2V847.4z M197.3,839.7c0-0.4,0-0.9-0.1-1.3c-0.5-1.9-2.2-3.6-4.5-3.6
		c-3.3,0-5.3,2.8-5.3,6.7c0,3.5,1.7,6.5,5.1,6.5c2.1,0,3.8-1.3,4.5-3.5c0.1-0.4,0.3-1,0.3-1.5V839.7z"/>
	<path d="M220.3,845.4c0,1.8,0,3.4,0.1,4.8h-2.8l-0.2-2.8h-0.1c-0.8,1.4-2.7,3.2-5.8,3.2c-2.7,0-6-1.5-6-7.6v-10.2h3.2v9.6
		c0,3.3,1,5.5,3.9,5.5c2.1,0,3.6-1.5,4.2-2.9c0.2-0.5,0.3-1,0.3-1.6v-10.7h3.2V845.4z"/>
	<path d="M227.3,842c0.1,4.3,2.8,6,6,6c2.3,0,3.6-0.4,4.8-0.9l0.5,2.3c-1.1,0.5-3,1.1-5.8,1.1c-5.4,0-8.6-3.5-8.6-8.8
		c0-5.3,3.1-9.4,8.2-9.4c5.7,0,7.2,5,7.2,8.2c0,0.6-0.1,1.2-0.1,1.5H227.3z M236.6,839.7c0-2-0.8-5.1-4.4-5.1c-3.2,0-4.6,3-4.9,5.1
		H236.6z"/>
	<path d="M251.2,824.6h3.2v25.6h-3.2V824.6z"/>
	<path d="M269.3,850.1l-0.3-2.2H269c-1,1.4-2.8,2.6-5.3,2.6c-3.5,0-5.3-2.5-5.3-5c0-4.2,3.7-6.5,10.5-6.5v-0.4c0-1.4-0.4-4-4-4
		c-1.6,0-3.3,0.5-4.5,1.3l-0.7-2.1c1.4-0.9,3.5-1.5,5.7-1.5c5.3,0,6.6,3.6,6.6,7.1v6.5c0,1.5,0.1,3,0.3,4.2H269.3z M268.9,841.2
		c-3.5-0.1-7.4,0.5-7.4,3.9c0,2.1,1.4,3,3,3c2.3,0,3.7-1.4,4.2-2.9c0.1-0.3,0.2-0.7,0.2-1V841.2z"/>
	<path d="M276.6,846.9c0.9,0.6,2.6,1.3,4.2,1.3c2.3,0,3.4-1.2,3.4-2.6c0-1.5-0.9-2.3-3.2-3.2c-3.1-1.1-4.6-2.8-4.6-4.9
		c0-2.8,2.3-5.1,6-5.1c1.8,0,3.3,0.5,4.3,1.1l-0.8,2.3c-0.7-0.4-1.9-1-3.6-1c-1.9,0-2.9,1.1-2.9,2.4c0,1.4,1,2.1,3.3,3
		c3,1.2,4.6,2.7,4.6,5.3c0,3.1-2.4,5.2-6.5,5.2c-1.9,0-3.7-0.5-4.9-1.2L276.6,846.9z"/>
	<path d="M298.8,850.1c0.1-1.2,0.1-3,0.1-4.5v-21.1h3.1v10.9h0.1c1.1-1.9,3.1-3.2,5.9-3.2c4.3,0,7.4,3.6,7.3,8.9
		c0,6.2-3.9,9.3-7.8,9.3c-2.5,0-4.5-1-5.8-3.3h-0.1l-0.1,2.9H298.8z M302.1,843.1c0,0.4,0.1,0.8,0.1,1.2c0.6,2.2,2.4,3.7,4.8,3.7
		c3.3,0,5.3-2.7,5.3-6.7c0-3.5-1.8-6.5-5.2-6.5c-2.2,0-4.2,1.5-4.8,3.9c-0.1,0.4-0.2,0.8-0.2,1.3V843.1z"/>
	<path d="M329.1,850.1l-0.3-2.2h-0.1c-1,1.4-2.8,2.6-5.3,2.6c-3.5,0-5.3-2.5-5.3-5c0-4.2,3.7-6.5,10.5-6.5v-0.4c0-1.4-0.4-4-4-4
		c-1.6,0-3.3,0.5-4.5,1.3l-0.7-2.1c1.4-0.9,3.5-1.5,5.7-1.5c5.3,0,6.6,3.6,6.6,7.1v6.5c0,1.5,0.1,3,0.3,4.2H329.1z M328.6,841.2
		c-3.5-0.1-7.4,0.5-7.4,3.9c0,2.1,1.4,3,3,3c2.3,0,3.7-1.4,4.2-2.9c0.1-0.3,0.2-0.7,0.2-1V841.2z"/>
	<path d="M336.8,838.1c0-2.1,0-3.8-0.1-5.4h2.8l0.1,3.4h0.1c0.8-2.3,2.7-3.8,4.8-3.8c0.4,0,0.6,0,0.9,0.1v3
		c-0.3-0.1-0.6-0.1-1.1-0.1c-2.2,0-3.8,1.7-4.2,4.1c-0.1,0.4-0.1,0.9-0.1,1.5v9.3h-3.1V838.1z"/>
	<path d="M348.7,838.1c0-2.1,0-3.8-0.1-5.4h2.8l0.1,3.4h0.1c0.8-2.3,2.7-3.8,4.8-3.8c0.4,0,0.6,0,0.9,0.1v3
		c-0.3-0.1-0.6-0.1-1.1-0.1c-2.2,0-3.8,1.7-4.2,4.1c-0.1,0.4-0.1,0.9-0.1,1.5v9.3h-3.1V838.1z"/>
	<path d="M361.9,842c0.1,4.3,2.8,6,6,6c2.3,0,3.6-0.4,4.8-0.9l0.5,2.3c-1.1,0.5-3,1.1-5.8,1.1c-5.4,0-8.6-3.5-8.6-8.8
		c0-5.3,3.1-9.4,8.2-9.4c5.7,0,7.2,5,7.2,8.2c0,0.6-0.1,1.2-0.1,1.5H361.9z M371.1,839.7c0-2-0.8-5.1-4.4-5.1c-3.2,0-4.6,3-4.9,5.1
		H371.1z"/>
	<path d="M378.1,838.1c0-2.1,0-3.8-0.1-5.4h2.8l0.1,3.4h0.1c0.8-2.3,2.7-3.8,4.8-3.8c0.4,0,0.6,0,0.9,0.1v3
		c-0.3-0.1-0.6-0.1-1.1-0.1c-2.2,0-3.8,1.7-4.2,4.1c-0.1,0.4-0.1,0.9-0.1,1.5v9.3h-3.1V838.1z"/>
	<path d="M399.4,850.1l-0.3-2.2H399c-1,1.4-2.8,2.6-5.3,2.6c-3.5,0-5.3-2.5-5.3-5c0-4.2,3.7-6.5,10.5-6.5v-0.4c0-1.4-0.4-4-4-4
		c-1.6,0-3.3,0.5-4.5,1.3l-0.7-2.1c1.4-0.9,3.5-1.5,5.7-1.5c5.3,0,6.6,3.6,6.6,7.1v6.5c0,1.5,0.1,3,0.3,4.2H399.4z M398.9,841.2
		c-3.5-0.1-7.4,0.5-7.4,3.9c0,2.1,1.4,3,3,3c2.3,0,3.7-1.4,4.2-2.9c0.1-0.3,0.2-0.7,0.2-1V841.2z"/>
	<path d="M406.6,846.9c0.9,0.6,2.6,1.3,4.2,1.3c2.3,0,3.4-1.2,3.4-2.6c0-1.5-0.9-2.3-3.2-3.2c-3.1-1.1-4.6-2.8-4.6-4.9
		c0-2.8,2.3-5.1,6-5.1c1.8,0,3.3,0.5,4.3,1.1l-0.8,2.3c-0.7-0.4-1.9-1-3.6-1c-1.9,0-2.9,1.1-2.9,2.4c0,1.4,1,2.1,3.3,3
		c3,1.2,4.6,2.7,4.6,5.3c0,3.1-2.4,5.2-6.5,5.2c-1.9,0-3.7-0.5-4.9-1.2L406.6,846.9z"/>
	<path d="M58.3,871c0,1.1-0.8,1.9-2,1.9c-1.1,0-1.9-0.9-1.9-1.9c0-1.1,0.8-2,2-2C57.5,869,58.3,869.9,58.3,871z M54.8,893.3v-17.4
		h3.2v17.4H54.8z"/>
	<path d="M63.2,880.6c0-1.8,0-3.3-0.1-4.7h2.8l0.1,2.8h0.1c1-1.7,2.6-3.2,5.5-3.2c2.4,0,4.2,1.4,4.9,3.5h0.1c0.5-1,1.2-1.7,1.9-2.3
		c1-0.8,2.2-1.2,3.9-1.2c2.3,0,5.7,1.5,5.7,7.6v10.3H85v-9.9c0-3.3-1.2-5.4-3.8-5.4c-1.8,0-3.2,1.3-3.7,2.9c-0.1,0.4-0.3,1-0.3,1.6
		v10.8h-3.1v-10.4c0-2.8-1.2-4.8-3.6-4.8c-2,0-3.4,1.6-3.9,3.2c-0.2,0.5-0.3,1-0.3,1.5v10.5h-3.1V880.6z"/>
	<path d="M93.2,881.6c0-2.2-0.1-4-0.1-5.7h2.8l0.1,3h0.1c1.3-2.1,3.3-3.4,6.2-3.4c4.2,0,7.4,3.6,7.4,8.9c0,6.3-3.8,9.4-7.9,9.4
		c-2.3,0-4.3-1-5.4-2.7h-0.1v9.5h-3.1V881.6z M96.4,886.2c0,0.5,0.1,0.9,0.1,1.3c0.6,2.2,2.5,3.7,4.8,3.7c3.3,0,5.3-2.7,5.3-6.7
		c0-3.5-1.8-6.5-5.2-6.5c-2.2,0-4.2,1.5-4.8,3.9c-0.1,0.4-0.2,0.9-0.2,1.3V886.2z"/>
	<path d="M117.2,871c0,1.1-0.8,1.9-2,1.9c-1.1,0-1.9-0.9-1.9-1.9c0-1.1,0.8-2,2-2C116.5,869,117.2,869.9,117.2,871z M113.7,893.3
		v-17.4h3.2v17.4H113.7z"/>
	<path d="M137.2,867.8v21.1c0,1.5,0,3.3,0.1,4.5h-2.8l-0.1-3h-0.1c-1,1.9-3.1,3.4-5.9,3.4c-4.2,0-7.5-3.6-7.5-8.9
		c0-5.8,3.6-9.4,7.8-9.4c2.7,0,4.5,1.3,5.3,2.7h0.1v-10.4H137.2z M134,883c0-0.4,0-0.9-0.1-1.3c-0.5-2-2.2-3.7-4.6-3.7
		c-3.3,0-5.2,2.9-5.2,6.7c0,3.5,1.7,6.4,5.1,6.4c2.1,0,4.1-1.4,4.6-3.8c0.1-0.4,0.1-0.9,0.1-1.4V883z"/>
	<path d="M152.1,893.3l-0.3-2.2h-0.1c-1,1.4-2.8,2.6-5.3,2.6c-3.5,0-5.3-2.5-5.3-5c0-4.2,3.7-6.5,10.5-6.5v-0.4c0-1.4-0.4-4-4-4
		c-1.6,0-3.3,0.5-4.5,1.3l-0.7-2.1c1.4-0.9,3.5-1.5,5.7-1.5c5.3,0,6.6,3.6,6.6,7.1v6.5c0,1.5,0.1,3,0.3,4.2H152.1z M151.6,884.4
		c-3.5-0.1-7.4,0.5-7.4,3.9c0,2.1,1.4,3,3,3c2.3,0,3.7-1.4,4.2-2.9c0.1-0.3,0.2-0.7,0.2-1V884.4z"/>
	<path d="M159.8,880.6c0-1.8,0-3.3-0.1-4.7h2.8l0.2,2.9h0.1c0.9-1.7,2.9-3.3,5.8-3.3c2.4,0,6.2,1.4,6.2,7.4v10.4h-3.2v-10
		c0-2.8-1-5.1-4-5.1c-2.1,0-3.7,1.5-4.2,3.2c-0.1,0.4-0.2,0.9-0.2,1.5v10.5h-3.2V880.6z"/>
	<path d="M203.2,884.5c0,6.4-4.5,9.2-8.7,9.2c-4.7,0-8.4-3.5-8.4-9c0-5.8,3.8-9.2,8.6-9.2C199.8,875.5,203.2,879.1,203.2,884.5z
		 M189.3,884.6c0,3.8,2.2,6.7,5.3,6.7c3,0,5.3-2.8,5.3-6.8c0-3-1.5-6.7-5.2-6.7C191,877.9,189.3,881.3,189.3,884.6z"/>
	<path d="M229.8,867.8v21.1c0,1.5,0,3.3,0.1,4.5h-2.8l-0.1-3h-0.1c-1,1.9-3.1,3.4-5.9,3.4c-4.2,0-7.5-3.6-7.5-8.9
		c0-5.8,3.6-9.4,7.8-9.4c2.7,0,4.5,1.3,5.3,2.7h0.1v-10.4H229.8z M226.7,883c0-0.4,0-0.9-0.1-1.3c-0.5-2-2.2-3.7-4.6-3.7
		c-3.3,0-5.2,2.9-5.2,6.7c0,3.5,1.7,6.4,5.1,6.4c2.1,0,4.1-1.4,4.6-3.8c0.1-0.4,0.1-0.9,0.1-1.4V883z"/>
	<path d="M238.6,871c0,1.1-0.8,1.9-2,1.9c-1.1,0-1.9-0.9-1.9-1.9c0-1.1,0.8-2,2-2C237.9,869,238.6,869.9,238.6,871z M235.1,893.3
		v-17.4h3.2v17.4H235.1z"/>
	<path d="M243.1,890.1c0.9,0.6,2.6,1.3,4.2,1.3c2.3,0,3.4-1.2,3.4-2.6c0-1.5-0.9-2.3-3.2-3.2c-3.1-1.1-4.6-2.8-4.6-4.9
		c0-2.8,2.3-5.1,6-5.1c1.8,0,3.3,0.5,4.3,1.1l-0.8,2.3c-0.7-0.4-1.9-1-3.6-1c-1.9,0-2.9,1.1-2.9,2.4c0,1.4,1,2.1,3.3,3
		c3,1.2,4.6,2.7,4.6,5.3c0,3.1-2.4,5.2-6.5,5.2c-1.9,0-3.7-0.5-4.9-1.2L243.1,890.1z"/>
	<path d="M272.4,888.6c0,1.8,0,3.4,0.1,4.8h-2.8l-0.2-2.8h-0.1c-0.8,1.4-2.7,3.2-5.8,3.2c-2.7,0-6-1.5-6-7.6v-10.2h3.2v9.6
		c0,3.3,1,5.5,3.9,5.5c2.1,0,3.6-1.5,4.2-2.9c0.2-0.5,0.3-1,0.3-1.6v-10.7h3.2V888.6z"/>
	<path d="M287.3,893.3l-0.3-2.2h-0.1c-1,1.4-2.8,2.6-5.3,2.6c-3.5,0-5.3-2.5-5.3-5c0-4.2,3.7-6.5,10.5-6.5v-0.4c0-1.4-0.4-4-4-4
		c-1.6,0-3.3,0.5-4.5,1.3l-0.7-2.1c1.4-0.9,3.5-1.5,5.7-1.5c5.3,0,6.6,3.6,6.6,7.1v6.5c0,1.5,0.1,3,0.3,4.2H287.3z M286.8,884.4
		c-3.5-0.1-7.4,0.5-7.4,3.9c0,2.1,1.4,3,3,3c2.3,0,3.7-1.4,4.2-2.9c0.1-0.3,0.2-0.7,0.2-1V884.4z"/>
	<path d="M310,867.8v21.1c0,1.5,0,3.3,0.1,4.5h-2.8l-0.1-3h-0.1c-1,1.9-3.1,3.4-5.9,3.4c-4.2,0-7.5-3.6-7.5-8.9
		c0-5.8,3.6-9.4,7.8-9.4c2.7,0,4.5,1.3,5.3,2.7h0.1v-10.4H310z M306.8,883c0-0.4,0-0.9-0.1-1.3c-0.5-2-2.2-3.7-4.6-3.7
		c-3.3,0-5.2,2.9-5.2,6.7c0,3.5,1.7,6.4,5.1,6.4c2.1,0,4.1-1.4,4.6-3.8c0.1-0.4,0.1-0.9,0.1-1.4V883z"/>
	<path d="M324.9,893.3l-0.3-2.2h-0.1c-1,1.4-2.8,2.6-5.3,2.6c-3.5,0-5.3-2.5-5.3-5c0-4.2,3.7-6.5,10.5-6.5v-0.4c0-1.4-0.4-4-4-4
		c-1.6,0-3.3,0.5-4.5,1.3l-0.7-2.1c1.4-0.9,3.5-1.5,5.7-1.5c5.3,0,6.6,3.6,6.6,7.1v6.5c0,1.5,0.1,3,0.3,4.2H324.9z M324.4,884.4
		c-3.5-0.1-7.4,0.5-7.4,3.9c0,2.1,1.4,3,3,3c2.3,0,3.7-1.4,4.2-2.9c0.1-0.3,0.2-0.7,0.2-1V884.4z"/>
	<path d="M332.6,880.6c0-1.8,0-3.3-0.1-4.7h2.8l0.2,2.9h0.1c0.9-1.7,2.9-3.3,5.8-3.3c2.4,0,6.2,1.4,6.2,7.4v10.4h-3.2v-10
		c0-2.8-1-5.1-4-5.1c-2.1,0-3.7,1.5-4.2,3.2c-0.1,0.4-0.2,0.9-0.2,1.5v10.5h-3.2V880.6z"/>
	<path d="M350.5,897.7c0.8-2.1,1.8-6,2.2-8.6l3.5-0.4c-0.8,3.1-2.4,7.1-3.4,8.7L350.5,897.7z"/>
	<path d="M368.8,875.9l3.8,10.3c0.4,1.2,0.8,2.5,1.1,3.6h0.1c0.3-1,0.7-2.4,1.1-3.6l3.5-10.2h3.3l-4.8,12.4c-2.3,6-3.8,9-6,10.9
		c-1.5,1.4-3.1,1.9-3.9,2.1l-0.8-2.7c0.8-0.3,1.8-0.8,2.8-1.5c0.9-0.7,1.9-1.9,2.7-3.5c0.1-0.3,0.3-0.6,0.3-0.8s-0.1-0.4-0.2-0.8
		l-6.4-16.1H368.8z"/>
	<path d="M66.7,933.8L66.7,933.8c-1,1.7-3,3.1-5.8,3.1c-4.1,0-7.4-3.5-7.4-8.8c0-6.5,4.2-9.4,7.9-9.4c2.7,0,4.5,1.3,5.4,3h0.1
		l0.1-2.6h3c-0.1,1.5-0.1,3-0.1,4.8v19.8h-3.2V933.8z M66.7,926.1c0-0.4,0-0.9-0.1-1.3c-0.5-1.9-2.2-3.6-4.5-3.6
		c-3.3,0-5.3,2.8-5.3,6.7c0,3.5,1.7,6.5,5.1,6.5c2.1,0,3.8-1.3,4.5-3.5c0.1-0.4,0.3-1,0.3-1.5V926.1z"/>
	<path d="M89.6,931.8c0,1.8,0,3.4,0.1,4.8H87l-0.2-2.8h-0.1c-0.8,1.4-2.7,3.2-5.8,3.2c-2.7,0-6-1.5-6-7.6v-10.2h3.2v9.6
		c0,3.3,1,5.5,3.9,5.5c2.1,0,3.6-1.5,4.2-2.9c0.2-0.5,0.3-1,0.3-1.6v-10.7h3.2V931.8z"/>
	<path d="M96.6,928.4c0.1,4.3,2.8,6,6,6c2.3,0,3.6-0.4,4.8-0.9l0.5,2.3c-1.1,0.5-3,1.1-5.8,1.1c-5.4,0-8.6-3.5-8.6-8.8
		s3.1-9.4,8.2-9.4c5.7,0,7.2,5,7.2,8.2c0,0.6-0.1,1.2-0.1,1.5H96.6z M105.9,926.1c0-2-0.8-5.1-4.4-5.1c-3.2,0-4.6,3-4.9,5.1H105.9z"
		/>
	<path d="M120.5,911h3.2v25.6h-3.2V911z"/>
	<path d="M138.7,936.5l-0.3-2.2h-0.1c-1,1.4-2.8,2.6-5.3,2.6c-3.5,0-5.3-2.5-5.3-5c0-4.2,3.7-6.5,10.5-6.5v-0.4c0-1.4-0.4-4-4-4
		c-1.6,0-3.3,0.5-4.5,1.3l-0.7-2.1c1.4-0.9,3.5-1.5,5.7-1.5c5.3,0,6.6,3.6,6.6,7.1v6.5c0,1.5,0.1,3,0.3,4.2H138.7z M138.2,927.6
		c-3.5-0.1-7.4,0.5-7.4,3.9c0,2.1,1.4,3,3,3c2.3,0,3.7-1.4,4.2-2.9c0.1-0.3,0.2-0.7,0.2-1V927.6z"/>
	<path d="M155.2,919.1l3.4,9.8c0.6,1.6,1,3,1.4,4.5h0.1c0.4-1.4,0.9-2.9,1.5-4.5l3.4-9.8h3.3l-6.8,17.4h-3l-6.6-17.4H155.2z"/>
	<path d="M174.9,914.2c0,1.1-0.8,1.9-2,1.9c-1.1,0-1.9-0.9-1.9-1.9c0-1.1,0.8-2,2-2C174.1,912.2,174.9,913.1,174.9,914.2z
		 M171.3,936.5v-17.4h3.2v17.4H171.3z"/>
	<path d="M194.8,919.1c-0.1,1.3-0.1,2.7-0.1,4.8V934c0,4-0.8,6.4-2.5,8c-1.7,1.6-4.1,2.1-6.3,2.1c-2.1,0-4.4-0.5-5.8-1.4l0.8-2.4
		c1.2,0.7,3,1.4,5.1,1.4c3.2,0,5.6-1.7,5.6-6.1v-1.9h-0.1c-1,1.6-2.8,2.9-5.5,2.9c-4.3,0-7.4-3.7-7.4-8.5c0-5.9,3.9-9.3,7.8-9.3
		c3,0,4.7,1.6,5.4,3h0.1l0.1-2.6H194.8z M191.5,926c0-0.5,0-1-0.2-1.4c-0.6-1.8-2.1-3.3-4.4-3.3c-3,0-5.2,2.6-5.2,6.6
		c0,3.4,1.7,6.3,5.1,6.3c1.9,0,3.7-1.2,4.4-3.2c0.2-0.5,0.3-1.2,0.3-1.7V926z"/>
	<path d="M203.2,914.2c0,1.1-0.8,1.9-2,1.9c-1.1,0-1.9-0.9-1.9-1.9c0-1.1,0.8-2,2-2C202.4,912.2,203.2,913.1,203.2,914.2z
		 M199.7,936.5v-17.4h3.2v17.4H199.7z"/>
	<path d="M208.1,911h3.2v25.6h-3.2V911z"/>
	<path d="M226.2,936.5l-0.3-2.2h-0.1c-1,1.4-2.8,2.6-5.3,2.6c-3.5,0-5.3-2.5-5.3-5c0-4.2,3.7-6.5,10.5-6.5v-0.4c0-1.4-0.4-4-4-4
		c-1.6,0-3.3,0.5-4.5,1.3l-0.7-2.1c1.4-0.9,3.5-1.5,5.7-1.5c5.3,0,6.6,3.6,6.6,7.1v6.5c0,1.5,0.1,3,0.3,4.2H226.2z M225.8,927.6
		c-3.5-0.1-7.4,0.5-7.4,3.9c0,2.1,1.4,3,3,3c2.3,0,3.7-1.4,4.2-2.9c0.1-0.3,0.2-0.7,0.2-1V927.6z"/>
	<path d="M233.9,923.8c0-1.8,0-3.3-0.1-4.7h2.8l0.2,2.9h0.1c0.9-1.7,2.9-3.3,5.8-3.3c2.4,0,6.2,1.4,6.2,7.4v10.4h-3.2v-10
		c0-2.8-1-5.1-4-5.1c-2.1,0-3.7,1.5-4.2,3.2c-0.1,0.4-0.2,0.9-0.2,1.5v10.5h-3.2V923.8z"/>
	<path d="M266.3,935.9c-0.8,0.4-2.7,1-5,1c-5.3,0-8.7-3.6-8.7-8.9c0-5.4,3.7-9.2,9.4-9.2c1.9,0,3.5,0.5,4.4,0.9l-0.7,2.4
		c-0.8-0.4-1.9-0.8-3.7-0.8c-4,0-6.2,3-6.2,6.6c0,4,2.6,6.5,6,6.5c1.8,0,3-0.5,3.9-0.9L266.3,935.9z"/>
	<path d="M273.6,914.2c0,1.1-0.8,1.9-2,1.9c-1.1,0-1.9-0.9-1.9-1.9c0-1.1,0.8-2,2-2C272.8,912.2,273.6,913.1,273.6,914.2z
		 M270.1,936.5v-17.4h3.2v17.4H270.1z"/>
	<path d="M288.1,936.5l-0.3-2.2h-0.1c-1,1.4-2.8,2.6-5.3,2.6c-3.5,0-5.3-2.5-5.3-5c0-4.2,3.7-6.5,10.5-6.5v-0.4c0-1.4-0.4-4-4-4
		c-1.6,0-3.3,0.5-4.5,1.3l-0.7-2.1c1.4-0.9,3.5-1.5,5.7-1.5c5.3,0,6.6,3.6,6.6,7.1v6.5c0,1.5,0.1,3,0.3,4.2H288.1z M287.7,927.6
		c-3.5-0.1-7.4,0.5-7.4,3.9c0,2.1,1.4,3,3,3c2.3,0,3.7-1.4,4.2-2.9c0.1-0.3,0.2-0.7,0.2-1V927.6z"/>
	<path d="M303,933.3c0.9,0.6,2.6,1.3,4.2,1.3c2.3,0,3.4-1.2,3.4-2.6c0-1.5-0.9-2.3-3.2-3.2c-3.1-1.1-4.6-2.8-4.6-4.9
		c0-2.8,2.3-5.1,6-5.1c1.8,0,3.3,0.5,4.3,1.1l-0.8,2.3c-0.7-0.4-1.9-1-3.6-1c-1.9,0-2.9,1.1-2.9,2.4c0,1.4,1,2.1,3.3,3
		c3,1.2,4.6,2.7,4.6,5.3c0,3.1-2.4,5.2-6.5,5.2c-1.9,0-3.7-0.5-4.9-1.2L303,933.3z"/>
	<path d="M319.5,928.4c0.1,4.3,2.8,6,6,6c2.3,0,3.6-0.4,4.8-0.9l0.5,2.3c-1.1,0.5-3,1.1-5.8,1.1c-5.4,0-8.6-3.5-8.6-8.8
		s3.1-9.4,8.2-9.4c5.7,0,7.2,5,7.2,8.2c0,0.6-0.1,1.2-0.1,1.5H319.5z M328.8,926.1c0-2-0.8-5.1-4.4-5.1c-3.2,0-4.6,3-4.9,5.1H328.8z
		"/>
	<path d="M54.8,967c0-1.8,0-3.3-0.1-4.7h2.8l0.1,2.8h0.1c1-1.7,2.6-3.2,5.5-3.2c2.4,0,4.2,1.4,4.9,3.5h0.1c0.5-1,1.2-1.7,1.9-2.3
		c1-0.8,2.2-1.2,3.9-1.2c2.3,0,5.7,1.5,5.7,7.6v10.3h-3.1v-9.9c0-3.3-1.2-5.4-3.8-5.4c-1.8,0-3.2,1.3-3.7,2.9
		c-0.1,0.4-0.3,1-0.3,1.6v10.8h-3.1v-10.4c0-2.8-1.2-4.8-3.6-4.8c-2,0-3.4,1.6-3.9,3.2c-0.2,0.5-0.3,1-0.3,1.5v10.5h-3.1V967z"/>
	<path d="M94.4,979.7l-0.3-2.2h-0.1c-1,1.4-2.8,2.6-5.3,2.6c-3.5,0-5.3-2.5-5.3-5c0-4.2,3.7-6.5,10.5-6.5v-0.4c0-1.4-0.4-4-4-4
		c-1.6,0-3.3,0.5-4.5,1.3l-0.7-2.1c1.4-0.9,3.5-1.5,5.7-1.5c5.3,0,6.6,3.6,6.6,7.1v6.5c0,1.5,0.1,3,0.3,4.2H94.4z M94,970.8
		c-3.5-0.1-7.4,0.5-7.4,3.9c0,2.1,1.4,3,3,3c2.3,0,3.7-1.4,4.2-2.9c0.1-0.3,0.2-0.7,0.2-1V970.8z"/>
	<path d="M102.2,967c0-1.8,0-3.3-0.1-4.7h2.8l0.2,2.9h0.1c0.9-1.7,2.9-3.3,5.8-3.3c2.4,0,6.2,1.4,6.2,7.4v10.4h-3.2v-10
		c0-2.8-1-5.1-4-5.1c-2.1,0-3.7,1.5-4.2,3.2c-0.1,0.4-0.2,0.9-0.2,1.5v10.5h-3.2V967z"/>
	<path d="M125.8,957.3v5h4.5v2.4h-4.5v9.4c0,2.2,0.6,3.4,2.4,3.4c0.8,0,1.4-0.1,1.8-0.2l0.1,2.4c-0.6,0.3-1.6,0.4-2.8,0.4
		c-1.5,0-2.7-0.5-3.4-1.3c-0.9-0.9-1.2-2.5-1.2-4.5v-9.5H120v-2.4h2.7v-4.2L125.8,957.3z"/>
	<path d="M135.5,971.6c0.1,4.3,2.8,6,6,6c2.3,0,3.6-0.4,4.8-0.9l0.5,2.3c-1.1,0.5-3,1.1-5.8,1.1c-5.4,0-8.6-3.5-8.6-8.8
		s3.1-9.4,8.2-9.4c5.7,0,7.2,5,7.2,8.2c0,0.6-0.1,1.2-0.1,1.5H135.5z M144.7,969.3c0-2-0.8-5.1-4.4-5.1c-3.2,0-4.6,3-4.9,5.1H144.7z
		"/>
	<path d="M151.7,967c0-1.8,0-3.3-0.1-4.7h2.8l0.2,2.9h0.1c0.9-1.7,2.9-3.3,5.8-3.3c2.4,0,6.2,1.4,6.2,7.4v10.4h-3.2v-10
		c0-2.8-1-5.1-4-5.1c-2.1,0-3.7,1.5-4.2,3.2c-0.1,0.4-0.2,0.9-0.2,1.5v10.5h-3.2V967z"/>
	<path d="M186.7,962.3c-0.1,1.3-0.1,2.7-0.1,4.8v10.1c0,4-0.8,6.4-2.5,8c-1.7,1.6-4.1,2.1-6.3,2.1c-2.1,0-4.4-0.5-5.8-1.4l0.8-2.4
		c1.2,0.7,3,1.4,5.1,1.4c3.2,0,5.6-1.7,5.6-6.1v-1.9h-0.1c-1,1.6-2.8,2.9-5.5,2.9c-4.3,0-7.4-3.7-7.4-8.5c0-5.9,3.9-9.2,7.8-9.2
		c3,0,4.7,1.6,5.4,3h0.1l0.1-2.6H186.7z M183.4,969.2c0-0.5,0-1-0.2-1.4c-0.6-1.8-2.1-3.3-4.4-3.3c-3,0-5.2,2.6-5.2,6.6
		c0,3.4,1.7,6.3,5.1,6.3c1.9,0,3.7-1.2,4.4-3.2c0.2-0.5,0.3-1.2,0.3-1.7V969.2z"/>
	<path d="M201.5,979.7l-0.3-2.2h-0.1c-1,1.4-2.8,2.6-5.3,2.6c-3.5,0-5.3-2.5-5.3-5c0-4.2,3.7-6.5,10.5-6.5v-0.4c0-1.4-0.4-4-4-4
		c-1.6,0-3.3,0.5-4.5,1.3l-0.7-2.1c1.4-0.9,3.5-1.5,5.7-1.5c5.3,0,6.6,3.6,6.6,7.1v6.5c0,1.5,0.1,3,0.3,4.2H201.5z M201,970.8
		c-3.5-0.1-7.4,0.5-7.4,3.9c0,2.1,1.4,3,3,3c2.3,0,3.7-1.4,4.2-2.9c0.1-0.3,0.2-0.7,0.2-1V970.8z"/>
	<path d="M226.5,979.7l-0.3-2.2h-0.1c-1,1.4-2.8,2.6-5.3,2.6c-3.5,0-5.3-2.5-5.3-5c0-4.2,3.7-6.5,10.5-6.5v-0.4c0-1.4-0.4-4-4-4
		c-1.6,0-3.3,0.5-4.5,1.3l-0.7-2.1c1.4-0.9,3.5-1.5,5.7-1.5c5.3,0,6.6,3.6,6.6,7.1v6.5c0,1.5,0.1,3,0.3,4.2H226.5z M226,970.8
		c-3.5-0.1-7.4,0.5-7.4,3.9c0,2.1,1.4,3,3,3c2.3,0,3.7-1.4,4.2-2.9c0.1-0.3,0.2-0.7,0.2-1V970.8z"/>
	<path d="M234.2,954.2h3.2v25.6h-3.2V954.2z"/>
	<path d="M244.4,971.6c0.1,4.3,2.8,6,6,6c2.3,0,3.6-0.4,4.8-0.9l0.5,2.3c-1.1,0.5-3,1.1-5.8,1.1c-5.4,0-8.6-3.5-8.6-8.8
		s3.1-9.4,8.2-9.4c5.7,0,7.2,5,7.2,8.2c0,0.6-0.1,1.2-0.1,1.5H244.4z M253.7,969.3c0-2-0.8-5.1-4.4-5.1c-3.2,0-4.6,3-4.9,5.1H253.7z
		"/>
	<path d="M260.7,967.7c0-2.1,0-3.8-0.1-5.4h2.8l0.1,3.4h0.1c0.8-2.3,2.7-3.8,4.8-3.8c0.4,0,0.6,0,0.9,0.1v3
		c-0.3-0.1-0.6-0.1-1.1-0.1c-2.2,0-3.8,1.7-4.2,4.1c-0.1,0.4-0.1,0.9-0.1,1.5v9.3h-3.1V967.7z"/>
	<path d="M277.1,957.3v5h4.5v2.4h-4.5v9.4c0,2.2,0.6,3.4,2.4,3.4c0.8,0,1.4-0.1,1.8-0.2l0.1,2.4c-0.6,0.3-1.6,0.4-2.8,0.4
		c-1.5,0-2.7-0.5-3.4-1.3c-0.9-0.9-1.2-2.5-1.2-4.5v-9.5h-2.7v-2.4h2.7v-4.2L277.1,957.3z"/>
	<path d="M294.9,979.7l-0.3-2.2h-0.1c-1,1.4-2.8,2.6-5.3,2.6c-3.5,0-5.3-2.5-5.3-5c0-4.2,3.7-6.5,10.5-6.5v-0.4c0-1.4-0.4-4-4-4
		c-1.6,0-3.3,0.5-4.5,1.3l-0.7-2.1c1.4-0.9,3.5-1.5,5.7-1.5c5.3,0,6.6,3.6,6.6,7.1v6.5c0,1.5,0.1,3,0.3,4.2H294.9z M294.4,970.8
		c-3.5-0.1-7.4,0.5-7.4,3.9c0,2.1,1.4,3,3,3c2.3,0,3.7-1.4,4.2-2.9c0.1-0.3,0.2-0.7,0.2-1V970.8z"/>
	<path d="M301.8,977.8c0-1.3,0.9-2.3,2.2-2.3s2.1,0.9,2.1,2.3c0,1.3-0.8,2.3-2.2,2.3C302.7,980.1,301.8,979.1,301.8,977.8z"/>
</g>
<g>
	<path d="M789.3,840.7c0-2.1,1.7-3.8,3.8-3.8s3.8,1.7,3.8,3.7c0,2.1-1.7,3.8-3.8,3.8C791,844.5,789.3,842.8,789.3,840.7z"/>
	<path d="M811.7,825.8V836h11.7v-10.2h3.2v24.3h-3.2v-11.4h-11.7v11.4h-3.1v-24.3H811.7z"/>
	<path d="M846.5,845.4c0,1.8,0,3.4,0.1,4.8h-2.8l-0.2-2.8h-0.1c-0.8,1.4-2.7,3.2-5.8,3.2c-2.7,0-6-1.5-6-7.6v-10.2h3.2v9.6
		c0,3.3,1,5.5,3.9,5.5c2.1,0,3.6-1.5,4.2-2.9c0.2-0.5,0.3-1,0.3-1.6v-10.7h3.2V845.4z"/>
	<path d="M851.7,837.4c0-1.8,0-3.3-0.1-4.7h2.8l0.1,2.8h0.1c1-1.7,2.6-3.2,5.5-3.2c2.4,0,4.2,1.4,4.9,3.5h0.1c0.5-1,1.2-1.7,1.9-2.3
		c1-0.8,2.2-1.2,3.9-1.2c2.3,0,5.7,1.5,5.7,7.6v10.3h-3.1v-9.9c0-3.3-1.2-5.4-3.8-5.4c-1.8,0-3.2,1.3-3.7,2.9
		c-0.1,0.4-0.3,1-0.3,1.6v10.8h-3.1v-10.4c0-2.8-1.2-4.8-3.6-4.8c-2,0-3.4,1.6-3.9,3.2c-0.2,0.5-0.3,1-0.3,1.5v10.5h-3.1V837.4z"/>
	<path d="M891.4,850.1l-0.3-2.2H891c-1,1.4-2.8,2.6-5.3,2.6c-3.5,0-5.3-2.5-5.3-5c0-4.2,3.7-6.5,10.5-6.5v-0.4c0-1.4-0.4-4-4-4
		c-1.6,0-3.3,0.5-4.5,1.3l-0.7-2.1c1.4-0.9,3.5-1.5,5.7-1.5c5.3,0,6.6,3.6,6.6,7.1v6.5c0,1.5,0.1,3,0.3,4.2H891.4z M890.9,841.2
		c-3.5-0.1-7.4,0.5-7.4,3.9c0,2.1,1.4,3,3,3c2.3,0,3.7-1.4,4.2-2.9c0.1-0.3,0.2-0.7,0.2-1V841.2z"/>
	<path d="M899.1,837.4c0-1.8,0-3.3-0.1-4.7h2.8l0.2,2.9h0.1c0.9-1.7,2.9-3.3,5.8-3.3c2.4,0,6.2,1.4,6.2,7.4v10.4h-3.2v-10
		c0-2.8-1-5.1-4-5.1c-2.1,0-3.7,1.5-4.2,3.2c-0.1,0.4-0.2,0.9-0.2,1.5v10.5h-3.2V837.4z"/>
	<path d="M928.7,850.1l-0.3-2.2h-0.1c-1,1.4-2.8,2.6-5.3,2.6c-3.5,0-5.3-2.5-5.3-5c0-4.2,3.7-6.5,10.5-6.5v-0.4c0-1.4-0.4-4-4-4
		c-1.6,0-3.3,0.5-4.5,1.3l-0.7-2.1c1.4-0.9,3.5-1.5,5.7-1.5c5.3,0,6.6,3.6,6.6,7.1v6.5c0,1.5,0.1,3,0.3,4.2H928.7z M928.3,841.2
		c-3.5-0.1-7.4,0.5-7.4,3.9c0,2.1,1.4,3,3,3c2.3,0,3.7-1.4,4.2-2.9c0.1-0.3,0.2-0.7,0.2-1V841.2z"/>
	<path d="M789.3,883.9c0-2.1,1.7-3.8,3.8-3.8s3.8,1.7,3.8,3.7c0,2.1-1.7,3.8-3.8,3.8C791,887.7,789.3,886,789.3,883.9z"/>
	<path d="M812.4,885.7l-2.5,7.6h-3.2l8.2-24.3h3.8l8.3,24.3h-3.3l-2.6-7.6H812.4z M820.4,883.2l-2.4-7c-0.5-1.6-0.9-3-1.3-4.4h-0.1
		c-0.4,1.4-0.8,2.9-1.2,4.4l-2.4,7H820.4z"/>
	<path d="M830.3,880.6c0-1.8,0-3.3-0.1-4.7h2.8l0.2,2.9h0.1c0.9-1.7,2.9-3.3,5.8-3.3c2.4,0,6.2,1.4,6.2,7.4v10.4H842v-10
		c0-2.8-1-5.1-4-5.1c-2.1,0-3.7,1.5-4.2,3.2c-0.1,0.4-0.2,0.9-0.2,1.5v10.5h-3.2V880.6z"/>
	<path d="M853.8,871c0,1.1-0.8,1.9-2,1.9c-1.1,0-1.9-0.9-1.9-1.9c0-1.1,0.8-2,2-2C853.1,869,853.8,869.9,853.8,871z M850.3,893.3
		v-17.4h3.2v17.4H850.3z"/>
	<path d="M858.7,880.6c0-1.8,0-3.3-0.1-4.7h2.8l0.1,2.8h0.1c1-1.7,2.6-3.2,5.5-3.2c2.4,0,4.2,1.4,4.9,3.5h0.1c0.5-1,1.2-1.7,1.9-2.3
		c1-0.8,2.2-1.2,3.9-1.2c2.3,0,5.7,1.5,5.7,7.6v10.3h-3.1v-9.9c0-3.3-1.2-5.4-3.8-5.4c-1.8,0-3.2,1.3-3.7,2.9
		c-0.1,0.4-0.3,1-0.3,1.6v10.8h-3.1v-10.4c0-2.8-1.2-4.8-3.6-4.8c-2,0-3.4,1.6-3.9,3.2c-0.2,0.5-0.3,1-0.3,1.5v10.5h-3.1V880.6z"/>
	<path d="M898.4,893.3l-0.3-2.2h-0.1c-1,1.4-2.8,2.6-5.3,2.6c-3.5,0-5.3-2.5-5.3-5c0-4.2,3.7-6.5,10.5-6.5v-0.4c0-1.4-0.4-4-4-4
		c-1.6,0-3.3,0.5-4.5,1.3l-0.7-2.1c1.4-0.9,3.5-1.5,5.7-1.5c5.3,0,6.6,3.6,6.6,7.1v6.5c0,1.5,0.1,3,0.3,4.2H898.4z M897.9,884.4
		c-3.5-0.1-7.4,0.5-7.4,3.9c0,2.1,1.4,3,3,3c2.3,0,3.7-1.4,4.2-2.9c0.1-0.3,0.2-0.7,0.2-1V884.4z"/>
	<path d="M906.1,867.8h3.2v25.6h-3.2V867.8z"/>
	<path d="M789.3,927.1c0-2.1,1.7-3.8,3.8-3.8s3.8,1.7,3.8,3.7c0,2.1-1.7,3.8-3.8,3.8C791,930.9,789.3,929.2,789.3,927.1z"/>
	<path d="M821.1,925.1h-9.4v8.7h10.5v2.6h-13.6v-24.3h13.1v2.6h-10v7.7h9.4V925.1z"/>
	<path d="M826.1,911h3.2v25.6h-3.2V911z"/>
	<path d="M836.4,928.4c0.1,4.3,2.8,6,6,6c2.3,0,3.6-0.4,4.8-0.9l0.5,2.3c-1.1,0.5-3,1.1-5.8,1.1c-5.4,0-8.6-3.5-8.6-8.8
		s3.1-9.4,8.2-9.4c5.7,0,7.2,5,7.2,8.2c0,0.6-0.1,1.2-0.1,1.5H836.4z M845.7,926.1c0-2-0.8-5.1-4.4-5.1c-3.2,0-4.6,3-4.9,5.1H845.7z
		 M846.4,911.6l-4.4,5.1h-2.3l3.2-5.1H846.4z"/>
	<path d="M865.1,935.9c-0.8,0.4-2.7,1-5,1c-5.3,0-8.7-3.6-8.7-8.9c0-5.4,3.7-9.2,9.4-9.2c1.9,0,3.5,0.5,4.4,0.9l-0.7,2.4
		c-0.8-0.4-1.9-0.8-3.7-0.8c-4,0-6.2,3-6.2,6.6c0,4,2.6,6.5,6,6.5c1.8,0,3-0.5,3.9-0.9L865.1,935.9z"/>
	<path d="M873.1,914.1v5h4.5v2.4h-4.5v9.4c0,2.2,0.6,3.4,2.4,3.4c0.8,0,1.4-0.1,1.8-0.2l0.1,2.4c-0.6,0.3-1.6,0.4-2.8,0.4
		c-1.5,0-2.7-0.5-3.4-1.3c-0.9-0.9-1.2-2.5-1.2-4.5v-9.5h-2.7v-2.4h2.7v-4.2L873.1,914.1z"/>
	<path d="M881.2,924.5c0-2.1,0-3.8-0.1-5.4h2.8l0.1,3.4h0.1c0.8-2.3,2.7-3.8,4.8-3.8c0.4,0,0.6,0,0.9,0.1v3
		c-0.3-0.1-0.6-0.1-1.1-0.1c-2.2,0-3.8,1.7-4.2,4.1c-0.1,0.4-0.1,0.9-0.1,1.5v9.3h-3.1V924.5z"/>
	<path d="M896.6,914.2c0,1.1-0.8,1.9-2,1.9c-1.1,0-1.9-0.9-1.9-1.9c0-1.1,0.8-2,2-2C895.9,912.2,896.6,913.1,896.6,914.2z
		 M893.1,936.5v-17.4h3.2v17.4H893.1z"/>
	<path d="M913.9,935.9c-0.8,0.4-2.7,1-5,1c-5.3,0-8.7-3.6-8.7-8.9c0-5.4,3.7-9.2,9.4-9.2c1.9,0,3.5,0.5,4.4,0.9l-0.7,2.4
		c-0.8-0.4-1.9-0.8-3.7-0.8c-4,0-6.2,3-6.2,6.6c0,4,2.6,6.5,6,6.5c1.8,0,3-0.5,3.9-0.9L913.9,935.9z"/>
	<path d="M927.3,936.5l-0.3-2.2h-0.1c-1,1.4-2.8,2.6-5.3,2.6c-3.5,0-5.3-2.5-5.3-5c0-4.2,3.7-6.5,10.5-6.5v-0.4c0-1.4-0.4-4-4-4
		c-1.6,0-3.3,0.5-4.5,1.3l-0.7-2.1c1.4-0.9,3.5-1.5,5.7-1.5c5.3,0,6.6,3.6,6.6,7.1v6.5c0,1.5,0.1,3,0.3,4.2H927.3z M926.8,927.6
		c-3.5-0.1-7.4,0.5-7.4,3.9c0,2.1,1.4,3,3,3c2.3,0,3.7-1.4,4.2-2.9c0.1-0.3,0.2-0.7,0.2-1V927.6z"/>
	<path d="M789.3,970.3c0-2.1,1.7-3.8,3.8-3.8s3.8,1.7,3.8,3.7c0,2.1-1.7,3.8-3.8,3.8C791,974.1,789.3,972.4,789.3,970.3z"/>
	<path d="M821.1,968.3h-9.4v8.7h10.5v2.6h-13.6v-24.3h13.1v2.6h-10v7.7h9.4V968.3z"/>
	<path d="M826.1,954.2h3.2v25.6h-3.2V954.2z"/>
	<path d="M836.4,971.6c0.1,4.3,2.8,6,6,6c2.3,0,3.6-0.4,4.8-0.9l0.5,2.3c-1.1,0.5-3,1.1-5.8,1.1c-5.4,0-8.6-3.5-8.6-8.8
		s3.1-9.4,8.2-9.4c5.7,0,7.2,5,7.2,8.2c0,0.6-0.1,1.2-0.1,1.5H836.4z M845.7,969.3c0-2-0.8-5.1-4.4-5.1c-3.2,0-4.6,3-4.9,5.1H845.7z
		"/>
	<path d="M865.1,979.1c-0.8,0.4-2.7,1-5,1c-5.3,0-8.7-3.6-8.7-8.9c0-5.4,3.7-9.3,9.4-9.3c1.9,0,3.5,0.5,4.4,0.9l-0.7,2.4
		c-0.8-0.4-1.9-0.8-3.7-0.8c-4,0-6.2,3-6.2,6.6c0,4,2.6,6.5,6,6.5c1.8,0,3-0.5,3.9-0.9L865.1,979.1z"/>
	<path d="M873.1,957.3v5h4.5v2.4h-4.5v9.4c0,2.2,0.6,3.4,2.4,3.4c0.8,0,1.4-0.1,1.8-0.2l0.1,2.4c-0.6,0.3-1.6,0.4-2.8,0.4
		c-1.5,0-2.7-0.5-3.4-1.3c-0.9-0.9-1.2-2.5-1.2-4.5v-9.5h-2.7v-2.4h2.7v-4.2L873.1,957.3z"/>
	<path d="M881.2,967.7c0-2.1,0-3.8-0.1-5.4h2.8l0.1,3.4h0.1c0.8-2.3,2.7-3.8,4.8-3.8c0.4,0,0.6,0,0.9,0.1v3
		c-0.3-0.1-0.6-0.1-1.1-0.1c-2.2,0-3.8,1.7-4.2,4.1c-0.1,0.4-0.1,0.9-0.1,1.5v9.3h-3.1V967.7z"/>
	<path d="M908.3,970.9c0,6.4-4.5,9.2-8.7,9.2c-4.7,0-8.4-3.5-8.4-9c0-5.8,3.8-9.2,8.6-9.2C905,961.9,908.3,965.5,908.3,970.9z
		 M894.5,971c0,3.8,2.2,6.7,5.3,6.7c3,0,5.3-2.8,5.3-6.8c0-3-1.5-6.7-5.2-6.7C896.1,964.3,894.5,967.7,894.5,971z M904.6,954.8
		l-4.4,5.1h-2.3l3.2-5.1H904.6z"/>
	<path d="M912.3,967c0-1.8,0-3.3-0.1-4.7h2.8l0.2,2.9h0.1c0.9-1.7,2.9-3.3,5.8-3.3c2.4,0,6.2,1.4,6.2,7.4v10.4H924v-10
		c0-2.8-1-5.1-4-5.1c-2.1,0-3.7,1.5-4.2,3.2c-0.1,0.4-0.2,0.9-0.2,1.5v10.5h-3.2V967z"/>
	<path d="M935.8,957.4c0,1.1-0.8,1.9-2,1.9c-1.1,0-1.9-0.9-1.9-1.9c0-1.1,0.8-2,2-2C935.1,955.4,935.8,956.3,935.8,957.4z
		 M932.3,979.7v-17.4h3.2v17.4H932.3z"/>
	<path d="M953.2,979.1c-0.8,0.4-2.7,1-5,1c-5.3,0-8.7-3.6-8.7-8.9c0-5.4,3.7-9.3,9.4-9.3c1.9,0,3.5,0.5,4.4,0.9l-0.7,2.4
		c-0.8-0.4-1.9-0.8-3.7-0.8c-4,0-6.2,3-6.2,6.6c0,4,2.6,6.5,6,6.5c1.8,0,3-0.5,3.9-0.9L953.2,979.1z"/>
	<path d="M966.5,979.7l-0.3-2.2h-0.1c-1,1.4-2.8,2.6-5.3,2.6c-3.5,0-5.3-2.5-5.3-5c0-4.2,3.7-6.5,10.5-6.5v-0.4c0-1.4-0.4-4-4-4
		c-1.6,0-3.3,0.5-4.5,1.3l-0.7-2.1c1.4-0.9,3.5-1.5,5.7-1.5c5.3,0,6.6,3.6,6.6,7.1v6.5c0,1.5,0.1,3,0.3,4.2H966.5z M966.1,970.8
		c-3.5-0.1-7.4,0.5-7.4,3.9c0,2.1,1.4,3,3,3c2.3,0,3.7-1.4,4.2-2.9c0.1-0.3,0.2-0.7,0.2-1V970.8z"/>
</g>
</svg>
